<mxfile host="Electron" modified="2023-12-16T12:20:47.252Z" agent="Mozilla/5.0 (Macintosh; Intel Mac OS X 10_15_7) AppleWebKit/537.36 (KHTML, like Gecko) draw.io/22.1.2 Chrome/114.0.5735.289 Electron/25.9.4 Safari/537.36" etag="xeEzxkJOObI43NzVvexR" version="22.1.2" type="device">
  <diagram id="W8LFc5jbOeNs_f_8PHdX" name="context">
    <mxGraphModel dx="1919" dy="680" grid="1" gridSize="10" guides="1" tooltips="1" connect="1" arrows="1" fold="1" page="1" pageScale="1" pageWidth="827" pageHeight="1169" math="0" shadow="0">
      <root>
        <mxCell id="0" />
        <mxCell id="1" parent="0" />
        <mxCell id="DzNfyVh7k3ZSekCiGxKr-7" value="" style="shape=image;verticalLabelPosition=bottom;labelBackgroundColor=default;verticalAlign=top;aspect=fixed;imageAspect=0;image=data:image/jpeg,/9j/4AAQSkZJRgABAQAAkACQAAD/4QCMRXhpZgAATU0AKgAAAAgABQESAAMAAAABAAEAAAEaAAUAAAABAAAASgEbAAUAAAABAAAAUgEoAAMAAAABAAIAAIdpAAQAAAABAAAAWgAAAAAAAACQAAAAAQAAAJAAAAABAAOgAQADAAAAAQABAACgAgAEAAAAAQAAAqmgAwAEAAAAAQAAAmwAAAAA/8AAEQgCbAKpAwEiAAIRAQMRAf/EAB8AAAEFAQEBAQEBAAAAAAAAAAABAgMEBQYHCAkKC//EALUQAAIBAwMCBAMFBQQEAAABfQECAwAEEQUSITFBBhNRYQcicRQygZGhCCNCscEVUtHwJDNicoIJChYXGBkaJSYnKCkqNDU2Nzg5OkNERUZHSElKU1RVVldYWVpjZGVmZ2hpanN0dXZ3eHl6g4SFhoeIiYqSk5SVlpeYmZqio6Slpqeoqaqys7S1tre4ubrCw8TFxsfIycrS09TV1tfY2drh4uPk5ebn6Onq8fLz9PX29/j5+v/EAB8BAAMBAQEBAQEBAQEAAAAAAAABAgMEBQYHCAkKC//EALURAAIBAgQEAwQHBQQEAAECdwABAgMRBAUhMQYSQVEHYXETIjKBCBRCkaGxwQkjM1LwFWJy0QoWJDThJfEXGBkaJicoKSo1Njc4OTpDREVGR0hJSlNUVVZXWFlaY2RlZmdoaWpzdHV2d3h5eoKDhIWGh4iJipKTlJWWl5iZmqKjpKWmp6ipqrKztLW2t7i5usLDxMXGx8jJytLT1NXW19jZ2uLj5OXm5+jp6vLz9PX29/j5+v/bAEMAAgICAgICAwICAwUDAwMFBgUFBQUGCAYGBgYGCAoICAgICAgKCgoKCgoKCgwMDAwMDA4ODg4ODw8PDw8PDw8PD//bAEMBAgICBAQEBwQEBxALCQsQEBAQEBAQEBAQEBAQEBAQEBAQEBAQEBAQEBAQEBAQEBAQEBAQEBAQEBAQEBAQEBAQEP/dAAQAK//aAAwDAQACEQMRAD8A/fyiiigAooooAKKKKACiiigAooooAKKKKACiiigAooooAKKKKACiiigAooooAKKKKACiiigAooooAKKKKACiiigAooooAKKKKACiiigAooooAKKKKACiiigAooooAKKKKACiiigAooooAKKKKACiiigAooooAKKKKACiiigAooooAKKKKACiiigAooooAKKKKACiiigAooooAKKKKACiiigAooooAKKKKACiiigD/9D9/KKKKACiiigAooooAKKKKACiiigAooooAKKKKACiiigAooooAKKKKACiiigAooooAKKKKACiiigAooooAKKKKACiiigAooooAKKKKACiiigAooooAKKKKACiiigAooooAKKKKACiiigAooooAKKKKACiiigAooooAKKKKACiiigAooooAKKKKACiiigAooooAKKKKACiiigAooooAKKKKACiiigAooooAKKKKAP/0f38ooooAKKKKACiiigAooooAKKKKACiiigAooooAKKKKACiiigAooooAKKKKACiiigAooooAKKKM0AFFJmjIoAWiq11eWllA91ezJbwRjLPIwRVHqScAV57qPxl+E2lW013feMdIRLcFnAvoGbjrhQ+SaLAel0V+ePiH/gqP+x74Z1ObSb/AMS3cs8DFWNvYyzJkejJkV8xfE3/AILOfC3QroxfDHw1ceJoez3LNZfmCpp2A/arI/CjNfzva3/wWz8WXmny2+jfDe3sLl1ISZr5pdh7HaYgDXyhr3/BVj9r7UrtpdI8RW+mQHpGtnBJj8XTNCQH9aGR3qMzRDq4/MV/Hl4m/wCCjn7X3i7TZdI1jxsWtpRhhDbQwt+aIDXy9q3xZ+J+t3DXOpeKdRkc88XUqDn2DCnygf3UT6hY20ZluLiOJAM7mYAY/E1414p/aT+BHgq6+xeKvG2nabP02yyHOR9Aa/ikbxx42b5X8Q6iwPXN5L/8VWHdapqV63mXt7NcP6ySs5/M5o5QP7Tf+Gy/2Xf+ikaV/wB/G/8Aia6TQP2nPgD4pMg8P+OdNvfK+9skPH5gV/EIZpM/65v++jVm31G/tM/ZbyWHPXZIy5+uDT5RXP7pdO+LPw11a7Wx07xHZTzvwEWUZNdjBrOk3LFLe8hkYdQsin+Rr+DWLxF4hicSQ6rdow6FZ3BH45q8njTxmh3Jr2oKT6XUv/xVLlC5/eQLm3PIlX/voUonhPSRT+Ir+DoeO/HHQeI9SAH/AE+Tf/FVctfiX8RrF/MtfFGpoR/0+TEfq9Fh3P7uxIh6MD+NOBB6V/FR4F/bH/aQ+HMol8L+M7mJgMfvcTj/AMiA17TH/wAFRf20kAH/AAmkTAf3rG2P5nZRygf13ZFGRX8tvgH/AIK9ftGeH7lJPGkVr4miUjcmxLbd7ZRDivo21/4LeX5mRb34XRJHkB2TUWJA7kAxc/nSaA/oFyKWvyn8Hf8ABXv9lrVdIiufGFxqGh6g2N1ulnLcKPo6rjivrH4U/to/s4/GS2kufCHi+2jWLqL9hZNx7TFaLAfU9Fc/ovizwv4kDnw7q9nqgi+/9luI59v18tjit/NIBaKTcPypaACiiigAooooAKKKKACiiigAooooAKKKKACiiigAooooAKKKKACiiigAooooAKKKKACiiigAooooAKKKKAP/0v38ooooAKKKKACiiigAooooAKKKKACiiigAooooAKKKKACiiigAooooAKKKKACikzUNxdW9pA91dSLDDGCzO5CqoHck8AUBYm3CjINfI3xk/bh/Zu+B17/ZHjXxXF/aUkRligtVa53cZALRBlXJ4yTX5HfF/wD4LO+LdZ0mfS/g54VXw9frN8l/eSJdq0Q4/wBSUABPXkmnYD+ihpERC7naqjJJ4AA65r5Y8c/trfsxfD+PU4tb+IGlnUdMRmexjnDXLMv8Cr/ePTGa/lF+LP7XH7Qfxn14eIvGfi+7juBGI9lhI1lFgDH+rhKj6186TzTXcz3NzK00sh3M7tuYn1JOSafKK5/R34+/4LQ/CyDQr2P4ceFdTuNaUEW7Xyxralh3bZIXwfYV8IfEL/grr+0v438PT6Hplppvhd5jxd6cJVuE/wB1ndh+lfmLp3h7XtYG7SdMub1QesMLyD/x0Gvqb4f/ALCf7TvxK06HWPDHg+RrWf7r3EkduQP92Qqf0raFCTdkjmq42jDSckjjvEX7XH7Tfi7TZtI8TfErWdRsrkFZIZbksjA9QR6V87OWkZpZWLOxJJPOSe+a/ZPwF/wR2+JmvaZDd+NPFVv4dumA3W4g+0lfUblcD9K+xvh7/wAEiPgXoenCL4gX114jvO8sUr2q/wDfKsa1WEl3R5tTP6KXu3b8kfzSIP7o6VoabpOp6xcLZaVaS3czkAJGpYkntwDX9evw8/YO/Zi+GU32jw74UWaQnOb1zdc/STNfRNh8MPhtpZD2HhXS4WXoVsoAfzCZrSOFju2ck8/nzNRh6O/6H8e2k/sn/tI69Atzo/w61i7jfBDJbNg5969k8F/8E5/2p/F8yxXPhSfQ0bHz3ytGoz9M1/WvDbW1sgjt4UiRegRQoH4DFWMn14rRUoKV7XOOec4iUGrpPul/mfzP2H/BHv8AaHvFV7jxBott6qzzkj8o8V614X/4I0eLDJH/AMJh4wtBHxv+yFs/hvSv6BefWk59aqMYp35TnlmGIlDlnUfqtD8cLD/gjV8HVQf2n4t1h27+UYQP1Q111h/wR+/Z1tVPn63rN0SMfPJFx+SCv1hxS0NK97Ixp4irFcvO36s/Kj/h0L+zf/0E9X/7+R//ABNQXf8AwSC/ZxuYhFFq2sQEfxLJHk/mtfq9RQ4otYyp0kz8jW/4I4fs9lSF8R64D6+ZD/8AG6ov/wAEa/gRt/d+K9cz7vB/8br9gKMUuRdipY+s/tv7z8Zr3/gjT8J2V/7P8X6qrY+XzDERn3wgrzHxH/wRnujvPhbxgmf4ftR/ntWv3norRtWtyr7jmhUqqXN7WXpfQ/m41D/gjb8dYZD/AGf4p0WSPtvaYH9ENef+JP8Agk5+0roNs9zazadqxUZ2WryFj9AyCv6h8e9Llh0NZRpQW8TsnmeJduWdvkmfx1az+wv+1Zo07xN8OtVulQ43wwFgff1ryLxf8C/jD4ChE/jHwhqWkxetxAyD88V/biST15rJ1HQNA1dPK1bTLW+X0nhSUfkwNL2FPrc6f7br3Wz77n8KOx0bawZT0I6VGQh6V/bT4i+APwZ8U2U1hq/g/TDHOCGMVpDE+D1wyqCK+QPEn/BK/wDZP1tri4sdIvNPuZ9xDpeSbVY9wmQMA9qzeFXRnZT4hd3zU9PJ3/A/mi+Hnxo+LHwlkmm+Gviu/wDDjXH+sNnMY931A4r7R+Ef/BUr9qL4XwXNvqupR+NhcHIbWWklZPZSjLX1t4y/4Iy6nG93e+DvHcboNzQ20tqc+y79/wCuK+CviH/wTz/aj+HVpe6tqXhY3WmWe4ie3mjlLIDwQisX5HbFZTwst1qd1POsO3Zu3qfqf8Kv+C0HgO70K1g+MHha8tdckk2ySaYqNaBScA/vZN4wOtfp18Mf2sv2e/i7NY6b4H8badf6rexh1sFnX7SmeqsnYg8Gv4rtT8P69op26xptzZYJH7+Jo+Rx/EBVfTNU1TRbtNR0W8msLuP7ktvI0Ug+jIQf1rnlCzsenCpGSvF3P75M4ozX8dXwV/4KEftNfA7Tk0Lw/wCIv7S0kzebLFqMf2yVgTlgss25lyOBjpX7M/BD/gr78FPHcstl8U7CXwNOpRIXLNeRzMepJjjBQZ9alos/X2iua8NeMfC/jDToNU8Mapb6lb3ESTKYJUchJACpYAkjg966TIxmkAtFFFABRRRQAUUUUAFFFFABRRRQAUUUUAFFFFABRRRQAUUUUAFFFFABRRRQAUUUUAFFFFAH/9P9/KKKKACiiigAooooAKKKKACiiigAooooAKKKKACiiigAooooAKKTIqC4u7a0iae6kWGKMFmd2CqoHUkk4AoAnz6c1j674h0PwvpF34g8RX0Om6bYIZLi4uHEcUSDjLM2AB9a/ND9qX/gqF8IPgjPeeEvAy/8Jj4nSOaJxbNthsrgL+7MpdfnAPJCnpX8+Hx1/bB+Pf7Q2pNe+PfEcsVtLAts9jYM9rZSRqc/PArbGb1JHanyhc/fP9o//grD8GvhW+q+Gvhgn/CZ+JbPyvJlQhtKk3jc3+kRvuyo4OB1/OvxQ+O3/BQf9o745z6naXmvyeH/AA/qkRhl0iwb/RWRuoy4L8/WviOC3mndYreNpHbgBAWPvwK+1vgR+wL+0D8dG0/UrDRn0bw9fEf8TK6AEaqe/l7g5/KtYUZPY5q+MpUleoz4nZi5Jclj75P1rvvBPwp+JnxKdx4B8M3+v+UwVzZ27zBCf7xUHH41/RX8DP8AglB8F/ANtZan8S7mTxXrtrIZC0bGK0YdgYW3Zx7mv0w8L+A/BXgq2Nn4R0Oy0eFsEi0gjh3EDGW2AZPua644ZdWeFXz+T0ox+b/yP5wPhT/wSX+Ovi+XTtS8cXdn4f0m5VZJUEjfbEVhnBjZNoYehNfpZ8J/+CUn7PPgC5a88VvceNC4H7rUFRY1PsI8V+n5JI5JNIM963sl8KPHq4qrU0qSb8tl+B5j4B+C3wq+Ftn/AGf8PfDNnolv/dgj6/ixJ/WvTgFAwAFHoKMUtNyb3ZzJWbaQmOc0c+tLRSAKKKKBBRRRQAUUUUAFFFFABRRRQAUUUUAFFFFABRRSZoAWiiigApKUZPak5ouNIX603IIPRh0wRS0vAoKVzyr4ifBL4TfFyzWy+Ivhiz1yKP7omU/L9NpFfm58Zv8Agkf8JPGMt9rnw11OfwzdtG3kWCBPsfmfw5LBnC/Sv12yBkYxS079wpTcXeDs/LQ/kc+NH/BPf9pH4MmOW60E+I7SXefO0hZLlY1XvJhBt4r4gngmtpnt7qNopIyVZXBBUjqCOK/u/dFlRo5QHVsggjIIPqD1r49+OX7C37PvxzsSur6DHo+oRhjHc6cqWrbz0MgRfnGeoNYToRfw6HsYfO6sdKiuu+z/AOCfyw/CP4//ABg+BWpTal8LPE13oT3YRbmOFhsmRH3BGDA8E9cYNfvP+zV/wV68FeNZovDfx201fC+pyyRxQXdrl7MrjDPO8jgpzycAivzl/aJ/4Jj/ABq+DouNb8IJ/wAJfoEe+V5bVdjwR5yA6u2WIH938q/Na6tLizne2vIWhljJDI6lSDnnIOCK5alJrc+iw2Np1VeD+XU/vR8P+I9B8V6Tb694Zv4dU027UPDc28iyxSKehV1JBrayK/i9/Z0/bM+Nn7NOsNeeDdYa90yaJLeWwvme4t1hVg37lGbbG/GNyiv6Xv2V/wBvD4PftNaRZWdpeJoXjCZXE+jXD5kUx8blfaEZX6qASe3WsGjrR9y9eaKbuA68UbvUYpAOorF1nxHoXh60mvtbvobKG3jaV2ldVwiDJODyfwr4H+JX/BT39lLwNo1/d6L4lHifVbJigsLRJUeRlOCBI8ewYPvQwWp+iORRmvwtu/8Agt34I8lxY/DLUVkP3We+hI/EBB/OuCk/4LXX5kJj8CMI85AMyE4+uKaQH9B+RRmvwl0//gt14SSBV1X4Z38k3GTFexKv1wVNfUfwq/4Kt/sv+OtF/tDxjqT+CL7dtFpeB5yR674YyKQH6cUVy/hnxp4V8Y6Xa6x4Y1ODUbS9jWaFonVtyMMg4zkcetdPnnFAC0UUUAFFFFABRRRQAUUUUAFFFFABRRRQAUUUUAf/1P38ooooAKKKKACiiigAooppYDrQAu4ZxRuFeKfGb9oX4R/AHSI9V+KXiO20X7UkrWsMpPmXLxLuKRgA8noM4FfhL8dv+Cx/j7xLMNP+Bmgp4d02a2eK4k1NBPdeaxIDxNE4CgL0zzmmkB/RR4g8U+G/CdidU8UapbaTZjgzXUyQxg/7zkCvEvE/7Wv7OfhOxN/qHj7SbhR/Ba3cM7n/AICjGv47vG/xz+MXxIgms/HHjLVNYs5XZzb3N1JJCCTnCoxIAHavJSADk/5/KnYD+ta//wCCqv7Imn3T2kusag7Icbo7Pcp+hD16F4G/4KHfssePbiK207xULBpeAb9VtlH1LMcV/HTsyOAT9KQqueePwxVcokz+6nQPjR8IvFV8ml+GvGej6peSfdhtr6CWQ/RVcmvS8iv4JvD/AIi1/wAKanHrPhjUZ9Lv4fuT20jRSL9GUg/rX2n8Gv8Agox+1B8Gpbv7N4jbxRBeFC8etNJebFQ8iMs+Uz3PNS0Fz+wbIFAINfk9+zn/AMFXvgt8VLm38M/EeN/BOrLAm66u2X7Jc3BIUpD5e4rnOQGre/bY/wCCjfgv4AaAnhv4X3Nv4j8calGHiVf3lvYxsFZJZwcbhICQqqc8c4pWGfYnx+/aZ+Ef7Nfh1PEXxQ1YWwnIENpBtlvJc5G5IdwYqCMFugr+ab9rH/goz8X/ANoS91jwt4cuX8N+BLwm3+wwH5rqGN8pJKzDcrOACyg47Zr41+Lfxi+IPxw8XT+MviPq02q38hIjWR2aKCMnPlwqxOxO+0d+aT4WfBz4j/GnxAnhn4caJPrN78pkWFciNCcb2JwABVwpuWxnVqxhHmm7I80LSTSEsTJI5HJyWJ+vrX3D+zh+wL8bv2gb22v10x9A8OF1868vFaBjEf4oFdf3nt0B9a/Yj9lj/gl78OPhM1n4t+K/leLPEkaN+4dQ+nxl+n7qRcsy9Ac1+p9nZWmnWcWnadAltawKEjijUKiKowAAOABXbDDxWrPmcXncp6UdF36/I+G/2ef+Ce/wJ+A0NnqUlgPE3iW13EaneLhxuPIEYYpx0Bx0r7rhijt41ihRY0UYCqMAD0AHSnD0xTXkihXfK6ovXLEAVvfseI7t8z37j/frSAAnivnb4hftZ/s6/CzUX0fxx44sNOv1GfIZmZsf8AUivirx9/wV2+A3hPUXsPD+jX/iWNc4ntXjSM/994NNqyuwpJzlyxV/kfq/nPFL+Ffhhrf/AAWe0CSNxoHgS8if+E3EkTD8dprzHUP+CyXj5rrOmeGLaO39JFy35hsU0otX5kaQw1duzpS+7/gn9DmMnigdcZr8EtG/4LNSxsn9v+DJJ12gN5DIpLd8ZJr1LRv+CzPwoupo4NV8D6tbB2AL+dAVUeuM54qZcq+0hRw1a7vSkvkfs5RXxZ4L/wCCgv7KnjGC0B8b2mmXt3tAtrjeJAzfwnC4zn3r7C0zWNK1q0ivtJuo7q3nUMjxsCGBGQRTaMUaNFITilpBYKKTPrxS0AFFFFABRRRQAUUUUAFFFFABRSZHTrQWAG4nAHrxQOwZ7UuDjJ4HrXwR+0X/AMFD/gV8AjPpMd2fFPiG3mMM2nWDgSQsByXZwFwDxgHNfh38cP8AgpT+0L8XvP0vTNRHhbSPNZol07fBc+XngSSK3PHXApTaj8R1YbB1avwLTv0P6X/Gnx5+Dvw8W4Hi3xdp1lPaqWeBrmPzxjt5ZYNn8K+GPFX/AAVn/Zm0U3Vroh1LU7qAlVAtdsTsP9veePwr+ZHXfEGt+Jr+TVvEV/PqN7McvNcO0kjH3ZiSazY4JpeIYmfJ6KpPNYyxK6I9elkF1+8n92lvmfuH4g/4LQ+J0unj8N/D+ylgBO15rmVGI9SFBrjbj/gst8WZSDD4I0yEen2iZv5ivzh+H37MP7QPxUtjefD7wLqOtQj+OJVUDP8Avstem/8ADvz9s3/olGrfnD/8crP63JO6O15Dh5JKab+b/Q+zI/8Agsn8XEcM/gvTHX08+Yf0rptK/wCC0fjlZkXVfh5p3l5+ZkupScd+CK+Df+Hfv7Zv/RKNW/8AIP8A8crz/wAdfsoftH/DSyOo+OfAGpaRbAZMkqowx/wBjRLFzb1CGQYaPwxt82fvN4J/4K6fs86xZW6+MLXUNIv5SFdIbYyxKT33lxxX3v4B/aD+DXxMhtX8HeLNPu57xQyWxuIxc89jFu3A/hX8UcsE8QInhePHB3KRg/jWjoniDW/DWoxav4dv59NvYDuSa3do5EPsykGrjiVf3kclbIHb3Jv56/if3YY4z29RSZyDnt6V/LL+z7/wU6+OXwjey0Xxjc/8Jd4fjlZpxdFpb4q3ZJnbjHYEV+9v7On7Y/wb/aT0y1/4RTU1stfkiMs2k3Df6VAAcHJA2t+BreMk9Ys8TE4WpSf7xfPofVjKHVkYBlbseQa+Fv2l/wBgH4MftDwXmsJar4b8WXBV/wC1LVMu5jHCOhITDdCcZ79a+7OemKTnsadzJPld0fxxftHfsg/F79m7xBLZeKdMku9HOZIdStlaW3MW4geY4G1X45U9K+ZtL1bU9D1G21fSLmS0vbORJYZoyVZHQ5Ug+xr+5fxP4V8OeNNFuPD3izToNV066UrJBcIJI2B45Vhiv59P2xv+CX2s+BU1H4h/AlJNV0NCZptL+9cwKSWZkOFUovYdcVz1cOnrH7j38FnX2a7+f+Z7r+xl/wAFW/7f1DS/hl+0ayQTzKlvBrwxiactgG6UbUjUjOWArof2lv8Agr74V8NvP4Y+AGmf25eo9zbXN9ehoYoXjJVZLfaWEgLDIJ4Iwa/nRkieNmikUq6nBBHII9uP89qjzt5/+tXE42PpPQ9k+K/7QXxk+N2qW+r/ABQ8U3etXNojRRbiI1SNjuKhYwoxn1GfevHCQck/MTz71+mn7Kf/AATW+Ivx/wDD+mfEbxBqEGgeFbyRHjEgLT3dvn52iKZC9MDd3r9sfhN/wT1/Zo+E9s6Q+Hl8RTyYLS6ssd2QR/dDIMV1Qw76ux4mLzyEHywXM/uX3n8q+ifCr4neJLVL3w94T1TUreQZWS3s5pUP0ZVIrpR+zt8emG4fD7XOf+nCf/4mv7RND8KeGPDVlHp3h3SbbTbWHhYoIljQD0AUCug49BitZYePRs86OeVrtyirdN/xP4htS+C3xg0aF59W8E6vaRRglnksZlUAdySuBXmjo0bGN0KsDggjBBr+7S/0nStVt5LTVLOK6glG1kkQMrA9QQa+Ufir+wt+zZ8WdKk07U/Ctvo8ztu+06XHHaz592CHjPbvQ8PG1kyqWfVE/fgmvJu/4n8onwz+MvxP+DniSHxb8N/EVzo2qW4ZFkjYOu1xhgUcMhBHHIr91f2SP+CtWk+IptI+Hv7Q1uNOvpTFZx61Flo55XYKJLnO1YhzyRkCvj/9pf8A4JY/E74Yi58TfChj4s0JSzfZowTeQRIMkyFsK2B6V+UM0E1vK0M6GORDghgQQQeQfpXJVpOO57+FxtOsrwfyP729K1nStdsItU0S8h1CzmGY57eRZYnHqrqSpHuDWnX8in7F/wC3z8Qf2ZfFFtpXiK4uPEPgO52x3NhJIZHtkAwr2pZtqFSfmHRgMV/Vz4B8feEvid4Q03xz4G1GPVtE1aPzLe4i+6wzggg8gggggjisWraHYdlRQOeaKQBRRRQAUUUUAFFFFABRRRQAUUUUAf/V/fyiiigAooooAKKKaWAoAXcK/LP9vX/goZoH7OljN8O/htNFrHxBvU+fawaHTY2DASSEBlMoZceUcHHJxVT/AIKG/t/aX+z5otz8Lvhrcx3nxD1KIrIykOmlxOoy0uGBErK2YgOh5Nfy7axrGq+IdUvNc127k1DUb+Rpri4ncvLLI53MzMeSSe9UkDO2+KPxc+IXxp8VXHjT4k6xLrGq3WN7vgIoUbQEQfKox6D3rO8C/Djxx8StZttC8E6Nc6pc3UqxDyYndEZ+m9lBCj3NfbX7Fv7BHjL9pq6XxZ4iMuieBrdsNdkFZbs5YFLbIIO0j5ieB9a/pQ+C/wAA/hh8BPDMHhv4d6NDY7ECzXWxRcXDD+OVwBuY12Qw6avI8HH5woN06S179P8Agn4d/Bz/AII+eP8AxHYjUPi/r6eF5NwZLe1VLxmTr8zBgFOPyr9FfCn/AAS9/ZT0PTLe11zQX1y7iUB7iW4ljMjf3tiOFFfopzRj04rpSS2R87VxVSo7zk3+B8cw/sCfsmW0Swp4FhwgwMzS/wDxVYOp/wDBOH9kDVi0knglY3I6pczLg/g1fcmKMCmSqsmfjd8Tv+CPXwz8QX8mpfDrxLceG4wvy2hi+0Ju5P8ArHfcPSvyd+OP7BP7Q3wMtJ9a17Rf7R0iN2C3Fk/2hvLB4d0QEqCOTnpX9eQwASxwADyfpX4Gf8FEv+Chf29r/wCBXwNvwbUEw6tq8B++eMwW7KRwPmWQkc9B61lV5WtTuwFfE3UaTv5PU/C5SQdwJDDoR1zU9xdXF3J591K80hAG52LNgDA5PtwBUABx9a/ZH9hj/gm7qXxDSx+KfxutZLDw+2JbTTpF2zXS9Q0isv8Aq2GCOeRXJSo8702Ppcdj4UI3lq+i7nzZ+x1+wb4//aa1D+39VEnh/wAF2r4kvpE+eZ/lbZCj7d6kZywOB068V/TH8E/gN8NvgF4Ot/B3w80tLOCP55Zj80s0rAbnZmyeT2zgV6doOgaN4V0a08O+G7KLTtNsEEUFvCuyONF7KB0Faw546k13QioqyPksViZ1Ze993Rf13Ak9ByaxNe8S+HvCmntqvifU7fS7ROstzKkK59AXIBPtXyf+1V+2l8Mv2Y/D9yuoXC6t4pdSLXS4WUy7mHyvICRhFPXnOK/mj/aG/a4+MP7SerNd+ONTaDTEOYtMtmZLSMj+IISfmI4JJonNR3HhMHOvrDbq/wCtz9mPj5/wVy+HvhKZtG+C+lt4mugZY5rm4320ULplVZPlbzBnn0Nfjh8YP2z/ANoT42RNZ+MfFE32ASmWK3twsCpzwN0YBOB6mvnXwz4X8ReM9bt/DnhTTptU1O7JEVvbqXkc/wCyOtfrB8BP+CRHxh8dLpPiL4sXkfhPSJpB9rsHDjUli77RtZAfqa5ZYlvrY+mw2UUYatXfmfkVd3t3fy+fe3ElzKerSMXb8znNdHo3gDx54jtvtnh3w3qeqW+eJLWzmmTP+9GpFf1e/CD/AIJlfst/CmC7jvdBHjOS724k1xI7gx7f7gVVAzX2x4M+H/gv4d6UND8DaLa6Hp69ILSIRR/kK5mz1IxUVZH8YHgr9ln9oHx5frp2ieCtRhdv4rq2lt0/ORRX0bYf8Etf2xdStUvLfw3aKknID3sat+INf1xbaMUr9gsfxleOP2Ev2n/h/bPda34QlnRGKkWhNwePQIOleD3Xwg+LFijy3ngrWoY4uXZtOuAqgdSW2Yr+63Bqvc2kF5by2l3Gs0MylHRhlWU9QR3zSuM/gaKTW8hVlaKSNsEH5WUjtg969f8Ahp8f/jB8ItaXX/Ania6sbpBtG5/NTHpskyv6V/Wt8Qf2Gf2YfiJpGqafqHgTTdPvNUVg2oWlukd2jN/Gj4PzfWvyt+OX/BGW6tEGofAXxJ50MEMsk1tq7Fp5HUZVIjDGASegzitI1ZLVMxq4eFRWmrlL9nn/AIK8zQGy8O/H7TC8EceJdXtcvK757wIoH5Gv2v8Ah78UPAnxU0K38ReBdZt9UtZ40lxFIrSoHGR5iAlkPsRX8XfxJ+E3xM+D2sQ6D8UPDl54c1C5jMsUN4nltJHnaWXHUZHaum+B/wC0B8TP2fvFEfif4darJaEsPtFqWb7PcqP4ZUBG4V108Sn8R4GLyKyvQfyf+Z/a1nPB606vgP8AYy/br8E/tPaOmhas0ei+ObSP/SLEsFFwFGWltxkkoO+cEH25r77BB/Cug8CcWpOMt0LRRRQZhRRRQAUUUUAFNJ5FAbIzivIvjb8bPA/wF8B33jzxzepbW1sp8qMn555cfJGg7sx4FC3FKVo3ZtfFL4q+BPg14PvvHPxA1SPTdMsIy7bmHmSEfwxJkF2PZV5r+cz9rj/gpd49+M0k3g/4XO/hvwkC6SOhxPeqSMM2QGjAA6A8n0r5a/aq/av8f/tReM5dX1+4ktdAtJG/s7TVY+VCmSA7LkgylT8xHHYV4n8NPhn42+L/AI0sPAHw90uXVtZ1FsJDCpYqgxukb0RByx7CueriLO0X8z6bL8mTSnXWvb/M4e4muLqZ7i6laaVzlmdtzEn1J5r60+BH7D37RH7QktxJ4Q8OPZ2Nn5Ly3GpZslaObo0JlC+b8vPy5zX7Y/smf8Eo/APwyjbxN8eUtvGWuybljstu/T4YyAQSroGaQEdc4Hvmv18srG106zg0+wiW3traNYoo0G1URAFVVHYADAFcTkfRJW0Px1+DH/BHL4R+ENQGrfFbW5vGaSwbTY7DaxRSnncJI33Njp6V+kvwy/Zu+Cnwg0U+H/AfhSzsbJm3FZEE7E+7S7m/WvcQMDFFTzDKNnpmn6cnl6faxWq+kSKg/JQKu4paKQCYqpdafY3yeXfW8dwnpIiuPyIq5RQB4t8S/wBnn4OfF3w+/hjx34Ws72wchiqRiBsj/biCsPzr8xvjx/wR5+FvilrjWfgzqsvhOa3tX8nTWU3EE9wORumlcsgPTocV+0VNwc0AfxMfHX9lP43/ALO2sS6V8R9AkSGNEkN7a5uLMLJ93dOg2KT0wSOeOteI+G/Eeu+EtYtPEHhu9l0+/spUliliYqyupyOnUZHIPBr+6/xf4M8L+P8Aw7eeEfGmmQazo2oLsuLW5TzIpFByAVPoQDX88n7eX/BMW4+HOn3Pxa/Z/gm1DQ4Q0mpaUPnmtRyxmgCqB5KKPnBJI7cVcZtaoicFJNNaHtH7Dv8AwUxTxrf2fwq+PlxHbatcFY7HV2wsc7nPyTcBI8AZDE8k4r9q45Y5Y1ljYMjjcpB4IPOQa/g/DMjggkMp656c+1fvh/wTm/4KAtqDWXwH+NuolrjAj0nVbhvv88W87sxJYkhYyB0GDXfRrc2j3Plcyyr2fv0vh7dv+AfupTWVXUo4DK3BUjIIpx4HNFbHjJ2Px1/bl/4JtaR8Smv/AIq/BS3TT/EjBprzT1+WG7fkmRTnCt0G1Rg/pX87OuaFq/hvVrnQ9dtHsr6zkaOWGRSrKynB4Pb36V/dfjmvyu/b5/YJ0j43aTdfEn4c28dj4yskLyoihUvEXqGCgncADg1FSgpqx6OBzWVF8s9Yfl/wD8kf2G/23fFH7M3iyHQPEVxLqHgHVJALu1Zsm2YkDz4c5IKrzsGAf1r+p3wn4s8P+OfDlj4s8L3kd9peoxJNDLGQQVcAgH0bnkdQa/ht1fSdS0PUrjSNYt3tL2zcpNE4IZGXqCK/Ur/gnN+23J8F/EUXwr+I98y+D9Xk2wzyt8ljM3VyT/A2AtZ0qn2ZbnoZvhFy+3pq66pfmf01ZpahgnhuoI7m2cSRSqHRlOQykZBB75qat2fPcrCikzgZPApaBWGkZBDAMp7Hp9K/M79tD/gnr4L+O2jX3jH4d2sWieOYVaRCg2Q3pVTiJ1yFTcf4gOK/TOkGRyO9O9hwk0007M/hd8WeEvEXgfxDfeFvFNjLp+pafK0M0MqlSGRsEgdwccEcEciv0J/4Jxfth6t+z98SrbwL4nvyfA3iieOGaKUjZb3UjCOOUM2dijJ34wPX1r9Qf+ClH7G8Hxh8GTfFjwDpgfxhoabp0gQGa+t1wAnuYxk1/MpJE8cjxTDa6kggjGCOMY7VwVqXLtsfZ5Zj3Wh72kluf3z2t5a3ttDeWcqXEE6LJHJGwdHRhkMrAkEEcgjg9qs1+P3/AASW/abm+KHw3u/gv4ja4uNe8FRCWKd8eSdOJWGGNec7kIOfY1+wA6CuU9MWiiigAooooAKKKKACiiigAooooA//1v38ooooAKKKKACvmP8Aaw/aO8OfsxfCXUviBrIFzfsrQ6bZlin2q5I4TcAduASxPtX03nr7V/Kf/wAFS/2jZvjB8dJ/AOgalcyeF/BpNs1pKAsY1ONnjnkUDOcjCg59eKaEz85PGHivWfHHijU/FuvzvdX+pzvNJJK+9vnOQCzddo+UZ7DFfff7BH7DmoftJeIx4x8bxvaeANIk/ftnY97KuCYEIIZRtOS/Tt1r5A+Avwe1746fFLRfhvoEbNLqEoMzDrHboR5rjryq5I96/sg+FHwz0H4P/D7RPh34aBNlo1ukCyOB5khQY3uQOSe9dtCjpzM8HOMe4P2VN+p1fh/w9ovhTRbTw74ds47DTbCJYoYYlCKqqMDgd/X171s0mMHijIrqPmNxaKp32o2Gl2kmoajOltbRKWeSRgqqo6kk9BXiU/7Uv7OVtM1vP8RdESRDgg3iZB/OnYIxu7I95pO9cp4V8e+CfHNr9u8Ha5aazb5xvtZVkX8xXyD+3j+1ZZ/s0/CyYaLNE/i7XFaGwgZsOiMCjzgesZII7ZoSCKTdou72+Z8m/wDBTX9tZ/A2kz/Aj4Z6gE1rUo9uqXEDZaCB8jy1deUkyOcEEV/OyxmuJSXLPJKxJJ5JJPPuSa09e1/WfE+s3viLxDeSX+pajK89xcTMWkklc5ZmPck+1fpt/wAE5f2Kb343+KIvij46s2i8E6NJui8xSFvZ0JwsZ6MEZfn549645P2krLRH1dKksHQ5payf59vke0/8E7f+CfreJpdP+OfxnscaXEyTaVpkq489htZZ5RnlM5Gxhz1PpX9BMEENrAlraosUMahVRRtAUDAAA6ACktbW3sbeOzs41hghUKiIMKoHQADjHtU5xiuuyWkT5erVnUk6k3dv8PJABkgd6/MT9vX9vfS/2e9Jm+Hfw5njvfHt/Fy4w8eno3SRgQVZjyu3IIPNe6fto/tVeHv2Yvhfcaj56y+KNWRodNtFIMu9wwExUkfu0YfMfyya/kj8XeKta8a+JNR8WeIrhrrUdTneeaRjklpCWOPQdayrT5V5npZXgnVndrRf1b/MTxN4s8ReM9ZuNf8AFF/NqN/duXeWZ2ckseg3ZwPYfhX2/wDskf8ABPf4rftQxx+J5c+G/BolMR1GZAWkZcMRFCWVnXB+8Plyetesf8E+v+CfGp/tBaha/FL4n28ll8P7OQNDEwKtqbofurkEGHKlXII9BX9QWhaDpPhnRrHw94ftI7DTdNhSC3t4lCxxRRgBVUDoABxXBObb1Pr4U4xVoo8C+A37JvwT/Z10j+zfh5oEUU8gjaW7uP39w8iDlhJJuZATyQpx+VfSYHbtTh0orMoKKKKACiiigAooooAKbj15p1FAHk/xY+CPwy+Nvh+48NfEjQ4NVtLhDGXKhZ1Q9kmHzqMnPBFfzLfti/8ABOD4i/s83V/4v8FrJ4k8D+Y0iSxqTPaI7nbG6bmZtgIBfvjNf1g1TvLK31C1msr2NZ7e4VkkjcZV0YYIIPUEU0B/B34U8V6/4H8QWPinwrfS6fqmnSpLDNExVlZCGAPqMjlTwehyK/qU/YQ/ba0T9pbwovhjxRLHZeO9JjX7TATtW6RQFE0eQASxyWRclfpzX5cf8FLP2GbH4Dav/wALe+GVuIfBesTbLi0UYSwuJD8qRDn92wBPJ4PFfmR8NfiD4i+FvjfSPH3hS5a01TR5hNE6n2wR9CMiuqjWtozyc0y6NVc8fiW3n5H9xuOcjk0teEfs5/HPwz+0L8LNJ+IPhuTm4j23MDlfOgmT5WEgUnGSCRzyOa93ruZ8c/QKKKKQgoopByeelA4nH+PfHXhz4a+ENU8c+LroWek6TEZppD2A4AHuTgCv5Hv2uf2rPF/7UXxDn1rU3ez8PWLvHpunh9ywx8As5UAOxIzuIyAcD1r7y/4Kq/tY3fiXxMvwC8Daip0XTQJNTktpMrcTHrBLj/nky5x61+QHgrwfrvxA8V6V4L8Nw+fqWsXEVtCpztDSsEDOQDhBnk9q5q9W3uo+jybAXtWn8v8AP/I7z4GfBDxt8f8A4g6f8P8AwPama5vHAllx+7gjPBdz0A9zxX9Z/wCyX+x38Of2V/B6afoMCX/iK9VTf6nKgMsjjPyx5yUTBwQDz1PpVD9jD9j/AMK/so/DqHSogl/4r1ONX1bUMAlpGCloY2wD5KMPlyMnqfb7PHSuJs+jQmKWiipGFFFFABRRRQAUUUUAFFFFABUE0EdxG8MyiSKQFWRgCrKwwQQeCCD0qeigD+dz/gpN/wAE8W8NNqP7QXwRsc6WzNPrelxAD7OWbLXEIzkqzNgoq/L1Ffh5YX13pd9BqVjI0N1aSLLG68MkiHKn6g1/e3e2Vvf2k9ldIJIbhGR1IyCGGD1yP0r+Pf8Ab2/Zduf2YvjTcaZYu83hzxGZLzS5ZDmUoCvmqwAA+V2wPUenSri2TJJqzP3j/wCCfH7VMH7RPwnh0fXnEfi3wzGsF0pfe1xGiqouPbcTgg96/QSv44/2OPj1e/s+/HHQ/FxvJLbRLiVINVSPnzbQnJU57BsGv7DtM1K11jTLPV7Jt1vfRRzRnplJFDLx9DXpxnzK58Pj8G6NRw6dP68i9SY5yaWkqkcWx+K3/BSb9hD/AIS+xvfj18I7IDV7NGl1awiUA3Eags06dMsoAGwDJ6iv56GjkidllBRoztIIwQR1HsRX937IsitHIAyMCCCOoNfzP/8ABSz9jTUPhP4yn+MPgOxL+ENelZ7pIgzNaXTktI0nGFjcsNpz14rGrS5tVue5lWYcklRl8L28n2+Z4p8NP+CkP7SXwt+Htj8PNB1WKa10wbLea5gWaZYySSrO+S2Ogz0Fe8fDn/gr18b9CvvN+IWn23iW1PWOJEtCBnk7lUnivyP24OPxxSZxxWCxMlsexVymhO6a387H9kX7M37Wnwu/af0B73wfdC31iyVDeafKcSws4JG0nHmLxyVGPpX1IOlfxPfAL4weIPgb8UNF+IPh25e3eymVZ9v8du5xKuPdf1r+yz4c+PNE+J/gXRPiB4cZm07XbWO6h3gBgkgyAQCRmuuE1JXPmcwwboztuu52tFFFUcFhjxrKjQyAMjggg9wRg1/Kf/wUl/Z0h+BnxvfWNCjWPQPF4kvLWKNMLbldqOhPQ5bJr+rOvzr/AOCmvwfm+KH7N9/qWkWiS6t4enjvBKR8y2sQZpgCB0xg0ON1ynVg8T7Gopt6dfRn86v7Kvxmk+Avx38KfEaaSc6ZYXQ+3QQyGMTwMpUq2OCASGwQeRX9rWlahFqmmWmpwgiO7hjmUHsJFDD9DX8DquVwwPzKc/lX9kv7AfxE8RfFD9lTwV4s8V3JvNTkimglkJ5It5WiQH/gKivJasffH2bRRRUgFFFFABRRRQAUUUUAFFFFAH//1/38ooooAKKKKAPIPj340b4e/Bvxj4vgu0s7vTdLu5bWRzx9oWJjEPqWAr+ITxF4h1TxZr+oeJ9cl8/UNVnkubiTGN8srbmb8STX9Sn/AAV31WfTf2R7iK0uGglutZsIztOC0Z37x9DX8q9snmzRw/32Ufmf/r1cFqTKVlc/oP8A+CQXwKGj+FdZ+NuvWKG41Rlg0q4PLLEu9J8HtlsA1+2fPevn39lz4a2Pwl+A3hPwVYNuS1tFlLEclp/3pz+LV9BV6zSWiPz2pVdRuo+ruFef/FD4j+HvhL4E1j4geJ5FjsNIgeZwWCtIUBYIuepPYV6B1r8EP+Cxfxi1VNQ8M/BeywNOlhGqXDgnd5qs8aoR3GOaTdk2x0acpzjTju/6Z+fX7TX7bfxd/aE8STSPqs+j+H7eSQWlpaSNADExIXzShG849a+LpGaRzI7F2JySTkk+5pMnHtSVwVKspO59zhsJTorlpqx23hv4j+PvB7I3hXxHqGliNgwW3uZYlyPVVYA9O9afxO+LXj/4xeIB4n+IGrS6peqixoXY7I1AAwikkLnAJx1PNea1s6Bomo+Jdc0/w9pCebe6nPFbQr6ySsEX8MmpUpP3RfV6UX7SyTXWx9I/sifs2a/+0x8WbDwpZW7/ANiWrLNqtypCiG2BwSCepJwMDmv69PBXgzQPh/4W07wd4Ys4rHTdMhWGOKJAi/KME4HdjyT3NfNf7Ff7Nln+zT8G7Dw3KobxBqSrd6nIMHFw6KGjVgASqkcV9ejgV3wiorlR8djcW69Tn6dPT/Ni1n6pqVroul3msXziO3sonmck4AVF3Hk1oV+Yv/BUz44n4XfAoeC9Mllg1bxo5ghli4KRwMjS5P8AtKdtX6nNCLbSjuz8Jf2yv2i9S/aP+M2p+Kml3aJYO9tpUZXBjtsg4PqS2TmvQP8Agn/+yev7T/xdSHxJbyN4O8PBbnUypMfnKcqkSSYxktjcBk47V8OaXpep69qlro+kW8l5f38iwwQxjc8krnCqoHUk9BX9mP7FfwH0/wDZ7/Z/8PeC7Yym8u411G989AkqXV1GjSxkDnCNkDPSvMq1G3c++w1BUoKmuh9NaJoOkeG9ItNA0Czi0/T7GMRQQQII440HZVUAD1+vNbFFFYm4UUUUAFFFFABRRRQAUUUUAFFFFABRRRQBxnj/AMB+FviZ4R1TwR4zsE1HSdWheCaJwCcOpG5CQdrjPysOQa/jK/ar+A+s/s6fGjXvh3qNo9rYpK9zpjO4kaSwkdhAxYcFto+YdR3Ff2zYya/IX/grj+z4PHvwbi+L2hwW8F/4JZri/nY7ZpbN9saovrtdgccU0B+bf/BLT9o6f4XfFt/hnr98lv4a8W8t5nOLxF2wBD23FsH1r+nU4zweK/hQ8O65d+GfEGm+IrA4udKuYrqI9PnhcOvv1Ar+0f8AZ7+IzfFn4L+EvH07o93q2nwTXIQ5CTMgLKcdwTXp0Jc0fQ+OzjDqnV5ukvzPZ6KM55orQ8mwV4P+0v8AFyz+CXwW8S+PJ7tLS7trWVLEyDKveMhMKY75avePT3r8Lv8Agsl8W7uzsPCvwYt41a21Ff7VmkB5V4HaNVI/HNNW3fQ0o0XUkqa6/wBM/CbxL4i1LxZ4h1PxRrLiS+1a5lup2AwDJMxdiB2GTX72f8EiP2U7eDTbn9o/x1pLC5uMxeH5JHV4ZLZ8pPKY+fmV0AVjg+lfhR8P/BmufELxto/gvw5Zvf6hqtwkUcEYJZ8nLcD/AGQc47V/b/8ACz4f+G/hh8P9C8DeEtPTS9L0q2SOK3TOEJ+Z+vOS5JNeTJ31P0GEVFKKPQR0FLRRUFBRRRQAUUUUAFFFFABRRRQAUUUUAFFFFABXwH/wUY+AA+On7O2sppUFuuu+HR/aUFzJGGkW3tQ0k8aN1G9Rzj0r78rO1PTbLWdOu9I1OIXFpexPBNG33XjkUqyn2I4/GgD+B5Dgg/5Nf1gf8E2fjM/xZ/Z10yz1jUhf694eZ7a6X+NI95EAP1QV/OB+1X4Bt/hp+0L478I6fpz6XpdnqtytjEylV+y7zsKZ6rgcGv0N/wCCPPxQs9A+KHiD4Y3OfO8UQpNDjoDZq7N+jV24WWrTPCz6lemqiV7P8Gf0b85paTvS11I+VasFcN8SPAHhz4p+CNX8A+K7f7TpmrwmKVc4PXKnPsQDXc0nPNMLX0Z/Fl+0h8DNd/Z6+K2sfDrWWNwlpJm2uQhRJ4mAZWXP93OD714Metf1P/8ABSj9l9fjn8I5fGfh20ifxX4SjeeOR2K5skBknXjOThQV/pX8sTIUco3DL1H0rixELSutmfYZVjHWp2l8S/q5H0B+hr+pr/glT471Xxn+zQthqbFk8O3hsLfPaJIwQP1r+W61s7nULqCxs42mnuXWKNFGWd3OFUD1J6V/Xv8AsIfBtvgt+zp4d0i+tXstV1aGO+v4pBhkuJFwykdQRWmGvZnJns4e5da6/kfZGMgClpOce9LXSfMhXnXxd0ZvEfwp8YaEgy99pN7CvfmSFl/rXotZ+rOkWlXskmAiwuWJ6YA5qoK8kTUnywlLsmz+GDxDo0/h7X9R0K5/1thPJA/bmNtpr+in/gi14x1TW/hl428LXkrPa6Dd2wgUsSFE6yM2B25Ffgl8cpI5fjJ40lhIMb6teEY6Y81ulft5/wAEQAf+Ed+Kh/6e9N/9AlrzMRFRk0uh9/gKzqUKdR9Un+B+8dFFFYHWFFFFABRRRQAUUUUAFFFFAH//0P38ooooAKKKKAPw5/4LR+Jby28D+FfCqBvs17L9ob+7ujfAz+dfz1eHLcXniDTLVjhZLiNST6FxX9Kf/BZPwjFe/ALS/GhH7zTdSt7XPfbMWP8ASv5oNNdodRtZgcNHKjD8GFbU90Z1fhZ/c74ViEPhXR4x0Sztx/5DWt6uR8AahBqXgbQL23cSRyWNsQwOc/u19M111ek1bQ/PXJPVCjrX8wf/AAVq0vU9P/aLsrm/cvFfaeJIMnpH5jDH55r+nuvzJ/4KU/soyfHb4cDx74QsfP8AFvhaNmXaSZJrNQzPEiDq245Hem23CUF1NsI4xxFOrLpf8VY/lu65pBzVq8s7zT7qWyv4XtriBikkcilXRh1BU8giqwry2rbn3t7rQMelftP/AMEnv2Xv+Eo8TXXx48Y2KvpejfudOjuIw0c8rg5lTPGYmXg9c1+SPw18Ba/8T/HOjeA/DEAudT1mdYIIydoY8kjP0Br+zz4MfC/QPg38M9C+HfhqAQWelwBSvUmRjvck9yWJrqw8NOZnz+d4qyVBddX6HqOcn+dLSAccUtdJ84xR1r+X7/gq/wDEnUfFP7Rsngxbrz9I8PWkBgQHIWaaMGX9QBX9P5cIrOeAgzX8TP7QPiXUPFXxq8Z6vqUpllOq3kQJ5ISKZlUfkKzqytFnp5PRU68Zdtf8j6m/4JmfCPSfi3+1LosOsSSQw+GIW1mMxnG6ezkjMak+hJ5+lf12AEAe1fhH/wAET/BugXHhHx947ltVbWbbUYrGKc9VgeBXZR9Wr93B0ryz7MWiiigAooooAKKKKACiiigAooooAKKKKACiiigArjPiB4R0Lx34L1nwl4mtVvdM1O3eOaFxkMMZGR7EAj6V2dNIzkHkGgD+C/xho8+geK9Y0W6ga1e0upo/LcbSqq5AGPpiv6Mv+CQHjVNY+BmseEru88680zU5ZEjZsskDxxgYHpnNfkh/wUi02z0r9sr4g2ljCtvCZbZgiDAG+3jLYA9Tmvqv/gjRq00Hxj8ZaW8hEM2jqwTPG4ToM4+lduGlq13PDz6n+5U725Wn+h/Rsc544FOpMYJzS4rrPlrO4AgAn+7zX8k3/BRzx3qvi/8Aar8YabfSmW28P3H2O2BOQse1WIH4mv6ytSuPsmmX13/zwhkk/wC+VJr+Kv8AaB8VyeNvjR4u8Uyncb6/kcn1xx/Ss6z9xnpZNDmxCcleyf33t+R9s/8ABJ74S33xA/aZtvGkE4ig8BRC+lU/x/aA8AH6k1/VsOlfz1f8ES/D9xD4i+InidwfIubK1tkOOMxyljz+Nf0KjpXmNn2YUUUUgCiiigAoopCcUALRSZFGaAFopM0tABRRRQAUUUUAFJilooA/l+/4LJ6Stn+0rot9DAI47vQ4NzKuAzrLJnJ6E4xXy1+wD40tvAf7UnhLXLxwkUhmtiTwM3CGMfqa/WH/AILX+F9MX4c+BvGCxKL99VazZ8cmIQO4GfrX4GfCy5ntPiZ4UuIGKOuq2XIPbz0B/St6ErSTOLMaHtKM4XtdH9xnofUUUxH3xo/TcART/rXoI+FbCk96WimIguLeC7gltbqNZoZ1KOjDKsrDBBB6ggnNfyc/8FEf2d5PgV8d9Su9KhI0DxMzahbFE2RRPO7FoV7fJjp6V/WbX5tf8FQvgtF8UP2drzxVFIYrzwQzakqou5plx5ZQnrgBs0nFNWOzBYl0qqnfTZ+jP5yP2ePGdl4B+M3hXxLqWnW+p28N9AjR3KB0AkcLvweMpnI9MV/afp99Z6nYW+o6fKs1tcoskbqcqykcEH0r+Ebc6HdyGX8wRX9Yf/BNb4wRfFX9mvSNPYN9r8IbNKnLElnMSKwck5JyGrHDSvHl7HpZ5h+WpGquuj/Q/QIGlpO+aWt0eFYK8s+OGtnw18HfGuuK2xrXSL10JOPmWFyP1r1IHPSvya/4KxfHe08C/CC1+Fel3ktr4g8VSLMBGpw1lESkoZs8btwGKcXZ3KhTlJqMd3sfzW6tqNzrGp3eq3h3T3kryufUuSTX9If/AARk+H+seGvhH4r8a38TJZ+KbuBrZz0cWokjbH0Y1/NciGRlUcFiB7c8V/aT+xb8KNT+Cn7Nvg74f6zMk95aQPO7pyP9KczDp1xvxXlVHd3Z+hwiopRWyPqmiiisygooooAKKKKACiiigAooooA//9H9/KKKKACiiigD4f8A+Chvwil+Mn7LnijRYboWkmhga0GP8X2BHkKDjuDX8danA3A4I6e1f3w6xpNhrul3ei6rCLiyvopIJom6PHIu1lPTqK/jG/bL+BmsfAH4/wDiTwhqFithp15PJf6Wkb+YpsJ5G8nkdGAXBB5GOapMGf0A/wDBMP4yWXxL/Z1sPDUt491rXhJmt7zzDk4ld2i/DYK/R8YxxX8gn7EX7TOo/s1/F6z1mfdceH9VZbbULcPsXbJ8omzg8xbiQD1r+uLw/wCIdG8VaHZeJPD1yt7p2oRLNBNGcq6MMgivVjLmSZ8HjsM6NRw6br+vI2aTkHPalpuaZyp2PyS/4KHfsZ/BfWvht4g+Ndj5PhTX9KQTSSxgR29y8jgfvlCklmzwR3NfzUsoVigOcHGa/ok/4LA/GO70DwHoHwo0S9Qf27LI+pQcF/Jj2PDnuMtz0r+erSdLv9d1O10bTIjPd30qQwxjq0jkKAPqeK5sT8SSWp9Lkbcac5t+7/V2fs//AMEif2fxrvibVfjl4hsFmsdKH2fS5mHK3aH94R9EbFf0LnrXzX+yT8INN+CXwG8L+D7K1Nncy28d5eoTk/bLiNTMf++hivpQV08vKuXsfP167qTlUfX8ugUUUnXpQzFGH4nvf7M8Oalf8nyIJH468Cv4hPiLP9q8f+J7o9ZtTvHP/ApmNf25+MrWW+8J6tZwDMkttIq59SK/iI8fwvB458RwycMmo3akehErA1OJt7Jev6Hp5A/9rkv7q/Nn9MH/AAR+8Hnw3+ztqOrEg/2/fpdcdeE28/lX60V+W/8AwSX1+01f9maOwt/v6XcCGT/eI3f1r9SBXlM+0CiiikAUUUmRQAtFJmkLgfhQA6im7hRuHWgB1FNDZp1CYBRQDmigAooooAKKKKAP5WP+Ct/hGHQv2l28QRxsj69biR2PRjEqICPwp/8AwSS1VNP/AGib23aRU+26eYgCeWO8HA/Kuh/4LCeKP7Z+PulaH5yv/Yto8e0AZXztjcmuF/4JS6LFqv7SSXLkhtPtfPUD1DAc/nXoYH+Iv66HgcTW+pTb8vzR/Ukw+Y/WkoY/MR70ZroufMu12zE8S/8AIs6yP+nO4/8ARbV/Dt4x48V6x6C6l/8AQjX9yWr27XmjahZp964gliB93Qj+tfxO/GzwhfeA/ix4p8I6mMXWm30kcgPqfm/kaxrr3T3MkqJVOXrb9T98f+CMMaD4W+I5Ao3G6YE+o3dK/a+v5/8A/gih42vru68eeAJEH2bTreC9QjqWmlKnP5V/QBXmn1IUUUUAFFFJmgBaZ1OKXcM4rhfiB8S/A3ws8OzeKvHurwaPp0PHmTNy7YJCRoMs7nBwqgsfSpnNRTcnZG2Hw9StNUqUXKT0SWrfyO4pf1r8iviL/wAFTtHtbuWx+FvhGTUIlyFu9SlECkg8FYIw7FT1G50PqAa8QT/gqV8cVud0vhzw+0GeUWK6V8f75uGH/jteBU4owcHy89/kfrmA8BuJsRT9qsOo/wCKST+4/ePOBTx0r8qfhh/wVC8Fa1dw6d8U/Ds/h0ykL9stH+2W4PdnTasqD/dEh/nX6a+F/Fnhrxnolr4i8K6lBqumXib4bi2kWSNx7MpIyO46g5B5r08HmVDEK9KVz4jibgnNMnnyZhQcL7PdP0a0Oiopu4U6u4+UCiiigAoopM4oA/F7/gteR/wo7wMvf+32/wDSaSv54vhtn/hYvhXP/QVsv/R6V+2H/Baj4prcan4O+DnlYNnjWC+evmB4QCK/Hj4B+Fr/AMYfGPwlo2nIXlbUrWUgcnbFKrN+gralFtpI5sXOMacpSelj+2OEf6NF/uj+VT0nZV9AKWvSPgQooooEFZGu6Lp3iTRb3QtXgW6s76NopYnGVZSDwRWvSDIJPSi9io9j+Jn4+fDbWPhN8W/EngjW4hBc2d07BQMDypWLx4H+6RX6J/8ABI74unwp8ZNS+Hmq6kLfTfEFqfs0DNhXvt6BcD+8VBFbX/BYH4UWHhn4oaB8TdPifzfFUMi3bYJUPaiNE9hlTX5h/Bb4gH4V/Fjwt8QkQyDQb6G6Kg43KjcisGlCp5H0iTxGBt9pfmj+3YjDEDtTc81h+Ftbj8S+GtI8QQDCanaQXIHXAmjD4/DNebfGr4+/DL4A+GJvFHxE1aOzRRiKBSHnlbnAWMfNjPU4wK3sfN3T1Oo+JvxI8K/CfwTqvjzxjex2Om6XEXd5DgFuiKPUsxAAr+PX9pL49eJ/2iPijq3j3xDMxhnlK2dtuJjtoBgBEU9M4BPvXsP7Y/7afjf9qTxMbYFtM8Iaa7fYrBGzu7GWVgFLFgAcHIXtXyb4E8DeJviR4t0zwV4OspNQ1bVpkghjjUnBdgoZsA7VGck9AK5a9b7KPpcoy+cf31VavZdvXzPtf/gm9+zmfj/+0DY3OqQ2t14d8H7NR1O2u1LLcwklFjUYwTvKnnsK/rot7eG2gjtrdBHFEoRFHQKowAPoK+Yf2Rv2b/Dv7NHwe0nwVptkkOrzRrcarNuEjy3kir5oEmMlARhR0HavqWuI+hCiiikAUUUUAFFFFABRRRQAUUUUAf/S/fyiiigAooooATFfnd/wUG/Y60f9pX4Z3Gu6HAYvHHhyNp9PkjVQbsAY8iZiCSgGSMc5r9EqaQexoE0fwNX1jd6XfXOm3qGK5tJGikUjo6HDDt0xX6k/sKf8FCtU+BDwfDj4nvLqXg+ZgIJQd01kThQBuYDywO3av0B/4KC/8E34Piu1z8XvghaR2vioDN9pyYSK9AAAdOVVHUA5AHzda/nG8SeGde8Ia1deHfEtjLp+o2TmOaGZSpVlJHfGRxwehroo15R2OLH4GFePLU6bNbo/t+8FeOfCfxG8N2ni3wRqUOq6TfJuingcOpx1HHcdCK6vA/iPA5Nfxo/s/wD7Wfxj/Zw1QXHgTVmOnyMvnWVzma3K7stsjY4RiO4FftFpn/BWP4YeMfg74ru9Rhk8JeM7azmXT7V91ytxOU+RldECr83ZiK7oVIvqfK4nAVaTs1ddH/Wx+TH7fnxdtfjF+0t4j13Tgy2mmldMVWPG6zJiYgZPUir/APwT0+EUfxd/aa8PWNy7Rw6DjV2IGQxs3RlQ/U18Ya3q13rusX+u353XOoTy3EpH9+Zi7H8Sa/oP/wCCO/wtGleBfE3xL1ew8u51G5SKxuGHLW5T58H03CsKcuapfsevi17DCRord6f5n7R4AXaowBwPoKcORmk5zS10nzTYUUUnfNAkRTRCe2lhYZ3qRj1r+IH4vWj2fxW8Y2so2ldXv+Pbz3xX9wq8Gv5GP+CiHw5sfhn+1H4j0bTVZbe9SG+BI4LXS+Y2PxNZV43g9dj18kqKNe1t0192p+sf/BE67kl+D3xBtXfcINbgCL3Ctbg/zr9rx0r+Yn/gj18Ub7w58ddS+HV7fpa6LrtjNc+XIQokvIzGkYBJ6lScCv6da81n2FxaKKKQBTadTCQOfSgENLfkOtfLnxi/bE+BfwUuZtL8Sa1/aGswZ3adpyi5uVI/hfBEcZ74kdTjkCviz9ub9tPVNA1O9+C/wivza3tv+61fVIWxJCx620Dg/K4/5aOOVPyghg2PxoeVpJGlkYu7EkseSSeck+pNfF51xYqMnSoK7W7P6c8Mfo/TzLDwx+aycKctYxXxNd2+i7H7L6x/wVZ0iG7ZNA+HtzdW4PDXWoJbPj3VIZhn23V2Pg3/AIKk/DHU7mO18b+GNS0ESEL50Dx3sSZ7vjypMf7qMfavwzOOtAIwc8n9K+ZhxbjE78y+4/dK30eOGZQcFSkn353f/I/rS+HfxS8AfFbQ08Q/D7XLbWrM4DNC+XjYjOyWM4eNsfwuoPtXoQYV/JV8Nfij42+Efii38YeAtSk03UIMBgpJinizkxTR/ddD3B78jBAI/pC/Zl/aJ8PftF+AI/Elgos9YsSINUsd+Wt5yM7l7mOQfNG3pkH5lYD7bI+IoYv3JK0j+XPFPwZxPD/+00Ze0oN79YvtL/M+k+R0p1NByKdX0h+JBRRRQAUhOKWuN8f+L9C8BeDNZ8YeJrtbDS9Lt3lnnboi4wDx7kD60AfyX/8ABTC9+2/tnePtkvmxwvaouDkDFvGSB+NfSH/BG7Tjc/G/xZesuVt9GBBxxkzoOv0r8rPH/ifUvGnjXW/E2rXb31zf3Ushmc5LKWIXr6DGK/oS/wCCPPgKz034Pa74+mtPK1DUr+S1WVlwWt0WNhjPUbs124Re9ddDxc+kvYcjV+ZpfqfsOTnmikANB9q60fJNgBk7W6Hiv5Tv+CnfwsvPh9+03q/iGc/6P4yzqEOOwXEZ/Va/qxPYjtX5Df8ABXH4KR+MPhVpnxX0uze51fw5Mts7J/BZyb3kYj0DYJNTKN4tHZgK/s60ZdNn6P8AyZ+Vv/BNn4s6h8MP2o/Ddm2qppeh+JXNnqRkYLG8aozxhj/10xj61/XpHIkiK6EMrAEEdCD0r+BuwvJdOvbe/hJWS1kSRcHB+VgeDX9q37KPxusPj/8AAvw18RLeJLS4urfy7m2EolaGSEmP58dNwXcM4ry5I+7PpLrzRRRUgFNJp1NNJgeZ/Fz4oeHPg34B1b4geK5SllpseQi4Mk0rHbHFGOMs7EAdhnJwASP5m/jb8cvHHx48ZT+LvGVydgLLZ2SsTb2cJORHGOMnpufGWPJ6AD75/wCCovxPvL/xh4c+EtlMfsOm239qXaA/K9xOWjiDDsY0ViPaT8vyiJGc1+ZcWZtKdb2EHpHfzZ/dn0efD2jhMujnFeKdWr8N/sx6W83uxRgds0KwAORnNJuOc0pOGyBXxtkf0ptsAJHQda+nf2Zf2mvF/wCzr4vivLOWW+8MX0q/2nphbKSKeDLEDwkyjkEY3YCtxjHzE3LZFLx36+tdGGxU6M1UpuzR5OeZFhswws8Hi4KUJK2v5rs+x/Xj4V8UaJ408Oab4r8OXK3umarbx3NvKh4eOQAqfUHB5B5B4PNdEOgr8p/+CXnxPutb8D+IvhXqUpc+HJ47uy3HOLe83b4x3wkqFv8AtpX6sjpX7Xl2MWIoxqrqf5f8bcMzyjNK+Xy+w9H3W6f3BRRRXafKhTSccflTq+aP2tvjdonwC+BniTxxq87QTSW72dmU+/8AarlGSEgDk7WIPFAH81n/AAU2+LsHxX/am1uG3tTbL4PU6G27H7xraVyzDk8EtWr/AMEuPA2oeKP2pNH1dbVptN0e3uZbiXGVjdom8vP1I4r89tc1vVPEmtXniDXLlrvUNQlaeeVzlnkc5LE896/ou/4JD/Bq68J/CzWPitfyBj4ulSOCMoVaNLN3Rjk9Q5Oa7cKvev2PFzyqlRcP5tD9hCcn6UUCiupHyTYUUUUxBSEE8UtIcdaBn5+f8FLvhjd/Ej9mPWH0ayF1qukSw3MTAZZYo33zYPXlRzX8nwOT9K/ud8a6Gnifwdrnh5sH+0rK4txn1ljZB/Ov4nPif4Iuvhv8QfEHgO/bdPod5LasfdDisMTFWTPfyKt786b66r8mfp/4T/4Kr+L/AAH8BtA8A6DpK3viywSS2nvLzJiSADbAYdjBtyrj7wxX5l/Ev4tfET4w66PEXxJ1y516+QFI3uG3GNCc7F6YWuFsNOvtVuo7HTbaS7uZjhIokLux9AoyT+Ar9UP2Zf8AglV8YPird2HiL4pgeEfDL+XOFkxJcXcOclFVHDRlh3bp9axqYiTVmexhsso0XeC1/rY/O34WfCH4ifGnxInhX4caLcazekp5ghQssKOdu+QgcLnvX9TX7DH7B/hT9lXw6viHXRDq/wAQtSjxd3wAZLRX+9b2rFVYRkAbyeWOe2K+lvgP+zh8Kf2cvCa+EfhhpK2cBd5JLiXEt1Kz8kPMRvZeOFJwO1e7gcAVy3PQDB7UtFFIAooooAKKKKACiiigAooooAKKKKAP/9P9/KKKKACiiigAooooATBr4o/ar/YW+EP7VcFve+JEfQ/EVqFjTVrJFNwYV3ERMG+VlycgkZr7YpuKAP47/wBoP/gn5+0P8Arzzr3RH8Q6PM07RXmlq9yscER4a42oPKJXnB46818PqR1z0r++m5tLe9t5bS7iWaCZSjowyrKwwQQeMEGv5fv+CvfhLwB4N+N3hTSvAej2GjI2jF7uKwhjgQzGd8F1jAG7bjk81SuB+T9nbSXt3BZR/fuHWMfVjgV/Zf8AskfDi8+FH7O/grwTqSgXthZL55A6u7l/bs1fygfszfDd/iz8cvCfgVHKG+uwxI/uw5lP/oNf2jWsK29rDbp92JFUD/dGK9DDxtC/c+Tz2tzVYwT2V/vLFFFFbHiMKKKKBBX4h/8ABYb4NT6n4c8OfF7RNPVjp0kkOp3AHzeWwRYd3tnIr9vK8n+OHwu0T4zfC3xB8OteiM1vqdudqqdreanzR4P++BRa6szWlVcJKa6an8Z/wr8dz/DH4keGfiFbw/aH8PX9ve+VkgSCFw+w4PQ4xX9unwu8fab8Tvh/oHjrSpI5IdasoLkrE4cRvKis0ZI7oTgiv4fviF4F8Q/Dbxnq3gXxVatZ6ppE7QTRHqCORz6EHNftv/wSI/aqtrBrn9m/x1qkNrFM7XGg+aGMs9zKSZYQ/IAVFyoOPavLqRs7H39KalFSXU/oKopucADHNOHPNZmgV4R+0l8Uv+FO/BfxR4+hI+2WNqY7MNyDd3DCGDI7gSOpI9Aa93r84P8Agp9e3Np+z5pkEJwl5r9rFL7oILhxn/gSrXDmdd0sPOot0j6zgTKYY7OcLhKnwymk/S5+CN3d3N9cT3t7K09zcu0kkrks7u5JZmJ6liSSTyTVU9acQAcCkI75r8Pk23dn+qMKcYRUYqyWg2ilwcZ7UoGeKksbX2F+w/8AFm6+Fnx+0CFpymk+KZU0i9jz8pNywWCT0BSYpyeQpYDqa+PsGtLSL650zVLPULIkXFtNHLHjrvRgV/WuzAYiVKtCcejR89xZlFLHZbiMLWV4yi/y/wAz+wFSKkFVLUlraNv9kVbHSv3NO+p/lDKNnYKKKTNMQbh3PSvx5/4K4/tGW/gb4TRfBbQbm2n1TxkTHqNuX/f29kMOkgUc4d1xzxxX6VfG/wCNHgr4B/DvVPiR47uxb2NhG3lx5w9xPtJSGMHjc5GBnj1NfxofH/4za58fPixrvxN155M6lM/2aKV97W9oHYxQ7u+xTjimkB5l4b0K88TeINM8N6eoNzqtzDaxA8DfM4Rc/ia/tE/Z6+Gp+EfwY8JeAZ440u9K0+GK5MYwrzqoDt0GcnvX4N/8Eo/2bj49+I1z8ZPEdvFNofhf91FDPFu825mUmOSMnj92V6881/Sb/n6V6VCNonx2cYlVKvKto/mFFApAc9K1PJsLXHfEDwbpvxD8E634F1fItNctJrSQgAlRKpXcM9xniuxxSD1PTNFwtpY/iX+O/wAJ9Z+CfxT1/wCHutW8sB065k+zmVcNJbFz5UnTo64OelfcX/BMj9ray/Z8+JcvgLxezr4V8aTRRySRpvaK9z5cDEZGEyx3HqOtfpf/AMFNf2Rbn4z+CE+KfgW1RvFPhtC9xGqZmvbUYAjVuOUyWGetfzMMLmyuSDuguLduxKujqevqCD+tcWIp2d1sz7LKsb7WHK37y3/zP75YZ4biJJrd1ljkAKspDKwPcEcEVNX4lf8ABNr/AIKDWHjfTdK/Z++MV2lt4jtEW20a/fhb6NFVY7d+D++ABJdiAw461+2YPQVyHqjqaTThzyKaetAM/m1/b8lupP2qfF63GdkcenrFn+59ihPH/Aia+M6/T/8A4Ke/Dm60X4p6H8RraI/YPEViLWVlBOLuzY/ePbfE6bR32NjvX5hEd+tfi+f03HF1FLuf6deEeNp4jhzBSpPRQSfqtGNp4GTz3pNvBJ4r94f2av2JPhl4R8E6Zr/xK0S38SeJtTgSe4S+jE1va+aAwhSFsxkoDhmYMSwOMLgVGVZRVxc3Gn06m3iD4i4Lh3DRr4pOUpO0Yrd9/Q/B/HORyKAMk5r94v2lf2Jfhl4v8Fan4h+G+iQeHPFGmQvcW6WKeTb3XlqWMLwJhAXAwrqAQxGcrkH8HuTkgcd/aqzbKKuEmo1NU9g8PfEfA8R4edfCpxcXaUXuv80fpb/wS3luB8c/EUKZ8hvD8xf03LdW+39C1fvOK/IX/glj8Ory00jxb8Ub2IrDqMkWmWbEY3LBmSdh6qWdFBHGUb3r9eR0FfpHC9Jwwcb9bn8RePOPp4jibEOn9nli/VLUWiio3ljjUu7BVXJJJwBjrX0J+ODZ54reGSeY7UiUsx9ABk1/J7/wUh/a/P7RnxMHhTwoPJ8IeE3lt4JFZg17IdpaSVc7RsZSEAzx15r7L/4KRf8ABRWOaPU/2fvgPqO8Nut9b1iFiAMEh7a3cbXR0ZfncZBHC+tfgnbW13qN5Ha2yPPc3LhVUfMzux4GOuSTVRTeiFJ2R618BPg/r/x0+KOh/DrQYpWOpTqk8yIWFvGfvSOcYVRxyeK/s08BeDdJ+H/g/SPB+iwJb2ml28cIVBtBZVAZsf7R5Nfnf/wTd/Y8j+A/gj/hZXjBWbxh4ngQmM5xbWjBXWIqf4wwJJBxjiv0/wCvNenThyxsfEZjjPbVOZfD0/zCiiirOBsKKKKBBRRRQAAAnaehr+U3/gp38L7X4c/tOalqNqxK+LIzqrZ6B5XZTj2G2v6sq/DH/gsr8NbBtG8JfFgA/bFmGlN6eWVeUfrSkrxaO3L6qhiIPXV208+/ofnt/wAE1Nf0jw7+2H4L1DW547a1cXcPmS4wryQOqde5bGK/sAVQFG3p2r+DrwJfSaZ438P6hHKYDb6havvU7cBZVJ5+nWv7sdB1fT9d0Wy1jSpluLS7iSSKRDlWUjsRXkux93fQ1x0ooopAFFFFABRRRQAUUUUAFFFFABRRRQAUUUUAf//U/fyiiigAooooAKKKKACiiigBM1/Gp/wUA1y+1z9r74mLdXLXENlqssEALbgkahThfbJNf2B+Nr6bTfBuvajbHbNaWF1Kh9GSJmB/Sv4WfF/ijVfGvijVfFmuSma/1Wd55nJyS7GrhuFup+kX/BJ74bSeLf2iR4zBynhKAzMPU3CtGK/qCPWvw6/4I0fD+70zQ/GXxGnGbfVxFaRHHQ2zsWx+dfuJ9a9OCaikz4PH1uetOSldXt6WCiiiqOMKKKKACk5B4paTnPFA0z8Qf+Cq/wCyTFrGmD9oXwPaMb20xHq9vDHu8xCCxuWI6bAoB7d6/AvRtY1LQNVtdc0id7a8spFlikQlSrqcjkEGv7o9T0zT9a0660fVraO8sb2N4Z4ZVDRyRuMMrKeCCCc1/MZ/wUC/YXv/AIC+ILj4jfD+3a48EapM8jRqMmwkc7ihwABFk4T0xisK9Lm1R7eU5jGm/ZVHo3o+3kftz+wr+2V4V/ag+HkFne3Edl430WJYtRsHYK0mM7ZYAx3SIVA3ED5ScGvvUHiv4SPhr8SvGvwi8Y6f4++H2qTaVrOmuHjlidl3rkFo5ApBaN8YZT1Ff06/scf8FKfh3+0JLp3gPxyI/DPjmdEjWNyFt765PVbbkkEjJAY9K88+svc/UOvi/wDb28C3Xjn9mvxELCIzXegPFqsaj+7at++P4QtIfqK+zQ4xmql7Z2+o2k1leRrLBco0ciMMqyMMFSD1BBwRXPisOqtOVN9VY9fIM2lgMdRxkN4ST+5n8fOBkY54r6//AGSf2XZ/2iPEF9da3dyab4W0PYLuWHHnTTSAlIYiwKqcAszEHAwMfNkZn7Wn7Nmsfs+fEK4gtrd38I6xJJLpV0ASqqTuNtI3/PSLpz95cN1yB9v/APBMfx7oA8MeKfhrNMkOsLff2pGpIBmt5Yo4W2g8kRtEC3+8K/KspyyKx0aGJWiv8z/QHj7jurLhaWbZLK7lbVauKe/zX4HuGuf8E8/2ctS0V9O0rTr3SL4phb2K9nkkDDoWjmZ4zz1AUe2K/FP4y/CnXvgx8Q9U+H/iFlmn09laK4QFUuLeQbopVHJG5eo5wwIycZP9SJOBk/KPf/Pav58/2+PHmheOv2g7o+HpFuIfD9jBpcsqEFHnhkllkAI/uGXYfdTX0HFmW4enQU4RSdz8d+j3xvnONzOeDxVWVSk4tu+vK+ln59j4qJOOleu/AXwPcfEj4zeDfBtvEZU1DUoDOB2toW82c/8AAYkY15G2cZPQV+5H/BPD9mTUPAOmTfGTx1Zm21rXIBFp1tIP3ltZMQzSOOzzYXA6qg5OWYD5TIstliMRFJaLVn9AeK/GtHJsoq1Jy9+ScYLq21v6LqfqNGnloqjsKmFRbuQPan7gK/Z7H+ZLd9RSwHWuT8a+OPCnw98PXfijxjqUGl6bZozvLPIqA7RnaMkZJxgDua8E/aP/AGvvgz+zJphl8e6or61LAbm10qFgbu5QEjKA4UAkY+ZhX8tv7Un7ZHxX/ag8U3l74ivpLDw35hFnpELstvHEjExmRNxDSYxubgZzgU0gPUP29f219R/am8a/2X4a8yz8C6M5SyiJKtd9xPKnO1hyAOeK+XfgN8FPF/x8+JGl/D3whavPLeSDz5gjGK3iHLPKw4UdsnvWP8IPhD44+N3jix8A+ANPe/1G8YbioOyGLcA8sh7Imcsfyya/rB/ZG/ZO8GfsteA49I0yKO88R36K2paiVHmSyYGUVsAiNWB2j8+a6qNG+rPGzTM1T/dR+J/h5ns/wd+Ffhf4L/DvR/h14RtltrHTItvykktIx3O7E8klieTXpU00FvC9zcyLDFECzOx2qAOckntXn/xV+Kfgv4NeBtR+IHj2/Sx0vTkJJc4MsmCUiQd3cjAFfzLftR/8FGvi38d9Qn0fwldTeFPCqSuYYbd2iuZo24C3Do2GGOwrslNbs+boYOpV0grn7yfGH9vP9mv4MSR2viDxINSupSw8vSwt5tK9nKNgc18CePv+Cy+i6dfPD8O/Bo1a1Gdst5K9u31KgGvwBeWSSRpJGLu5JYk5JJ6mo655YpbRR7tDIYJpzk2/uR+2H/D6b4gF8r8ONOC/9fsv/wARXZeE/wDgs/cXOoxQ+MPAcFlaMw3y29w8rKO+FKjNfg9nPWgEA1nGvJPU6J5PQaaSt6M/rZ+E3/BRH9mL4w3n9gWutPpF26DeuqRi1hO7gqJHbaa/K/8A4KG/sMSeFru4+P3wQhXVfB+pky31tZ/vRaO+AHiEe7fEcEs2cKevrX48bscrwema/QX9k/8Abz8ffBC8Twb41mbxP4C1EiC6srxjN5ELgowi3NhVIJ3LjBreNWM1Z6HBPLquGftaD5rdHvb9T8/YZpbeVJ7d2iljIZHU7WBB4II5H4dK/e79jH/gq3DaWGk/DL9pB2d4Sltb66i7mkDNtjFwihVUJwC/ccmvP/2l/wDgnZpPxA8OD4/fsoL9s0nXIBqH9jR4LfvvmxbBQAoGeFJ46V+LF/p97pl3Pp+pQNb3Nu7RyRyAqyspwwIPQg/rXNVoODsevgcyp14+4/kf3o6Prui+IdPi1bQb+DUrKYZSe2lWaJ/910JB/A1p5ycV/GD+z3+2n8ef2bbs/wDCEa0bzTfJMI03UDJNZKCc7liDKFYc81+6PwL/AOCuPwO+Id1Z6D8SLebwTdrbgz314yGyaYLltmwswBOcZFc7R6CZ9+ftCfBTQ/j38MtT8Bawwt5ZR51ldbQzWt5GD5cgHcclWHBKMwBGcj+ZT4g/Dzxd8LPF994J8bWD2Gp6e+HU5KSJztkjbA3RsBlWHUehyK/qc+H/AMUPh78VdEHiP4d6/a69ppbb59s+5c498HpXG/Gn9nv4Y/HzQl0jx5pommgBNrfQ4ju7YnvFLg8dCUYMhIBKnAr5riDIPrS54O0l+J+3+EPi/U4em8PiYuWHk7vvF91+qP5YDnJP5e9f08/Ab4weGfjR8OdK8V6DdRyXJgjjvrYEeZa3SqPMjdeo5yVJ+8uGHBr8v/iJ/wAEwfilo15LP8ONdsfENhklIrsmzugM8Do8TEDq25MnsOleVeG/2LP2zfDOr/avDOjXGhXBGz7Va6xbW52k/wB6G4EmPbFfNZNTxuAqNOk5RZ+5eJGM4Y4swVKcMwhTnB3XN2e6a0Z+ynx5+L3hj4MfDnVfFWv3Ucdz5Mkdjbs37y6uiv7uNF6n5sFiPurljwK/np+B3wR8Z/HnxvaeC/CUDLGSr3t4yloLO3zhpJDwDxwq5yxGB3I/Rfwh/wAE4fir471mHxB+0J46eVQBujguJdQvHQfwG4uRtjwT/Csg/nX6lfDD4S/Dz4NeG08LfD/S4tKs0+eQg7pZnxgySyNlnY+rE4HAwMCvZrZZWzCrGdePLCOy6n5llnG+WcI4Gthspr/WMTV3mk1CPa19zT+G3w98PfCzwPo/gPwvF5OnaNAsKZ5d2GS8jnjLyMS7HuxNd2GAUd6+c/ib+1l+zx8H9QuNG8f+ONO0rVYIjL9jkkJlfAyFUKCMnoOa/I/42/8ABZ1pbRNP+A3hdra+hnxJdauqTQSRDIzGkbg5PGM9q+vjBJKMdj+ccRiJ1qkqtR3lJ3b7s/bT4ofF/wCHfwb8OzeJ/iJrVvpNnErMqySKJZtvLCKMkNIQOSFBr+cL9sr/AIKeeOPi/qOp+CPgxcy+H/A8ivbNcAbbrUInAyXUgmL0AU5x71+c/wAUvjV8T/jPq8msfEfxDd603nSzwxTys8Nv5rZKxKxOxR0AHYCsHwH8O/G3xR8Qw+FfAOkT6zqs4JWCAZbaOp54AFaxi3ojmnUjFc0nZHIRRTXUyxxKZZpWAAA3MzE9Pck/jX7s/wDBOz/gnvdC4sfjn8cNPMaR4l0nSp1+ZiORPMpwVKMAVU9a98/Yw/4Jq+FvhVZWXj74zW8Wt+K5VWaOzdQ9tZggMFZXXmVTwTnHpX60qu0BUAVRjA7DHSu6nRUdT5XHZt7W8IfD+L/4AuAMKOAOmO1OoxRWx4rCiiigQUUUUAFFFFABXwP/AMFJPhxY/ED9l3xDe3ed/hdX1SLA/jiUr/WvvivLPjf4M/4WJ8IfF3gg8f2zp81uPbcKaWoOXKnK9ra6eR/EWCQAVO0g5GOua/sr/YA1hNZ/ZA+GUpuftNxDpaxzEtuYOJH4b3xX8dniLSTofiDVNDYktp9zNbn6xOU/pX9I3/BF7xDqmsfA3xfpd/OZotI1iOG3VjnZG0AfA9sk15VRWbP0WnUUoqUdmfsrRRRWZYUUUUAFFFFABRRRQAUUUUAFFFFABRRRQB//1f38ooooAKKKKACiiigAooooA+a/2ufibbfCP9nzxh4xu8bEs3tRn+9dAxD/ANCr+J/I2kjua/ra/wCCqsyxfsYeLFLYMl1p4Hqf9JQ/yr+SUDkD3qo9xNn9Uf8AwSo0SXSv2S9LnuIzFLdahfPz1KlwVP5V+ktfP37LPhqz8K/AHwXpljGI45NOtbggf3polYn9a+ga9ias7I/OFV9ovaWte7/EKKKKkAooooAKKKKACsfXNB0jxNpVzoevWkd9Y3aMkkUqhlYMMdCDWxSc96E7O4WT0Z/NN+27/wAE3/Enwn1K6+InwXtJdW8H3DGSayjBeewc9FRcs8qHk5x8vTpzX5QJJqGj326FpbK8tXIBUtHLG69eRgqRz71/duUV1ZGGVYYI9RX5pftR/wDBNT4UfG4aj4p8Exp4V8WTq0itAqpa3FwxyWnUKWOe5X61jUoqWq0Z7eAziVNKNTVLr1/4J+UH7Mv/AAVA+M3wNtrTwx4vX/hNPDFovlxQTuIp4VZiWYTBGZ+uQD+dfuv8C/8AgoJ+zd8dJ49I0TxCulaulsJ7iDUFNpGh/iVZZSqMQemDzX80vxx/Ym/aA+BV7fDxH4en1HRrEKW1SzRns23DP32AwR3BFfJJUnO4Y+vFcc4SW6PpqGKp1VzQeh/dP4n8L/Dj42eD7vw/riWfiXQb4bW8uRZoww6OkkZyrr1VlIIPINfkn8TP+Cc/xR+Huvjxh+zxr7Xy2khltoZJ/sepW59I5htjk78kx8cYPJP4Y+Af2kvj18LtKOhfDvx5qugafkt5FrcMiZPfHIr7B+GX/BVn9qL4e2JsdUu7bxeSf9bqvmSyf99Iy15WPyijiPjWvdaM+94S8QszyVyWEneEt4SV4v5P9D6x8Y6v/wAFFp9Nk8K+IrPxTJasvlv9g09WZh0INzZRFyD3y5z715J4O/Yv/aW8Z3McFr4LutLhdgGn1MrZJGD3ZZSJCP8AdRjUi/8ABaT9oQH5vCXh/wDBLgf+1KQ/8FpP2hSfl8J+HwPdLg/+1a8SpwnTqSvVqSZ+nYL6QeMwlKVPA4KlTb3cU/yP1C/Zy/4J3+D/AIZXtp4w+KN3F4p8QWxWWC2RCNPtpBg7gr/NM6n7rOFUddm4A1+ieo6rpGg2jXus3sGn2icGWeRYYxnplnIAr+VL4m/8FV/2oPiHp/2DTLq38JH/AJ66UJIn/NmavkPx3+0z+0D8TtIPh/4gePdV13TmIJt7qcuhI9q+hwOX0qEOSlGyPx3ibivH5vX+s5hVc5dOy8ktkj+rr4xft2fszfA67t7Dxl4rS4uLtN6Lpq/buOnzGEsF/Gvxe+P3/BXz4reOIW0L4Oacng6zV7iKW7bbdTXUL5VCFkj/AHRxzxk5NfjkAc4Gea+kPg/+yf8AHb42z2UngnwtdSaZevsGovGwtEx1LP7V3xpSk/dPlq2KhSXNUaR4PrWu634ivW1HX7+fUbls/vLiRpWGTnGWJIGT0HFfVf7MX7F3xY/aW8QpbaVYy6VoEO1rrUrlDGixvnBiD480+y9BX66/s4/8EmPBHgx7bxH8cLxPEmqRNn7BCQbAr1w4ZQ5OeO3tX68aHoOkeGNKt9C8PWcdhp9ogjighUIiKowAAOmBXXDDpfEfPY3O3JctHTz/AMkfPv7M/wCyv8Nv2YfCP9heD7YXGqXW1r7UZB++nkAxkZzsXGPlHHevpgnAJJyAOcV84fHb9qn4O/s/WLSeNNXjfVCpaLToWVrqUf7KEivyV+Jf/BWb4gavfTw/Crw3a2OlshVX1EOLgEg84Rscfzrac1H4meTSw9aq/wB3G/n0+bPI/wDgq3+0RqvjX4sH4L6az2+jeFNouAHylzNIqSK5HH3AcCvyOrqfGfi3X/HPie/8U+Kbt73U9RlaSaSQklj+PYdB7Vy1cNapzSufXYDCujRjCW/X1CiiisjssFFFFA7BT15OaZS4osCP6Af+COfxl1LVdL8TfBW9V5YNJT+1IJXcttErJEYwD0UYzX3j+0v+wv8ABz9o/T3uL6zTQfEUakQ6japtKbjlt8SlVfP+1zX8xP7Pfxh+InwO8Zf8Jp8O79rO52hJoySIrmMHPlygdVzzX71/s7f8FQfAXjl7Hwp8Y4B4Y1uQMJLwfLp5YfdAZiWyfpXfRqKS3Pk8xwFSnUdSEXy73XR9T8mv2hP+Cc3x3+CEl5q+n2H/AAkvhuBysV3agPO69i0CFmXj618FX+majpdy1jqtrLZ3CH5o5kaNxn1VgCK/uq0vVNN13TrfVtJuUvbK7QSRSxHcjo3III6g14F8TP2TP2fPi1Ndaj4y8G2Fzqd2mw3wiH2gcYBDeopToRb7Dw+dVYL3kpL7n/kfxx6Z4p8UaJGIdG1i8sYwc7YLiSNcjvhSBmvrnwR/wUM/a0+Hmhw+HfDnjRhZQ8IJ7eG4Yf8AApVYn86/VTxx/wAEcPhhd29xP4E8Uaja3rktGl20ZhGe3yx7sD618jar/wAEdvj9avIdO8Q6LcxAnb88wYj/AL94rJ4SXQ9SGfUNXO6t5Hlmm/8ABVf9sG0kU6h4jtrxAwJBsoEJHcZVRXVap/wVt/ahurVU0+4tbOXu/kRNn8Clcdrv/BL79qDR2lWHTItR8oEg25dt2PT5RXG6R/wTn/ap1S5aCbwjcWQAzvmQqp/HB5pvA1OxVPPcI4uant5P/I6af/gqT+2hM7MnjCCMH+FbC2/+IJr5r+Jn7Tfx1+LeqrrHjfxbez3KjA8iQ2y4/wB2LaK+zdD/AOCS/wC0prMayXF1pum7u1w8gI+oVDXtfgT/AII1+PpdRRviL4tsY7A/fFgzmXHt5iYpfU5p2eglxBhnBypyv5JO5+LV9qF/qk5vNTupbyY4BeaQyMfxbJrpPC3w/wDG3ja7hs/Cmh3mpvO4jVoIJJEDMccsoIH1Nf0w/DP/AIJTfs4eA9SXU9bN34rIH+o1Hy3hz/uqq199eA/hb8O/hfp39lfD7w/aaFa/887WMIK0WFit2cNbPpP+HH5v/I/n6+Af/BJL4meL3TWPjJfp4W0/91JFDAUuZZ1JBKttYeWccetful8GP2dvhJ8A9G/sf4a6HFYhyC87fvZnOMEmR8tz6A4r2/k0Y4xWyilsjxq+InVd6jv/AF2A+3WlGcc0mMdKWmYN3CiiigQUUUUAFFFFABRRRQAUhVZAUbkMCDmloXr/AJ70FR7H8T37QvhPUPBnxq8X6NqMRilOpXMwU8fJLKzqfxBr9Rv+CMPxE1Ox+KfiX4Wqx+wahZSaky9vMhKR5/I18y/8FSNIGlftc6/5Uflwz2djIDjAJaIE4/GtL/glZ4+0/wACftV2J1L7uuWM2mpk4/eTyRlf1WuDERSm0j7fK5ylh4SnvbU/rPooormO8KKKKACiiigAooooAKKKKACiiigAooooA//W/fyiiigAooooAKKKKACiiigD8Yf+CzHjmTRPhD4d8Fq+F8Q3TsV9fsxRh+VfzaWFpLqF9bWMA3STyKqjuSxxX74/8FvyfJ+Fa54Lal/KEf1r8YPgFpMWu/GzwTo0y7o7zVbWNh6hpAK3ow5pJM5sbW9nSnUXRN/cj+yn4S2Z074VeDrEjBh0ewUj3ECCvQqztHtUsdHsLGMYW2gjjA9kUAVo16Ulqz4BT5kpLqkFFFFIAooooAKKKKACiiigApAMUtGKBre5UvrOy1K2ey1S2jvLeQYaOZRIjD3DAivkH4s/sFfs0fGS/XVfEnhoWd3Gu1W09zZr9SsQUGvsjp0papSa2Gpa83U/C/x1/wAEZrG81Se+8CeOP7OsWOY7a4tmnZf+2m8Z/Kvlvxz/AMElP2htBk2+D3t/ESc8h1t/0dq/pzHrS1DhF7xOqljq8bWqOy6aM/kwk/4JlftkRcv4NQjOOLy3P/s9Pj/4Jkftjykf8Ucignqb23/+Lr+szJ7UuTWKoI7v7bq3P5kvBH/BJH9oDXSv/CXXNt4dB6kstxgfRGFfUHgf/gjNpVjqsF7468cf2nZL/rLeC2aBm/4HvJr9zCSR1yaQjPGa15IdIo4amOrybbm7P0R8W/Cr9gD9mX4Raj/bGg+G/tt4y7Wa+kN2n1CSgqDX2Fpmk6VodmlhotjBp9un3Y4I1iQfRUAH6VoYwOKM8Vd3scj3u9++4DPvk1+Y/wC3T+3Pa/BCyl+GnwynjuvHF6g8yYYdNPjbBDsCMMzDIAB4r6x/ai+OWn/s/wDwh1fxzcOv28o0FhG/SS6ZSY1PPTiv5OPEHiLVvF2v6j4u8QSmbUdWmkuJmYklTIS20ey54rnxNXlj6ns5Pl/tqjcr8q/F9iLX9c1jxTqk2veKb6XU7+YlmluXLldxJIUt91a9G+FfwP8Ai18bNUbR/hj4cn1aeMZLyfuIdp7iVwEP0Br69/YY/YY1X9o/VI/H/j6OXTvh9p8gKrgrJqTg5Cx7gQYCMhyOc1/Sf4M8C+E/h7oNv4Z8F6XBpOl2oxFBAuEUfjk/rXjyqSm/d+8+3XJCPKl8j+Q/42fsF/tJ/Bfwu/j/AMYeGtujLIkcz20yXLwvIflykZLbfVsYHeviogg4YYPpX98t9p9rqVnPp9/Es9tco0ckbjKsjjDAj0Ir81Pjb/wSr/Z0+LOpR6t4eSbwJOCWm/spEKzOxyWYS7uT7VanKK11/Mxsn5H8ogor9nfHP/BGT4y2mtzJ8O/EOm6hpQ/1T6hM0MxH+0I0IFefS/8ABHf9qyLGLvQXz6Xkn9Y6csRBK70JdJ3Pyjz6Ue9frDH/AMEcv2qHAL3+gJnrm8kJH/kKvd/hd/wRZ168d/8AhcHi9dPQD5f7J2ysT7+aoFP26autQjT7s/ClQzEBRkscADrn6V9yfsrfsFfF/wDac1aR4rd/DPhq1O241O8iPyuVyqpCxRnz6jgetfv58Gv+CY/7MfwptFXVtFXxlqEbiSO81RQZIyDkFRGVXr7V+hMFrDawpb2saxRRgKqqMKAowAAOwFQ5Tl0sVaK2P5ePjt/wTR+NHwH0+fWfCZXxr4ds4fPuruFVgmi9QIdzO/4V+fs8LLK1pfQvBNGfmimQxyKexKsAR7cV/ceUyCp5Ffn/APtT/wDBPz4WftDNceKNNX/hGvF+xj9utVA+0yBf3az5zwD3HNZy5o76o2hVVrbH4Yfs2ftqfFf9nC8i02G4k1/wo8okn0+dt0gHQ+XI+Sgx2UV/SF8Efjr8P/j54NtfGXgHUEuIZhiWEnEkMg4ZGBwcg5GcYNfykfFr4QfEL4FeNLrwH8SdPax1C3YrHMqkW90oPEkDNgsrdjW78B/jv44/Z28d2/jbwbct5DMq39kWPk3UI4IYDuo5GO9enhsUnaM3ofO5tkacfa4da9u/+TP6/Bg5Hp7UoZhXkXwQ+NHg/wCPHgDT/H3g248y3u0HmwsQJoJCOY5FBO1h79RXr1dx8nzP0Yb3IwSaPMcDqT+NFFKwc77iB2brn8aUZ9aKKYnJhRRRQSFFFFABRRRQAUUUUAFFFFABRRRQAUUUUAFAopD6UMadtT+dX/gsb4Jh0v4j+GvHCD95rkLQsf8Ar2VVH86/Ov8AZHuZbX9p74YSxOUJ1+wU4PUNKoI/Kv1//wCC0Ojz3Phj4d6tEuY7S4vVc+m9Y8fyr8L/AIZ+J5fBXxE8N+LYCBJpF/BcqemGjcMP5Vy4r4j6zIk1Qs3fVn93efWlrk/AeuP4m8EaB4jk+9qlhbXR+s0av/WusrhPbCiiigAooooAKKKKACiiigAooooAKKKKAP/X/fyiiigAooooAKKKKACiiigD+fL/AILc6hBPqPwz06N8vbpfs49N5jx/Kvyd/ZNh8/8AaY+GkOOuuWWR/wBtBX6K/wDBZfWbu7+Lvh7SJkHkWVsWjOeSXVSf1r8/f2NoFuP2o/hqrNgLrVo2fo+a3pfEjlxqTozT6pn9lyDbGi+igU6lYYb6Uleij4K1tAooooEFFFFABRRRQAUUUUAFFFFABRRRQAUUUUAFFFFABRRRQAUdTiikB+fjtSbsVE/BX/grZ8RtQvfG3hb4WRTA6bFa/wBoyoOf9IRyq5/A1+Znwf8Ahpq/xl+KXhz4YaGdl3rU/wDF0EUPzyZ+qg96+lv+Ch+p3up/tQa7HeoVWyLwwk/xICDx+NdT/wAExdLsb79qSwvboBptPikaAnsZIirY/CvJzGpZu3ofe8P0XHCxvu7t+p/Sr8PPAugfDXwZpPgjwtb/AGXTNIgWGGPOdq9T+pJrth0pi8gc04dKiEUlZHU3d6i0c0UmaoQYpMUuaCRQAn0pcH1ppwKUMCOKAHUUmaAc0ALTcck07pSDNAHzn+0l+zj4J/aO8BXnhXxJbRRaiInFhqGwGW1lIOCD12Z6rnmv5P8A4r/Cvxh8FPiDqnw18dWrW2paawKkjia3b/VSKRkYdcHHXnmv7S9v5V+IX/BYP4eWkmkeDviVYWqxXVpNPFezKMPJGVRYgx/2T0rCa5XzI6aLv7rPj/8A4Ju/H24+FXxiT4faxdFPD3i5hGseeBfyMFQjPbbmv6U8g/MOhr+MHwRrE/h7x34Z8QW3+u03UIJ07co2QM1/Y14N1OXWvCGiaxOMSX1lbzMB2aSNWP8AOvaw8+aGu60PiM9w3JiXKK0kr/M6SiiitTxQooooAKKKKACiiigAooooAKKKKACiiigAooooAKKKKACiiigD8wv+CrvhqDVf2arjXpBmTRriJlPoJpFQ1/LkeV64xX9aX/BTGye8/Y88ZeWu5o3s2/75uENfyXMcg5H+RXNi5X5T6bh6DUZtvd/of3MfAKQyfAz4fSNyW0DTD+P2aOvXa+Tv2JPHlt8QP2afBeq2xyLKyisG/wB62jVTX1jXAz6IKKKKACiiigAooooAKKKKACiiigAooooA/9D9/KKKKACiiigAooooAKKKKAP5Xv8Agrxqd3cftPy6bK2YLWytjGPTfEpNfLf7EEEdx+1N8PBJ/Bqtuw/76r6V/wCCuP8Aydbe/wDXjaf+ihXzh+wz/wAnUfD/AP7Cdv8A+hCurDr30ceP/hS9D+xV/vn602nP99vqabXaj4We4UUUUyQooooAKKKKACiiigAooooAKKKKACiiigAooooAKKKKACgEbhRSYoGnY/nF/wCCp/hD/hHv2gtL1qBHEWt6c87Mfu+YJNuB2zx0r5o/ZC+K2n/Bf9orwl441p3TSEle3u9pxnz18uMnPox/Kv3X/wCChnwAl+NfwYn1TQ4i2u+F2+3QiNN8syQhiYl7/MT0r+ZLbIwaKeMxzRnZIhyCkidQQehUj2NedmFNt83c+z4bxKdL2T3j+R/cVbXMVzbR3MLb45VDqRyCCMg5HWrINfzlfsd/8FJb/wCDeg2nw1+M0c2qeGbHC2mpLmS4toh/yyKAbpOSSCTx0r9EZP8Agqv+yGluZU1nUXYA4X+z5QSfSuCNWys0ey6T3R+kmaiaWNAWZwAPU1+H/wAQf+Cw9jb3Vxa/DDwYdXtcFY7q5nNuyk9G8tl5x1xX5xfFT9tz9pb4u29zpPiHxU9ro1wxIs7aJYmUHoPNTDH0pKtJ7RLVDuf0yfE79qD4D/B6c2fxD8ZWOkXe0ssLszO3sNgPP1r8/wDxV/wWD+D2i6jc2GheEdW1yOFyqXMDxLHIOzLu5wetfz23lxJM/wBo1W7kun/vXMrSnj0MhOKZG0Xl+YGVE4wcgAj1HrRySfxSLUII/ciP/gshpo1FpJvAF+bEj5UV08wfjnFdxpH/AAWR+Fd3NHBqngLWrLJAaRpISgHr16V/P6LiB2CJIrSOQqqDyWPAAHUmum1PwX470SI3OveFNV0+3UZ86eylSIA9y7DFTDC8uqk/vKm4vc/rD+F37af7OPxalsdN8MeMrM6zeqD9gcssyMRkqcqFyPrX1Qk0cqhomDqe4Oetfw2W8sJcTWE/kzL0e3fY4PsynI/OvrH4L/to/tC/AxbXTPDfiJ7/AEG3kDyafdKspkAPK+dJucZFV+8XmQ6UXsf1yk8U4V+QXwk/4K4fCfXbRo/jHpc/hHUC+2NLZXvI3HqWAG3NfoL4e/aa+BfiXR49b0/xjpyW8i7gJriOKQD3RmBB9qTxcF8Whm6Euh7vnFfgf/wV3+MelatrXhv4MaFdiS90xpLrVYlOQkcyKYMgd8ivev2qf+Cn3gPwfoOp+EPgbOdY8XuXtvtTJtt7MMp/fozArLtPRePrX8+er6tq2u6pfeIfEV69/qeoSPPc3ErFnZ3JJOSemTwucDoKbftLW2LpwcX5nSfDfQJfFnxK8J+FYAd2q6lBb/LyQJDyf0r+xfwvpX9heGdJ0QHd9gtYYMnv5SBf6V+EH/BMD9my88T+Lbj46+KrJhpOmfudNSVMCWbhlnQnqF5GRX7+E55HSvcw9Plh6nxGeYr2ldqLdoq3z/rQSiiitTxQooooAKKKKACiiigAooooAKKKKACiiigAooooAKKKKACk70tJ3oGj5i/bJ8ODxX+zf4y0Yru3WwkwRn/Vnd/Sv415k2u6ehI/Wv7f/i9ZLqHww8T2jDIewuf0jY1/ELdD/SJR/tN/OssVbkj8z3OH5v2tRdLL9T+rb/gkldvd/sdaWzksYtW1FBk5wFZBX6b1+XP/AASCZT+x3ZqOq63qf6slfqNXms+rCiiikAUUUUAFFFFABRRRQAUUUUAFFFFAH//R/fyiiigAooooAKKKKACiiigD+U7/AIK4/wDJ1t9/142n/ooV84/sND/jKj4f/wDYTt//AEIV9Y/8FgNCFj+0bFrfnbjqFnCNmMbPKjUdffNfIf7El19k/am+HZ27vM1W3X6ZauvDv30cePX7qXof2QP99vqabSsckn1pK7EfDTCiiimQFFFFABRRRQAUUUUAFFFFABRRRQAUUUUAFFFFABRRRQAUUUUANIyCD8wPY9DX44ftn/8ABOaTxfq918U/gRFFa6pOWlv9KAISduu+FVH+sdiSxPWv2RpMkDg0pJNWZvh8ROnNTg7NH8Y3i/wH45+HuqNo/jzQLvQ7xSR5dym0nHHvx+NcxsfbuPTt6V/WX+1h4e8O3XwD8earfaXa3F5Do960czwo0issLFWDlcgg479q/jV+3Xfl7PNbA6cmuDEYfls47H2GU5xKvzRmtVbbzPpfwP8ACz4pfFKee3+GfhO/8USWpAkFlHv2Z6ZzX298Kv8Agl1+0h8RNNj1nxCbTwZAZAHtNSSRbvZ3I2Bhn3r9bP8AgmDoWlWH7HvgrVrS1jjvNRW6eeYKBJIVuHUBm6nAFfoTg9jWB6rqM/NH4Qf8Etv2e/hzewax4kS58YXPlgSW+psktp5hXkom0EYPTJr8nv8Agrl4A8EfDT40+END+H+h2ugWMmhCSSGzjESPJ9okG5gOCcADNf1I1/Lt/wAFivEFrrX7SOkWlu+46XpC27jGMN5rsR+tNEOXc/LrwYC3jPQF7tqFoP8AyKtf3S6v4W8O+MfDy6H4p06DVNPuI1EkE6B42GO4Ir+Ib4JaN/b/AMWfCumHPz6hA3HOdjhv6V/c1ajbbQj0Rf5UNBc/PP4xf8Ezf2cvihIl3oljJ4LuIUIA0bZbxSNjgyLtOfwIr8HP2qP2W/FX7JfiPRdB8Y6zZarH4ijnnsntRICkcLbSJd4GWOR0GPpX9e2K/Bv/AILV+Ep7vS/BHjFR+605Zrdm295nGBn8KmxUZtH4qKoeMsnzL0PP+c1nmy01zueJSfqa4fQ7+SHVbNZmZojKgZM8EE4P86/qe0P/AIJx/spa3oOl6vceHJhJeWdvK+LqQZZ41YnAPqa1hh3M5cXmsaNro/mfWa2h228XLH5VRQSST2zg1+kH7J//AAT6+IPxj1yz8T/FGyn8N+DYCkpjlUpcXo4ZBHwV2k/ez1Fftj8M/wBjv9nz4TyPceFPC8Rlfq13/pOPoJAcV9MRQxwRrDAoSNAAqqAFAHQADpXVTwqifP43P51IuEFy3631Mfwz4a0LwfoFl4X8M2Uen6Xp8YiggiUKiIOgAHSt0e9JilrpPn2FFFFAgooooAKKKKACiiigAooooAKKKKACiiigAooooAKKKKACiik60DRynjxBL4F8RIf+gfdf+imr+Gy7BW7nVuCrvn86/uh8VRmbwrrcY/jsblfzjav4ePF1i2meKtXsWIJhuZFP/fRrDER0ufQ5E0puPWx/Sx/wRx8QQ3P7OV54cEqGSz1O6mKDO4CRhyeOhxX681+A3/BE3Xru4/4T/wAOtgQWcVvKvrukc5r9+a89n0wUUUUgCiiigAooooAKKKKACiiigAooooA//9L9/KKKKACiiigAooooAKKKKAP5rf8Ags5oP2H4qeGNc8wt/aFu429lMYQfrX55/scTm3/aj+Gj4+9rVqv5viv1Q/4Lc2EEOqfDK/jUiWdL9WbsQpjx/Ovyf/ZMfy/2mPhm4OP+J7Zfh+8FdFH4kcuNaVKbfZn9oZOcGkpq8ojeqinV6B8E3ezCiiigQUUUUAFFFFABRRRQAUUUUAFFFFABRRRQAUUUUAFFFFABRRRQAUUUh9KBng37UUBm/Z2+IaL1GiX5/wDIDV/FgRwf89K/uO+KHhx/GHw28T+E0OG1bTrq1B9DNGyj+dfxM+NfDk3hHxfrfhe4O6TSbye1Y+phcof1FYYlOyPeyCcFUnFbtJ/dof1nf8Exb2C5/Yy8CQRsC9st0jjuCbiRv5Gvv+vw5/4IqeMrm/8AAvjzwhqV/wCYNOvLVrK3d+VjZHMmxTzjdjOK/cYdK89n1IV/In/wU41e61T9q/xLBc422MjQpj+6Dxmv67M1/I5/wVA0KXRv2rNfuZDkaiTcLkY4LED69KqAmeWfsG2lrf8A7VfgW3vIlmia4clW6cRsQfzr+zROEUewr+Mz9gy5gtP2q/As9y4SNbhwWJ45jYV/Zmn3F+gpSGOr8pf+CwmmxTfsp/2oVzJbaxYoD7OW/wAK/Vqvy8/4K98/sdX3/Yb0z/0J6SA/lUtTtuoW9HU5/EGv7j/h1L5/w/8ADjjnOn2v/ola/hwtzm4jz/eWv7hPhZ/yTfw1j/oH2v8A6KWu/CrRny/EDftILyZ3o6UtFFdB4AUUUUCCiiigAooooAKKKKACiiigAooooAKKKKACiiigAooooAKKKKACg9KKD0oGjN1mNZdF1CJhlXt5VI9coRX8UPx0sItM+LviqxiQxrDfSAKeo571/bRdLutJ0AzlG/lX8Yv7WELQftF+PYmXYV1KX5fTgUVkvZP1/Q9LJaj+t8v91/mj9S/+CIkh/wCEx+JsWcgWFi2PrK4r+iOv50/+CIZH/CffE9e402w/9HPX9FleQz7ZhRRRSEFFFFABRRRQAUUUUAFFFFABRRRQB//T/fyiiigAooooAKKKKACiiigD8Bv+C3/+r+Ffru1L+UNfjt+zLciz/aD+Ht2/Ai1qzJzwP9YK/ZX/AILeWkj6b8ML1QdsUuoKfbcIsfyr8MPhpq66B8QfD2sucCyvYZc/7rA10Yf4437nFmMW8PUS7P8AI/uItJPNtIHHIZFIx7irFc34NvV1LwhoOor0u7G2lH/A41b+tdGOgr0ppXdj4GkmoJPsvyFoooqSwooooAKKKKACiiigAooooAKKKKACiiigAooooAKKKKACiiigAoopDntQF7ah8pO1uh/lX8kX/BQ74MyfB/8AaS16KAyS2PiE/wBqxysuE8y6d2eNT32mv63SOQfSvz0/4KLfswXP7QfwgbVfC9o1z4q8L77mziiAD3OQFMRJxnAyRzUzhzRcTtwWIdKqp/L5P/I/AP8AYb+PSfs8ftD6B4xvI1l029zp10JZDHFHHdssbTMRx+7Bzk1/ZJpmq6drOnW2raRcx3tleRrLDPCweOWNxuVkZchlIOQRX8ElzbXFlcS2d3E0M8LMjxuCrKy8EEdiDwa+5vgT/wAFF/2kf2f/AARH8P8AwnfWep6PbyFrddUie6e3TaAIom3jbGMZCgcHp6V5klrY+6v1P6q/jF8aPAPwP8HXfjHx7qkNhbQo7RRs4Es7qPuRqSC3bOOlfx9ftXftD6r+0v8AGDVPiFfKYbHc0VhARzFbA5VT79+9c/8AHf8AaN+K/wC0d4pk8U/E3V3u3O3y7SJnSzt9ox+5hLFUz1OOp/Thvh58NPG3xW8T2vhDwHpcuq6peNhI4x/MngD61UYt6ImpUUFzSehS8AeKbjwR400bxXayGNtNuopmZfvbFYbwOnO3OK/tq+Cfxo8AfHj4fab8Qfh1qAvdNvY13IxUT279450BJRx6Htz0r+KD4i/DXxt8KPFFz4L+IGlS6Rq9ptLwy4Jw33WBBIIPbBr1j9nT9qv4wfsv69c638MtRQQ36MlxY3QaWzlLY/eGIMB5igYVs0pRadmFOoprmi7o/thyK/Hb/gsd8SfDemfAaw+F89yBrWtX9texQjqYbZjuY+nWviH4h/8ABY/43axbWVr8PtIsNGJtVjvZLqHz3a4K4d4drjYuclc8ivym8bfEPxx8SNV/tzx5rl3rl9ltsl3K8xjDHcQm4nauewpJFnK2aM93BGOSzqPXJJFf3H/DyD7L4C8OQYxt061/9FLX8nH7D37OGtftB/GfSbN7B5vDmkzJcapN0Cwg4AB7ktiv67bO0isLO2sLcYitYkiQdflQBR+grvoQtE+SzutGVVRXQtUUUVseKwooooEFFFFABRRRQAUUUUAFFFFABRRRQAUUUUAFFFFABRRRQAUUUUAFFFFA0Ry/6qX/AHTX8bP7Z/H7UvxHA6DVZOn+6tf2Tyf6t/of5V/HN+3Aqp+1j8S1UYH9qvwP9xazrP8Adv1/Q9LJY/7Vf+6/zR+jP/BEP/kofxQ/7Bdh/wCj5K/ovr+c/wD4Iif8lE+KH/YKsP8A0e9f0YV5sj7ZhRRRUiCiiigAooooAKKKKACiiigAooooA//U/fyiiigAooooAKKKKACiiigD8hv+Cw3hUap8ArLxMRzo90gHH/PZ0Xr2r+YiGRopo5VJBRgfyNf1p/8ABViBZf2MvFLsBmK709ge4zcKDX8lI6/jWkCZq6sf3A/B6f7V8JfBU/Uto2nn/wAl0r0avG/2ersXvwQ8Dzg5A0ixXP8AuwIK9kr1ZJptM/OI1VOPOtgooopDCiiigAooooAKKKKACiiigAooooAKKKKACiiigAooooAKKKKACiiigApB3paQjNA0fld+2R/wTY8L/HbVbr4jfDedPD/iuWNjcQBQtvfSgAIzEnEZAGCQvPfnmvyA13/gmv8AtW+H7pbS58PQTM5wGguVlX81Ff1o/Sjmjkg37yOmnjq9OPJRnZeaufzFfCz/AIJN/tB+KtbtV8fta+HNDkBMtxHOk86egEXH6mv3a/Zv/ZQ+F/7M/heLRvB9mtxqsir9r1KVf39xIBgvgk7AfRTivpvJpMDOe9JRS+FWJr4ipVt7WV/wX3HyR+1R+x78Nv2pPDJstfQab4gtQfsWqRLumhJI3KygqHVgMYY8dua/nm+On/BOz9oT4MyXeowaQfEGhpNsgnsT588iHkM0KAstf1oAYz70oyOwPbpRKKkrMrC4udH+G7Lquh/FB4T/AGePjV408RW3hjR/B2ppe3ThFM9pNDGpPd3ZQFH1r9QfgX/wSD8cavcR6n8b9Wj0KCGWN1tbMrdGeMHLKzArsyOOK/oYSCCKQyxRqjt1IGDUuWOS2KmNKC2R0Vs1r1FZu3p/meYfCf4OfDv4JeFo/B/w40qPS9PU7mxlnkY4yzM2WOcdzXqFJj8qWrPOCiiigQUUUUAFFFFABRRRQAUUUUAFFFFABRRRQAUUUUAFFFFABRRRQAUUUUAFFFJ7UDQMMow9jX8c37cqlP2tPiardRqrf+i0r+xod89xX8dn7dvP7XfxP/7Crf8AotKwxHw2PZyJfv3Lyf5n6Ef8ESJ0j+JfxLgb70ulWWB9JnNf0b1/N7/wRPx/wtb4h++l2n/o16/pCrz2fXhRRRSEFFFFABRRRQAUUUUAFFFFABRRRQB//9X9/KKKKACiiigAooooAKKKKAPzy/4Kk2s15+xl4wigXeyzWLYHotwpNfyMKw4Ppiv7aP2sfBcfj79n/wAY+HpU3g2Uk+MZ5gBf+lfxLAYFWnbULH9hf7CnilfFv7MfhPUkfzPIi+zf9+QFxX19X5uf8Eprxrr9kLSUc7jFqWoL+AkFfpGK9eUru5+czoRpP2cegUUUVJIUUUUAFFFFABRRRQAUUUUAFFFFABRRRQAUUUUAFFFFABRRRQAUUUUAFFFFABRRRQAUUUUAFFFFABRRRQAUUUUAFFFFABRRRQAUUUUAFFFFABRRRQAUUUUAFFFFABRRRQAUUUUAFFFFABRRRQAUnelpO+aaAWv47f27f+Tu/if/ANhVv/RaV/Yl1zX8dv7dwK/tefE8Nx/xNW/9FpWFfY9zI/4r9D78/wCCJ/8AyVf4hf8AYLtf/Rr1/SFX83H/AARRmhj+LHxAR3Cs+l2u0Hq2JX6V/SPXm2PrAooooAKKKKACiiigAooooAKKKKACiiigD//W/fyiiigAooooAKKKKACiiigDiviQob4eeKFI66VfD/yA9fwgdCwPYmv7yPHkD3XgfxFaxjLzaddov1aFgK/hM17S7nRNbv8ASbxNk9rM8br6EGqiB/TP/wAEkNQWb9mMaeG5tdSvWI7/ADsDX6mV+IH/AARo8TG98O+NPC+7/jwMUwGenmsw/pX7f17Emmlbsj88r0pQqTUusm/xCiiipMgooooAKKKKACiiigAooooAKKKKACiiigAooooAKKKKACiiigAooooAKKKKACiiigAooooAKKKKACiiigAooooAKKKKACiiigAooooAKKKKACiiigAooooAKKKKACiiigAooooAKKKKACiiigAooooGKvWv49P2+uf2wfifjj/iaN/6LSv7DBX8ef7fP/J4PxP/AOwm3/otKwxHwnu5Ev3j9D65/wCCOzMPj3roUkA2UWQO/wAz9a/p9r+YH/gjt/yXzXP+vKL/ANCav6fq4Zn1KCiiioGFFFFABRRRQAUUUUAFFFFABRRRQB//1/38ooooAKKKKACiiigAooooAr3UCXVvLbSDKSqyN9GGDX8U37YWgW/hf9p/4leHrQbYbHV5o19gAD/Wv7YcV/GH+3oCn7Y/xYU99bmP5qtVFgfoJ/wRYuQnjL4kW5P+ssbH9JZK/oMr+b7/AII763FYfF3xRpbHDajZQqB/1zZmr+kI9a9WELQiz4LMKjeJqR7NfkJRRRTOQKKKKACiiigAooooAKKKKACiiigAooooAKKKKACiiigAooooAKKKKACiiigAooooAKKKKACiiigAooooAKKKKACiiigAooooAKKKKACiiigAooooAKKKKACiiigAooooAKKKKACiiigAooooAKKKKAHCv49P2+f+Twfif/2E2/8ARaV/YWK/j0/b5B/4bB+KH/YUb/0WlYYj4T3si/iP0Prf/gjt/wAl81z/AK8ov/Qmr+n6v5gP+CO3/Je9bPrZRfozV/T/AFwzPqUFFFFQMKKKKACiiigAooooAKKKKACiiigD/9D9/KKKKACiiigAooooAKKKKACv49f+CkHhi+0D9rrx1e3SgJrF491Fx1UgD+lf2FV/MX/wWY0iLTf2g/DV1GADqGjea2BjkTMpP6VUQPF/+CXWuyab+1doGloxCakk6Ng9dkTNzX9WJGDX8jH/AATjuBbftheA5ScZkuR+dvJX9cxORmvSoybjqfGZwoqu7buzCiiitDygooooAKKKKACiiigAooooAKKKKACiiigAooooAKKKKACiiigAooooAKKKKACiiigAooooAKKKKACiiigAooooAKKKKACiiigAooooAKKKKACiiigAooooAKKKKACiiigAooooAKKKKACiiigAooooGhy/er+Qj/goZaxW37XnxCePOZr8u312L/hX9e69a/kR/wCCiWD+1z49/wCvw/8AoIrOslyu57GSt+1XzPdf+CR/iSDR/wBpJ9IlQs+sWwiQjopjDtk/hX9UYr+Sv/glcD/w1hoX+5J2/wCmb1/WpXms+utYKKKKkYUUUUAFFFFABRRRQAUUUUAFFFFAH//R/fyiiigAooooAKKKKACiiigAr+aj/gtbn/hengUj/oAOP/Jl6/pXr+bn/gthaEfF3wHf7Pl/saSMn3+0OcU0B8GfsJ6jHpP7U3ga9kOFS6cH6NE4/rX9hacxqfUCv4p/2c9XXQvjV4U1JpPKEd7GN3+8cf1r+1W2YNbQuDkMinP4V61Fr2S9T4nOKb+tyl0aX5slooopnnMKKKKBBRRRQAUUUUAFFFFABRRRQAUUUUAFFFFABRRRQAUUUUAFFFFABRRRQAUUUUAFFFFABRRRQAUUUUAFFFFABRRRQAUUUUAFFFFABRRRQAUUUUAFFFFABRRRQAUUUUAFFFFABRRRQAUUUUAFFFFA0OXrX8lX/BSXSJNN/at8XXTtuF9P5w9hgD+lf1qr94V/KZ/wU/gni/af1iSaMoso3IT3HrRON6cvkd+V1LYmnHvf8iH/AIJc6laWX7Xfhiznz5l4JkjI6ZWJyc/hX9cdfx8f8E0z/wAZofD/AP67XP8A6TvX9g46V5Mj7gKKKKkAooooAKKKKACiiigAooooAKKKKAP/0v38ooooAKKKKACiikzQAtFIWArOuNY0m0fyrq9hhf8AuvIqn8iRQBpV+BP/AAWp8Nwung3xXvYSRKbXbj5cMzvn61+0ni/42fCrwHCLjxX4msrFCC2TKHOB14TJr8Qv+CqP7S/wB+M/wm0Lw98NPFFtrmuWeprNJHFG+5YBG4J3MoGN1UkB+JXw9vJLDx1oFzEBuS+t/wBZFr+43T23adase8SH/wAdFfwweFiR4o0cjg/bICP+/gr+5vSmzpFkw5HkR/8AoIrvw8m4nzGepc8Wuxfoo9qK3PngooooAKKKKACiiigAooooAKKKKACiiigAooooAKKKKACiiigAooooAKKKKACiiigAooooAKKKKACiiigAooooAKKKKACiiigAooooAKKKKACiiigAooooAKKKKACiiigAooooAKKKKACiiigAooooGhy/eFfy9/8ABWKKRP2i4mkQqHs8gkdRu61/UIv3hX80v/BYKIx/Hjw+5XAk0onPr+9IqpP91P5fmb4G/wBco/8Ab35Hzv8A8E1zj9s/4d+89wP/ACXkr+wvNfxAfs2fGQfAD41+Gfi09g2qJoEzyNbKwQyB42jIBPA4brX7cw/8FuvhwzIk3wy1WNTjLC+gIHqcbK8do/Qbn7jZ5xS1+e/gv/gpx+yP4o0i0vdW8Xx6DfXIXdZ3EcrvGxxwXSMqeTj0r7n0LxX4b8S2dvf6DqMF9BdIJIzFIrblIznA56UrCOhopoYGnUgCiiigAooooAKKKKACiiigD//T/fyiiigApMijNedfFH4peCvg74M1Dx54+1KPTdJ09Nzu5+8eiqoHJZmwB70Ad7dXltZW0t5eSrDBArPJI5CqiKMsxJ4AA5J7V+dv7RX/AAUw/Z9+B5vNA0jUf+Er8SLarcWsdhtuLJnckBJLiNyFPHIwSK/EX9rP/go98W/2gNZ1LRfBt7ceFPA7lore1gcxXU8DLtcXTo2HDHPyjHGB61+cITkKBkt0A5J/D+VUogfqN8Yf+Cs/7SfxDurV/Askfw+gtwwdLFhcGbPQsZkJBA9K+AvHfxh+KHxN16bxL448S3mqajcHLyvIUyfomFH5V658G/2Mv2h/jlFZat4L8J3TaFeybDqciqtugBwWOSGIHsK/UD4cf8EVdci1aC6+KXja0utMIBkg05JY5voGddtZOvHZalqm+uh+E0uo6hMP9IuppB6NIx/mTVMc5PX/AD1r+paz/wCCO/7Kds6Sy3GuTshBw94m049hGK+Jv+ClX7E/wR/Z6+DujePfh1bXVrqcmpxWLCSUPG8Txu5JAUfNlRzTdbVaCUdHqfi94Z/5GbSf+vuD/wBGCv7lPD5P9hafn/nhH/6CK/hp8Nkr4j0th1W6hP8A4+K/uM8JTG58M6XO3Be2iJ/75Fephl7rfmfH5/K1aEfJ/mdDRRRWx4wUUUUCCiiigAooooAKKKKACiiigAooooAKKKKACiiigAooooAKKKKACiiigAooooAKKKKACiiigAooooAKKKKACiiigAooooAKKKKACiiigAooooAKKKKACiiigAooooAKKKKACiiigAooooAKKKKBoVTyDX83n/BZKLy/jV4OfP8ArdHkP5TsK/pCHFfzn/8ABZ+Ep8XvAc2OG0abn/t4NRVfuNHflUL4iDfS/wCR+O+m6VqWtX8Ol6Pay3t5cHbHDChkkdvRVXJJrr9e+FfxN8LW32vxL4T1XS7cc+Zc2c0S/wDfTKBivUv2Rtat/D/7RvgjVrpgscN8M5/2lIH6mv7N9a8IeFfGmlJZ+KdKttWtpUBMdzEsqkEejA14VSvU9pyQWyPvlSioKUj+Db5T2/CvTPh18Yfib8JvEcPiv4eeIrrR9VgRkSWNt2Fcc/K+5cfhX9a3xW/YA/Zh+LGjrpF74QttBKtuFxpEUdpPn0LBDke2K/Iz9on/AII++OPCy6n4m+BeqLr+mRFBbaRKGbUGyMN+8wsZwa19s18S0I5L7M6b9mn/AILB6vo6Wnhn9orT2v7KGM79ZtR5l3I/AG+EBUx34r95/AXxJ8DfE7Q4fEHgXWrXWbOWOOQtbypIY/NXcqyBSSjY6q3OQfSv4afFvg7xR4C8QXvhXxlpk2latpsjQ3FtONrxuvVT2/EGvZv2cP2nvif+zH44tfFngTUHNmHxeadKzNaXUTcOHiDBdwBOxv4Wwa1snrEh3W5/bQCCKWvn39nH9o74e/tN/Dq2+IHgG44+WO9snbdcWFyV3eTNjjcByCMgjkelfQXXmpAKKKKACiiigAooooA//9T9/KKKKAOZ8YeLNF8DeF9V8Y+I5zbaVottLdXMgUtsihUs5wOTgV/Il+23+2T4p/ar+IEzxs+n+DNJkaLTbEOSrKCV+0SZA+eQANtOdvQetfr3/wAFgf2gZvBHw10r4NeH7+707WfFDC6naBtkcunJvjkic5yQzEZHTiv5rrGylv7630+2AMtzIkSDOfmdto/Wnsrgdp8M/hh41+L3i+y8D+AdOfUtWv3CJGoO1c8bnboqjqSeK/ph/ZP/AOCX/wALPgva6R4v+JMa+KPGlvsucvkW1nMyjdEqhisoQ5+Zhye2K9U/YU/Y48L/ALLfw5g1LVFivPGusxLNqN9wyQhukMDEBlTbjd6nNffMNxFOgkgYOh6Ecg/jXNKUZu1/kaarYr2Wn2Om262mnW0VpAn3Y4kVEH0CgCrwHAo4xR0reKSWhDYtfkD/AMFm2U/s16CmeTr8B/KGWv19BzX4of8ABaHxNbR/Cfwt4SJHny6kl2Aeu1UdfyrnxNTl5fNounBu5/Or4c/5GHTMd7mH/wBDFf3EeDFKeE9JVuCLaIf+Oiv4efDHHiXSP+vuD/0YK/uU8PAf2Dp+OP3EZH/fIr28M/cfqfG5/H/aIPyf5muOlLRRWx4zCiiigQUUUUAFFFFABRRRQAUUUUAFFFFABRRRQAUUUUAFFFFABRRRQAUUUUAFFFFABRRRQAUUUUAFFFFABRRRQAUUUUAFFFFABRRRQAUUUUAFFFFABRRRQAUUUUAFFFFABRRRQAUUUUAFFFFABRRRQAV/P/8A8Fn9Ed/FPgXxD5Z2RWL2+/3aVmxX9AFfjT/wWO0hJPhT4c1sqS0N8kO7thlY4qowUlJPszbDYh06tO3WSX3n4AfDrV7jQvHegarbNskgvYDnGeDIAf0zX92GkOZNJspCcloIz+aiv4NPD5xr+mMO11Cf/HxX942gsG0TTyOht4T/AOOCvDlbnv1P0S7sa1R45/GpKjLhQWY4A5P4U27aknyz+0x+yT8Kv2nPBl34d8V2MdnquHey1SCMC4trhhgSHaV8zHdXJBr+Sf8AaC/Z9+IH7N/xFvvh749szHLCxa1uUBMF1A3KPG/3SSpG5QcqTg1/SD8Zv+Cq/wAA/g74/wBR+H1zpep69daXIYriew8owpIpwy5d1JI9hWd+2T4D8Cftx/spr8SvhNNBrepaNG15p06sP3QUq11C5xkOFUgjsR+Nc/tIRs47M15W9GfhB+xF+0rffs0fG3SvElzdvF4b1J1tNXQZZRau675BH0LqBwcZr+xzQ9ZsPEOjWGvaXIZbLUreK5gcgqWimUOjYPIyCDX8EJ+7jsP6V/Xp/wAEz/iR4j+KH7Jvh3W/FExuLrT7i501GJz+5syscY59FFdb2uZWPv8AooHSipAKKKKACiiigD//1f38ooooA/m5/wCC2Vpdn4weAL7yXNsNElj8zafLDfaXO3PTPfrX5X/Aj4j6L8Iviz4e+IniHQl8SWGiTmWSwdggm+UhQSQQME56dq/rS/bU/ZV079qz4Sz+Do7saZrthIbvTbnACm4RGCxTHBPlMT82OR1Ffx6+MvCOteA/FWreDfEUQi1HRrmW1nVcld8LFCVJAypI4OORTcVJcrGnbU+0P2rf2/Pil+0nrcX9kyXHhDw3ZgCCwtZ2Vx/10lj2F/XkV7P/AMEuPj38TtI/aNsfA0t5e65pPipRbXQuJZLhLZUy4kG8ts5AGRivzx+EHwg8dfHLx3YfDz4d2DX+rX3OOdkUakB5ZCAcIgOSccCv6iv2FP2ENK/ZT0658R6/eJq3jLVYRFcyR8wRICG2xEgHGe+Aa5qlNJckdzWLbV5H6MDP40uR06Um7ivhn9p39vf4J/s56VdW0mqReIPFMcr2y6XZOks0MyqTm4UMCiAjBPWtZTSM1G59tahqWnaTbNe6pcxWcCfelmdY0GemWYgDNfzTf8Fgvi74a8b/ABS8NeE/CWqxapBo9iwvDCwdEuPMYhQ4yD8p5xXx5+0l+3H8c/2ktR1GDX9Xk0rwvfGPbodq7CzXyfusQ3zFm6k55r446nJyxJ96IwcrNlKXLdI3PC4z4m0df+ny3H/kRa/uZ0dBHo9iq9oI8f8AfIr+Hr4eWcl/488P2qY3PfW/XpxIp/lX9xdgNmnWqnnESf8AoIr1MOtGz5PPLOce6Rbooorc+fCiiigAooooAKKKKACiiigAooooAKKKKACiiigAooooAKKKKACiiigAooooAKKKKACiiigAooooAKKKKACiiigAooooAKKKKACiiigAooooAKKKKACiiigAooooAKKKKACiiigAooooAKKKKACiiigAr8mf+CwsG79nHSrjGSmtWw/OOSv1mr8tP+Cu1qbj9ly2kHWPW7Q8/wC7IKUpNJ2OjCQUqsL9GmfzI6XcJa6nZ3cpwkE8ch4z8qMCeK/tY/Z0/aF+Ffx08D6fqPw91uO/kt4I4poG/dzo6IA2Y2+bAPfpX8TA6V6B8Nfij48+EHiqDxt8OdYn0TV4FKCeBsM0b/fjPXKsBz/SvFq0ZcylFn6HGSs0z+7HdXN+MdMvNa8I63o2nSGK7v7G5ghcHaVkliZUIPsxFfi1+zV/wV+8MavZ2Xhj4/6c2m6nlIE1CzG6BwAB5lwZHypJ6kDFfsN4C+K/w2+KVpJffDvxJY+IYINvmNZzLNs3DIDbc4PsahVU7p7j5Gj+KH4y/D/xd8L/AIm+IPBXjiKZNV068lSWSYMPOIY5kVm+8G/vDOax/DnxL8f+EdPuNJ8N6/e6fZXSsskEU7pEwbr8gOOe/Ff1/wD7Vn7MXwA+OPhPUNb+L9vb6VNptoy/29lY57GBTuLCR/lwD/eFfxweIrPTtO8Q6pp2j3X22wtbqeK3uOP30KOVSTjj5lAPHrVxs/ca2FKT+K5lxxSzSLFArSSSEKqqCWJJxgDuT6V/YP8A8E6fhH4l+DH7LXh3wv4rUR3t9LNqgUHlIr7bKit6EA8g8ivxo/4JP/sxaZ8WPiLffFXxjYLfaB4TYJArjK/2h8rxkg8EKvOK/p8SNY0CRqFVRgADAGPYVqzNElFFFSMKKKKACiiigD//1v38ooooAbiv5a/+Ct/wZ1nwR+0EvxGtdJFl4X8T2sMcFwhXbLewqWuAQOQfmB561/UtXzd+09+zP4F/ah+HNx4F8YqYLmMmTT79F3TWU5xl0BODuC7SD2ppgfyFfs+fHbxf+zp8TtP+JfgwqLq1BgnjddyzW0jDzY+em4Dg+tftG3/Bbjw0LERr8Mr0XgTBc30ezfjrt2ZxntmvzV+Ov/BPL9o/4JatBa/8I9L4osL0yNbz6Qkl2wRTgCZUQbGI5xzXgI/Zv/aBJ2j4b+IOP+obcf8AxFZzoQb5rjUmj6i+OH/BS39pP4zabeeGV1WPw/oc8yyxpYR/Z7pFU5Cm4jIY+9fAGo6hf6tez6lqtzJe3lyxkkmncySOx5LMzEkk+pr7U+EH/BPD9qT4x/ajpfhg+H0tCNza15lju3d0DIS3HtX7Dfs7f8EiPhR4JS08QfGm5fxhqM9qFuNLkG2ygnJBYpJGyu+MYGcD2qqdOMdkDbep+J37Mn7Gnxf/AGn/ABC+neFbBtM0a0KfbNUuk2wwCQEp8pKtJux/CDivQv28/wBlfwt+yZ4g8CeCNBvJNS1HUtG+1andOSI5rkTNGWjjJOxcDgZr+ufR9C0jw/p1vpOiWkdlZ2kaRRRRKFVUQbVGPYDFfzef8FrDn46eB14+Xw+f1uZP8K05hH5t/s0aP/b3xw8I6YEDmS8Q4P8As8/0r+0yFcW8SDjaij9K/j//AGCtOj1X9q3wJZyLuRrmUkf7sLtX9gacIo9h+lenR/hJHxGcSf1trpyr9R1FFFUeewooooEFFFFABRRRQAUUUUAFFFFABRRRQAUUUUAFFFFABRRRQAUUUUAFFFFABRRRQAUUUUAFFFFABRRRQAUUUUAFFFFABRRRQAUUUUAFFFFABRRRQAUUUUAFFFFABRRRQAUUUUAFFFFABRRRQAUUUUAFfA//AAUn8Or4h/ZZ10Nj/iXyLdDI3cxo3T06198V8wftnWS3v7MXxCQ4/d6TdSc88rGTWlK3NqZV5yjByhvp+aP41ScDNfe9r/wT0+M/iT4A+Gfj78O/L8UWGvWk95c2UAEU9lHbuytuLv8AvMhScKK+B/4TX9iX/BONUk/Yt+GikBh9imBHb/j4l/nXjyP0xH8ft9puoaXcfZdUtZbSYdUmQxt9cMAa3PDnjnxt4P8AM/4RHX7/AEXziC4srmW3DkdyI2AOPev7PPi9+yZ8AfjndrqnxK8IWmq6jFD5EV0d8csaDpjy2UHHuDX5oa9/wRO+Gdy93daJ8QNUt2kZ3hga2hMaZOQu7OcDpUtp7j6H4J6z8Z/i74h02bRte8a6xf6fcIUlt5r6Z45F7q6lsMD6EGuD0rStS13UrXRtGtnu769kWKGGJSWd3OAoHua/d7RP+CKcs2rLF4g8cy2+m/xSQRRvJ+CtgV+iX7MH/BPP4I/sy30HiXTkfxL4ptDJ5GrXqBJYVlBVgkaHZnBxkgn0ob7C9S9/wT+/ZruP2a/gPZaHrdvJZ+JdfZdQ1eB5FkEN0UCbAVJHCgdK+5xTNpFPqRhRRRQAUUUUAFFFFAH/1/38ooooAKaQetOooAbt5yKUClooATFGKWigAFfy6f8ABYfxJba7+0bpNjbyrIdI0v7M4XqreazEH35r+ouv43f+Chmr3Wp/th/EiG4k3pY6k8MY/uqFBx+tUgNb/gm7Abj9sXwIoGQslyT+FvJX9cJr+WP/AIJW+HX1b9p/TdZVMrpUUjk+nmIy1/U4a9OlBqKPjM3qRlXlbdWTEoooqzygooooAKKKKACiiigAooooAKKKKACiiigAooooAKKKKACiiigAooooAKKKKACiiigAooooAKKKKACiiigAooooAKKKKACiiigAooooAKKKKACiiigAooooAKKKKACiiigAooooAKKKKACiiigAooooAK+fP2rofP8A2bfiQh/6Ad7/AOijX0HXjH7Rdt9s+AnxAthyZNFvBjH/AEzNBcIpuzP4nD90iv67P+CYetw6n+yD4OsIyN+mrLE2D3aRm5r+Ru6jMVxLCeCjFfyNf04f8EcddGqfAXXdOxj+zL+KPO7Od6M3TtXlS6n6HB3SZ+vw6UmKUUVBQmDS0UUAFFFFABRRRQAUUUUAFFFFAH//0P38ooooAKKKKACiiigAooooAK/jC/bybP7Y3xZP/UbmH/jq1/ZhqF0tjY3N6/3beN5D9EUn+lfxMftU+I08YftG/EHxLGwZNQ1WWUEdMHAq4ID9GP8AgjdpcV18UPGeoOuWsbK2K/V3cfyFf0YHrX8/H/BFe2Mniv4lXJ6LZ2IB9/Mev6B69OnK8Io+DzGly4ipLvb8goooqjjCiiigAooooAKKKKACiiigAooooAKKKKACiiigAooooAKKKKACiiigAooooAKKKKACiiigAooooAKKKKACiiigAooooAKKKKACiiigAooooAKKKKACiiigAooooAKKKKACiiigAooooAKKKKACiiigAri/iPp7at4A8RaYoUm7sJ48Nyp3KRyPxrtKpalEs+m3cDjcHjYEeoIq6fxIzrNqnJrs/wAj+G3xzZnT/GmvWLBVNvfXCELwAUkYce1f0F/8ERJWb4YfEqE9I9Xs8fjA1fgl8YIhD8WPGcIG0R6xfrj0xO4xX70f8EQyP+Fb/E//ALC9j/6IevMxFudtH6DgG/Ywv2X5H7i0UUVznWFFFFABRRRQAUUUUAFFFFABRRRQB//R/fyiiigAooooAKKKKACiiigDkPiA7ReA/EkqHayaZeMD6EQua/hH1K7nv9Su725cySzyOzMepJNf3Y/Elgvw78Useg0q+/8ARD1/CEeST6k1cNwZ/Qz/AMEbfC32DwV4r8V451F0hz/1yY1+11flt/wSRsUi/ZhS/UDdcaleqTjn5HA5r9Sa9bS0Uux+dVakpVKjl/M/zCiiikQFFFFABRRRQAUUUUAFFFFABRRRQAUUUUAFFFFABRRRQAUUUUAFFFFABRRRQAUUUUAFFFFABRRRQAUUUUAFFFFABRRRQAUUUUAFFFFABRRRQAUUUUAFFFFABRRRQAUUUUAFFFFABRRRQAUUUUAFFFFABTJRvhkXvtIp9KACCvqKEx8vNePc/iJ+OK7PjR48Q9tc1L/0oev3M/4Ii3gHgr4l2GOW1Gzkz9IWH9a/D79oGMRfHPx7GvQa3fn853r9gv8AgirrF/DqnjbRUYC0uGjldSOdyJgc/jXm1N2ff4RWpR9Ef0KUUUVidAUUUUAFFFFABRRRQAUUUUAFFFFAH//S/fyiiigAooooAKKKKACiiigDwT9p3xZF4L+BfjDXJn2KLCaLP/XVSv8AWv4heoJHvX9ef/BTzVLnSP2N/GV3asUkaSzjyOOJJ1U/oa/kMA4Hua0iugPuf1R/8EorbyP2Q9KkPWTU9QP/AI+K/Savif8A4J6+HP8AhGP2WPC9hgDzmkuOBj/XYb8a+2B0r1XBx91n53Uqxm+ePXUKKKKRmFFFFABRRRQAUUUUAFFFFABRRRQAUUUUAFFFFABRRRQAUUUUAFFFFABRRRQAUUUUAFFFFABRRRQAUUUUAFFFFABRRRQAUUUUAFFFFABRRRQAUUUUAFFFFABRRRQAUUUUAFFFFABRRRQAUUUUAFFFFABTk64ptPTlsetBdPc/io/aat0t/j/49ij6HV7xvxMrGv0l/wCCM+oXcfxk17TY5D9nmspJGXsWVRivzx/az02TS/2ifHEMrh9+p3MgI7BpGOK+6/8Agjhqgj/aL1HSShJn0u4k3Z6bABXn142m0fdYKXNSg12P6fqKKK5zrCiiigAooooAKKKKACiiigAooooA/9P9/KKKKACiiigAooooAKKKKAPzp/4Kptt/Yt8XZ73OnD87lK/kiGMr9a/rG/4KxX8dv+x54gsmcB7m9sAAep2zqeK/k4J9PWrWwn2P7Uf2Y9PTTPgL4JtoxgHS7R/Tl4lNe715T8CYhB8GPBEY/wCgNp5/O3SvVq9ipK8mz8zoU+SmohRRRUGoUUUUAFFFFABRRRQAUUUUAFFFFABRRRQAUUUUAFFFFABRRRQAUUUUAFFFFABRRRQAUUUUAFFFFABRRRQAUUUUAFFFFABRRRQAUUUUAFFFFABRRRQAUUUUAFFFFABRRRQAUUUUAFFFFABRRRQAUUUUAFPT7w+tMpyffH1oZpT3P40/2yD/AMZIeNf+v6b/ANDavsH/AII6f8nS3X/YHu/6V8e/tkD/AIyP8an/AKfpv/Q2r7C/4I6f8nS3X/YHu/6Vx4v+JI+0ypf7PD0P6laKKK4z0AooooAKKKKACiiigAooooAKKKKAP//U/fyiiigAooooAKKKKACiiigD8dv+Cx3iL+z/AIH6RoPlF/7Uu878nCeUyHpX8zMEZluIo14LMor+hT/gtrf3dv4a+HVjE5WC5nvTIoPDbFjI/KvwI8I2sV94p0q0ucmOa4jRsdcFq2ox5pJGOInywlLsmf2xfCGIw/CbwXEeo0bT8/8AgOleiDpXH/DyKO3+H3hiCL/Vx6XZqv0ESgV2Fela2h8BOSbugooooICiiigAooooAKKKKACiiigAooooAKKKKACiiigAooooAKKKKACiiigAooooAKKKKACiiigAooooAKKKKACiiigAooooAKKKKACiiigAooooAKKKKACiiigAooooAKKKKACiiigAooooAKKKKACiiigApyffFNpyYDZPehlQ3R/Gj+2LJFL+0d42MThwL+cEj13nIr7H/wCCOkMh/agu5gpMa6PdgsBwCcV8K/tQMrftBePCpyBq95/6Nav0V/4I1Kw+OOskDj7BMCffA4rgxDvOTPucBHlowXkf0zUUUVzHaFFFFABRRRQAUUUUAFFFFABRRRQB/9X9/KKKKACiiigAooooAKKKKAPwI/4LgMfs/wALEzwX1I49wIq/E74MRRT/ABX8JxzLujbUrcMp6Ebxmv2v/wCC4H+p+FX+9qX8oa/GP4A28d38afBVtN9yTVbUHHp5grpwv8SPqcGau2Fqv+6/yP7UPDiqnh3So1Xaq2sIAHQAKOK2az9JiWHSbGJPupBGB9AAK0B0r0qnxM+Co/w4+i/IKKKKg0CiiigAooooAKKKKACiiigAooooAKKKKACiiigAooooAKKKKACiiigAooooAKKKKACiiigAooooAKKKKACiiigAooooAKKKKACiiigAooooAKKKKACiiigAooooAKKKKACiiigAooooAKKKKACiiigAo6c9gKKR+IpD6A0DTtc/iZ/aEk8747ePnB3D+274Z/7btX65f8EWNHubjxF4y1xLYPDbhYmm7qzpwPxr8gfjmS/xq8eMev8Abuo/pcPX7g/8ESIl/wCEU+JU38QvrRfwMTGvNqbs+/wz/dx9Efu9RRRWJ0BRRRQAUUUUAFFFFABRRRQAUUUUAf/Z;rotation=5;" parent="1" vertex="1">
          <mxGeometry x="-310" y="209.03" width="35.12" height="31.97" as="geometry" />
        </mxCell>
        <UserObject label="\docs" link="https://github.com/arc42/status.arc42.org-site/tree/main/docs" id="akd8dxss42b1yA9a4nQe-8">
          <mxCell style="rounded=0;whiteSpace=wrap;html=1;fontFamily=Mark Pro;fontSize=19;fillColor=#FFCFB6;verticalAlign=top;" parent="1" vertex="1">
            <mxGeometry x="-720" y="240" width="177.26" height="80" as="geometry" />
          </mxCell>
        </UserObject>
        <UserObject label="\documentation" link="https://github.com/arc42/status.arc42.org-site/tree/main/documentation" id="DzNfyVh7k3ZSekCiGxKr-2">
          <mxCell style="rounded=0;whiteSpace=wrap;html=1;fontFamily=Mark Pro;fontSize=19;fillColor=#FFCFB6;verticalAlign=top;" parent="1" vertex="1">
            <mxGeometry x="-520" y="240" width="180" height="80" as="geometry" />
          </mxCell>
        </UserObject>
        <UserObject label="\go-app" link="https://github.com/arc42/status.arc42.org-site/tree/main/go-app" id="DzNfyVh7k3ZSekCiGxKr-3">
          <mxCell style="rounded=0;whiteSpace=wrap;html=1;fontFamily=Mark Pro;fontSize=19;fillColor=#FFCFB6;verticalAlign=top;" parent="1" vertex="1">
            <mxGeometry x="-320" y="240" width="180" height="80" as="geometry" />
          </mxCell>
        </UserObject>
        <mxCell id="DzNfyVh7k3ZSekCiGxKr-6" value="" style="shape=image;verticalLabelPosition=bottom;labelBackgroundColor=default;verticalAlign=top;aspect=fixed;imageAspect=0;image=data:image/png,iVBORw0KGgoAAAANSUhEUgAAAQAAAAEACAYAAABccqhmAAAABGdBTUEAALGPC/xhBQAAACBjSFJNAAB6JgAAgIQAAPoAAACA6AAAdTAAAOpgAAA6mAAAF3CculE8AAAABmJLR0QAAAAAAAD5Q7t/AAAAB3RJTUUH4QcNACAljwaWrwAAQiFJREFUeNrtnXd8VFX6/z/nzkwCAakKFpBeFEEUgVBCegW7iLprW/3a17bu6u7q2n66fnWLq6v7XcvaO7o2RJAOCSEJ6YQkJJAe0iZl+tx7z/P7486EyeTOZBJQAp736zUvyL3n3nPbec5znvM8zwEEAoFAIBAIBAKBQCAQCAQCgUAgEAgEAoFAIBAIBAKBQCAQCAQCgUAgEAgEAoFAIBAIBAKBQCAQCAQCgUAgEAgEAoFAIBAIBAKBQCAQCAQCgUAgEAgEAoFAIBAIBAKBQCAQCAQCgUAgEAgEAoFAIBAIBAKBQCAQCAQCgUAgEAgEAoFAIBAIBAKBQCAQCAQCgUAgEAgEAoFAIBAIBAKBQCAQCAQCgUAgEAgEAoFAIBAIBAKBQCAQCAQCgUAgEAgEAoFAIBAIBAKBQCAQCAQCgUAgEAgEAoFAIBAIBAKBQCAQCAQCgUAgEAgEAoFAIBAIBAKBQCAQCAQCgUAgEAgEAoFAIBAIBD9T2PG+AIFA0JucnJxhBoNhssFgCDcajRaj0dg4c+ZM67GuRwgAgWAQkZ6ebpIk6T9Go3GN0Wg0GY1GGI1GGAwGmEymBqPRmG80GjONRuM2SZIyx44dKx9NfcbjfcMCgeAIRLQUwC/9tzPGwBg70/NLY4xBkqROi8Wy3mQyfWYwGL4zmUzO/tYnBIBAMIgIDw9vVxTF2+DBGENHRwdyc3OhKApGjx6NyZMnY+bMmTAajSMlSbqGMXYNY6yDiD4A8H+MseJQ6xNDAIFgEFFTUzOpoaGhyqv6G41GvPPOO9iyZUuPcmFhYZg3bx6WL1+OhIQEjBs3DpIkeXdvBvA8gI2MBW/iQgAIBIMIt9s9prCwsI0x1i0AWltb8eSTT6Kzs1P3GIPBgGXLluHqq69GZGSk764MAL9njO0IVJ8QAALBIEJV1VElJSVmt9vNfLWAjo4O/OMf/0BZWVnQ42fPno077rgDy5cv9938KYAHGGMN/uWFABAIBhFtbW1nt7a2VtvtdhgMBvgKAUmSsGnTJnz44YcBtQEvS5cuxR//+EeMHz/eu6mdc36XwWD42LecBIFAMGiwWq3nMsYQHh7ea58kSVi5ciXeeecd3HbbbTjttNMCnicjIwPXXXcdcnNzvZtGS5L0kaIof9+zZ093uxcagEAwiKioqPgP5/xmg8EAp9MJSZJ6aAG+P8YYsrKysHHjRmRkZMDlcvU637Bhw/Df//4XY8aM6d7mcrneGDJkyG0ASAgAgWCQ0NHRMaqpqamKMTbSYDCAMQaXy9Wj0ZtMJl1hIMsycnJykJubi9LSUtTX18PhcGDixIl4/vnnMXbs2B51VVdX/3Ly5MkfCAEgEAwSKisrb5Fl+Q2DwQDvj3MOVVUDagFeoeAzBRgS7e3t740ZM+Z2YQMQCAYBRMQURbnZf7u3gXvxdRDy/voL57wjPT39AwAGIQAEgkFAfX39OaqqLvFv0N6/B9rY/eGct3755ZdXXXzxxdkAbEIACASDAJvNdhM8s3L+jV1RlB5lB6oFcM7Na9euXX3llVfmAjADICEABILjjMvlClcU5Tr/7YwxqKp61Co/ABCRc/PmzTesWbOmEEC7d7sQAALBcaampiaFiM7Sa+D+vT+AAQmEmpqa/5eUlJQFn8YPCAEgEBxXiAiyLP/Kd5u3YRMROOd9Nvi+hICqqs3JycnvQWv85LtPCACB4DjS2Nh4lqIoyaH2/kD/NQCz2by2rKzMCqDXCUU+AEE3CxYsGAdgCYCZAEYAsAIoIqItubm5/U42Ieibjo6OXwAI19unKAokSTpqG8DGjRs/BmDX2yccgX7mXHTRRcOhZaC5HkAk9LXCVgAP5OTkvH+8r/dkgogMRUVFBQDm+Dr/GAwG79AgqPOPb5BQIJxOZ/bQoUMvAdAEP/UfEBrAz5YFCxZEMMbuB/AbAGP6KH4qgPcWLFgQvnfv3jeP97WfLFRUVERyzud43X598VX/j8b5p66uztv7k95+YQP4GbJw4cJLJUkqZYw9wxgbo/eBBfj95ayzzhp79FcgAACHw9HD88/X+OebFkyPUIQBEdl+//vff4MA6j8gBMDPikWLFo1YuHDhewC+BDCxv8czxkaNGjUq6Xjfx8lAc3PzSFVVr9JrwMfK8aerq+ubtWvXtkPH+OdFDAF+JixcuOg8InwBsBlHcx6DwTgRQBgA9/G+pxOZpqamK4hoJNC7N5dluYfxLxB9CYLc3NyAxj8vQgP4GbBo0aKLGUMmY5jBGNDXD6BGRZFf6OhoTyguLjq7s7MjmjF0ePY5Ib6bo4KImKqqN+s1YFVVwTnvtb2/WoAsyxXJyclZABzBygkN4CRn0aLFtwF4FYCh79LU6nK5/3rgQPlHdrvdAq33cJWXl9cuWrS4GMByl8tVAYD3fa7BQ0xMDHM4HOcSYRGAcwCMYAztREg3Gg3fZWRk/KT3U1FRMUtRlGUGQ+9X4p8SPBQ7gB7Nzc0fy7LsQADjnxchAE5iFi9e/DCAPyOE6V5VVT+qqal5urm5uQVAJwDZ5zxDAMwFYD506FARgowpBwtLly6VVFWNBnCNw+FYBeBM/7bCGKCq6hcArvwpr00v8MdX/dcTDP3UAJQ333zzc/Sh/gNCAJy0LF4c+QyAP/RVjoha7XbbA8XFxZuhNXydj4bdCGCkoihvuN1uBwaxBrBoUeRIxnC7qvLbATY1hEOumDZt+uzKyorSo6n3oosuMhgMxvMBLAAwFZqdpA7Auj17Msu95Ww2W9j+/ft/qXcOWZZBRP3SAPSw2WxbHn/88QaEYKcRAuAkIyYmBk6n838B/K6vspzzzMbGxrtqa2trofmJq/5lIiMjRwF4AoC7ra31NYTQqxwPIiMjhwH4LYD7AYzsx6FktVoG5BC3ZMmScCJKA7AGQBKA0TrFXoiMjLwpMzPzfQCorKxM5pyf5Z379+/9Q5n260sDqKio6NP450UIgJMMp9P1HMD6bPyKorxbXFz0mNPp7ADQFbgkewnA6bIsv1pVVVWDPoxKx4PIyCWXAPgXEdXIsvyiyWT6H8bYmaEcyznPbWpqag+l7JH6IicB7NdEuAlgfflFGIj4bwF8DsDhH/jjxTv37032OVDHH1VVW9asWbMZIb4nIQBOIpYsWfInAA/3UYy7XK4nc3NzXwfQgSAfypIlS24BcD0RHTp4sPLv0AQFYRCxZMmSGQDW2O32mwsKCooAOCIjI89nDJeFcrzL5fwXAFcoZZcsWTIBwFPQXKdNoRwDAERwARh66NChUU1NTaneMb5vw3a73SFN+/UlGNrb2z/zBP6oCAEhAE4SlixZei+AJ/so5rbb7b8uKMj/GlpGGHeQ8y0H8AoAV2dn593t7e1mDMLef/fu3QcA3ARgCAD7ggULVMakeaEcyzlPLyoqWg/AEqzc4sVRBklSHwLwKOd8m6qq/2cymX4d6jWqqrodAJnN5u7AH//G63a7e/j0D1QL2Lhx4yfoxzBNCICTgKVLl14L4O99FLNbLJZfFRUVbQPQhiCW/KVLl54DzVswzOFwPrh/f0kuNG1hsCJ7fggPD18GzQgXFCJ0NDU1PcA5t6GPWQ2DQb2BCBPNZnNcWVlprSRJ9sjIyNsQIIrPD1tjY+N7CxcudCuKcqP/Tm/WH3/jnx59CQSn05n9i1/8ohwhajSAEAAnPEuXLosG8DaCO+dYu7o6byguLk6H1vjVIOebAmADgLFut/uFvLzcT6BpC4PW8u9lzpw5ANhTIRRVbTbr3VVVh6oR1P6hkZGR8Ra09fUAwB4ZuWQWQmv8cLvdL9XX1x/+7rvv5tlstvN8jX9e9Bb0CEUD8N9WV1fn7f1DHqYJAXACs2zZslkAvoA25aQLEWydnZ2/2LevOBNaWC8Pcr7pADYBmOh2yy/n5GT/HVrjl3ECMGrUqDUA4voq53K5ny0sLNjiubdQG4vN+x/G8ItQDuCcZxYVFf4LQJfT6exl/PMG/njDfo9GAyAi2x/+8Iev0c9ZGuHSeYKyfPnyUQD7GmBjND8f3Z/DYrHcEFrjX34hwHYC7Gy3W342Ozvrz9CmBkNWJ48ny5YtPwVgfwnyLAAwKIr68d69Of/nubd+OzQtW7b8NIDd3Vc9RGisr2+40+VyddXX15sURblKr+G63fpmmP7aALq6ur797LPP+n1PQgM4AYmKijIQ0YeMYWagMkRwW63WW4qKCndBU/sDNv7ly5enAfiECGEOh+Pe3Ny9a9GHkXCwwRieBjAhWBlV5dsLCwseJqJODFywPceY7nx/N0RwdnZ23FpTU10HoKuhoeEGIhrV83q1Bu0VAKE29kBl8vLyPsIAfDSEBnACQoTHAZYapAdSHQ7HrwsK8rcgyJh/zpw5WL486kGAfeUZKlyVm7v3M88xJ0zjX7YsahHA7umjRy6uqKi4zeFwdMBHne8Py5dHRTLGbuqj9yeHw3H/vn379gIwExHpJf0EtMAfb9pvPQJqAZyDNzV1l5NluTKUwB89hAA4wYiKikphDH8MHMkHuFzOx3Jz936NII0/KioqYsyYMe8zhr8S8fz6+vq04uKiDAAtOEHG/ACwYsWKMEnC64zBEOiZEFF1bW3tL1tamlsQgtEvwPMyAfg3Y5CCRVK63e5nPM/eDIAXFxfPUhRluV6v7Wv8C9n9F4DjkUcgDRvWva25ufljj4t2v300xBDgBCIqasUZAN5BEMGtKPLL2dnZb0P7AJUA5zkHmlV7jizL/yooyH/O4XB0QosFOKEgwh8ANi/wfmppbm6+zqOOdwy8JvYQYwjqX6AoyltZWXv+BR/DqcViuRE+78u3cbvdbuilA/Mv230MERz33AOJc7BTTumu9q233lqLAbpo/yyTgq5YET2NiO6DlgTTzBh7aseO7RnH+7qCERUVJQFsPTSfc11UVf1vZubuezjnZgC9svjGxMRAVekWgF4CYLVarb/Jy8vdBK1hnHBZf1esWDGfCFkI7JXX1dbWdlVJyb58aEbQAXkxRkWtmAkgH8DQQGVUVf0mOzvrLlmWzfA0RovFYsrLyzvIGJsgSVKPpJ+KosDhcPS57Hf3j3Ood90F9YsvMHLbNoSvWAHGGGw228bhw4dfD6B5IPf2s9MAVqyI/gWA1xljvi9zydy5588oKioY0EP8KWBMugdBGj/nPKu4uOg3nPNO6DTmFSuix3NOrzGGS1SVf19dXf3burrawwgQBDTYiYqKCQPoLcYCNn5nZ2fnzSUl+wqgDYUG1Pjj4uIkRVH/gyCNX/MoLLxXluUO+PTEJSUlSZzzCf6BP4wxuFyu0OP9m5sh33ILaM8eSDNnwrh0aXeZ/gT+6PGzEgArVsRcDNC76K1CjzAaDcsB/BeDzNcdAKKjo2cR4c+B9hNRbVVV1a1dXV1m+Bm4Vq9ejebmlmuI6CUAkt1uv2fv3pwviMgCLe//oCAmJnYEEcYRUd2OHdv61EYYoycAzA+wW7FarXcVFOR7HZ8G7MSkKOq9AJYF2s85LywvL/uVxWIxw+95ut3uXwXK+uOd++95Tzo2gO3bwe+/Hzh8GAAQfuONYJ50YaqqtlxzzTUhB/7o8bMxAkZHRw9nDK8zxiQ9g4vL5epASFlzflpiYmIkgL3JGIsIkKnXZja33VRXV9sAvzF8dHTMlObmlvUAPlRVvuPQoUMxOTnZnxBRCwZJ44+OjhkRHR3zCRGZATrAGJqjo2Pu6uOYJYyx3wV4HuR0On+bm7t3Pfrwegzh2mZ6MicHMtIdrKmp/mVzc3Mz/IyL+/fvH68oSpreef17fz0tgNXXw/DAA2DXXtvd+GE0wvSLIz5I7e3ta0tLS0MO/NHjZ6QBSJcBNF5vDxEdKC3dX4pBqAoT4U4E7oHIZrPet2/fvmL4LPoYHR07HMAjAD1IRFVdXV1X5ufn7YYW9DKgKbAfg9jYWBPn9BWAGJ/NpwD450UXLUzPycku8D9Guzd6FwGEtcvl+n9ZWXu87ssDzlwUHR1vBNR3AETo7Seiww0NDdfW1NTUQ8e42NbW9gsiGgL0nrv3CgB/mM0G0+7dGPLddzBu3Qr4ZQc2JidDOv307mODrfgTKj8bAcAYZgSweXKLxfIY53xA0yg/JtHRsWcyhmcD7Xe73S/n5OSsg2fKKTo6Oowx6RYAjxGRweVyPVlQkP+hw+GwQOuhBpU/PxEeZYzF6OxSbTbbCGiNvIdQZgwvAmy63vlkWX49M3O31wp/VH4MjPGHARapf93U0dbWdl1FxYGD8Ftt17Nf2rZt2016xyqKAlVVYTKZwNraYCwqQlhxMcL37UN4aSlMihKwUZpuuKG78Tudzpz+Bv7o8bMRAAD26WyTHQ7H73Nz927HAOeHf0wYw9+grdHXC875tuzsrBeg9T5KTEzcbQA9RoShsux+vby87M3W1tZ2z30Nunn9mJjYGfDkLiCiAy6X633OeRtjLNxiseTu319SDj+BFRMTdzlAt+idT1XVr/fsyXwS2jDoqBpFTEzchQD9KcBuR0dHxw379hUXI0AsQXZ29kJVVefqZf1xdnbCuH49wjZsQFhpKUxEMEGTdF5XIj3Y+PEwpqRo/2cM9fX1QVf8CZWfkQCgtYD0D8ZwCwCmqurO9vb2vxcVFRZAe5GDSv2PjY2Lg5ZqqvedENUfOnTwHlmWOwE44+LihxFRqsvlfq28vPyj1taWDmjq/qD142eMPQMgXFXVrUVFhbe2t7e3Q/ugObR2IMPn446Li5tAhNf1mgjnfG9hYeH9iqIEyGkYOnFx8RFE9AHA9AKsVKvVemdBQX4WghgX7Xa7btYfVlwMeuQRmJqbIaG3D2EwjNdeC2YygTEGzvmAAn90r+loT3ACMhzalA5BayA2DDLVODY21gCwXEDX8URubzdfnp+fnwntI/Qiee7NGRsbC4PBwDZt2jQoBUBsbNwcAIVEVF9auj/x8OHDDQiSlGPFigSDwcA3oaetAIAmDKuqqlZ6Qns7jsG1vQrgTr19Dofjd5mZu9+D5lOga184dOjQ8MrKylrG2ChJkrTFOzlH2MaNUL79Fq6CAhihOS74/ny39bLMM4ahOTkwnXMOjEYjbDbbJ6NHj77Hcx1Hxc9IA+jGikFiAQ8EY9Kt0G/8cDqdz+Tn5+fAZ+wZFxd3GsCuBpAKLSvteM6JxcXFtwHYCuCFLVs2Zx3v+zpyf+y3ACSbzfb04cOHW9FHRh6jkX4PsBidXbLZ3H5HVdWhehwDL8a4uPhLANyht0+W5VczM3e/jz6MizU1NZdzzkd1e/g5nTB8/jlYfT1cNTXa/aN3rx9ME5AWL4Y0c2b3UCIvL++ojX++9QoGEfHx8cOJcADA6f77VFXdtHPnjhs5560A3HFx8RMBPArgBmgpsQKhArh1y5bNb/fnWmJjY02MGVYClArgXGhJMKoBfEMkfbR16w/9ti3ExSXMBKiQczqwY8e2ZM55M4I0qLi4hBUAbYZOZ+VyuZ5OT9/1KrT4haMawsXFJZwFUD60lZD9n/uGjIz0W2VZbkOQOXciwubNm7dyzmMMBgMMnMP02WcwNTaCLBZYtm0L2Ov7bvNvlMZ//hPhN94Io9EIIqocNWrUCrfb3YhjYLQ+aTWA+PiEOQByAdQCeGrz5k3vHu9rCg32IGO9Gz8RNVdXVz3IObfEx8cTwP4E4BEE8VDzwQDgXxdeuGBbbu7eqhCf3xoAzwGY7PdJLgRwFWP067i4hLQtWza1hHpn8fHxRgDvASzc5XL8xzPzEqTxx5/GGD4EWK/vVFXVbZmZu/+NY+DJGBsba2AM7wGsV+MnoqqystL7PPaWoA43OTk5MxRFifL2/tL330NqbAQAuGpr+9XrdzN8OAyXXdbd+zc1NX3idruP2vjn5aQVAJs3b9oXFxd/O2PSWwDeiY2Nl7du3fzR0ZwzJiaGGQzGWQBbAGAWgDMADINmQ+gEUAkgXVXlrG3btvX7BSUkJI4lot/0/iSILBbL/VVVVY3x8QkTAPYRgPO1PdRGxMsAmCRJmgewQKmqhoSHD7kYWqLPgDaP+PjEIQD+DeAGImpzu13/63Q6ck45ZcSDkmRY4lP0IoC/C2AlQrahSI8CWASQpays9CsEGYolJydLisLfBXCW/z4iaqupqb5fVdVjYuiUJOOjAGJ77yF3W1vbHaEMUwCgs7PzRnj8E1hVFaRybT0QBmD4nDlwyDLUmpp+DQGkyy4DGz7ce9/K22+//RmO4doMJ60AAADGpLWM4S0AkCT257CwsP+63e5+Bb0kJydLqspjAFwLYBV0VHN/jEZTeUJC4kObNv3wTT8v+beMsV7Tfm638lp2dtbWuLj4RMbYa0QYpqrq+q6urtcLC/OzFEVxA1DOPXfO+NNPP+NjSWLn651ckthwaJqmbqNJSEgcC+AbAEsURV1XUVHxu7q6mmYAlvj4xETGsMTvjCnnnz///IKC/Ly+biwhIXEFtOEKZFn9xmw2WxBkelJV+e8YQ4r/diLAZrP+9uDBg0ENh6GSkJAYC+AxvX1Op+u5goL8fOjM9fvT2dlp2r179w3d037FxQC0Bq10dWFUVBSY1QqrjwDw7g86/vd4/jHGYLfbtz7xxBMhrfgTKie5AMBc72NljE0699w55+fn5+0J5diEhORwgH6lqvTAAJbUngngq/j4xFs2b/7hrdDqSzoNoHv8PwMiXlpQkPdcdHTs7ZJkeJyIH+jo6Pjd3r05WdBmMGzwqMAlJfvazzzzzNsBlqlXh9stH0IAjTMhIWkCgI0ATXM6nY+lp+/6jydzji0hIWkG0DsPHmPA0KFDLwRQgCBaQEJC0qkAPoCnd7TZrP9FEHU6ISEpBsDTevtUVf54z57M76E1yqNSgxMSksb7XpcvnKs7MzN3vwZtZqFPDScvLy+Bcz7RYDAADgfYwYPdD9pWVgZbVhYMTmePyKU+hwAzZoAtXNjtQ1BZWXnMjH9eTnIBwHrMx4aHh88AkIUgH86CBQswZszYawB6DsCkYOfnnCpl2f2l0+nc63bL7eHh4WdERERcYzQakgAwgP190qRJX1ZXV/fZgzCGBwE2zHcbEZS2NvMDF1xw4R+MRtP/KIr8XkFBwRPt7eYOaEOOXmNfIpYr6UR4EMF+8GBlNnR63cTEpMkAthDRiPb2jjV792bvhtbA3ElJSaOJ8DW0oU4gjAjQK6WmpkqKor5DhCGe5BzNhYUFmQggABITkyYA+Bg63yYR1ZeVlT0BzbnpqBYoTUxMlAC8B20Y5/+s2mtqau9XFCXkIYbL5er+1lhpKZiqvRrucsHd1AQTUdBeX08QsOuu687ywjlvuf766zfhGK/NcNIKgMTE5FkAeuRhNxgMp0CT9rofT1JS8plEeAPadFpAiHiNzWZ7Jjs7a52iKHZoL0UGwA0Gw/uxsfFvM8auYwwjx449dUF1dfWmYOdLSkoaQ8Tu9t8uy66XRo0adYXJZLzZ4XA8vGvXzvegffwB/fkliZ2mt11R3J+2tbVa4Cc0EhOTpwDYRsRd9fV1K/fv318Jj2txUlJSGBH7AsDsQPXZ7fZKBBGoisL/CGA0Y2y09rey3jMM6yW8EhOTh0KLyNSJ2SDq6ur6TWNjQxuOSTyD9CcAiXp7bDbLwxUV5bUIcYiRl5c3rqGhYZUkSWAApJKS7gbtqqsDoyOPJ+Txv9EItnp1t/HPbDav7c+KP6FyUgqA1NRUg6Lw1+GXKIIICgJoXElJyfFE+AjAacHOLcvyO8XFhU/7uNn2ECaqqsqMsfcAXAcAbrfLCR2f9p7Xxe6CFgTjs40XA4DJZPqlxWK5JTMzYyNC83G/WKeGzpqamhfhZ3RLSkqeQoRtnPPG8vKyX9XW1jRCU3lpyZLVjKjrdeg43xy5RqovLi4qRwCBmpiYnAxtGa1qzzOA3W77Djq9mKdHfhfARXrnUhT1k6ysPTtwDJx9kpKS04j0x/2qqny5e3fGt97nEMr5WlparvMG/qC5GWg94p/j8DP6hTz+T0gAxo3r/nPr1q39WvEnVE7KcGBVpacZY1H+4ZaKIusmhkhKSrkFYN8zxk4LFPrJGFx2u+3ubdu2/L61tbUBQRxCvOcBqKakpOQggowhExNThzLGfu1Xl6qqPDs8PPzWrq6OazMzMzZA8/oK2vgTE1OGMcYe8TsX2Wy23x08WNkAnw8oKSllKsC2cc5L8vL2XltbW1MHn3H1KadYHmGM3RD4eTDIsvsDzrkrwDOdxhh7W1Hk/2OMJXiupb24uCgTOglLGDO8wBi7Sq8eAM0VFQeegtYjH5Xqn5SUMgtgH+iFhWv1VDzqqSckHwciYoqi3OQdp3t7fwCQzWaoVmvAXt80YQJOufJKmKZM6X3ea6/1DVXPuemmm8rwI7h2n3QCICkp5ZfQ5sd7PayOjo5D8GuMyckpdwF4HcG1IYvZ3H5tevquz6E5nQQch6WlpTF4vMkcDudLgRqIF8borwDG+W4joiKTyXRxZ2fnmj179uxGENdTLytXrmSM4d8AJvtud7lcz2ZkpH8NH0t2UlLyNADbVFVNz8jYdZvZbO6RLDM5OeVSAP8v+JOmtvLy8jeho44nJ6ecAuBLRZH/aTAYLvEOZBVF/cFutzvgpw0lJaX8DsCDgWqy221P1NbWtOIoPTiTk1NOhTbLMUpvv81m/WNNTXVzf+rZuXPnRYqinA8ATFXBysu7G7uzj7n/4UlJCJ87FxEpKT3LjRsHxB1Z36ShoeGYBP7ocVIJgOTk1IsZY//hXP1eyxLbQ7qbKyoONMJHACQnp14NsJeZRqCe32o2t12Xk5O1C1rjD9oQVZUeZ4wt5VzdkJGR/jGCRBkmJ6fezhi7068+mTHpzK6uzhv27MnMhdb4g477kpJSTYrCX2eM/cJXi3C5nH/avn3bK/BZBCM5OXU6Y9JWVVXXbd++9SGHw9EGnw8+OTl1NsDeDZQ4xftzOBzPNjY29Mo9mJSUJAHsXSKqsdns+w0GY4z3GKfT0Uv9T05OvZsxPBuoHs55ekZG+lc4StU/NTVtKMC+YozN0K9HXZ+Rkb6uv/XYbLburD+sshLMk+efVBXOhoag6r57/35AUSDv399DSPDVq7sDf4jI/tRTT32DH0H9B04iG0BycurlAD5WFPljAJK/9xjnPJuIZJ/ycwG8heBCUOns7LwtJyc7aPSXdr5kCZCeBvAHVVV35Ofn38252okAqmRycmo0gJd772Ho6uq8NzNz996+6vSc51wA/wGw2LuNiJq7ujrvy8zcvQ0+dgPPPW9QFOXtLVs2vUxE7fBpwElJqcOgrWM/IlidqqruTE/f9TF0/O8ZM/yZiM4vKytNnTVr9vs+u2ylpft3+NaXnJx6D4C/qipfp2kKvZ9/c3PTH4nIhqMIaU5MTDVyTp8CWBqgiLWmpuZRaIIw5HrKysqGHThwoDtik+3f373P2dAA8iT0CDQEcO7eDXX37m6XYM8DBF+zpvujtFgs33z++edHldwkGCeFAEhJSbsTwMuy7H69qanp3QkTJm7zL6Mocjo8DSEpKTWMMfYBAmR78eJ0Op7KzNztXVwjYENMSUmbBc17boUsu/+TlbXnKb0ccT7lpwNYC51stg6H/fHMzIzt6COdVXLyykmM0SMAbvE5j0uW3e8dOFD+t5qammZovZnqqTMawFq32/38li2b3oPOsl+SxP4Jzec/CNRZV1f7IOe8V2NJSUm7FcAdLS3NF5999tlLDQZDt0FPUZTNZrPZBkBZvXo1LBbbnwD80Wq13hEREfEbvQw5siy/X1hYUIajcPhJTk4LYwwfQPNYDPSe/1ZeXlaHfg4xPIE/oxljYBYLHPX12KJyXGGQ4NQx/gF9TwHSwoXA1KndmklRUdExn/v35YQXACkpaecB+IfD4Xh0+/at7yQmJr+E3otlUnNz8wZ4PnhJYg8AmBvsvKqqrN++fdubCOJrnpKSNhPAbwDcRMQPdXZ2rsnM3L0TWs/oCHDM6QA2eJeD9sdoNE0NVGdqauoQIpYM4EaALobn/RFRsyzLn9TV1b7t+ZAtvvWnpKSlAfjQ4XA8uH371u+gM5uQkpK2GsBNfT1vi8X6UGnp/mr4NcqUlLRkAC9bLJZbysvLKpYvj3rdd7/D4fgGgCMtLc1gsdjeAHBVV1fXjaqquCRp+By9qg4dOvg3Tz0DCtdOTU07hQifE9G5ABUwJs33L0PEy7Kzs970vLOQx9hEhPXr13fP/Tv278cXCsc4InRYOqCYzTCh7+k+/23qmjXd34Usy5VXXHHFgFb8CZUTXgA4nfZiRVHn79q1sy0+PmGK0Wi8wr8M57ywpGRfDQB3amraKIA9EuycRGQ+eLDyYSLqgl9DSU1dNRagS6B5xsVyzrPtdtt9WVl7vnW5XFZoH6yuwEhNTTsDYD9wzptVVdlqMoX1ym4TFhZ2c0pKmsQY+w6a/WAstLiDxQCiGMNw7Rp5laKo2+1224b8/LxddrvdDs0gp2NhZ+dbLF1X79q105siW+l5XSvHQYsRCIosu/+Tnr5zHfy88FJTV14EYK3L5XwqPX3nluTklCsZk3zWLSRraen+LQAcROxCgKY0NzetzM3dW5qcnPo3PUHocrn+ffBgZRMGOOefmrryTADrADrNYun6zciRoz7QK9fVZXnaZrNZ0U8L++7du6cpirICAKxWK74u2ofRICzlCpS6OkgGA4acdhrQ2QnmcARt+N3bhw+HmpamRQQyhpaWlmMa+KPHCS8Atm3bBgAl55xzjhQWFr4WOmN6l8v1CbqlKLsFAazAXhwOx/OVlZWHU1LSzmSMTYHmLTYXwDKA5nLO82TZvbWlpeWxoqLCQ55z2xBknJaaunIigO2c8315ebn3X3jhgu0BihoYY9e6XK4GSZJGeRxoDES8TlX539xuV0VLS3NReXn5YWjCyen5Bewl169f92donnyOAOWeRx/+D5zzouzs7KfhSUHmc18zAKyTZfmtLVs2v33RRQsVSTL0SKelKOr6trZWKwBl/fp12QCSAQxdtizKJUmSnt9CV3l56RsYoOqfmrryAgBfERHV1dVeNX786TdBx91XVdUdGRnpWzCAdHBdXV03ATCYzWasW7ceYxx2rFBkDDMYoCoKJt17L8JHjoSkKGhftw7OPC1cItjcv7JqFdiwYV7jn/Lhhx8e08AfPU54AeBlypRp1wBY7r+diBwHD1Z8Cc+D1BZ3DAznVJWVtedDAJ2MsXhFURZwzmVVVavtdvsP5eVl+zs62u040vjc6ENCp6WtWgDgS0VRNmzfvvXxxYuXzJEk6awghwwNDw+/rLm5KXHv3pwuHBFqHJp2oaD/HmG6PWla2qq5AK4PdiARWRsbG+7o7OzogI86mpa2ahKATYqibNu6dfNzANrHjRv/BPymNW026+fo+SG7ALhGjhyZBB2Do9vtfr+urq4dA1B909JWrQbwFue8sarq0DWHDx9uOPvsSVfp3ZbZ3Pas57r6ZWAzm83GjIyMG+rrG7Bhw0aMczkRpcgYZjTC0NaGMStWwDRypNbIjUaMXbkSjSUlYC5XUE1AWb26+0U7HI6tzz777DEN/NHjpBAAaWlpI4joBT1VUlGUtTU1Na0A5NTUlZOJ6Lxgyy87nY7XHQ67DYB7/fp1HwP4AlrvQTjS+EJWyVJTV64hwpuy7H5x8+YfXiGijmHDhvtGuRF0HMEYY+eNGzd+XVJSSvLGjd8fdeqnQBDRg4yxoNPBdrvtD4WFBRXwsfqnpq48i4g2cc6Ld+3a+ZCqqh2pqSvPIKL7fJ8vEdXv3ZuTDp3GTIRo/1dBRLyhofEd9NMgt3LlSiPneI6IHiSi/AMHym+srKyoT0lJWwptGNUDRVE25uRkF2IAWkZeXl7Cvn0lZ+/cuQunjx6FKIcNw41GDDMa0Vlbi9MWLerxQiWjEcbhwwGPAAB6awJ8+nTQBRd0G/8OHTr0oxr/vJwUAoBzPAXQmUS92iVvbm56A57ej4iWev4NdCp3ZWXFF+jZWw5IAqemphqJ2P8S0T0Oh/2h7du3roVmfHMR8ZXeS+CcpxORzWAwJOuc5kJJknYlJ6eu3LBhfeWxfm7JySuNRHRpkOcBVVU37tixfS18xv0pKWmTPI3/4J49u++y223tAOxE9FcAQ3zP53a7Pna5XL2cf7T3wOf7V805zywpKa5BP3r/lJS0SapK7wNYrqrqxvz8vLtaWprboA1XVnHee9TT0dH+KgaQDzI1NdX4wQcfPdDQ0ICJEydi2eiRGNbagmFGI7jbDWdTE6zl5Yg4VcstwgDIbW1QzObuxqY3BJBXr/YN/Gm94447jnngjx4nvCNQcnLKAiJ+DxHB/yfL8rcFBfll8DxIIpqlV877UxQlu7a2ptf0WH9JSkqZwDlt5pzfbDabr92+feun0Bx6XElJKVOJaKa3Trvd/nlDQ92viag2wHXNAigrKSll5dFckz7qeUQ0OvAz4a76+ro/EVH3lF9SUsosIr5dUZTyPXt239bZ2dkGwJqcnJJExC/3O171SV/dCyI6279Ol8u5EdrQKiQtKykp5Toink9Ey91u1xs7d26/taWl2TsFCiIe41+HqqpFWVl7stFPA2NSUsrpnNPG+vr6pKlTp2Dp0kiMqK1FhGeJL3tdHcA5WrZsgTk9He7mZtj270fz++8DnmhA3SlAkwmKT9afjo6OHyXwR48TWgNITEwxcU5vADDofC+8tbXlRWiqJAEA53xcsPMpipyPo2z8iYnJlxPRG5yT+fDhxos9wTLdfgREFOXTQ8pVVQe/r6urqz7rrImpRLQZupFwGAPgm8TE5JeJ2O83bfr+mKiGnNOsYO1MUZRPS0r2VXmeoffe3lIUdX1mZsbv7HZ7OwBrfHxSGOf0D+2oI+dTVfX7srLSOgRYeZhz3iuPodVqy0MIKxUnJqZMAOhVIrqYCE673XZ/evrOT6ENU+wAkJCQPJxzmul/j06n81NPHSE3sMTE5Fgi+pAIp8+dOwfz5s3FcLsdEVZtpCIZDDBGRMAUEQHY7Wj94Qd0/vBDj7x/gcb/SkwMaOyRUcqOHTt+EvUfOMEFAJH6EMDm6+1TFOXzgoL8Evg8SCIKqvEoitKMAXqcxcUljJAk9lcifquq8g1lZfvva2ho8PZE3V8gEV/q/QxUVc3yGLvcGzd+vy8uLmEFY+wbxthMnSoYgHsBfnF8fOL9UVHLvn7iiSf6vK7ExMRhRGz5pk0bN/R+fhQsxh82m3UDAGtCQuJ4AP9LRNe73e6/7dq142+c8w50G1bpIaLeIcOdnR3e4ZeulNHWA+yJ0+kwB3sH8fEJEQC7j0j9PcBO4ZyXt7a23lVYmO9dHs1nyMYnEfU2+DQ1NW1AiA0sLi4hTJLYU0T8IYCpS5ZEytOnTzMNGzYMESUl3S9m1Jw5MM2fD9f8+ah9/YgLRF9z/wyA+yrNRskYg9vt3nvnnXf+KIE/epywAiAuLmEOET2u920RwdnQUPc8NAOPb+M73Mdph2AATidxcfGrALzKOZ3ucrme2r07/d+c8y7oGLI4p3mMaZcky+6d8OnttmzZVL5s2YrFYWHGf0mSdE2A6qYA+GrHjl3b4+Linxw7dszWzz77LOC1qSr9UlHk/dCco3rYM4h4Q7D7ioiIuC02Nv4SzmkVANVms9y2Z0/mt/DxIoyLS5hGRI/6vwfOee7evTl7EETNJuJ7ACzy3TZs2LBpANJ1nvFYALcQ4X7G6AzOwRXF/VpxcfH/ms1tHdDJ3ENEEf7XRUSHy8tL6xCCbScuLn4xgDeI6DwiOjxjxoyXZ8yY/szw4cNhBCBVHjHLuNvaYDr9dC1nGUIP/6Vx46BERcHokVONjY0/WuCPHiekAIiLizMS8beI9BNgut3uV8vLy2vgJ+U5p4xg55Uk6Xz0I1V6TEzcdMbwFyJcSqQeMJvNFxcWFuSjV090BCJ+DpFWhc1m2+NfLj19RweA65Yti/rIaDQ+L0nSrADVRwPY0tpqLoiNjXuLCF9v27bl0JFriz8FoHuIaMHOnds/gc5Ul6rSDsbQCp1U2ADAmLRCK6fuOXy48f6ystJK+AQWrV69Gq2tba8QsV6ZiS0W6z8Q2O/A+z7+D6A7ANbtEh0REfHUihUxnZIkFUMb+ixkDKlElKit1kNQVZ7b0dH+qCcXYRcC9OacU0fvbbwFfqsO+RMbG386QE8R0S0AJEVRt1ZXV91//fW/fHDEiBGQJAlSRQXgCfyBqqLynXcwcuJEuGtre6z60/0sA2yTL7sMMBg83wbZX3jhhWOy4k+onJACQFXpMcawUL/3p5qSkuJXoBOowjk2M8ar4Bcy64UxKWH+/Pmz8/Pzc4PVHx0dPVHzJqRbOQdk2f3Svn1FL3Z2dnZ46tX96GNj404hopEAgQi8pqamGPqCgtLTd3592mmnbZw+fcZ1JpPpTsakiwLMXp4P4EUAL0ZHxzYCqAEQDvBZnPNPS0tL7yMiRe+atm3bbI+JibsFoE+gs64AEdU5nc6/5uRkf+bJwNtDo2pubr2RMST37v2pKDc3ZxP6mMrbunVzSUxM3K+J+KuMdRukz5Yk9l/fc/rMmBQ6HPaX9+7N+Y5zbkcfC55KEg6qKm8HMNrnrs6IiIhgmuOk/3uNPRvArznndzKGYUSwuVzOP2dn73n7qquuUk899dRLvPYbqays+zhHYyNUhwOW8vIe6/wBfWgCjEG+/HJIHuOf1Wr99ssvv/zRAn/0OOEWBomKil7KGLbr5YoHAKvVcn1u7l6vu2ovoqNjVnly3OneOxFVEtHlu3btKOpZb5QJkOIYw00ArgSYiXP1h9bW1qdLS/eXQ2v4QY1XK1bETAFw0FNP1c6d2yMBNIVw22Hz5s07LyJi2OVGozHKk/57dO9ixInooKqqWzs6Oj4qKdm3H0F6SC9LliydzRi7R5Kk8wAWzjk/6HI5N5eW7t/kcZPtlSBjxYroMwDs07sOq9VyQ27u3m8QYmjt0qXLoiRJekySpGj/NfmIqFpVla1Wq/WLoqLCvUTkQD8Sg6xYEfMCgId8t6mq+pYkSU8SsQ7GaDKA5YzhMgCxADN4yqxvbm568sCB8ioAHRs3brzS6XR+AACsqwumTz/tlkxtu3dDbW3tc8EP/23soovgevddGI1GGI1G5OTkXHH11VeHbJ84FpxQAmD58qgRAMtjDFP19iuK+sXu3el3o4+VYqKiVtxJhJcZ019jnggc2ji0FNpU6WRoqugIAKSqfIvFYnm5qKggC0eWGutzzLZ8+YqZjKEMAFSV78jI2HUFeq7v1xcSgHDGWPikSZPHDxs27CxJMkQAYG63q7O5uamuvb3dO2XngqaChzqWlKAtMuIVrAoCWMpjYmKgKPwrxtArhJdzvjsjI/0qImpC/6axTGPHnjZm/Pjxs41G41jOubO93VxdX1/nDVxyoo8hhf4zjx7GGG2GT7h0MDjnmRaL9S+FhfkZ8Hm333333SZFUeIBwJCTA4PHtVex29G8eXPARh5MICjPPAO64grvij8H586dG+VyuY7Jij+hcsIMAWJiYiDLymsApur7rVBzTU3V49B6vKAf3s6dO/4VGbmkWJKkvzMmLdApIgGI8vy0sxPVqqryfnt7+8fl5WUHcCQld8gfJBEpR9RZdSDLWXEADiJyVFUd6gBQhp7a5dEscsoR4ry4LCu3AOyS3u+BeHt7+5Oe+P3+3pvc1tbS1NbW0gTt+UueazqqhVt37dpuW7x4SSxj7E8Gg/QrgPWaCiaielVVN1qtXZ/s27evEJqg6Q7q2rVr11Sz2RzjKdy94AcA2DxZfwB9dR8BtmH4cMiJid0NsK2t7ROXy/WTGf+8nDACwOWS72IMawLNKFmttofq6+sbEaL65AnbjTz//PlLw8LCVkqSYR5j7CzGEEEEGaBWzqlKVZV9Vqt1T3l5WSkReXvVkB1VesKbiDTXX88Y9lisSkwDu5aBsWTJ0umc04vemQxfFEV5v6RkXwGOfsGOo274vuzZs9sB4A/h4eHPTp06bV5YWNg0xqQhnKtdFoul8tChg95ZAV0tw2KxdK/4I9XVgdk8cpKoWwCE2vC75/5TUsAiIryhv+oXX3zxowf+6HFCCIDIyCXLiPjfvdZzf1RVebewMP8H9D9tlFJQkL8DwC5oC1/62nAI2oegQFOpg1qOQyE9Pd0WGbm0AsAMIjIc7fl+aiIjI01E9D6A4Tq9f3N1dfVz6MMwdxwhl8tl2b+/JB3Abhx5z94AK913UV9fb8jLy+tOL+/b+ztaW6E6HL2cfEKZAnRfemn3PofDseWFF16ox48c+KPHoBcAixYtnkBEawGEBbD6l5SVlT4Jn+w3A4BDk/w/uu81Ef8CwMNENObHruvYXzueA2ix3nuw2+2/b2o63ILj0IsNgJA1jJKSknjOubZAjNMJqbq6e5/Nb5kvIDRNgE+bBnXuXJg81v+amhqfcPWflkEdC7Bo0eLhRPQ153Q654TeP25tbW29o6urq1dyysEK5/R3zqkdYOcA+kbIwcjChYuu4Jw/oPceZFlZW1RUuB7HIGf/YEOW5e6sP4aKCsC74o8sw374iF9ZoF7/9F/9CqM9WX+92+RLL+3O+qOqausDDzzwA46T4By0AmDhwoVGzvnHRHQBEYfOj+x22wMHD1aWYgAJHY4X2dl7moj4dQCdMWvW7AuP9/WEwoIFF80horeJiPm/B87V6urqQ4/iGCzXNdjIzMwcq6rqpd6/fef+bXV1IM77HP+rnZ3gHpsBAwCTCXJamvY3Y+jq6lp74MCBnyTwR49BKQDmz5/PVJW/RkQrA0Wqud3ul/ft2/cttBDbE2osnZOT/T3n/NKhQ4feBZ3EoIOJBQsWjCWiL4noFP93wDl3dXZ23tHW1taCY7Jc1+Cio6Oje8Uf1tICZj4SumD1M/558d/W9vnnsOzceUQgREUBY8Z4s/4gIyPjuKn/wCC1ATDGXiCimwPFqXPON5SU7HseQRJ2DnZyc/d+D2ALNA+8Aae8/jGZP3/+EM7pSwDT9d6Fy+X6Y0XFgTychKo/EeG777672fu3wcf45+7shLuzs9+GPwCQLzniOiHL8t4HH3ywFMdx+DroBMD5589/mgi/CdSpc86Lqqur7lEUpQM/UcTUj4gbx8HyGwoXXnihpKr8HYCW6+1XFOXNkpJ9H8KzkOjxvt5jzdatWy9UVfUCz81qvv8erLW1PcqGPPc/bhzUyEgYPca/pqamnzTwRw9p3rx5vz1elfszb975TxHRo5xz6P1UVa1paWm+sbOz86RSOefNmx8xd+68C473dXiZPHkyFEV9lYiu1nsPiqJsLC3d/wS0nn9Qai9Hi9Pp7O79paqq7sAf4hy2ujoAoff63v/LaWk9An9eeumlr3Ec1X8AkIjo9gkTJkw6nhcxffp0dt55c/9CxB8LYPAD57zRbDZf09jYWAWdQJ8TGc7Vs4joVfRez+AnZ86cORg+/JS/EPHb9d6DqqpZVVWH7vRoYMf14/2xyMvLG6qq6nXev32Nf/bDh8FlTeb1awqQMcirVnVn/bHZbN+uW7cuaO6DnwKJc8oaOnRo4tGfamDMnTvXGB4+5HUi+o3+VB+Bc15nNpuvrK+vK8NJON4E6CARTRs9evT4oz/XwFmwYAED2F8DvQtV5XkNDfU3WK3Wo16oczDT1NSU4PXTYBYLpMbG7n22mppe5UPRBNQLLgBNmNB9TGlp6U+W9ScYEhHfYDAYLsNx6H3OPXfOcEVRvyLitwTu+dX9LS2tlzY01JfBb0GKk4Xi4mKVc54xZszYNBynAK3Zs2cb7HbHv4n4gwF6/uyGhvrr2tvbD+MEmnYdCN6gH8CT9MNjAFUcDjhajyRo7o8LsG/vr6rqwdtvv30PBoEGJXGOrwG2YuLEiTN+yopnz549mXO+k4jSAvX8qqpubmhouLy5uakSJ+B0X38gos+NRsNN0FySf1Jmz54dAbBPieh/Ar2Hurraazs6Ohpwkg2/9CCic7z/Zz7OPvaGBt2MP91lA2zD8OFQoqO7t7W1tX3idrv7E6n5oyGVlpa0E/FPwsOHPIGfyC9g5sxZcZxTlpYWWrfn57Isv1RZWXlTZ2dnHX4GHx1AnwOYPmXKlJSjPlU/mDlz1pmc03YifoXeu1AU5e2DBw/ebLVam3CS9/xeiKh7lSTmkzjE2dYzcjvUKUAlPh4Y0p1vRf3mm28+wyAxYkvaDeMZxtjKqVOnXnK0JwzG9OnTDTNmzHiCiG8kotMCjPebHQ7HDZWVFX9WFOWksvYHo7S01M45/dVgMP51/PjxI3+KOmfMmBFLxPcS0UU678Hlcrkeqqg48AdZlk/qMb8/ngxKGtKRPlG29A5yDEUTkFeu7Fb/nU7n1pdffvm4BP7oIQFAeXlZFRF/UpKk/0yZMmXW0Z5Uj2nTps8AsI2IHiciQ4Bx5retra3xNTU130NL6nGiz/P3E3oRIPewYcNfGzNmzI+mjU2fPt00ffr0J4noByI6XWfG5YDVal1VVVX1HrT1DI77WPWnhIi69X4aNap7u9f6D/Qj6efUqeCzjyRMrq2t/RiD6Hn6fmQvcE7pjLGNU6ZMOWb2gGnTppmmTp36WyKezzktD2TldzqdNx88WHlbe3v7IWhZck5ID7+j4cCBA04iug7AqpEjR704YcKEY24QnDp16kLO+R7O6U+ck8HvXaiKovy7oaE+pbGxcS80IXxSzvMHg3Oe1/1/H8s9fJIyhpz0My2tu/fnnLc++uijxy3wR49uAVBRUcE552uIqBxAxuTJRzcWnT59OiZPnrKKc15IRM8TUYROr29VFPmFxsbG6Lq6uq8ANONnovIHorKyMo+IXw3Q/xiNpg8mT54y/Ficd/LkKWdOmTLlNSLK1Auw4lzNtdlsK6uqqp5wOBwNOElnXELB4XB87/0/nzIFFBEBADAM6ZU3NagmgIgIKElJ3WUtFsvnFRUVxy3wR48eamZV1SG7qqqrOOefE/HvJk2a9PakSZMm9ueEEyZMkCZNmnSJLMt7APqGiGbrBJFYFUV51Ww2L6mpqXnB4XDU4QT26z/WHDp0aB3nPJWIJxDx3EmTJiUP9FyTJk2aOmnSpBeJeAUR/Q8RSX7v4qDb7b6rurr64qamw5nQhPAJEVr9Y+F2u3fLsqyt+mEwQI2MBACEjTiykHEoU4Du668HRozwhv7ynTt3vodBpP57r1eXs86acLEkSX9hDJOJ8AWADwHaWltb28sYNHHiRANj7EIAlwL4JQBdz0IiHOJc/aCzs/MDH2eSn/XHFoyzzpowQZKklz0Za3cS4RUi6du6uqqgWtLEiWefCiCNMVwDIAk6eQeIkKcoyuvNzU3fqKpqQz8y7f4ceP/991ePGDHiU+/fht274dy4Ea1794LhSKLPQAk/WVQUlMcegzEsDEajEU6n89OEhIR7EVoW6J+MgMFA9fV13wwdOnTjqFGj1hgMhpsBfMEYYxMmTCgHUAVtSsgI4EwimgOddd4BzaBCRBtkWf66paUl05PW2YZBYgUdzNTX19UBuOKMM86IliTpIcbYewBXJkyYkAUgH0AtNCFqgra4x1QAFxDxcxljkn8AHxE1EdG3LpdrbWtrawG0sagNouH3oqKi4rNzzjnnm6FDh14MAOqSJQgPD4e0bx/I6Qxs+GMMyqpVUO+4A0ZJ8o79m997771nMAinUUM1MoWNGjXqjPDw8HhJki5ijM1kjJ0Nbd31YdA+QDcAMxHVAajgnBfKspxlNpu9yTSdnt9JFzn2E2EYPXr0xPDw8FWSJK1gjJ0PbZmwQPkECEAtEe0nomxZljPa2toKfBKbDgpHlMHMK6+8MnrcuHE7w8PD53i3WcrLYfnsM4QXFMDkdB7p9cPCIF14IeiKKyDNmdOd699gMDgKCgquue+++3YiwFoVx5OBWJlN0NyGjdBUS9+VkHwTaR6zZJqCXoQBCDeZTEOGDRt2psFgOA1AhNbrk1NV1Xa73X7Y423mfQ/e0GPxLvrBK6+8Mn7s2LHfRkREXOTd1tTUBC7LMJnNMDmdMJxyCgxnnQXj0KHdDd/T+NtLSkpuvffee3dAm9kadM/+hFoYRBCUHtPPGIQf24nKCy+8EH7qqac+PWLEiPtMJlMYEaGlpQWMsR4N3mQydf9fUZQtGzdufOSf//xnBfxWiB5MCAEgEITIE088Mf2MM864d/To0ZebTKYJXV1dPYSAJEkWRVE2V1dXv/vwww9nQBvzDyqrvz9CAAgE/Sf87rvvnjZu3LhZJpNpNOfcbTab6z799NPyuro6O47YuwQCwc8A0ZEKBAKBQCAQCAQCgUAgEAgEAoFAIBAIBAKBQCAQCAQCgUAgEAgEAoFAIBAIBAKBQCAQCAQCgUAgEAgEAoFAIBAIBAKBQCAQCAQCgUAgEAgEAoFAIBAIBAKBQCAQCAQCgUAgEAgEAoFAIBAIBAKBQCAQCAQCgUAgEAgEAoFAIBAIBAKBQCAQCAQCgUAgEAgEAoFAIBAIBAKBQCAQCAQCgUAgEAgEAoFAIBAIBAKBQCAQCAQCgUAgEAgEAoFAIBAIBAKBQCAQCAQCgUAgEAgEAoFAIBAIBAKBQCAQCAQCgUAgEAgEAoFAIBAIBAKBQCAQCAQCgUAgEAgEAoFAIBAIBAKBQCAQCE40/j/gL2QgMdYOGQAAAC56VFh0ZGF0ZTpjcmVhdGUAAHjaMzIwNNc1MNc1NA4xMLAyNrIyNtM2MLAyMAAAQaIFCxrYKZEAAAAuelRYdGRhdGU6bW9kaWZ5AAB42jMyMDTXNTDXNTQOMTCwMjayMjbTNjCwMjAAAEGiBQsz54EZAAAAAElFTkSuQmCC;" parent="1" vertex="1">
          <mxGeometry x="-711.37" y="269" width="60" height="60" as="geometry" />
        </mxCell>
        <mxCell id="DzNfyVh7k3ZSekCiGxKr-8" value="" style="shape=image;verticalLabelPosition=bottom;labelBackgroundColor=default;verticalAlign=top;aspect=fixed;imageAspect=0;image=data:image/png,iVBORw0KGgoAAAANSUhEUgAAAwAAAAGACAYAAAAargV/AAAgAElEQVR4AeydB2AcxbnHZ3avqEuWLduSTraM6SX0YmODTYdQQrGCKy0hCSHkpbzkpeE49SUvCUkIIZjujk0JpgRIwA7YISG0mI4B22qWiyxLVr273Xn/kS3rJJ+kk3Rl7+6/IN/e7uzMN7+5u/2+b7/5RiqlBDcSIAESIAESIAESIAESIIH0IGCkRzfZSxIgARIgARIgARIgARIgAU2ABgA/ByRAAiRAAiRAAiRAAiSQRgRoAKTRYLOrJEACJEACJEACJEACJEADgJ8BEiABEiABEiABEiABEkgjAjQA0miw2VUSIAESIAESIAESIAESoAHAzwAJkAAJkAAJkAAJkAAJpBEBGgBpNNjsKgmQAAmQAAmQAAmQAAnQAOBngARIgARIgARIgARIgATSiAANgDQabHaVBEiABEiABEiABEiABGgA8DNAAiRAAiRAAiRAAiRAAmlEgAZAGg02u0oCJEACJEACJEACJEACNAD4GSABEiABEiABEiABEiCBNCJAAyCNBptdJQESIAESIAESIAESIAEaAPwMkAAJkAAJkAAJkAAJkEAaEaABkEaDza6SAAmQAAmQAAmQAAmQAA0AfgZIgARIgARIgARIgARIII0I0ABIo8FmV0mABEiABEiABEiABEiABgA/AyRAAiRAAiRAAiRAAiSQRgRoAKTRYLOrJEACJEACJEACJEACJEADgJ8BEiABEiABEiABEiABEkgjAjQA0miw2VUSIAESIAESIAESIAESoAHAzwAJkAAJkAAJkAAJkAAJpBEBGgBpNNjsKgmQAAmQAAmQAAmQAAnQAOBngARIgARIgARIgARIgATSiAANgDQabHaVBEiABEiABEiABEiABGgA8DNAAiRAAiRAAiRAAiRAAmlEgAZAGg02u0oCJEACJEACJEACJEACNAD4GSABEiABEiABEiABEiCBNCJAAyCNBptdJQESIAESIAESIAESIAEaAPwMkAAJkAAJkAAJkAAJkEAaEaABkEaDza6SAAmQAAmQAAmQAAmQAA0AfgZIgARIgARIgARIgARIII0I0ABIo8FmV0mABEiABEiABEiABEiABgA/AyRAAiRAAiRAAiRAAiSQRgRoAKTRYLOrJEACJEACJEACJEACJEADgJ8BEiABEiABEiABEiABEkgjAq406iu7SgIkQAIkQAIkQAIkkKIEpFwwoGNbqfl2inZ/UN2SSqlBXcDCJEACJEACJEACJEAC6UNAK9aFsw/OUf4WqQIemZ3txr69V9l2ubIMw3Z30rANaYhgnhB7/ctKKsMW1hhTSdlFC9p3niFkTtf7zldDeISShUKp/eVCzo8QhswIeR9+VwkDOu1IqUXoZ1NCbbL86raalXM+6KdYyp+iAZDyQ8wOkgAJkAAJkAAJpBqBTm/3jCOl+KTBECeid1UdRvmYXOmv9xutpsfj8cqRHtNt2GqfAi7FSGjXHrh9s6Ek50PXllACi3ClKaTIE0rsVcqlLBJSuZQtTJQoguoucc7AdRm4Hu86lfQMKOx7lXWpvEpIcy9fnFMys/MaBwNHX+qVJX7bbLlv37VyRqODRY2ZaDQAYoaWFZMACZAACZAACZBA3wTkSQvdIw4SWaaZl+0S7R63MnOkaXuVbWZJaRbgykxbWqOlEh4pjdFC2PCEG4U4rj3iBfCYZ0BJz4dC64U2r1+hpEt9HbdICCix2VLqB9W7C1eppy/siOSSVClDAyBVRpL9IAESIAESIAESiBuBTg/8NGGIoiMNsaPFKMn1G8Gc3Fy3HchXLrPIZduFtpQIdzFGQXEfASd6LpT00fCQ58KPngOv+li40N3Y9yIaOwOv8KKrTDjYXfpY3DqS5g2BfRCG03oVCH6retWmV9NljgANgDT/4LP7JEACJEACJEACewnI6Wtd+dnv5WZ5PXluryvHVkaOIV15SlijENYyGqEuo6C4FwopCxDrAsUecetS5cJDX4DglyJ43/uNPydnBxNQwm8Le0WHZf1o24prPnawpFERjQZAVDCyEhIgARIgARIgAScRkBWr4FF/1yzPHm/ouHg72zPaZXhGK9suQnA7lHcxBp7f0fDCj4HaPgqeYITYwDvfGV6jMrGvw2wQYrNvRquTOkdZYkYAE4m3YaLwHe21TbdtX3NTc8waSnDFNAASPABsngRIgARIgARIYHAERlf8MUeZhXkuyyowDWSVQWgNPPBQ5uUYBOWUSFt760Wn1x7HRmJ/JBX5wTFO99IwBN63pfhxtd/zsFo5w59qPGgApNqIsj8kQAIkQAIkkGQEOrPGTFtrisw2c4y102XkmKOkxy5FXsexpmmW2LZdjMmupYiNHwvPfAm6lwvPfSbCb7L2eer3pqFMsn5TXMcTCNhKrcFTo1urV8x7BUYBbMnU2GgApMY4shckQAIkQAIk4GgCIy5/oMCb5SnE7NYRylIjocz74LX3GfDYY2KsVuqh5MOTL6QOyxk477uje0vhUouA0obAPf6A+r+6lXM3pULfaACkwiiyDyRAAiRAAiSQAALwyksxbQ1i7Te7RuXZbnem2+c2pA855stwxgd36XgUKYNoWsHHAlHIQS8FvPZU8MGAW9IRUHW2pX7d1uq/a8fj1+9JOvFDBKYBEAKDuyRAAiRAAiRAAgcSKJi9bESu8I9S0q0XkyqWtpoAxX48AiLKdMw9Ut8UQ+kvhXK/b0GoA+vgERJIGQJKfGgp+7vVH7auVq/eGEjGftEASMZRo8wkQAIkQAIkEAUCUOKlOPEul++gEa5AsD1XeozxpmmXIxd9OSbPliM7zng0gz+9uJTKwbFsvGe8fRTYs4qkJ+C3lVhjW/a3ax6aswHGMB54Jc9GAyB5xoqSkgAJkAAJkMCQCMiKBR6fmFBkGsaYoIQH3xAT4Mk/CPnsoeyLcYjHL0XFOosO89gPiTAvSlcC0PrbhK0WWYb4SfWS2dXJwoEGQLKMFOUkARIgARIggT4IyOkLXL6iPHdj5sisnDZXudtlT8Rk2kPg4IcnXxwCJcUHX38uvJSdee6xj8PcSIAEokUACYJqMVH4t9VB7x+QNrQtWvXGqh4aALEiy3pJgARIgARIIMoEZMVtmePcY4otFcTiVeYEQ8lD0MRB+JuIP+3JL4Fmzzj8KHNndSQQKQFb2Toc6EfVwdV/VitXWpFeF+9yNADiTZztkQAJkAAJkEAfBKRcYIgLC92FotCbVWCVC2EcYkhxsBLG4VKoQxCyg5SZIl9781EFY/H74MjDJJBYAiqAJwLPWIHgrTWrrvsP9h03P4AGQGI/IWydBEiABEggTQkUVizMz3R5ioVwlZl7w3UOg2KPcB1Vjkm3E+DJZy78NP1ssNupQQBqfwd0/zvtDvHr6kecNT+ABkBqfMbYCxIgARIgAQcSkBWrPEVCeNx2i8/0eg4TSh0NMXVsvn7VC17lYTEsvaotJ986cPwoEgkMlwCMAEzHETV4/ZnftBbVLZrbMtw6o3E9DYBoUGQdJEACJEACaU1AVlSYo7yXjs4MSJ8w5UQp7MORF/8IKPqHQLmfCAVAL4LFjQRIII0JwAh407LUD2q2lT6j1kwLJhIFDYBE0mfbJEACJEACSUVAe/RHdezxurzeMpdLHYFkOsfDdX+kklKH74yEr68Ayr43qTpFYUmABOJHAGFBthDPWMr/P7XLr/sgUfMDaADEb8jZEgmQAAmQQBIRGHH5AwU52e4y27bLkT//U1gc6wiIfyQ9+kk0iBSVBBxKAE8DmpWw724PBH+5feW1dfEWkwZAvImzPRIgARIgAccQgNdell/7gNff4c0xRPAoZNk5Bh79YxC6c6zOnd/p0RcyS5dzjNAUhARIICUI6PkB+GGptCz7V9W2dyHWD/DHq2M0AOJFmu2QAAmQAAkknEDB7GUjcoR/vCHdmJArjsbN9zjo9odCvZ8A4ZhWM+EjRAFIIP0IaENACPXvjkDb1XUrP7cpHgRc8WiEbZAACZAACZBAPAnIi273jsjxZmSaWUcZBhR9KU/ALfbYfCGxWJa7AEp/Fn368RwRtkUCJNAXgc4njEoc4TI8cXNC0ADoazR4nARIgARIICkIyC8sdI9pzikzlT0R4TvHQdk/rqyg8Ci8Hooba+b+TuwP4tm/s/8Ud0iABEhgMAR0DD+89oHIrpF6ITCd/rOf8ur9mqbGLZHVN/xSDAEaPkPWQAIkQAIkEAcC2kvmm7Eqo0O05Ge4zWOFME/EDfhEKPrHwLs/Ch79PKj2ZhxEYRMkQAJRIACt2MJ3Fklx8E0WYl9aTCTQxfHO6pW08abzPNbQgMItm/Y124bX3Xv3Fc7LHahhXznRirk8+86hhFSNiLTvzr2vsCyXNHbtq6fzBY3swRwg1N9zCwblDpfbCKu0W1L5XVLtlbPnZQe80417W2y/menaK+MBJYRoC7gD21fOOECGMEWjcogGQFQwshISIAESIIFoE5AnLXT7DsoaLwx5CMJ4ToaCfwLaOAp39HIYA3yCHW3grI8EIiSAkPV2KNWtULo7cEkbvpsd+95DIe5U0vGqtmvtG5lu6qHQ+3FNsxRmk4LSDLV+B5RwpRXvzuvxjyH8O4XhUrZf+YMi0KhFUY2u1rpnnbFwlpYnlTYaAKk0muwLCZAACSQpATn9gYyxRSrXdGUgC489CR68E6RUn0J3RkGJ0J59rpSbpGNLsRNLABp4EN8lbDIIRd3W3vV9nvcAzu3AuWa8akW8Ad+1Nijs2w1hQGG3t8Mt3w4dfhcWr2pTymzQZU3T2BMMWEG3VwY6OgJBj7s92NrsDe5sgqe8KNuOZyabxJJN7tZpACT3+FF6EiABEkhKAkUz7yvx2N4JpqlO1TH7UEyOR559nY3Hk5QdotAkEDcCSivrLVDoEVmCfYmQl70hLtuFtJuVLXV4C7zuCJkxZD3O7Va23REIWLuEW7W0tPib92SMaICiHlH4Sty6xYbiSoAGQFxxszESIAESSC8CsqLCHJNxSYbhF+PchnGKMsQpUPRPgRdyPDyLBfA4xi3rRXqRZ2+dSqDTI6+98DoURsigfg9ZG7SnHR53rbzr0Jldne/1cSXrlKUaEQ7faFpiuyWUPxCE911Z/hx3dkf1Jw1B9eqNYePUncqAciWeAA2AxI8BJSABEiCBlCEgK1aZZUZruTQ8R0KBQcy+mozOHQkvvy9lOsmOkEAYAjouHoZtE8JrmqC0N8Izj4moqh7vd0LZ2qGk3AHjF8q9aOhU6G3VoGPd61Zdv1MH6ISpkodIIGYEaADEDC0rJgESIIHUJiDlAmPUpWXZ3kzPQYYpoOjDsy/lKeh1MRSffHg3Gbef2h+BlO1dp5deik7vPCaca+/6Hij42+Ch34Zz26VhbBNWsE4Z5nY7KLYZ0tphyWCj5XZ1+NszOhp2tHSItdd1ULFP2Y9I0neMBkDSDyE7QAIkQALxIaDTcBbPWjbOFNZRUhiT0OqJhsACW1KMiY8EbIUEhk8Airyt4+JRkw67QYpIsROfYe2Z34q0NHU4Vov4+Z1BG3H0fnNHjempR7y8TjvJjQRShgANgJQZSnaEBEiABKJLoPTShVnBLG9xhuGahBw8U7CUzamqcyVdpVfSpXc/urhZ2zAIwCtvQYn3Q3EPIpbGDwUfeeFFJXLHb8f7KintOluY1UoFtyK3O/attkBAtOe4GzqqVn6Nyv0w2PPS5CRAAyA5x41SkwAJkEDUCYy8aGleRr462pDyREOK0xHSg1Sc4pCoN8QKSWAIBKDkd2a3gUJfD+VlO2Lqq/Bag6pq4dPfCrf+tg7p37FzRS7CdJjhZgiIeUkaEaABkEaDza6SAAmQQBcBOX2Ba0RRcXaWzDnBdKvT4DGdjtCHIzFJUa+o6+0qx1cSiCUBHY6Dp0l+zBkJ4DOIxaVULTJFVUOh34IJtVVou9pWqloYRo1fyaZAcE97gxjRxlzzsRwV1p0OBGgApMMos48kQAIkAAJFc5cUZ/jV8dIlT4eyNVka8lgoWSMIhwRiSaBTyVcS2XB0Jhyx3VCiFk+XNttSVSllV1rC3Bawja07LXMbc9PHciRYNwl0E6AB0M2CeyRAAiSQMgSQjtMzJthe4PHK0xC/PxWTdhHSg3AeKUZA6TdTpqPsSEIJIMuNjr3vgBA67r4Rq8duxiqyn+D9JoTqbLFtu1Iqd5Xf799juzJad6xahRVlV3IBqoSOGhsnAZjgTD3LjwEJkAAJJD8BnaGnZMbiMtOls/JA2ZdqCg4dA2U/O/l7xx4kngBWnFVyK+LuEV9vIzRHbUbwzmZDqs2wJ2sbm1Tt7idnNSReTkpAAiQQCQEaAJFQYhkSIAEScBgBedJCd+64jLz8DONkKP/aw38ORDwYij8z9DhsrJwuDjz18MgrePEl/lQ9FP2PEa7zEd5/jBD9TbYtNrncYvseJVt21ZS2qjXT9Mq13EiABJKYAA2AJB48ik4CJJBeBApmLxuRreyTXNKYDEX/bEzYPRbhF3npRYG9HSoBZNEJ4nODxazgyReqEsq+DtXBn/FJAPH4Hf6Wml0rb2wcav28jgRIIHkI0ABInrGipCRAAmlEQIf0jLr0vpzMTO/hylDTkJrzPHhkjwKCIpxzpREKdjVCAvs9+cimI6HoKyU/gsL/Pi7faNn2x7Y0Pzbags01DXaLWnNte4TVshgJkEAKEqABkIKDyi6RAAkkJwEd1uM7NOMIxPCfhomU50GJOxlKXJk2BpKzR5Q6ZgSUwIRbpMuE5x4r2SJkR0LRtz4JBozNwY6Oqh2PX78nZm2zYhIggaQnQAMg6YeQHSABEkhWAlrhHzVejMrwZk2Gwn+BMJRefGscJ+4m64hGT+593nx46WUbcuNvgQn4HozBD/DZ+MCy7A8Dhlmngg0tO1bd1ILQHhTnRgIkQAKRE6ABEDkrliQBEiCBYRMorFiYnyUzTjBc5lmGkFOhuZ0CD3/msCtmBUlLAJ+BVil0Tnzt0RcfKMv+QBpQ9ANyc+2O4BaG6yTt0FJwEnAsARoAjh0aCkYCJJAKBOR1D2SMbpOlXmGeh4W3zkJOfqTnFCPh2XWnQv/Yh4EJaA89jDysdCvaULoBC2C9jyNvC1u9Z0vrPRkUle0dwaad3mda1UrmyB+YKEuQAAkMlwANgOES5PUkQAIk0IuA74pFI0WWOcm0xdlQ+M/Q+fhRhAp/L06p+hYKfzMy7CDLjtyMtXbeg+L/rpTGh1aHvbnm0Tk1OMaQnVQdfPaLBJKEAA2AJBkoikkCJOBcArLitsxSY2SZIc1zscbuxUjPeTxitkfB088Vd507bMOSDCp8EJO026DJN0LB/wDK/tu2sN4Stni73S8rpdm0h/H5w0LMi0mABGJIgAZADOGyahIggdQloL38tlue5DIR2iPFWVD49aq7VPhTcMih5NtQ8mswGXezkPIDvL4jhb2hXZqbt9WWVHJhrBQcdHaJBFKcAA2AFB9gdo8ESCA6BGTFKk+JaB9ruM0LDCXOQ2jPVCiFhVD+mZM/OogdUIsKQIgWKPw7lS3egkH3phLGBsvf8X6L17Ot8YPmZvXqjboMNxIgARJIagI0AJJ6+Cg8CZBALAnI6Q9klJS6T3QpeQ7mcV6AxbiOQ3sZsWyTdceHwD6vfh0WykIOffGWsMRbStrvtXfID3c+OreOcfrxGQe2QgIkkBgCNAASw52tkgAJOJCAlAuMsTPGjTQ9nlNNW16GsJ7p8AL78Op1oLgUKQICUO4tpNhsRQ793Vg06x1k33kd2Xc22Mp6Q9qBndWfWHvo1Y8AJIuQAAmkFAEaACk1nOwMCZDAYAlIbGNm3TfBpdznmtI4F9efibCeUYOth+WdQQBPaloRsf8J8m5C2VdvGUq92aas97d/1FFJRd8ZY0QpSIAEEk+ABkDix4ASkAAJxJmAzs3vC7gPgSdYh/VcjjSdR8JTnAfFHw5/bslAYG8WHtGMcauVyt6AWP1/WsHghoDpflfWB5vrnp3bkgz9oIwkQAIkkAgCNAASQZ1tkgAJxJ2ATtVZZhadBIf/xYj7hqff+BQUfmbtiftIDLVBtWefZ3+Dsu0Ntm2/pgzro5rl11UNtUZeRwIkQALpSoAGQLqOPPtNAilOQIf2jJixMi/H8J+KPD2XwbV/IRz8pei2J8W7ntTd6/Tsd2biUdvRkdexoNbLti3+E+hQ75rBtuaa1Te2JnUHKTwJkAAJOIAADQAHDAJFIAESiB6B4or7i9yme5I0jCuhPJ6FBZpKGdoTPb4xqCkApV9n4nkXMfuvY8LuK34V3Fi34rotzMQTA9qskgRIgARAgAYAPwYkQAJJTUDKCrNk5uUjXMI6SxjySqmM6ZgIqvPzM7zHQSMLJR86vmjHLIvdiNn/0FZyHY69Zhny9WBgd/2OVV9uocLvoAGjKCRAAilNgAZASg8vO0cCqUtgVMWi0gzTdZZpqquQ2nEyFH5m7nHacCvRCDfT+1D034By/4qUxobKPc3vKYbxOG2kKA8JkECaEaABkGYDzu6SQLISkBUVZpG4qCjT5T5fSInwHnE6vMkFiO03krVPqSL3Pu9+i5RqF1bQfRP9ellZ8h/+gPX+tvbdjerpr3SkSl/ZDxIgARJIBQI0AFJhFNkHEkhhAmXw9Cu3cbapxFUI8ZmKibwFKdzdpOka4nl2I6jnPby+hr9/BgMdb9R9EtjIXPtJM4QUlARIII0J0ABI48Fn10nAiQT2r8bryphuGPbVUolp8Pjn09OfuNGCgt+G1usxqfo/COX5hx00XlZm81u1wRFNauUMf+IkY8skQAIkQAJDIUADYCjUeA0JkEDUCRTMvnNEjp13tmkaM/DDNB3hPUVRb4QVRkZAiQ4o/e+h8Ju2stdb0nhja63/HbXm2vbIKmApEiABEiABJxOgAeDk0aFsJJDiBAorFuZnu7ImYTXeWVD4z8Vk3iJm74nvoCN+Pwj2jUi/+ZGl1D+lZayxZMfrhpWzs2rlDO3550YCJEACJJBiBGgApNiAsjsk4HQCsmKBx2dOnIyQniuRq/9iyDueefrjO2rw7m9DVs43pG2/gmzQ61o7xNs7HpmzNb5SsDUSIAESIIFEEaABkCjybJcE0oiAvOh2b2nOyCMMtz3DEMZV6Ho5vM5ckTfGnwGdnQfGFcJ5ZL1eZAvNrVeWeqHJbPqoMTBKx+9bMRaB1ZMACZAACTiQAA0ABw4KRSKBVCEw7uoHJwrTfTnSQ14OVfQUKKOuVOmbU/sB775W6iuRoed1pORcrwyxPmBa79QtmtviVJkpFwmQAAmQQHwJ0ACIL2+2RgIpTUBiG3P5oiJ3pjwX6TrnGVJMUkrmMMQnNsPemX9fijaEU+1Adp5/4v2LgaBYG+zoqNq5+vrmzvOxaZq1kgAJkAAJJDEBGgBJPHgUnQScQkBOfyDDV2KeZSijAsr+hUjbOdopsqWaHPDw2/Du16Bfryip1liW9Y9aq/59tfJrnLCbaoPN/pAACZBAjAjQAIgRWFZLAqlOQMf1+wryDxOGOdNQcgb6qyfzMsQn2gOvhM6z32Aj/z48/S9atlrT5pKbdi2dvYce/mjDZn0kQAIkkB4EaACkxzizlyQQNQK+K5f6DK+4FNE+M6GQnozJvN6oVc6KOgkgnGenkuJV+PrXITXnmvZG+Xb907ObiIcESIAESIAEokGABkA0KLIOEkhxAkWX3Zebke05HUr/XMT2X4juFjCuPzqDjkQ9NlJxNkLp/wAr7b5gC+Nvoi24ocaVuZtZeqLDmLWQAAmQAAn0JEADoCcPviMBEthHQE/oHTd7yRFQT2dhMu9VSCV5KJX+qH08AlD230VmpH9Ywvqb1W6+VvvIrC1Rq50VkQAJkAAJkEA/BGgA9AOHp0ggHQmUzlo+yhD2BQjvuUEa8mRMOM2i4j/MTwLi+PXiW8jF/y94/J9WfmOdMLZVV3Hi7jDB8nISIAESIIGhEKABMBRqvIYEUoyAlBVm6czLTzGkPRuO/8ug/PtSrIsJ6I7aA6UfK+2K54O28ZJVH3yj7lnm4k/AQLBJEiABEiCBXgRoAPQCwrckkC4EdIhP0Yz7x2S4XZdLYVwPpf8YTugd+uhD2W9BVh6dnvM5ZSOWXxov1W79cLdaMz849Fp5JQmQAAmQAAlEnwANgOgzZY0k4GgCUq4yx81snySEeY00xCUQdoyjBXawcFD4d0G89UjR+VcswPv36g2b3ldvz9dpO7mRAAmQAAmQgGMJ0ABw7NBQMBKIHgHt7R91xeKxmW7xGWnS2z9UstrLjzkRm/G6RljqiUbb82rTqnd3KzUfmXy4kQAJkAAJkEByEKABkBzjRClJYEgEtOI/buai0zu9/VJdyhV6B48R6TnrcdXLWH73WWWJl2ps79tMzzl4jryCBEiABEjAOQRoADhnLCgJCUSNQGcmHxW8TBrG5wwhj2dsf+RoEdbTJqSqwSJcf7EM8dwef/s/mlZV08sfOUKWJAESIAEScDgBGgAOHyCKRwKREtDeft/MB4+R0nWtFGoGFpcqZfrOyOghNWcrQnuQolP+zbLsZ2qbGt5RT3+lI7KrWYoESIAESIAEkosADYDkGi9KSwIHEBh50dK87AJ1FsJ7vohVes9AgQwq/gdg6nEAXn6dmacOnv5/YALv6nbbtWZn3djtas00ZuzpQYpvSIAESIAEUpEADYBUHFX2KS0IjKpYVJrtMucKQ8yDt/8wpPE00qLjQ+wkvPx6ou4HiOl/Bqie3dPq/1fDY9fuHmJ1vIwESIAESIAEkpYADYCkHToKno4EZMUqT6nhP8E05Rfgvf6MUDKf3v7wnwR4+RXY7IGH/11hY/VdaT8ugpkbq1bOaAt/BY+SAAmQAAmQQHoQoAGQHuPMXiY5AXnpwixfbtblhl6wS6qp8Pi7k7xLsRNfiUak6VyPxbiesGRgbc2ya9+PXWOsmQRIgARIgASSjwANgOQbM0qcJgT0pN6Sq4EfxucAACAASURBVO/zuaRnDuL7r0cmnwkI8zHTpPsRdxOefgtG0Q5bib+D0WMBv/+FOpGzi6k6I0bIgiRAAiRAAmlGgAZAmg04u+t8AnsV/wePc0nzC9i/AkptkfOlToCESmxRwn5WKPWkHfSvr1p5g16VlxsJkAAJkAAJkMAABGgADACIp0kgXgTGnr84211knGEo+VV4tM9USnoZ3x9CX4kOJVUVJvE+EQwaf7a91mt1i+a2hJTgLgmQAAmQAAmQQAQEaABEAIlFSCCWBHQaz6wCo8IQChN7xfFQ+hnmEwIcCv9bthRP2ZZ6QrS0vlmz+sbWkNPcJQESIAESIAESGCQBGgCDBMbiJBANAp1hPjMWlSGbzzWGKT+HSas+5PBnGk/A3bsol9wExX91UMpHttb631Frrm2PBnfWQQIkQAIkQAIkgFQiuMmSAwmQQBwJjJ2z9BiPLb5oSDmD8f17wXfm6Ffydbx7MmgHV9dubH9bvXpjII7DwqZIgARIgARIIG0I0ABIm6FmRxNJQOfvL3G1n+IS5n9hua4LkM0nO5HyOKFtKP3tyNS/ERN5VwlLPVbVtHujevorHU6QjTKQAAmQAAmQQCoToAGQyqPLviWcABR/s8Ts+LRLipulIacxfz9CfPbF9KugeLymadcbVPoT/jGlACRAAiRAAmlGgAZAmg04uxsfAiPnYGKvLS41pPgGlP6jMbHXFZ+WHdiKEn4EGuqUnY9bllhe2zTyHfX0hfT0O3CoKBIJkAAJkEB6EKABkB7jzF7GiUBhxcL8bCNrrmEaX0STR6ZzGk9ML9oCb/9TAWGvNJrb/s3sPXH6ELIZEiABEiABEhiAAA2AAQDxNAlEQqDoyoXFWRk581D2S5jYW4YY/7TL6LNvIm8dXp8Twl7h3ynW1T3LPP2RfH5YhgRIgARIgATiSYAGQDxps62UI+Cbs9SHL9ENyOjzeaTxLE25DkbQIXj5m6D0v2BL19Jga+DFukfnbo/gMhYhARIgARIgARJIEIH0jUtOEHA2m/wEdA7/MTPuLve4M24yhXE9YvxHwOOP/9NpU3sQ4vOqLeQKv2p7fPvymh1KzbfTiQD7SgIkQAIkQALJSoBPAJJ15Ch3QgiUVSw5WLqNr0Pbn4H4/lEJESJBjeoQH2WLt6QwVig7+GTVQ/PegfefC4kkaDzYLAmQAAmQAAkMlQANgKGS43VpQ2Dvqr2LD3V55Neg+M9SSuaky+ReaPcWEndW2rZcLZW1pMrK2KBWzvCnzeCzoyRAAiRAAiSQggRoAKTgoLJL0SNQNhcef1t+Awr/1YjxL4hezQ6vScf1S/EMfP7Lm4PeNbtWzmh0uMQUjwRIgARIgARIIEICnAMQISgWSx8CoR5/U8hZSsDjnwYx/vD2t8Db/x9licXtVuDPO1Zt2c64/vT53LOnJEACJEAC6UOATwDSZ6zZ0wgI7I3x1x5/CY+/SAuPP6L4P7GVeti21UO12z7eoNbMD0aAikVIgARIgARIgASSlAANgCQdOIodXQJa8Tc88pvpEOMPhR8PNdQuYYs1llIPSMv7QtXKGW3RJcraSIAESIAESIAEnEqABoBTR4ZyxYVA6cz7y0zDewtW7boGiTyL4tJoghrRWXyEkm8iV+eDQdu/euvyazcnSBQ2SwIkQAIkQAIkkEACNAASCJ9NJ45A0dwlxZm2vAkTe78MKQpSNavPXm+/qMHrk0oE76/OaX9D3XVjIHHk2TIJkAAJkAAJkECiCdAASPQIsP24EiisWJif68q+SRjiy6m8ci8U/iBS9K8TwljkdwWfqlvE1Xnj+kFjYyRAAiRAAiTgYAI0ABw8OBQtegQKK1blZ7v88wwp/xu1+lLR478vxKdSCftR5Oy/r3Lr5g84oTd6nyHWRAIkQAIkQAKpQoAGQKqMJPsRloCsWOXxufwVhiG+jfj3o1JS8Ye3H+k7/24Leb9qCz5T/ei8+rAweJAESIAESIAESIAEQIAGAD8GKUlAK/4lruD5LmnPF1Ieh+w+Zip1dL+3X8lHAn7//XVG1vtYoRer9nIjARIgARIgARIggf4J0ADonw/PJiGB0plLJpum8X1DqHNg47qTsAt9iozFuiyszvuSLeV9oi34NL39faLiCRIgARIgARIggT4I0ADoAwwPJxcBvXrv2BlLjnC7xa2GkJ9BSk9vcvWgb2k7M/kIsVVJ9WdlG3dVB13v0NvfNy+eIQESIAESIAES6J8ADYD++fBsEhAYe8WfRnsycr4NG+B6/KXM6r37wnw2wON/V5tfPb7jkTlbk2A4KCIJkAAJkAAJkIDDCdAAcPgAUby+CRRcfOeIvPz8a6VU/4MJvkWpMsEXYT6YxKuety11Z/XG1vXqVebt7/tTwDMkQAJOJ7BKSnO8KC1oF7JQCusgQxjlWI68GKmYx+D3rkC/4jev9zytFpzbjflb9XitE8KuglPkY1OoalN0NJyq6puc3m/KRwJOJkADwMmjQ9nCEpAVFWap69IrDSm+Z0jjU2ELJeFBhPpU4SZ3ny2MpVVLZ21Mwi5QZBIgARLoJPCyHFVqiYzJUhiTocAfDyV/PF6h9A87PFMr/rUwGDbCIHhdCnt9QLT+e5pq2E30JEACkROgARA5K5ZMMAEpFxglFQdPMk31U2kYU1Ijs49qx9OLf1lSLaxuavmzWn1ja4Ixs3kSIAESGDSBtXJ0jhCeo93CuATK+UVYhPBwKZQHnn5j0JUN6gJlwbBoQ5v/gkHwpFvYzzaIrZ9cqFTHoKphYRJIMwI0ANJswJO1u6UVi8eZLjEfiv/V8CRlJWs/uuSGt79ZKPUIPP73VH7Y9i+G+XSR4SsJkEAyEXhRlh1jCjkTMl+MrGuH4zXBmdcUjAHxKoyBh1tFYMV5qm57MvGkrCQQLwI0AOJFmu0MiUDeFXeMLMgo+CIm934DFRQkc5w/vFQ2vFRbbKUW2Xbg3toV11crbEMCw4tIgARIIEEE3oW3v154z8dT2C8hnn8qlG0o/fh1HnBTeq0ShPBIHcbTgOvq4NDZidXLd+F9e+jlOJ6PH8dcPEUYi/L4E/l4zcNrbmi5vvc7f1t1O39GmNBdNaLmtRlK+fsuzzMkkF4EaACk13gnTW+h8MvSWUuvMqW6NdlX8MVNDoq/fE3Z9p0q2PF41cob9M2OGwmQAAkkFYGXpcwMitJroJx/EX/H4HdtgPAe5DAT4gNYBv+CIv96UMj/2ELVBkXLjnPUrsZIO68nEY8VYwtRvghrOk7AvILj0fCJ+GE9DXJo42CgrR2/w3/HMiq/miJqn8fTVzpeBiLG8ylPgAZAyg9xcnVQK/7FM5ae4Har/8XNZRp8Sq7k6kG3tJ1hPlK9YFni9zV1H/1drZkf7D7LPRIgARJIDgLPybHZWcJ1BRTv+VDmJ/QV1w8l34ZSDq++Vvjt1VC6X8gQtVtPVCoQ9Z7iXrEWE4pdovQwyIOnERLzDuSxaLvPVNCQJ4hyL1ki8MNtYut6PBHg6ulRHxhWmCwEaAAky0ilgZy+KxaNNDLk9+Hs+RwUf0woS9JNKf2Ie2nADt5du2LemzAE6G1K0qGk2CSQ7gT+IUvOsIXrZ1CsJ/Xl8cdPHCbcqr9iLsAyJfzPT05A3P0CKY2zRenBkPFCKPlz8HpS32On5wmoRwIi+INpauvmvsvxDAmkLgEaAKk7tknTM3npwqyyvOyrpZILIHQplH/ca5Jr26fkf4JY1gfbA8G7t6+8FnmruZEACZBAchLQaTyDIvOHiPGfix6EWVldx9GoKvxcLw2IwMK/i7rK+UqHOyZ+Wyulyy1KT8KTga/gqcWFkGhEOKkgP+Yh2D9uE8GFmCzcEq4Mj5FAqhKgAZCqI5sk/SqbvewUxHL+HCr/NGj9A8STOrNTuA2+g4m9v20KdjzayPh+Zw4SpSIBEoiYwEuy9DJDmLfBiz4h3EVQmitx/DeGCCxPhLc/nEzhjumQ0jWi5DAXDAHcXvTchewDy+l5CmpNhwjecrba+u6B53mEBFKTAA2A1BxXx/eq6MqFxRkZOd82hPoCfqMzHC9wLwER04P8/eJlvP6uKuD+i1o5g9klejHiWxIggeQi8LLMLwyK/J8YQt4AyT29pYeivBVx/r/Hz98dp6sde3qfd/L7tbK43CNcP7CF/OyBhgAeZgjRaAnrm9midlFM5iw4GQ5lS0sCNADSctgT1+nOVXzNS2aZhvlDhPoclDhJhtYybhNB3ClW28q6o+bDtpeYv39oHHkVCZCAswislaWHe4Rxr8LKvQdKpvC7Zy8WIviTKarukwPPJ8cRPU/gHFGClYnNn8MImBJGakxWth9sEq3fuFDV6xSi3EggZQnQAEjZoXVex3yzHzjOFJ5fQrKzoPybzpOwb4ng+dqN6NZHcXP8XfXymW/ti/nv+wKeIQESIIEkIfCS9H0aIT/3YGLsGIT9hMzB6vSMvyNE4JbTRd3aVEmf+Rcpvbmi7HN4mnErQoNG9xymzhyh/0a60jlnqKqNPc/xHQmkDgEaAKkzlo7tSSkm+bpysr+N+8rNuLXoXM5Js+H21wxh7w1Y1l1bH5r3Pm4N+lExNxIgARJIegI6Rn6t8H3OJYxfozO9FtjSsfH2n5De59azVXV90nc2TAf+IccerYTnDpya2tPw0YXVJ7YIzJyqtr4S5lIeIoGkJ0ADIOmH0Lkd0OE+Ptel5xqG/A0W8zocyn+IZ8m5cnd696Wqhcf/gQ5h3L5t2cxtzpWWkpEACZDA4AnoTDku4fsesuR8D1djJd/QTSGLmfry6aL6sVTx+of2LnQfi4xlFgsf1jeQt8AIyAw9Bwa7EPU5e6rY+iydPz3J8F3yE6ABkPxj6MgejK54YGymy/Nj5PWZDa2/14+qI0XeJ5Sqg+L/u1ZTPbhj8ZytTpaUspEACZDAUAjoWPizhO/7SPH5fVzfS/m3NyCX59ypqmrDUOpOxms0jzNF6RV4EnI3DIHeC4k1BoT1uWmq+uFk7BtlJoG+CNAA6IsMjw+JgKxY4Bnnnng14ip/jgqKk8Hrj5gehHuKjbaw72xuDT7Y8Ni1u4fUeV5EAiRAAg4nsM/z/30ouj+Axzsk9bKOb1RP4bd73hS1pcHh3YiJeP+QvuMwQXgFKj8stAFwabGFdcMZquah0OPcJ4FkJkADIJlHz2Gyj61YPMHjNn8Dj//FUPxdDhMvrDi4422G4v9rEehYVsUc/mEZ8SAJkEBqENCe7nNEGUJ+tPIf6vnX8f7iwaBov2Wa2q7nPaXt9rIcfbAlMh6CgXRCTwgKRpF95emqek3P43xHAslJgAZAco6bo6SWFbdl+swxnzcMMT8ZJvnCmwOPv3wft7w/+nfZD9Q9O5crQDrqE0VhSIAEYkFgnSy9CQnYfgcDIMRBoyxkw/lDjaj+xgylrFi0m2x1rpWjx7qF91FwOg1/++eu4d6xUwj/xUiF+q9k6xPlJYHeBGgA9CbC94MiUDzrwaPc0vVrJJM4F7+SIY+TB1VN3ArjB/w9yxa/aDPEY/VLZjPPc9zIsyESIIFEEnhZ+i62hLEcnu2cbjk6V8G9cw+U/wuVQsIfbl0EXpCjSr0i688wAE7qOrb3VX3kEvb0U1V1dc/jfEcCyUWABkByjZdjpB07b3G2N2h8Gc4R/Sg528mx/p0x/kJtFLb188pg5nKu2uuYjxEFIQESiAOB9bL4KCzs+wKaCsl5r1Maq3trRfUX6fkPPwj6SYBLZDwBo6mHEQBH0rqg2HPJNNXA+WLh0fFoEhCgAZAEg+Q0Ecdevfhoj2HcjuljZ+CH0dFefx3jDx/Xrxqt9uWNjPF32keJ8pAACcSYwLMyvzBH5D8DT/bJPZtSTwRE+6x0j/nvyeTAd+uk71A83P4r7nXjus8qe1/Y1NdpPHVT4V5yEaABkFzjlVBpR0//Y463JO/LppR6ElmvRWMSKlqPxvd6/MWHUPxv99fbDzLGvwceviEBEkgTAshxbyLH/UIor9eFxrJjMuu/DdF0wSTVuCtNUAyrmy/J4lMM4X4aDEd2V6QnTKi5WC14afcx7pFA8hCgAZA8Y5VQSUtnPXC4S7r/iJCfM50c649Hs1jARtzWqOTdu5fOSstUdgn9oLBxEiABxxB4SfquQq7/5VBcQyf9bsMKt2dhhdt3HSNoEgjyovTNM4V5D0QNWTdB1XaIjjPOUts+ToIuUEQS6EGABkAPHHzTm8DeDD+jPm8a5o/hWc91Yqy/Tl4NubfinztapPoDJ/f2HkW+JwESSDcC6+TYgxD3vw7e/+Luvqv2oLAqzlQ1T3Qf416kBBAO9CtkUfpGd3k9j0I+XSsqr0AokL/7OPdIwPkEaAA4f4wSJqHO6+91GbfD638BFH8zYYL00zB+fpttpf5gK/OPNcuvruqnKE+RAAmQQFoQ0KE/JcL3AGLX5/TssPrtFFH1dSz5pZ0m3AZJYK0cUWCK3OeMHvMpdCYl6/NTVM19g6yOxUkgoQRoACQUvzMblyctdJcdmjXHMIz/hYQhWSOcIy/uXrvh+F/W6rd+tnPlvBrnSEZJSIAESCCxBF6SpZcZwnysZ9y/enWEqJp+pFJpvdDXcEfmZTn2GEt4XsSTlYLuuhTuQdbk01VNZfcx7pGAswnQAHD2+MRdutJLl49y5di3wet/Nbz+IXGjcRclbIPwWwUxB+Fh27J+WvXQvHfoyQqLiQdJgATSlMB6WZSrROZLUFCP7Uag2qCgngcFdV33Me4NlcA6Oe574PuT0OvxFOCPU0TNzYJPV0KxcN/BBGgAOHhw4imalAsM32cnnG+arjvhXR/nuFh/JfyWsv8qgsaPqlbOeiWebNgWCZAACSQLgfVy3DfhJPmFCknRjKelv5miKkNi14ffGx0O4xa5f0LdLYZQ93hFzasnKhUYfs1Dq2GtlBkuUXoYFPOTbSGORX7qCfuy9gBH57YLslZj7238/WuPaH3vQlU/pMUgn5MyO0v4npfCOHVv1Z3/+pUITJ6ial8LOcZdEnAsARoAjh2a+AkmL7rdO66g8MdYx/fL+PHMil/LkbWkbPGqZagFNf6PnlMr53OiVWTYWIoESCDNCLwi80YGRMEbUHzLuruuNreLjtPOVtu2dR8b/t46WTYf94tb0RZ0bdWO15eFCN7TJGofieeqwutkwQglcj8PWT6LvyPRs4yBe6eCcHRtRC7/VVIE7pis6rYPfE3PEi/JkvMN4VqNfnu6z6jVp4uqz/ApQDcR7jmXAA0A545NXCQrnbnoeJdh3oUfsZOc5vXHk9T3sdzKL6o2Ni9Vr96YMM9SXAaCjZAACZDAMAkgNOUnUIKxTsveDR5vC39fmqqq7u46Fo3XtbL0cLcw/4n7Rn7P+jrjX2rR5kJLNP5xmmra2fN89N5hld4ct8j4Imr8Fv5GQZYuT/8gGunM4tNkC+uHLlFz1ySlQ6Ui3/C0ZQXa/Wz3FaoNfb9oiqpa232MeyTgTAKw3LmlIwGJrWz2shvchutZ7J7sJOUfP8m7kFfhuw1t1pTK5bMeoPKfjp9Q9pkESGAwBLT3H574uaHXQCN+t1FULw09Nux93DA8wtSe/17Kv64ZJ4UsRZYcKNR5/zPstvqo4B9yzESXyNCpTH+BNot0u30UHeBw53X5WCvhV5bwLfqbLAzTp76rsIT/p1D4W7pLyEyEXv2XzsLUfYx7JOBMAjQAnDkuMZVqzKx7xpTNXLzCkGqhkAI/ns7Y8Ei2CSk9/9QW8B+1Zdnsnzc9Oq/eGZJRChIgARJwNoGAyL0Oyndo6A9C4dUPL1aqNZqSvyh8F+K3+vL+6sR5yxbq9f7KDPXcelk6RQnvGvR1GhT/KOkw0kR9V2aInIf0k4VIZTtDbHsbYURYaK17g/FzUbEYfXT3Ee6RgDMJROnL48zOUaoDCfhmLZqUYWT+DSk+K/CD54jxhwfFhuL/l4BlnV25dPaXtq+8tu5AyXmEBEiABEggHIGXpfY8m9f38oS/ExAdz4UrP9Rjuh0ouPPRTkb/daj120Ttw/2XGfzZF2Xp8UKYK9F+iKEz+HrCX6GfXohz3cJ7a+eDjPCFeh5FxFNABH4HQyvUyHJL4f5Cz4J8RwLOI8A5AM4bk5hIpCf6lhWM+LJhyJ8O/OMdExEOqBReIjiJ1Bs2JpJVLZ319AEFeIAESIAESGBAAvCKXwrF+M/dBgBSJwh14+mq6t4BLx5EgfXS919YXOw33e2Eu1i1GiIwfZLa+kq4s0M9BuW/zBTmWrR90FDriPC6gCWC085QNf+IsLzA3IuH4FCr6CoPp9bOoGg5fpqq11mHuJGAIwk4wgPsSDIpJNTYKxaPHjeicLGUho6XHMBzE6eOK7EDbv//am3umE7lP07M2QwJkECKEjjA+781IJofiWZnsb5ACZT/b/av/OsW7ZXVoi6qqTAXSumG8v9/qHxCNPvUR11ulzC+08e5sIelsP8EgwtG194NilWhW2Re3PWeryTgRAI0AJw4KlGUqWzW4jO9mcZ6/GhfheebrihWPdSqmpDP/w8dgY6jqpbNvn3H49fvGWpFvI4ESIAE0p3AC5gQCwZn9OSglk1TDbt7Hhv6uwXwHimRgdAfASOgv83eDmX4hzOUsvorNdhzR4jSy3ANPOw6SieSTU/MVZ/gbwP+PsRfQyRXdZXBRN5p66Tv2K73A73Wipp/osy/u8rpNRjwN1cbLl3H+EoCTiNAA8BpIxIleRDNqLP83GIa5mrsHoyfzQh/OKMkQJhqEC75vKWC51Yvm3vL1pXX7QhThIdIgARIgAQGQcAjXOejeEH3JSpoC3tF9/vh750pik/ALWTuQAo4lN7bJ6vaLcNvsbuGv0jpxbyD7w7U9r4rsLCX/aOA8J8WEHtODIiqE4VoO0mKjpMRlvNlGAKV3TX3tycxEVhe0F+J0HMweJA+VPV44oJFwk4+SpQcFFqO+yTgJAKcA+Ck0YiSLLkV9xcVur13QOW/Elp/wo28vfn8rR9WrXjyYaVWRtUzFCVkrIYESIAEko7AWildpvA9izSWZ3UJD0V3/VZRdRaUUn/XseG8agU8V5Q9CwPgzP7rUW9B4Z48Tanm/ssN7iwWHLscbeuJvwM8wVZvI3a/4gxV+15fLfxLjhkTFBmP4fykvsp0H1d/qxVVF0T6NOMFOWK8R+S9hXtublcdSlg/mKKqf9L1nq8k4CQCCVcOnQQjFWQZd/VDR49we/CbLWYkWvmH4t+O7D4/Ce4xplYun/cQlf9U+ISxDyRAAk4hYInRI6EcnxoqD0JwnoqW8q/rzRMlV+Ll9NA2DtzvXFn359FW/vWTbNzHrhhI+deTbpGTf1Z/yr+W+VSshozMSDfCW994YB96H1GHFImizN5H+3p/lmrYgnp7zH3AUwD9dIYbCTiSAA0ARw7L4IWSssIsm7V0jnRZ63FDOGHwNUTvCizkFYTy/3gwoI5DWs8f1KyeuTN6tbMmEiABEiABTQDhP9Pxe5/dTUO12SLwVPf74e2tlXmjkF5Ury48gPddvDBFVEU17EhL/o4oyka2uB4GTrgeGUJ99wxV91a4c72PTVN1b6POx3sfP/C9HIdjCAUa1LaqV+mj9KJlvY7xLQk4ggANAEcMw/CEkBWrPL5Zl/7UkPIeeEvy4DLBS/w3KP76v82Y5Du7MvBRRc3KOR/EXwq2SAIkQALpQQChP+f07KnaUie2v9Pz2NDfYTXfr+J2MqG/GvCj3w6j4wdI6Qy9Orpbo+jwoMYR/ddqv69E+6CMDymsZ/uvU59F7JPwDmqhTCUCa3Hh/tAr3Ijzg8J1kq6NGwk4jQANAKeNyCDlKZm9bPw4t/8pUxrfhuLvHeTl0SuuOlfx/UVLc/unqpfNWalWzt//Ixi9RlgTCZAACZCAJrA3w4wxpReNv0Uas97rugPerpVjj5bCvOWAEz0OKIWQo/unirp/9zgcpTce0aSzxD2KP/0aZlO2Evbtp6sdfZwPcwkO2SL4dvgzPY8GRbCw55H+3zWKus2o/d2uUjobENKXDjB3oqs0X0kgvgRoAMSXd1RbK6l48ES3VIj3l728QFFtpt/KtNcfcf4vdljqnOrlc77LtJ794uJJEiABEogKgcNFUTlizseEVmYJ9VLo+6Hu68nFLuG5Fdfn9VcHfv7rYQD8Ihbef93uiVhod6uovglx+5N1dh+0V4k+73/SgJ1thrAe7k/GcOeUcEWUFlQJY1BOtYuVaoVMPYwhvD/+NaYDDTcMPJZgAjQAEjwAQ2leh/j4Zi29xuNxv4DdI4ZSRzSuwc9wtS3E56sCnrO2rpj9bzwB3v/DHI36WQcJkAAJkEB4ApZwH6lDPrvPqjaPsKKy+q5LlFyIujH5dsDtJ9FO+9m7Rf1EQ8ftY1Xj+chudBC89xfCCHgIf5UwCOZPVnXbe18z0Hu3CESk2JtC7Rqort7nIRNWEO6+F4Lj0W0if7BzCXpXy/ckEHUCA03siXqDrHB4BORJC91ls7JvRV7k/0ZNEf2IDa/FA6+Glg9Hk72iI6B+ULdy7qYDS/AICZAACZBALAlgtdpjdYhJdxtqiyXq6rvfD23vOTk2O1u4FyAG3uy/BvutPaL1/v7LRPfsvvCmZxGe/9xLYuwohB4NKcFEUHjGh4DrU0ikFY0gW1DPy01hvYMnBx04mrH3jMyxRObB2O/xZKDnVXxHAvEnQAMg/syH3GIx8vuPOyznXkzx/TQqieT3a8hthbsQPg3cb9Q7AVv9d+2yOc+EK8NjJEACJEACsSeAp79Hh7aCH+eNU5QaVCx86PVd+5nC/WUo/8d1vQ/3iltBAO3deqGqbwp3PubH8LR5qhA7htqOKeSUgR5Xo49thvAP2sDYJereKRBlrfD87zMAhDCF+xjISgNgqAPG62JCIO5KZEx6kQaVjq5YcrDb7XkS4T+X4IclruPWqfgr0YHf3N8EbWM6lf80+MCxiyRAAo4l8K6UHtwHykMFtqcVlAAAIABJREFUlEK9H/p+KPtr5UgfMgt9XWfAGeD6tXWi6okByjjy9AIpDUtI7UQbaPt4q2hsH6hQ7/N6HgDGYkvP4+qwnu/5jgQST4BPABI/BgNK4KtYfFaWx1iOH+XRAxaOcgF4SZBlQb0SEPLm2mWzeyxyEuWmWB0JkAAJkEAEBLaLIg9u3mWhWjqy4fS5Am4EVWqdH8n+y36Ksj0mFve+FveDFkO0fyta2YZ61x/r92cK3xng9qmB2oES/yb62DZQufDn1Yc4fnz3OXlo9z73SMAZBGgAOGMcwkqB32NZ+tnFc0238Vv8Og+QCzlsFcM6iB/6Vsu2f9JmGHfUL5mVmEe9w+oBLyYBEiCBVCTQniFFRkiOer0Sr6wcTk//LoqnIOj/yv7r0Gk/xaK/ih0bkJZn/7ZWjijwiKxTsGjY/rCXrpPIud/uF62vTFMNu7uOJepVPzlxCx/mzyHFf7+bzmhhr+m3SD8nMRZbQo0z7Pv6Kc5TJJAQAjQAEoJ94Ebl9Acyxs1e8h2h5PfwMHaAyVgD1zeYElD84fUXLyrb+mr1snkbBnMty5IACZAACcSWgFdkFds9J+n6TRHcNtRWV0mZWSzKfo55Bdn91YH7wlYp2n4yXykkgOveXCJ3FZTec7qPdO8h5aZwi5yncSSSsJvuC2Owt0uUfE4K46KBqsY9cIcpOiJYLKyvmuwtPSN15Si9bsONSGva1xU8TgLxJkADIN7EI2hPK/9lxZ67MOV2djyVfx3rj/aalG3/2F8v/lT37LyWCMRlERIgARIggTgSgFId4v3XDctgi7AGnbKyS+RiUToDE8smQcHvZ+tc9Ov/sOhWbe9CCJdBiEuoz/uAEv2GFfUuHYv3f5fFJ8MU+XFkdaunJqmdNZGVPbAUjLOdPb12ynPk3lSgEa0/cGCNPEIC0SdAAyD6TIdVY9HM+0rGlXgXQRE/e1gVDfJi7fWH+v98oMN/S83D1w57Mtkgm2dxEiABEiCBCAlYQhT2zAShLCV2DjplpW7ueTlmTIbwLoAHv2eVvWSBcfBGq6i5u9dh8Yr0jYS3O7P3cSe9XytHHe4SWY/CSCkcWC7VDIPmFwOX67uEJaxtWAE4pIAEn3wdxksDIIQKdxNLoN8vfGJFS7/Wx1z94MQsIwOZfmS8lf9WW8nvBpubP0PlP/0+d+wxCZBAchGArz2rl8T2eUoN6YlthvB8A3WN71Vfj7doz6+E9eNwbTSLQAEKe3pc4KA3L8rRh7hF1iq9fubAYnXGNt1zuqjVk3iHvBnC9g/5Yl5IAnEiwCcAcQI9UDOlFfdNyXB7l8HzXzZQ2Widh0cHXn+1zu6wvlL1MGP9o8WV9ZAACZBAMhBYI8cc6xHem+AZ7y9+BzcK+7mpovbxcH1yC2Mk7iXefisId2Ecjq2XvtMMkbEK/YtA+e8U6PUm0fQj3BfRpaFveILQa/0AhcnRwbgn8hh6D3hlOhCgAeCAUR539YPnudwZS/ETPCpe4uDnrQ2/cL9qD3h+uf3hGc3xapft9E9AZ35Cic6/0tLSYtM0xyhllpqmUYgI3Gz9GcG96YDvLS7DCqB2u23rG4/cjdftQgSqsemwABvXDOuG1r/UqXO2rGzCqYZhnC+EeqOyctOTTuC27zPh8vkmHGEY5qGGIcogV2gow274LbdhhCsDgbb36urq6nG+xyTN1Bkhrap2fkcMfD8K8P0oxzJLJVKaRVKqHDDQv6H7dVGwwvolEjzs7cGgXRMMtn2ybds2vVpu2n8nFiAf/tmi7MfA1e/EX3wXWkxh39qXUuxChjr8uHic9gOzTpZegs/GvfD895ov0de3QTUEReBLn1a7hx2m4xFmAGFa3EjA0QQOUCQcLW2KCYfbmCybueRa6XL9AXes3o90Y9ZbxPu/binj5uplM1+OWSOseEACo0ePzvF4cktMU41HDC2UO3HEhAkTD4bCgvdiHPScHqnqOtUenNir/4SrHlGn+8JO9766RHn5wTr13qYJEw7GI235pm3bb8MT9W5lZWUNlES9XD03ECgqKi/Oznb/n9vt/izedv4ujh9/8P1QMm+uqalpjTckjLEcP3784TD+zh8/fuLFMEpOgQy5XXIc+BnYG81pmjmqvPyQLRjvV1D2L5blfwlj/XHXdcn4WlhYmJ+VVVDucpkn4zty/PjxhyCHuzrcMGQvhwl+UPer/t091cdgIAiPR/+5xYQJuTttW3wARq/ZtnwVJfHavqmqqmqIOd+720qmvXNF6RWI+7+gf5k7LcmFU0Ttm30p+EoYxQPNH+i/jeieRUYjzxjh+7opXAtQc6ShSXsQt3/tmWrrv6MrDWsjAecSoAGQoLGRcoHhmzXxJqy6+CuI0EPRi5VI8I4hV7S6a3ebNb/p0dnaC8YtTgSgsGmP5QgpM05xueSpUL5Pzs7OPwTN68Xd8rTC1yVK917XkaG/olodn3s8VCD8ic/CYwpHnrkLSmI1/l5Uynquo6P1BXiNhxQ/PHTJnHGl5j5u3ISrcnLcegGkg/EXOg7XeDxZOrXid+IlLcQxfL7y82C4ISxDnAElN38wbev+oHw5DEr8iQrT9NZD0X3OtgO/3rJly2s4lhRbYeHE/JwccRE+r+fn54+cCqFL0bXO30kYAdj2D9MQ+iNHoQ4YD/J0bSjjd7HFMDIq8X1Yr78Pe/bsfq6hoaEJ39G+dN4htOmsS9ZLCWOy7FZI5e5PMgBAxp+2/+uPBZT/sf3VEc9z62VRbrHw3YGxnYV297lDBpJAtVlCfekMVbN6oJKRnvcLlduzcRlEWNCgVxWOtD2WI4GhEJAp/Bs3FB5xuUZWrPKUufw/xL3+v/HYOi5GGG5ln1hSfbV6yewn49LJNG8EyopZVlZWDp3lRKgY06HITQKSo/Vxp6HBbwCeEqi/4HUJlJ919fX1TU6TMRby+Hy+Q12uzJ9CZb4S4xJWowQTC9tZlZWfvBgLGbrqRPNQ/CeeB+PwBzg2qS95usoP4TWIfvwE/fgZ+uTIXOR7lX4b3xXXHIzGhWAQt6eioTy1QYAIoRfxdGA5HpI9jycoUIKdta2TvnlYHubBbqlU/d9E1ej5EYZ+rZPjvo/nJT/uvv7APSistiXsm6eq6jsPPNt9ZJ0s+x1y69/SfSTcnnrtdFV5Urgz0Tr2kiw+Ugr3YvTrhEjrhENsJxYqu+H0KCr/uu0XZelkPIFYHyJHA4ypk6aoLZ+EHOMuCSSUQFyUz4T20GGNy4oFnjL3Ib/Gj9QX46H840cHE33FU8GAdXPNyrmVDsORUuJAYXGXlR10HJT9S+DBPRteqMOhyCBWO6xu6Zi+Q248JZAzYQRU5OUVIjRi4j22HXwAHuNhx8I6ppMhgqC/nvLyide53ZkLsN9vfnKcNxF68jO8ngPFOSYePBiKpQjz+TnaqMBfrJ4GuuBN/x7a2QAUj4XgSPjuGGyZmbmfy8835+LJxcGaeSKFwncWMfHGhYahEB7jqZsw4ZC/wni6p6pqE54QOGNuBR6C1Pd6PGGeJvL0074B1wJ4UY6dYArvVwZijPpfxxSKJQOVw/mSCMrEtAgU7vNM4b4Pv2OlkTWkn+6oSqz2O3uKqglV1CO7fIBSMJ7whKV7g6FhBZkZqBsI9xxBgAZAHIdhdMWqnDLPIXdBHbwaf50PsmPZPG5WDUoZ368Kuu5SK2dZsWwrXeseOXJkXlZW3glQEi+H0n85lJeyZGWxT/E6Ek/OfwOH9HehLP7Ktv13IzZ6QKUiWfqMibTHQfn/Pfo3NVKZoSqcVl5efhnKPxTpNZGU07zLyiZe5XJl3I79CCcqRlJzn2Xc6Es82ulTgNATxcUTyr1e8/PZ2Xk3Q3HL23vOOcYyxgTCyGLINQ/G01yECL2Fv4Xt7WpVXd1H20P7Eu99KJR6cv/+DdqsS4pMHS7W73cVFqb5FeHTnn8detjf1oEJsbeeqXbs6a8Q4u3NEuGDkyMxm25/rCj9PGY//QZjhVz7kW3g94IU9vVTVU1MnGJKmD3mp+CDBJ41/bKMTHKWIoHoEaABED2W/dY0dt7i7Ay3eTe0/qv7LRiFk7jJQ/dXGwK2+PzWFTM5qSkKTEOr0IpBScmEQzGp8Dp4zC/D24k4328sbej1ybCvJ1jCePw5YqOh+JR/G08DntYfqmSQPZyMGCPvuHEHfxeTfG+GWjcohQXXmrbt+hZeVwFBVLLraHkwyRiGlrge+0gRGPsNsm9DFpxnYt9S/y2MHTs2OzMz++bMTNfXobQNpIj2X1mczmKMtGXyKfzdnpkp/xvG8f1tbfZd27dvqouTCD2aQU7+Wrl3rnrncQjnyhGdk6I39SjY681XRfFk+J5m9Doc5q16Zruoey7Mid6HMMm292Ts3kVi816PyYui9FuGMH+IFiKa7ItbYxAPxRe6Rdt3TlWxC3XEePR+KtJxjhBNsSHBWklgaARi7oUemlipdVXeFYtGei3jCUPGXvlHuA/S3qk724ONU7aumE3lP4ofpaKiotzy8olX4ub/V6/X9TbuP9/G3+FoIqWU/y5k+gaL7SjD8PwZyurdmMTcw6vVVc7Jr7oD48cfdC7G7RXTlLcOVvnv6hsMohPGjTtoetf74bxqzzd4/gWyfAnixUX51/Lid2E1MhrFxOMZCQ/01cQ4fDozM+c17P5vsij/oX3Tnyds4/FE4IfZ2a738dTvl+Xl5fopQVy3oOiAp79HSJoniGw8AwvhqkCZAZRltdsS/h/MwPyXgeobIUbo9J9x/13Qnv91ouynSKLxo4H7s7cXUP6RItm+YYqq/nIslX/dGhSrcXtb7fpXbdFfwK53fCUBJxDgE4AYj0J+xb2FIzK8y3HTiIry0J+4+IGrV5Z9c9W2Tx5Wa+bD08EtGgQwdvAeT7w6JydfeyyPwvuExihHo0+DrMMFBfgGxMwfi3j1GxAStGGQ1yekOMbJhRCbWyH7N7AfhQmlxo3oyPPD6UxJSfkRXq97FWQ6ajj1DPZa6B52ICD/NNjrolV+xIgJBVD+b8P352qMRdyMnmjJH64e9EOH3HwT9v/VMOj+YNsdt+O7EZdUos1it79A5NbA06yfPmKTSGxklHfuDuufzkdcD2wT2z5Yi+/PQFW5RJEOuykcqJw+H64+3BQtfDYHrRiXiLKvYR7dN3DhgDJ2mr5CbMRixvOmqLp/RSJrFMoc1LMOmTDDu6ccfEcC3QSYBaibRdT3Rlc8MDbD7X7IkPKMqFceUqEO+YFnY71l2TdUr5j3Ycgp7g6DAG7wBrzHyEZi6AmaxwyjqpS5FPdqLKgUvAYTIhMeSjIQVIzdHCyc9aAex4HKRnIei6vVt7V1nLpt29Dy6utFxlwu10OQZ3wk7UWzDNZ/WLd580cRz3uIZttlZYdMc7nUXRiGQ6NZr9PqwnfjfSw29r3q6k9WYz+2DphOD7jvb8i+M62LA24Dd01RlV/seh/udb0cdzuMBcy56GvrVMb1PAJ/XyV6Hcd3q/+J9Lo8blABTIyFB77nBpl/N0VV/aLn0f7fvSh9FTB2FsEAiGDCvA7ZU8+4hP/6U9W2bf3XHJ2z+H7LdcK3Cc8B9n/P0c/vY2x+Gp0WWAsJRIdAVG6M0REltWoZVbGoNNPtfjwOyj9y+9t3NEv5aSr/0fsM4TfcW15+0K+htOBpM5X/LrJgMdrtdi2eMGHC+V3HnPoKHemzkDdqv3Hw2o/MyPB8eij9RZjIJCj/T0Ce/UrBUOoZyjVQRrHZdw3l2uFco9nD63+T2y1XYzellX/NCf093O02lyNEcDFSzPqGw27Aa/eG58Cr3b3hacBh4bzs3SUi2UNgmpAj8Ydwooj++s2i1dUiKkWY5IH1wYA5vatMJK97MxgZv4lQ+Yc1Yz9YL9qvjpfyr/vwiigCEzkitD+Q44PQ99wnAScQiNrN0QmdcYoMIz9zf1mWy3gaN4RTYiqTEtsQpDmratncW+qXzOYEoyjBxrh54D2+Fx6cr2JfP+Lm1oOAHIWMp6uwYBWe4Dt5U5F6MSPuBNQjnaoT+kzkG1LDngJej+OyRGXg2djYuOupyCUefknMF8mC8n8nFP/fo7YeKRGHX7uja/Bg1earES73KsLPZmHMYxguKP8TSgJe9kMtkavDklJyW4APkyHcv4ZyPWCqT3jcLSjddyLzzo2XDpDJKNqwAsJAJrWe9w38YCRF2GS0WbA+ZxOgARDl8Rl55T2+nGzPI7gJ6IwRMdl0yA/+Xg0GxAXVS2fpzCT47ecWLQKY7HkG7jU6VnlQil602k+SenLxJOD+0tKDDnOqvPB6Pxbt7wa+16eWlJRE7N3VMf8uV+dTpIQo/7r/2Fbu3r27IV7jNH78+BFQgBfjO3RjbBXgePVo8O2g32PwNOB+OBJ+h3kzMXIiqHcgWaBLOvxYjfWKvIg/m13XJcvrOaJkMjz/Fw4sr74fqgfHipqvT4t1KFYYYSzhPhGHQxJDqNo8EawJU5SHSCChBGgARBH/yCuX+rIzMp7Cj//JUay2R1X4aUPIj3qwuaH+7OqVs97scZJvokJAKZmTrorLYABCwRuPVKgPjh49Omcw18WrrGX5/4K2NkW5PUTyZFwZSZ3jMHMcE34fAadeGUEiuTpqZTosqyNuk3/1ZF9kjXoYhtIVUetB8lbkwdjfZJoZT+GJSFm0u4FbgTYAdLz+vk2Hu8kzu96l0qvO+oPc+t9A/wacQA7t/8XdovorB2MZ57gzwI0DhlivOX/yzcfEtrhMDo97f9lgUhOgARCl4fMh1WdOhlxpyFh6/lWLLeyvVX3QcmP9019hyE+Uxu7AalSNdpseeJxHehPA7e5ULIT2nd7HnfC+urq6HpNfl0R7LKHcXjBQ/woLJ+abpncZ+BwxUNlYnsen+ClkpomL91F7/rGar+7zWbHsUzLVDRaIW5HT3e6sx4qKopsudKraugOe7h5JHw5UPpOJVt+yjhHFh6Jvkcw72uMS1tcvVqq179pid+Z5kVsII+XY0BbgsHt5fmdypdCj3CeBxBOgARCFMci7dOEoM9N8FKb/pChUF7YKKDEb7YD96aqlc/6gXr1x/2PfsIV5cFgE9uzZtRE31sphVZJGF0MhvgUTH6c4scsNDR2/h1wHZB8ZpqzH9+fR1Qtd5efLB9BGzJ4ERih/IBgM3BFh2WEVKywszIfnX4c+RhCiMaymkvJiGAEn5uS4l+m1RKLbAbWmV31TMRHYkU/kesk5qLcuYWL9gp5x9eEqQNz/s6epmtfDnYvHMa/IPwZhSqFPewIwAF6KR9tsgwQGS4AGwGCJ9SpfVrGqcERujvZ69Xrs16vgEN/Cg6eQfnBtMGCfU7Vy7t+HWA0vGwSBhoaG3TC4nhrEJeleFCFTxo/xHQiJe3UGkqamzqcAd0T5KcAoePePD9dD7fH1enN+BmXlUr0frky8juF34z81NdY/Y92ejnHPyxv5R3R3eqzbSvL6z8zOzv1sNPuAJ8LPwVkR8rRSFrpEcZ/GuCXUWyisQ2Oi9RfRRHukAEU6zgPbtIX6KBIetpCXRFIO3zsd9pewTQnZI0sY+r1dij0bEiYQGyaBfghEsIhGP1en+anRFatyMtz+JbjxnRsLFPhZD0Jx+YPV3PK9mtU3JuSRZiz6lQx1Yh7AMtxYb8ANJYJc08nQo9jKCA/nNDwFuBitPBbblgZfezDYfofHkzkLYxmVVJT4vsPRbZwDSVaHSoPjWHV4wk14+YreDz0X731t8CBT5EKlYr8wFeZEwOCJwyrn8YYY5fb0ZwK/K8dFs9o2Yb2ZJcxqfNj2eZ314l0urSyHXafjDFW18DVZ+FBQuAeMpY9EzjYhi9zC+9ZAZeHHesslOnqE8EjRFjxV7NkVYr2ErWa9LCqRIvOgsCd7HXSLYI/MSL1Ox/Qt5il4SoQPv4HdX330bd0UFb8J+DHtICtPOQI0AIY4pGPnLc7OcBn3Is9/jB55qz3wmXynqu6ju7iq7xAHaRiXVVZ+/G+s7vkR8s7FbcVWrbJBR7Agtq21N7wixlfswrFmhJDC0ybrdZdwrhAKqBevOpygCH+FKGPgvUu/6jKJ2ND2N/H3NOTQ3kXHbDU1NTsxH/d3pqn+APm6787DklBO1XWhr/v1F6RFPR9zFX8WvTaGI6Da3dzc+NBwaojkWnxHrjFN42aUTcjnTvMHb3xXkPZRyRZ8dXbiK7Ad3xeMi6zTfcD5YhTLxq4P+3nY1/c9/HRH67OgW4loC2JOyhMRlYyw0HmqrgWLe72A4teEXHLhWjmiYJpq2B1ybP/uiWpXI97ov2Fvz2MNsMge+8lguFz8+788/UhiC9chhogsrCkoXLeBR3s/1UV0CnK1wHu/+HRV9WhEF6BQkShB2m/Zy1CxHOcQibQ/LJf6BGgADGGM5UW3e8sKCn8PryfiEmOwKbUlKOR11ctnrYlB7awyAgJQEvzl5QdDgZI/iqD4kIqgjXaoIJW2LT7E61sI2XjfsvSS9W1VUFrrcD4YScXQY7xIxzneNMWhUH4+hbqmQu5joBSVxFPJQbsnlZWVT4PMz0YidzzLtLfvWZSdnf9dtFkajXbR12MQ6z8KdWkjTWAC7JFut2cxuOdFo/4o1LGovr6+KQr19FmFXt/A5TJvQ4G43kfwvdCK7fv4fP/LtuVrsJXxvWnfpA29PoXdd0JPxM3Odh0O0+1UpYwzcfh4fEfGDHRddM7b/6yq2vz36NTVXQvCgFYZwsQTrr26OGLQJ5giS/ft8e5SybuHxcK0Uh2ZnSEkfvuGv2kvAZ5aFCyQcvX8CH+H3Z1jID3dratdhmj+a/d77pGAswjE9YfbWV0fmjSyYpVZVlDwU9w0rhtaDX1fpeP98bPzarAjMK/m4Wtxg+OWSAIdHYFHsPLrdzHWUXlcjr4EML5asX8BSv8LUgb/vXu33NrQsCmspy7SvqM+7XH/cN/fk5BXjh49YXRGhjwZBsE1UFY/jXMZ+nikdQ6tnNSLIM1FM89BJnyWnbNt3769GQbdg5BNGwHD3lCPiVz3k1DRahgCo7OychdB+dcGQdQ2zRDt+PGZ2YhdPb5VeD8KhuIYjOtRGM0iHDdxrPe4NgcC1gNREyRMRXoya3Z2wb1oekSY01E9pDmgQnAQa9D3FYGAvXbr1k1bcVgfG9S2Y8fmrbhA/62B7L/A/IVi0/ScAdKzQfEcHPeG4TmoNsIVhqwBy5K/wuuwvdO96+8QresyRU41Pn8Tus7BILge+yliAJi+rn7F8xWGlFEMqJG0uVbmjXKJ/EtwTWjxZyaJpobQA9wnAScRoAEwiNHQN4ZxM5fcit+F/8LNosc3fRDVhC2KOxzmQ6lHm9oCn2947NphKYRhG+DBQROoq6vciLj29Rj2swd9cfcFHbjpv4G3UIoDj2/ZsuVNvNcT4mK2oX6tMG3D35P6T+ejR8TQt6FIQsmRWTFrGBUbhnlpqGc8lm0Ntm4YdEszM7234LqcwV4brjxYniblhOfKy3O08n9iuDJDObZ3/LTCr/7U3q4eq639ZEvvetC2AQ/8CQi/uQSjPRdly3Gs8zcJH6+Xamo2x2ziIZoxy8sn/hKvR/eWK9rvwQJPWNT9waC4u6rqo4gmjEYqw77vSS3Kr9B/MAYOdrm8nwfPa9G30ZHWE0k51Lke8veYMxLJdZGUOQchPeuk71HZmSd//xVnr5fFR52utr6z/0jS7ig8oYnq7TbqJNwi7yr8+oUaKtrZs0THa0a9MVZIAlEiYESpnrSoxnf1ks/hxvA/+gYY3Q6rgG1bv6wMbp9H5T+6ZIdTG367AwgVeBivg1LYUR7xyGqLZamf27Z/8ubNH03btGnj/M2bN78+2LqGI3/XtZWY0LBly0dfgOf0UrT/Hv5ieVPKxYTbGM2L6erR0F61QYeh1MZYVDY87Zg0bpz5Sygn50Wjwn3jstOy7JuDwY7JmzZ9/Ntwyr9uC2VtDOur+nPl97ecAs/4l3DsY/w14vr/1eejIVO4OrC67QXo8zXhzkXrGORvRZ9uw/fntE2bPvp2tJX/cHJivYSPdFvt7cFTLcvSDHU2sGF/V1CF37KCP4xGXeHk1seCIvgAXkKfiMDQdyOJQUpsBU7uxWud2c/kF0NlxMP8jYaoXht6jPsk4DQCfAIQ4YiUzlz0WZdp/hbFQ2L8Iry4/2JNQVt9q3rZ3Lv6L8aziSAQDPqfQMpHPbFzwFAHqAqYhKj+iol+91ZWfqLDYEJvyIkQf3+b+5SP530+31RkbXkQ/dFhQTHZ4Jy+DBXDK+6sDQwCCAOCF1ZNQf+j4VI8A/OAzohSXVDqxaNQ5r+OWPbKwZDbF/t+F+S4G+PrhSLbNpjrB1NW5/vPzx+FydQiczDXRVp23+f0Jb8/8DU8xUhIPneEF22GvN8pKTnoT16vOR+fl1kweIaRDUw9Wl29eV2kDIZSbofY9l6p8D2nhHHx3uvhuhBq7guy5HdnqdoDniANpY1EXYM5APnDtsJiKHyLKL7EJeSRoTJKYd89SamYfQ9j2B1WnUYE+AQggsEunblkMpT/PyHqJ6rhE7jZ7bRs+7M1y+cujEAMFkkAAb2KKpSdv/fV9F6FRe2Ew/V3mIh4Grz9V23Z8vGTOO4Y5T9Udr06bmOjNQfy/X97ZwIgR1H9/6rumdkr2dzJZu9NwqngwaHcIeDPgx8oRyKQBEE5xB8i+vfkEFAEREURBQEFDBAwICgeiMgRQhLkUDlEgRy7O7vJ5r52s8fMdP2/tUk2s8fszlE90zP9bZhsT3f1q1ef7ul+r/rVqz/s0j1+r5l1GKKHjhs3zpO9dtFo7G/QD1ljMl8gR2eSyfgeivPQid7uK/CWZm6qxn98KyDHcdP413WVl4+/Ar+H+vh6Da7rsIlbOzq2nZQr4z++LfrtC37PFzhO5DSw/Xc6vxd9bjGG9Cb8NXLNxesXvz67V776BbaB4a4Fz6uJIWFfvOc7/5ongEnXijHe4lJqn3lTAAAgAElEQVTk/48fpLyuQ0QXmq+NEknALIGMH15m1fGetJqzFxwcsOVvcDM1atCgd+Y/CBE5Mbxw3l/SebB4j1ThahSNRhcM1TqcN4SUiCu7u3cegNCByxBq86bbD/qh9Eh1mx50HIl0nofj3IoTrxgzZsKBqeqVjfIwLF/DOVufjbqSqQPXC8JMnNmNje9ej/XuZI7JVZn6+voPwuG5yI360fYdCIP8fGPjysv0gG036khHpv49I3Tvz+3tW9GhK27D95QG8eKYhTjeWNjZcG1oFa1P4bnyUnwZPLcuWCYr6+K3cd0cAVtUfgqMB2Qeiv0K6Vk9c48x11pKKjQCdACGOaOT5t8/FYMaH8APPH5wzzBHjLwLDwRkqFYvdvc4J7U8NO+1kY9giVwT6Orq+Bse/C/io+OqkctbvYk4a8TUdx6hDbdk0g/mug0D69dvAhAR8wX0uBo3tmAkhnCdGxsUO1D3TL7jHOpleSYyTB0LPVoRa34KjN4/mZLplhycUyzBq/GPC2lO1XYY/+eDw9365LjVhkzkbtiwYQfe0HwpGnXmQsV1yeiJlmxC+ZsyqTeVY/EWoAfwfoDfdDzDcTFhfeNaA2+qUtHFbFn3xrMMpyce1Z1/08k5Eix/lRVl6P2/CuFhcXaU2hAT0V8mOISbScBTBDgGIMHpGHfqvWPLSwN6ll9jmS5wW9aPt987XbHz2x49p3dSpwTVc7OHCOiH/7hxDR8fM8Y+Xj/8EeKzxxnwkJapq4KMRMuRzeVXOPJSXOcydQmJj0Bs/KGJ9+Z6j3oRD+3Tc6kFfMm1PT3Rk/FGIiu9w5m2FZOcHYdL5JRM5Qw8Hr+nLm38NzWtenjgPq99h646jOfRqqqGt4JB+y7wODqRjiirl3tbWla+k6iMG9vbRPiJClGzBBbpsbvka8vfOneWqHwA35e6UWcyMvHo0+zSWhwR+bEUQc3RcPKNxOpgErBtGFj950XDhG6VieAXcdPcP97bgsRbj1VtqxNL5h4S8A4BPZOld7TxiCby+GsDtZUz7sYUknPxA4/z7tNXcFfHv1jQs9G5pO3J+RgsyoUEck9g6tSG+uLiwL9gzIwxqQ3ekryIHtOjcX9J+8FvUp94WUjteoJt2+jcy80CNq0IKzujpWU1HBHvL7g2ijB4+i/4O9Oktrg20LvqXI5sR983KTcbssaOrcMwl+BtcCTngMugZwTOMWYkjh60evXqtmzoE1/HC7LqRKQExWB32TdQG8+fF9aK8An6LUF82UzXl0tZ4ojq+xEDj4kHEy0S0zI7dx+jwll7G5JIE1Pbl8vJMxxRvAyMJ+2V6TRJETn8SIb/7EXCNU8ToAMw4PRIea1Vc+a0yy3b/u6AXWl/hY8VxcPu++G1VdeoZ2dG0xbEA0nABQL19fv8Ej32RlMG4prfHI12Vrs9KDUdHHpeBOR7/xce3kbmA0hFB9wHtiLDzax86fnXbautnXZKIBB4BKvxAx1TafagsuCgl/vxNu1z+Ns3cHVQQQ9vgOEfAJsr4UxeDjX7sUFo17fQthtzoj4UWyKq70PP/9y99asYJpr5FoxwhAhxyYQABv4GAqL6MWQn2p1xSUtTUUfELj5GtTL8JxO4PDarBAb1XGS1dg9WVn3WjLOl1XtDN6OdQm5mpa4KR0NX0/g3g5RSzBKIxcT92hozKRUBReO7umyjA+dN6bdtm9qC1m4wJS9ZOUC8DSli5+eT8Q9bUsLAvQRt7GfgJtvmxOVUE8bQfCVfjX/dLugeRbrf7+Cc6nbs3NNWrK/q7u64e8/3rP+FAkUichU0jAszlbYl5DeXyCkHZ12fAqsQxv9nMS7wY/HNwhuWpTGx5v74bVwnAa8ToAMQd4amzllwOO6St8F46Xt1Grc75VUYGZ0qGr2waeHcG9Wi2Z4LhUi5QTygIAl0dGxCHLpaYbpxxcWy1rRME/K2b2/ZhvZuNCErBRno5XYu1iliUzgm50Wrquo/BB/gI4YV0bNjX5KPg+cHckA7HKQK/RkyuunBwVuwH0kCYle3teU2C8zhiEOHUfodXOdxzx053hJFdz4hJ7gwkHsgmcL8/pysfj/eHH4Pn77xkwgTxv2k50szU8wQVZiE2Kp8IkAHYPfZqppzX20oaC/AD3u0kROoxLaYEz2n6Tfn/NqIPAohAZcIbN68eRuc1VfMi1eV5mVmLhGGmjaK1mYuKWkJUYSEXNfYuOqhpI/wSEGE/ujef2ML2GNxfo9Bv08aE+oBQc3NK36HOSY+BuP/M83Nqz1xnqOi5U44AIvj8cBYPaxclF3zsPHZ7ONrKcz1v8NxCgjrDvT+T9zbQoUXqLGbjhHr3UqpvLcqrpGAYQJ0AABUfvS+skDQvgc9XfsZ4rsePUJntTx4ziOG5FEMCbhKAA7Ai6YrsKxA3IPStPSM5WXNAYDBezdCRW7Qpm/GWmdRQFVV1X54G/oJs1XKnZGIugooCm4sVDi86iWkMl3olbbpHmlLdF+EN0/r95xDDNbFM19eMlVUnrNnG/+OTOBV5MDtEWW3aAeqf2m1pFSon+Tbb7t/G/jNrwR87wDIOQ/b1ROt6/Ggm2XkIlBiXcyRc8IPzX3CiDwKIYEsEICRikGxe2cRNVElBhaPMiHHDRkwxTe6ITdepjYKsDzf09P5ZfzNu4GuwWDJbHSKjItvU+brzgPZTo2Zuc75K+EItX4FQoG+ijcB8ZPMBZEl6ObFsvKY/G1Z9jTHb0DuFNVfhrE0D84TfIC+ZR2cq88folr7xn/07eEKCeQBAd87ANWB6Hm2kJ83ca5gVISjSp4aXnhWv9euJmRTBgm4ScBx7FW4fo2mCHQcEZciz03tU5eNZ3o2UvH+p6dnJwb95p+BAD5BfIz2EsMJ2t7VFbkl9bPFIzIhcLRoRZpOdUd/GXKsLQIPLpMV7+2/nd/6EcCPYImomo8B1MgKuDfuHw5VlyOc/ztKtb7drzy/kEAeEfC1A1A559eH2NK5WUgRyuScwXDSPX2rY5GeU1oWnrU8E1k8lgRyQaC1dQVCYhyjvdTaiMxFW5KpEzM56wGbbi47kAv+HBj/zW5W4pbsmpqGI3D+9jEs/8m2tub/GpZJcSMRwMNJiq4rUewZGK59YWiIZa9yROi3z8gp00cS4df9S0XFxzAV0M9h/PfZCJgkTM9r8MNjRMujfuXCdhcGAd86ABPnLKgKBgML8EbPwKBf1dgTEf/bsuhcHUbBhQTyjgBsBD0wNpx3iqepsG3LzjQPHfEwsOyKRp0LMRHaqyMW9mgBy7JN9/5jHHTsl2DjeLTJBa3WUWrDDkt0nAPr/434hsIJ2LdYFC1aKqtq47dzXYjFsubjyH67EIziQhn1jVI9+JZo/Y7u9iMnEshnAr50APRMv2UB+yfw6g/I5OT19fzH1KlrF819KxNZPJYEck9Auh4Xn/s2uquBNnCx3BgOr1zkbk3uSR8zpmY8Ip2PN1xDYzi8Gj3QXHJF4Ai1sdURPfPwwrolXgcMDP6gEvYTcAL2i9/u5/UlsvZTASHvg40wNp4DvNenYqL9kgvzcExPfDu4TgKagC8dgJqpM74kLXkGHnLxA3pSvyIkev4lev4fmvda6gfzCBLwFgH8HuImDvKWbvmiDToFHkTGn+/mc093ebn9IfCuM8kcPB7Cp+Ay/5hklA1Zx6q2NwIidiZCgTCAde+CR+GBQth/ekHW6HPv30VKa4msPheGwUIY/xP6g1BLbdEzf6basrX/dn4jgfwk4DsHoObs+46zpLgqk9O1p+e/K4qe//vZ858JSx7rKQJdntImz5SBgbs4Fuu6NJ+Nf40cuf9PQfy/bQo/eEQwHuJ3puRRTmYEPqxal0aFcxacgAFv/OR0KazHX5BVJyM0NrPOscxUzMnRmBshtFRUX4kMSb+AQ1QSrwRi/pftFJ1zjlS5neAtXieuk0CmBHzlAFScdt9kS1q/xM1tTGbgdvX8r2PPf2YYeTQJFAgBGLnrOjqiZ4bD4c353KRdhr80nPtf/Lenp+M/+cyl0HQ/TrU86wh1BpwADP7vt0zGm4BFyHzzTW0Q99tTwF+WyKmTKkWNDvm5Gp5PUXxTETK11BKRUz+iNqyJ3851Esh3Ar5xAOShdwaLSuTNeMDNyOik6Tz/MXE2e/4zosiDSaDQCLRu2NDYL6wiHxtYVdXwXtwjjQ4IxRvTF9ra2rKRdjUfkedM52NUeLES0ZOR/atpQHagYktY39EG8VIJu7jAl2dlxYcsEfgrjP85+MTZRLhyhfNEVHSdwZ7/Ar8IfNq8uIu9sAnU7Fd6PoY8fDqjVsL413n+Wx6aa3zW1Iz04sEkQAIkYIBAMCiR9tDcosOhkHL1aXMSKckkgaPVmleViMxCL/fL/eXqnPdyjhIlLyAm/qRrERvff3/+f3tVVpUulTXfDImip2AbvL9/i3rHq9y9RnTPmanWt/Xfx28kUBgECu5HPdRpmTrngQPRq6Vn+8VNLd1FbcWzbD7z/KfLj8eRAAl4n4B1vGEdI93dO5YalklxBgkcrdpWYUzASXgLgMxV/dO0Iha+ATHxj3xEVN/1nJxcYbDa3ImCMbBUVh7ahcxHcHK+B0X6pQKHM4RJvtQVa0T4C7PV+vbcKcqaScBdAgXvAEye8/CoYFDdgRtZv3ReqWDFi8D2aEzNa1o4Dz0FXEiABEig8AhUVFRMxr3uPSZbBnkr169nD6pJpm7ImqlaN0ZEeC5y3F8BA7hfuBZi4ouVsD4bFMWvLpPVF8MRiMuL74Y27slcLidWLRE1N2Oo+2IY/8fiM9AGarSEcwbCo26arZTRmdHdaxUlk0B6BAZe/OlJ8fBRRcHur8LhPzJdFXEz3KlizqUtD877U7oyeBwJkAAJeJ1AUVHZvpYlTffy/t3r7aZ+uwjMRJrWY0XL92EAn4LY97fjxwXsKiEr4QjcCkfgOaQLPfWtPBok/LSsngCdvxETpcstIS+D4V/a/7zriRCdPyHN5/FHqhY+6/vD4bcCJVDQDkDVpx84CoOZvone/zTbifR1Sn2j+aF59xTo+WezSIAESKCXgGVZh2ElgzDJwSAxKdpLg7dyi2cJYNAGDOBnlNhxBDq/boMTMCA1sE4PKw/BM/WRzaJmyfOy6mwMFO4XQuOltj0nJ1TrOP8iYf0LKU5vhN41Q+i3HqN9vxQRLZ/6sFrbOMR+biKBgiRg9GbvJULjTr13bHlp6CeI+++X0itZHXFDiCEa8qaWB1feJh5I9iiWIwESIIG8JWB0EijYkgoZ097MWxo+VvxotXUL0mVfukxUPYpef4TMiIP6h8tgKk0hDreEvUCJ0hUvyOr7pVAL1og1rQidQW967hb9ZmKzmHoQhvx9LihGnQZNpkDXoZaII5zHe4S6/ATV8s5QBbiNBAqZQME6AOUlwW/B+D80nZOnc3+h9+OO8Dsd1yp1NWb/5kICJEAChUsAYZKyvn7G4WZbqLbiDUCLWZmUljUCyHqB2NlnkC3nyC4hL4Qj8JWBPej4rieM2w9zB3wXbwsurxDVz7wgax+Nisgzx4u2Ju0EZkPf56QMhETVe1EZ5rCoORUG/wfgsGjdhlzwfH8JDsu1x4iWJ0SWdBxSEW4kgRwSKEgHoHrOg0cEgvJL6XDF7Up3/v85vGXrV9QrX4ykI4PHkAAJkEA+Eaiurh4HfevM6izXRaPtm8zKpLRsEzhEte5EnT9BqM8iR5RcAuP6AnwmwMDGn/hFliC+XmcT+kRQBLe8IGr+DWfgr1JEF0dE5xujxdaOQzArdPwR6a7D4C8uEZPHRETgcGQpOj4oak5ET900OCRliWWqGB7u72BW35tioucRpPdkhp/EsLjHBwQKzgHYHfrzc5Fm6A9uXsu2dKpz1Z+/2O2D888mkgAJkAAIBA7CS4A0x0olBNi2YcOGHQn3ckdeEThq10y4l8MR+BnmB/gsetA/hwbAaRzkCGjHYDw+x2DlGCHgDojgji5R/jocAgwuFm/hObsKx6+NCbmpSPRsj4junvFiW8eBuzPvvC4ryraLrpAjykZJ4WCMgQUH1a7BMfvDydgfBv+BUSH3hfy+EN8B3giq2bWgTw8hSeplHPuLqGj9DQY7DxjXsKck/5KAvwgUnAMwqsT+Moz/96VzGtH73xh17LO2PzqXvVbpAOQxniKw26Cz6+vr7Y6OjgDedMvS0tJALBazlApNDATsgJSRkFI2evP0Y1xWIAuMp9pAZbJDwLZtxHibXXA/XWVWIqV5gcBuR+C6p2X57UWi/BMYXHsBetYPRe97yTD6wYgXR6HMUbvK9N5nehCjszMqinvQXxfdIsZElsq63vEDSoRCUoQs7A/BOdVGfjE+Qdyl9Cv6JBYd1yN3oPQTUsR+tUWIpf+7601GEseyCAn4g0BBOQBVZyz4QLDY/jpOXeo9WUqt74mJOWsfOjPsj1PPVuY7AW3gT5kyZWJRUdEkywpNRMhuFS59pHFUlXhQTqmv3we9cErPfzGmrGzMWPTTFeGpOM6242Nj8XzlQgJCHmgaAq7HZtMyKc87BE5Q23VH2X24D93/vKg+CIb5GXjwIgZfHoztMNZHXPTNZ/cNqH/HAxyFEQ9OUGA7JvF6EcP4fhcRXY/PUhtbE5TjZhLwPYGCcQDknB+X1BZN+SHOqO4pSGmBUdQVVeqitQ/NezmlA1mYBFwmgIerRHx2cU9PT3koVH6AbeuJmuR+Uqp9GxpmTEP15fheiv6uUsvC3t4l/uEZv46S/b+6rD3F5w8BtS+uDmPq4npUliXoABgj6l1B+lxDu9f1Z7msuUGJnumOCJ4AI/4EXFOHY+dY9MTD0Dd794FMJOsQCOeRGxDX/zw6O/7miM5nHbF5rZ7TwLvEqBkJeINAwTgANYHJ5wmpZqb6EMOtK6oc56rWB+f9zhunhFr4mcBug79SyuB7kJf9cBj570fkznuDwRJt7Mf1qvU31nCcn7Gx7RkQwLVTVl8/vSYDEUMdihSg1pqhdnBb4RI4QoU70Tqd+lV/blkuZYkSFcjOEzgYg3TfbwmxP4z2Styt8KZS6nECSS4qipCeDTD61+OAZvx9C59Xo8J50xFr36XBnyRGFiOBOAIF4QBMnnNvRWkwdA3ahftL8guMf/zn3Bt+d+ctyR/FkiRgjgCML2vs2Pry8nJ5mG1bH62rm3Ec4vDr0ak2Dvt6e/Rp25vjTUmDCVRWVsIQkzpUzNiCa9exrB5trHHxMYEjlNIOgX6z3vt2/Vrc7z4gJpaV78rWgwG+oUm2sCdi9uEQgv/H4wHeO6jXEbLdFgoDyJ0dyNO/Gc7DhqBQO0uEhUxCvVmJfEyVTScBMwTy3gGAcSRrzg5ch7fXk9JAsqR7k7pMvXKhkdRkadTPQ3xIAMaRrKmpmYb5amYh9/rJML6OxHXcOxAXYRO9C4r4kAybnAsCeNOkU4AilMzogjcAMToARpHmv7CrMTAErdCZofRHLyt2/eG/JEAC2SaQ9w5A1ZwFM9FRelaq4ND7vxJ5Ps9re3J+R6rHsjwJpEpAG/0YsDupuLj0ZBj9n8bxh+EzRm9PVRbLk4BJAphDaSouw5THTo2gAyIrHSRf4UICJEACJOBFAnntAMg5D4fqAvYN6EEtTQUujP92R8U+17ZwPtPUpQKOZVMmAMMqWF1dfyRirM9DhNrJMPdTiHtNuToeQAIpE7CsALJHmV1wj420tjJUwyxVSiMBEiABcwTy2gGotrs+o6SNmQCTX/BgijmOuCL84PzFyR/FkiSQGoHJkyePKikZ9Sn09l8CJ+D9OLpvwprUJLE0CbhNoDdtrOFK1EbDAimOBEiABEjAIIG8dQAmnX7n1NLism+hRzVp+x/GPyIQnXtb3t15u0GGFEUCfQS04V9aOupM5N3/MjYeAOM/6euzTwhXSCCLBDDofKr56jjbqnmmlEgCJEAC5gjkrQNQUjzqEmCoTwWFkur1HV3Rr3LQbyrUWDYZArDzQzU1008rLR1zJUz+/fF9d07+ZI5mGRLIHQF0jEw076bKzblrEWsmARIgARIYiUBeOgAVc++ZViSKLk2l9x8JPzdEu53ztzx27taRoHA/CaRCoKam4UN1ddOvg9E/C5+UUtGmUg/LkoAbBJBydjyuWzdEUyYJkAAJkIBHCeSdsaKN/pAKfRt/RyXLFD1c0ZhyLl/zyPxXkj2G5UhgJAITJkwoR4z/dcFg4K9IpXgijf+RiHG/1wjgmtWL8YHpcCr4BsBrJ5v6kAAJkEAcgbxzAKrPvO9wPLBOj2vDiKsI/b+/5cH5vxqxIAuQQJIEamunHzZ69LinYfhfgSxUpnOoJ6kFi5GAEQJ6HgCjC8YVdBkVSGEkQAIkQAJGCeSVAwDD38J/V6TS++8I9VpPp/MN9EhhBnIuJJAZAVyDAczWexFm7X0Sxv+hmUnj0SSQcwKI/TE+B0DOG0UFSIAESIAEhieQV2MAKufcewR8gE8M36S9e9Hzv9OJis+3PTqfM1LuxcK1NAnoDD+I9b8BTsDF+HCQb5oceZjXCCi8AeAYAK+dFepDAiRAAm4SyJs3APLQO4OBQPAaPKaSMrxg/GOuL+eGlofmvugmQMr2B4GpU6dOKisrfwCG/xdo/PvjnPullbieTc8C7Bd0bCcJkAAJ5C2BvHkDUL1v6Qkw/o9NmrQSz4RjxT9KujwLkkACAhUVFZNLSkY/DEMp+esvgaxsbkbUm4P6tuGzHT28iMlWOgNWbNc2iZA4Z7tSsgPf9yzHIXZ7xp4v/EsCJEACJEACJFCYBPLCAZDyWqvmrBnfwFvqUDKnAdH+W6IRdYlaNLszmfIsQwKJCEydus8kGP+LvGb87x7Tgutb4qPC0P9dbGvE9yalYs2w89dEo8H1sZjoLimJ9bS3t8c2bhzbI8QKB+UiQ7V32rR97sN2OgBDwSnQbePHj086m1qBImCzSIAESMCXBPLCAag6c8bx6JmcmcwZQrdmTAnnitZF895OpjzLkEAiAjCOxpSXj38Q406OS1Qmm9thuDfj8ybq/AeM/n/CuH+3u3vH6vXr17dnUw/WVTgESkrGM4NV4ZxOtoQESIAEkibgeQdAznnYrgnKryXTIvT8KyHVX8JrovckU55lSCARAfT4h5Dt5+fIODUrURk3t8PQR/iO3CKl80/HEX9xHLXYtp0VTU2NCNvpDe1xs3rKJgESIAESIAESKGACnncAKgJdR0thJxd7LcXmzh51mXr2XOagLuCL1u2mwfiXMP6/CuP/TL3udn3x8mHcb4Uj+zTi8x/r6pJPtbWtYAareEBcJwESIAESIAESyJiApx0AbXzVnv3AF2GClYzUUp31J+aI69YvmrdipLLcTwLDEaitnXYCrrkrcfkllXFqOFlJ7kNMvno7FlN3xWJdj7a2tq5hL3+S5FjMkwTgxE70pGJUigRIgARIoJeApx2Aitn3HwAtP5nUuVJycWt7+51JlWUhEkhAoKqqamIoVIrQHzmi05lARNKbYeQjI49ahlj+m8PhlU/ge3fSB7MgCRgg0N3d7YRCrmQBTSphg4EmUAQJkAAJkEAaBDw9D0AwJC5FT+yITgoG/u6MxZwvq8cv3JkGAx5CAr0EYPRbwWDxNfiyj5tIdO8+Pv9Gj/8ZjY2x/2luXvE7Gv9uEqfsRAQ2bgy7FWLm6WdLIh7cTgIkQAJ+ITCicZ0rEBVz7msIBe3TkpmgEq+bf9Ly0LzXcqUr6y0MApWVtXqm6c/BEXAx7l/tgLF/044dW366adMm5OfnQgI5JaDninBhkVNcEEqRJEACJEAChgh41gEIBayzYYWNGEeK2P83nc7YzYZ4UIxPCcDmD9bVTb8Of12Jh4DRr6RUr0Yizv+1tKx+WX/3KWo222MEcCk6uO5N99gXeayZVIcESIAESCCOgOmbfpzo9Ffl8fcWCykvQj/ssD2xsKBiMKuubHn0nE3p18YjSUCI6urp/wsj6Cg3WGgDC+b+wkik+6Ph8KqXaPy7QZkyMyBgPAwI9+7xGejDQ0mABEiABFwm4EkHoLIi+ElLipoR267UE+GF7/5hxHIsQALDEIDhXxQIyMvwNzhMsXR3RZHH/6amphXnh8PhzekK4XEk4BIB/SbKjcHnsrq6eoJLOlMsCZAACZBAhgQ85wDI46+FLSYvTKJdWzGI8kqlrnYphjUJDVikIAhUV9d/GMb/kS40Jopr9AcY5IvrVHFuChcAU6QRAm68QZWWZY01oh2FkAAJkAAJGCfgOQegcsr0gzGb74eGaynCKfT/d7X+Zv7rw5XjPhJIhkAgYF+MckbHw+gwH8dx7oHx/22sIt0nFxLwHgF9nWIx/mYKMmH/W5O912JqRAIkQAIkoAl4zgGwbOsc9MaWDXt6pFoX2xn7vn5yDVuOO0lgBAI1NTVVQsiPjFAsnd3Pd3Rs+3+4RKPpHMxjSCBbBBCvv9GFuqTjBJgJyAWwFEkCJEACJgh4ygGQp9xZagt11nAN0zP+Iqb6eg78HY4S9yVLwLaLP46y45Itn0w5GP0bursjF2/YsGFHMuVZhgRyTMCFQcDSsm01NcftYvUkQAIkQAIJCHjKAagpKzsZ2X+GfW2sHPHGzq3i1wnaw80kkDQBvGmyMRPvp/B32GxTSQvcXRCT0t24Zk3jf1I9juVJIBcEHEetdadeq84duZRKAiRAAiSQKQHPOAAwwZCJWp4zXIN6e/+VuG7Tn+dyAqXhQHFfUgSmTJkyAbb/h5MqnHQh9WY4vP2upIuzIAnkmADuvWF3VFD17silVBIgARIggUwJeMYBqJx9/76YKGnYTCyI+H+pNRZ6LNNG83gS0ASKi0cdAgfAWKpChP7EolHnx4gAYugPL7G8IYA3AM3uKCvr8PvCWzYuJEACJEACXiPgGQfADoqTMRhzmLRxKoJcKt9Ri2Yzo4rXrqI81QfGyXFmVVfh9vYtvzUrk9JIwF0CsVj3ejivbjitk8vLq8e4q2/rn38AABs3SURBVD2lkwAJkAAJpEPAEw5Ab/iPkHOGawDmUl3Ssn3zM8OV4T4SSJGA0fAf9KT+bvPmzdtS1IHFSSCnBLZvd3Qa0K0uKFFRXl7EGYFdAEuRJEACJJApAU84ABVnPXigkOKQRI1xEFoRiamb1J+/6MaMlYmq5fYCJlBVVVWK5u1nqonoQUVK2ugjpuRRDglki0B7e5ueCMx4KlC8YcNvLDYjW+1gPSRAAiRAAskT8IQDEJDqDIwBHkYXtXztonP+mnyzWJIEhiegVFDHJw8/38TwIvrthfm/pr29/Y1+G/mFBPKAAHxXzKau3nFDVUwG9j435FImCZAACZBAZgSGMbozE5zs0fITtxZZQp2SsLzSsf/y+l09rAlLcQcJpEQgEAjW4JrSbwEMLepfCP9pNySMYkggywTka25UaFnyg27IpUwSIAESIIHMCOTcAagaNfoAhP/sn6gZSsm/M/Y/ER1uT5eAZcVqTGYogTPxxq6e1HQ14nEkkDsCmF3RpbdXptPs5o4RayYBEiCBQiKQcwdABgMfRfjPkD2xvXn/hfMTxv4X0iXnjbbA+K82qQlCgFwJoTCpI2WRQCICO3fGXnXjLSt+Z1Nramo4DiAReG4nARIggRwRyKkDgIeDtJQ8KWHbYVS1vLPz8YT7uYME0iSglDUlzUMHHaZ7/jGHRcugHdxAAnlCYOPGpjaMA2g2rS5+G4FAoOho03IpjwRIgARIIDMCOXUAJn3inimY/3fIyb/Qo4pnh7hVvXJhJLMm8mgSGEwAvucwc04MLj/Clh7HEUz/OQiSwxzwg5h4c8Pu3v8XTWunO3kQxjnLtFzKIwESIAESyIxATh2AkjHBj2IOgCFnioT9H45Eex7OrHk8mgSGJoDrbvTQe7jVFAHYfsayLJnSiXISE4ATuyzx3vT3WJY4Yty4BpMOd/rK8EgSIAESIIFeAjl1ADD49+NDnYfdvf8L1y46b8NQ+7mNBEiABEjALAG8BViGjwtzrcj60aPlQWa1pTQSIAESIIFMCOTMARg7d+E4OACHD628ioio+tXQ+7iVBEiABEjANIH29i3vovPFjbEsASnt00zrS3kkQAIkQALpE8iZA1Am1YHI/pMgE4t8Mrxo3or0m8UjSSB7BBDqEsAAypLs1ZgvNamc3V/yhZCX9MQ8Fnocy3I3dMJIgFPxOwm5IZsySYAESIAEUieQswd0QCmdGSI4UGWFueNjjnPHwO38TgIeJhCwbWuCh/XLkWrSWKalHDXAh9U6T7jRaBj/1dXV9bPckE2ZJEACJEACqRPImQMghPzIkOoq8d/unT3PD7mPG0nAswRUg2dVo2IkkCSBSKTrrxgH0JVk8aSLwQGwsVyAvzl85iStLguSAAmQQMETyMnNWM55GK+C5YcG0tWDf5H887cbfv/ZHQP38TsJmCTgOGqrSXlC2AealVcI0iTfiuTZaWxtbd2IcLbn3FAbxv+J1dUN73VDNmWSAAmQAAmkRiAnDkCV1fNBpGEcNYSqPV1OdMEQ27mJBEwTMOoAwLg5CJ8i00pmS55O0wgHfJrZ+lQxmAyZ5tdsPZRmkgDy9j+ye14Ak2Ix5YssDwTszxsVSmEkQAIkQAJpEciJA4Dpf48ZSlslnBfXPfSZlUPt4zYSMEtArTMsb/+KiopyszKzI628vHrC2LGBRajtCJM1wskvHjdu2lCOvslqKMswgUhk518h0q0UzPMqKuoMO5qGAVAcCZAACfiAQI4cADmkoRFz5AIfMGcTPUAAWUlaTaqB3s3RgUCZHtieVwtGZlaPH1/8eyh9ItogDSuPzEhdnA3YMFS3xSEMKIw3AM+4VM+o4uLgNbjU+GbIJcAUSwIkQALJEMi6AzDpk3ePlkoOFQe6XsScvyWjNMuQQKYEMOtpGDKimcqJP962xanx372+XlNTs08wWPyoZVlHuWD8YziPKC0rK6YD4PULYWj97hp6c2Zb9XWGZXZt7bSZmUni0SRAAiRAApkQyLoDECgqqoHCUwcqDWNhyZqHz9FGGRcScJ1AJBJrRS9np8mK0H+OQY7VeTHwtaGh4f22XfwEkrIcZpLBAFmlliUmD9jGr3lAoKlp5WL8Pv7jhqpwADA2xPrppEmTRrshP5cy9e+/oWGfmVVVVaW51IN1kwAJkMBIBLLvAATUAQMHACP1j+PEnMfwwME0AFxIwH0Ca9c2rUYtO83WJKcEAiWfNCvTvLS6uukI9wn8wbLkdPPS90rUXb1wAPbdu4Vr+UIAt2JMx+LefCx4BhxQVjb2Wn2J5AuT4fREO4oaGqZfHAyWvIT1Z/H32uHKcx8JkAAJ5JpA1m++lpCHDtHojvbu6J+G2M5NJOAKARg4yHWu3jEpfLcx83/468neP+hlw0g5D/nYH0Ma3mqTbU8kCy79UOF+iYpzu4cIdHY6v1HKaXZDJVyLWMQXamtnzHVDfrZkohF2Xd20j9TXT18ihPUzfJ+m60ZY3eenTq1jauBsnQjWQwIkkDKBrDsASor3DdJSicVbHjvXaFrGQXVwAwkMJvCPwZsy24Je9Q/CIPDcWAAYJiEYKdfDNLkNLcxiZh55sDaSMqPKo3NBYP361W2YL+Nut+rGdVGEN0S31tfXD5kUwq16TcmtqmrYv65uxr2WZf9Bh9KhPfHP01GhUGi+qboohwRIgARME4i/YZmWPUielNfq+gb1CCpHoEeSCwlklwB6pxe7USMMgauREtQzse9VVTNqEPbzKHr9vwrdit1oc2KZ8v2I9UY2IC75SGDr1p5b8aZso1u643ocI2XwUQwKPtatOkzLxeD5qvr6GT8IhQIv4i3GXLRhyPk/4NycPnZs3TjT9VMeCZAACZggkFUHoHx29VhLSj0IuG9BKMb2ThV7oW8DV0ggSwSi0a6Xcf0ZHgeglZcziotHfxuGQVZ/X0Nh0/H+oZB4CiEJJ+VCH7wRQU9oqZsDjYdqNrcZIrBtW3hzLOb8zJC4IcXguqxAWNrD6E0/asgCHtk4eXJDRV3dPtdgnM/L+D1pZxrOC1yAxMv08nIrbxybxM3gHhIggUIkkFUDpdwuOngQRCVe27hu9apB27mBBFwmgHzn6+EAGA8D0kYBDN+LEAp0pstNSCh+/PjxYxDvfz0MlcehzX4JC2ZhRzAY+FgWqmEVLhHo7u64HQOCV7gkvlcsfjKT9bVaXz/tfKx7JmRM/5br8ENGj/93ysoCr6FXH4794Cx2Q7HBoWiSfeFQ+7iNBEiABHJNIKsOAEZGDc4IItUz6tmrjeZjzzVU1p8fBGD89+DzZ5e0DcCO+WkuQhtQ5zFjxkzAbK7WN2GE5Dz8Ril5AvTwjFHn0vkuWLFtbW3rEQZ0g9sNhGE93rICt+Ot1e1Tpkyb4nZ9w8nH9Srr6/c5Am8l7rKsopdgyV+FTZP19uGOG7xPHqfn2xi8nVtIgARIILcEsusAKNEvKwJisGNRpf6WWwSs3c8EMCHYH3EddrjBAKbCBIQ2PFJdPeN4N+QPlFlZOa2uoWHGHajzSdgph6durAyUaOY73obsh/zo7zEjjVJyQaCpadWv4SwvzkLdcJzl+aWl9su1tdPPy+ZcAajXQv7+GtT7efT4L8N1+yw+n9O/43TbjWNLA4FQXmc6SrftPI4ESMDbBLLqAFjSGdAToratia56yduIqF0hE2hpWfVvpDp8za02wqiYFAzK39bXT/+sNjDcqKehoWEseisvLyqyl6GKC1FPznv9B7RzlGWFsuIEDaiXXw0RgPEfw1iAr+HvNkMiE4rB9auXGtu2fjlq1Ngl6IW/wM0J9qqqptfq9Lj4jT4aCpX9MxCwb0f9H4aCQw7uTaj4EDt0Q5SyZmfTkRlCDW4iARIggUEEcHPKztxb8tA7g7X7j/6HFKovC5By1ONNC+d6fuKkQdS4oaAIIMR3vm0HFrjcqChSKi5C1NFVTehOzbQubVjU1tY2CBGYD6MfcdOiEptccTAy1VUfjxjypzG77P/gfuOYkJepDLwp+Qxw3ZupnD3Ho13/aGxccSj+ZueGuqfiLP+trd3n8kBAfi+b1eprBtf3Zvx+nsDqHxwnsiwQCGxavXo15vJIftG/mYkTJ46y7bKJcJbfg68zcQ3oQbp4M61K9f7kpSVfUuuP/09pbFzJuW6Sx8aSJEACLhMIuCy/T/yUWmecUGqMiLvFYgbgxX0FuEICOSMQQxiQvQrP/2kuqhBAOMHZQoRORIzzrxB6dE84vPLdVOubPHnyqOLiUbPQW4kBxvLj0HlsqjKSKQ+jJQbZxuL2EUN9bGVlg34D+HYy9bOMNwmEwyt+iPCYj+La0IZzVhbUpR3bifj9IK++NR8Da7fBVF+Bt15vw93CZH6qEZ9NuMba4xWC04n5LhR+H5Z2jmuh9wzsr8WnAd8HpMONezDFCzGwjrqgv7wAougAGOBJESRAAmYIZM0BsAOjxqH3HzfjXTdaGP9ORFpM/2nmPFJKBgTQI78FxsSvYCxch4e1e5ZAr4692U6+iWwilzU07LMchvYTQkSXRiKBFsvq7oDR0oUJhJyOjo4A/hYpVVRm26retuUhMGSOLysbe6Q2aqCmMeN8IDr0tK6CHj9ACMYtqCc0cH+a34PBoP01HHt+msfzMA8QwPXagwmwLkJmJ6SWzc5s0gObjWtyDLYdgt8QfhN6wZOl9y2B7Pd2CQ4Bsk57462YHgivx+isWbOqaZfO/JcESIAEcksgayEDMmCPV0KiR2bXgvfkLSLSvXrPd/4lgVwSiER23glDIisPZxgleinBZxZslB8gPn5ZUZH8N/KLv4Kc+csQ1rO0rGzMi8FgyT9CIes/CHdYDHv/ZpQ/Ge7JBPx1zfiHIRVGsPep4fCqX+J8GOUB3U+fOrWuXyKAXJ5z1p0egdbW1f+FvX0xjo6kJ8H8UfhN6GeZ7tDq++zeZr6yNCTi2i/DWCC8teNCAiRAAt4gkDUHQDjRatwE+3pXpZLvtD38WddmmPQGXmqRLwQwJ8BG9HrfqHsSc6OzHI3fRwOMlvfh80F8dIxyLT6l2dJH9/xHIrGTYfy/Dg5I0KUeMlk32jK2qCh0Of723QdMyqes7BHAeI4/wlG8CjV6xgnIXutTr0lf83D2zx03rsGVkL3UNeIRJEACfieQNQcAqQkr42HjDcBLMDAKesBcfHu57n0C0WjnfQivWep9Tc1rCOP/rUgkehKyIvVlRELWl0fwE01poOVImsH0n11TM+3Qkcpxv/cJNDevuhlO8x3e19QbGsIH2H/UKPsIb2hDLUiABPxOIGsOAB4UU/fAhtXv4PPqnu/8SwJeIIC3ADvR8f0lGL1bvaBP9nRQS7u7oyfp0I74Oltaer8bTdMLIyiEsQXfw99gfF1czz8C+J1E8CbgK3AeH8B6jt6c5Q83dHdtkrInnD8aU1MSIIFCJpA1B8CW1uQ+kEo4EdH9r77vXCEBjxBobGz8J4yZ6zyijqtqaKMNn8c7O9tPXbt2dePAyrAPMyULpC41+6YOxj9mR51+0sD6+D3/CODSiOzYsfkLuEIeyz/ts6cx+CCNaezc5ubmN7NXK2siARIggcQEsuYAIOvPXgdAqs1tD5y3KrFa3EMCuSOAXs1b0at5v2nDN3ctGrJmGPfq5sbGrjPXrl27YcgS2Njd3b4If0y/EcFbAPkt/TYgUb3cnj8ENm3atL2pacXZ8CfvxDUVyx/N3dcUPOBkiyXRaGymHjfhfo2sgQRIgASSI5AVBwAPeoz5FZP6VHIke0H6YHDFawTw0IZx3HMp9HrRa7qZ0Aft2xSNOhfBIPkGkv50Didzl3OgHh+uTDr7cEs4vLq6HilNuRQCAf2baWyUl+Lv9fjQCeg9qWoDUHy9p6fjY5jz441COM9sAwmQQOEQyIoDgIGVSP8TnwJUvV44CNmSQiSg5wbYsaNrNjrwXoZBUxCD1dEMHfLzInojZzU3r7hXf0/m3GHm1btQrieZsqmUwYROB6VSnmW9TUCpd7vhVF6DIV6Y9Er5OMOb2oY3iLdFIl0faGxc9SM9tsjbZ47akQAJ+JFAlhyAa2H/q3F7AGNSFL4B2AODfz1LYOPGcCse4qfB/P+nZ5VMUjEY+1343LBtm4PeyFUpOeCIW34FvsLfk6wqqWLQZbXjdP8lqcIslDcEtFO5evXKe/CG6eNI/OCr+zza3onP3bFYz1EIibokHA635s2Jo6IkQAK+I5AlBwBclRyt6cKYUk4s9rbvSLPBeUmgBQvi4D+GHr0/auMm3xqhdcbnRfzuZqF39qrNm1duS7UNOL47FlO342/GoR2QsQmG4Xd7enYeDgPp3VR1Yfn8INDcvPIVKWPH4Fz/COe8YHvA0Ta8HVQtGOD74+7u2AGNjSvOx9vDf+/anh/nilqSAAn4k0B2HIDZByLkV+yeBVjtiAXtNf7EzVbnIwEdB4+Zgj+Nh/qP8cmbiY9gmqxFOMb/6+zccWJj47vLMzFK8NZAZ3l5J5Pzh/ofhyMxE0bSt/XEa5nIyvRYfR4z4TFE/ZsMyxuiivzatHr16q0411+Fcfwp+KEv55f2w2uLcw3fRuHNWOyL7e3RwxobV35lzZpVTbwGhufGvSRAAt4hoKdNz8Zi761EbsTMQlv2fucaCXifgI7jhRf79Zqa+qdsO3gLHNr9vKo1DH8Yo87dnZ3Oj9atW7XOhJ4wbLrq6va5wbLUveCQUscB9GmEtXQ1eoUXQk7UhD6ZyohE1KuhkMCtSJRkKmv38csMySk4MU1Nq57CNfN8XV3D+VLaX8b69HxsJK5dB7/7NY4j/oL1e3E968ks86ZDIB+ZU2cSIAH3CKT0IE9XjUq7fUrcsVu2LQxuj/vOVRLICwLaAGhuXv0ksnocjfUbYdh2eElxbfjD0P4hZjQ+Aj2vXzdl/O9pY2fnNrwFUKlM4Kd72e9pb+/SMdELsO4J41+3p7V11dtgdS3a076nfen+hZy/dXREf5Hu8X44Due+GwNif47Qrw9jhmlknxKN+dJu6K4H9T4Cw/8szJnxQbxNuwDX81Jsp/GfLyeRepIACQwiIHETG7TR9Iaqs+6pCdpFzVquI9RjzffPPc10HZRHAtkmUFtbO922Q19Dj+bpQsiJ2a5/d33d+A2/BQPl3q1bu+/fti282U09amun/Y9t24+jzUWJ6oE+GCuh/h2JiMtaW1c+t+t7otK52442yKqqqvG2Xbw/VI57S5mKTtFWjGXQoR+ecW5S0T5XZSsqKsqKikadblnyc/jtHIKe9bJc6TJEvUgDLBCm6jwP5+6PeOv1FCYI3IZz7P7DcghluIkESIAE3CCQdQcgpsRPww+c/SU3GkOZJJALAtoRsKzQWTBkzoRB8x63ddhlUMtmGK1/gIHycDi8WocidLtdr5avjeb6+um/QBTQhUPVBz06odNN27ZFb9m6tYmhfkNB4rY+Aric7Lq6Ge+T0jkZVxc6huR79La+AllawXWrr9W/4+8LMPOfw+zGb27evDnlAfNZUpfVkAAJkEDGBLI1BmCvospp2fuFaySQ/wSQJnMlWnEdDJeb6urq3mtZgdOR6vYEfJ8Og2JcpgYNZHShh3QjDJP/YH0xevufDIetN5RakRWjP/4MoX41fvz0r5eXO9PRrln4SL0fm3WGpKcjkdjXWlpWvRZ/DNdJIBEBXDc6s9Q/9AeX0vXV1dV1llV0AhzpY7HtMHz0BJJj9lxnWM90Qe9+r7G/Hlfu6/hNvSJEdHlnZ+eb69at69x9HWdaB48nARIgAc8TyMobgEmfvGl06eiqy0HDjjnWYy0Lz1rueTJUkAQyIACDxZo6taEmFLK0ofw+mMj7onezHiKnwPDQRk0xjI/xuhzWtQGtexv1rLw6hGcDtqzB/pWYQ/stpay3Y7GuRoSauBreg3qTXhA6MzEYLP0x2nIGDnoL2X1uDYdjDyG9vx5Yy4UEMiaA30ZxVdW0WstyGmzbQpiW1L+lGgjWY8om4DMGnyJsG4u/vQt+RzuwotOO4vckt+LNAmbjFS34hBHDvwK/q1VCRHTY1jqUzTit7a5a+S8JkAAJ5B+BrDgA+YeFGpOAeQK7jX0Y/DPs+vqo7Onp6RuEHwqFnMbGAGKMV+iedJ273/PGiW4PemyLMFVCFPpyQKT5S4YSBxDANaffOOkQIWvGjBkyGu3/O7IQsF9cXOysWLFCx+vv+S3pv1xIgARIgATiCNABiIPBVRIgARIgARIgARIgARIodAJ9PZCF3lC2jwRIgARIgARIgARIgARIAK9RCYEESIAESIAESIAESIAESMA/BOgA+Odcs6UkQAIkQAIkQAIkQAIkwDcAvAZIgARIgARIgARIgARIwE8E+AbAT2ebbSUBEiABEiABEiABEvA9AToAvr8ECIAESIAESIAESIAESMBPBOgA+Olss60kQAIkQAIkQAIkQAK+J0AHwPeXAAGQAAmQAAmQAAmQAAn4iQAdAD+dbbaVBEiABEiABEiABEjA9wToAPj+EiAAEiABEiABEiABEiABPxGgA+Cns822kgAJkAAJkAAJkAAJ+J4AHQDfXwIEQAIkQAIkQAIkQAIk4CcCdAD8dLbZVhIgARIgARIgARIgAd8ToAPg+0uAAEiABEiABEiABEiABPxEgA6An84220oCJEACJEACJEACJOB7AnQAfH8JEAAJkAAJkAAJkAAJkICfCNAB8NPZZltJgARIgARIgARIgAR8T4AOgO8vAQIgARIgARIgARIgARLwEwE6AH4622wrCZAACZAACZAACZCA7wnQAfD9JUAAJEACJEACJEACJEACfiJAB8BPZ5ttJQESIAESIAESIAES8D0BOgC+vwQIgARIgARIgARIgARIwE8E6AD46WyzrSRAAiRAAiRAAiRAAr4nQAfA95cAAZAACZAACZAACZAACfiJAB0AP51ttpUESIAESIAESIAESMD3BOgA+P4SIAASIAESIAESIAESIAE/EaAD4KezzbaSAAmQAAmQAAmQAAn4ngAdAN9fAgRAAiRAAiRAAiRAAiTgJwJ0APx0ttlWEiABEiABEiABEiAB3xOgA+D7S4AASIAESIAESIAESIAE/ESADoCfzjbbSgIkQAIkQAIkQAIk4HsCdAB8fwkQAAmQAAmQAAmQAAmQgJ8I0AHw09lmW0mABEiABEiABEiABHxPgA6A7y8BAiABEiABEiABEiABEvATAToAfjrbbCsJkAAJkAAJkAAJkIDvCdAB8P0lQAAkQAIkQAIkQAIkQAJ+IkAHwE9nm20lARIgARIgARIgARLwPQE6AL6/BAiABEiABEiABEiABEjATwT+P+BRtgJKFHrXAAAAAElFTkSuQmCC;" parent="1" vertex="1">
          <mxGeometry x="-510" y="284" width="60" height="30" as="geometry" />
        </mxCell>
        <mxCell id="DzNfyVh7k3ZSekCiGxKr-9" value="" style="shape=image;verticalLabelPosition=bottom;labelBackgroundColor=default;verticalAlign=top;aspect=fixed;imageAspect=0;image=data:image/png,iVBORw0KGgoAAAANSUhEUgAAAM4AAAEACAYAAAD7ikm0AAAACXBIWXMAABnVAAAZ1QG1aOuAAAAgAElEQVR4nO1dB3hT1Re/2btN0pXuPeguBVpGW6FsKBtlFgThjyAoMkQQUBBQHOAWKKNliSxBVBCR1ZYliAxF3IwWQVAUB5Tm/r9z8254TVfapk1C7/m+Q0KbvPd63/m9M+4ZCDFixIgRI0aMGDFixIgRI0aMGNWWFi9ejDQaDTp69CgSiUSoefPmaOnSpSg9PV0gk8kECCHGNlwDoVAocHNzEyKEhB4eHsLY2FjB1KlT0YABA1C3bt3Q9u3b0Z49e5hAOyrNnj0bvfjii+Q9xhglJiYKxGKxSCAQiOBnL7/8MnJxcbH3Zd53JBaLkaenJ3nv5+eHMjMz4a1ALpeLIiMjAVyEpk+fjp577jk7XimjMnTr1i3UtWtX8//DwsLgZonatWuHJBIJEghM927p0qVKV1dXDUII0MPYRmsgkUg0ycnJiSKRqKmfn19Mx44dvWG95XI5SklJgbeihIQEM4Dat2+Pdu/ezaTYntSnTx8UHh6O2rRpg0aOHAk/EsXHx5PfderUydvf33+YTqfLValUR+Ry+TmBQPA9QuhHhNAP3Cvjuq/B90Kh8C4oeqlUiuVy+TWlUvm5wWB4vEOHDgRErVu3JvcmNTWV3C93d3c0bNgwu8pOoyUwCcBEAPMA7Gr685YtW4bp9focqVT6u0AgxAKhECOBAMONRUhges/YtmtA1haVIoSM/HWWSCQ33NzcXu/QoUMA3JtXXnkFeXh4ENN5586dKCEhwZ4i1Dg1ja+vL9wEFBISIhw8eDD5ube391SpVPoPuXmmG1rC8V2O4eYytv0aGHlcyq11CQGQSRP9aTAYZmzfvl3q4+MDt0rUvHlzgbc3UUjo7bfftq9ANRZq0qQJCgoKIqABmzknJ0eh0+k+ND/tELoDN1Aik+PYlLbGHg9PMo6YvhiPfT4Hj5u3nLGN1gDW8/GFq3FoTDLVOljlH2/UxXYwCoRiqoXuUAApFIozERERJHowc+ZMsBiI9gHq3r27XWXqvqcFCxaA/4KSkpIE2dnZEOqUqdXqA3BjBEIhAYxYIsWdB401vrDhsDH38G/4vZP/4HUn/sJrj//J2IZrsObYH3jjmRLcvF0PM3A8WvTDTZ87jCNHLjW6JXY3IqGIA5AA7g0WiUTYzc1t0alTpySBgYFwS8XXrl0jPk/Lli3RAw88YG8Ru79Dz9w+AtLr9ZvghgiFottgKgRGxOO5q/cZASwAmmX7L+Gley/gpfsu4GX7LjK20RosBd77C1516BpObNPJDBz35J444ek9OP6pXTjxmf04YsS7RpfQFM73ARNOAFoIK5XK08nJyU0h8gl7QO3atRNERUUhMOWWLFlibxG7v2j+/PnkVSgUiqRSKfg54wQCAdU0xibJbYxL9/5iXH3sD7xk7y8ENDkHLhNefrDI/Mq47msAawnrm3fkOk5s3fEecJr1wYkz9uK4J7fjuEkf4oSnPwMgGQO6TzWKlK7wGSMSkPuFJRJxiZ+//2i69xYUFCSEMDZQjx497Cts9xPB4sKeQNu2bcEmNkil0us0ouMbHInf/exHIzwBQcPQm8vAUj8PCrK2HHASWrW/Z6o172sCzqQPcfyUj3HcpB04bvIOon2ajF1ndAlLpdoHgjYYHnx6vZ5EByBc7eLiYvZ7mjVrZld5u6+AAxEZ+MfDw2MBdwPuQARt5rJPjGu+uMlAYwfgxKVmlvFxEmfsI8CJm/yRCTyTPzJpn6c+JdrHp93/KHhKkcC0B6TRaPYNGzZMHxAQANkIYnq/YSObUR3oyJEjKDo6WjBq1Cg0Z84cpVwu/5GL1pSmdR9kXPflLQYaOwAn98h1iFzeA07Kg2WAQ9kEIJP2SZp5wBg6+FWjROPBmW4iYropFIofk5OT493c3OCWi0tLS9GECRNIviGjWhI8ffz8/ISwfxMZGdlBCBub3B7CzJydxtVHf8fL9l9kvkxDA+fwbzimRYYZOJ6pD5XTOFTrmLXPk9uJORc9br1R5R9v+q7Z75H8FRER0Y277eJx48aRUDWYcYxqCRy5XC4G59Hd3X2O0BTmLPEPizHCDWQ+TcMGPUz+owk40c3S7wGn5YAKgWMGDQXQpO04Ydqn8N6oj+9Uxu8Ri0TY398/m7v1wh49ehC/FnLfuCRSRtbSwoUL4QXS15FOp9tAF7plp37G9WCm7TMFBBg3PHCaJLfhAWdQpcApDx4IIHyCE6fvNRoyRvBC1rC9IMS+vr6T6P3v0KGDIC0tje311JSSkpLM75VK5S4upeZu1vCJRtjcBOCwCJp9NE5UUiszcLxaDa4SOOXAA37PJJPfE5A17V7QAAmMEHFzd3c31YogRGqqIGE0OTm5xvLTaAmK0nj0OUneROhuvzEzGHDsoGlpqB+AE5HY8h5wWg8hoeeqgFMePKaoW9IzB4zB/eYaBWIpBQ/RPh4eHi9Tcz0tLU0AJltcXJzdZNHpCArRZDIZvN1rBs6jz5B0Gmaq2Qc4sG8WHp9yDzhtsq0CToVBg0nb4bvG8Ow3jCKFC90speBZTMHTpk0bBp5akkMDxzJbgc+Wv78fgBMW19wMHEPasBoBp5z2IRG3fThi5BKjWKkrAx53d/c3qQBkZGQQs61p06a1laFGSfUKHL6Akzw3wqYUHv7vqwIMzZEzfae43M+sTQPif27ZflOai+m1LnwJL6tjKhIfOKGx97KjDenDawycCsEzfS+OHLnMKFa7WWqeV6kQdO7cWdCxY0fUqlUr+0qjE1G9AYcvTCvyi/F7X/2D3/vqX/z+6dtklxwc4moFfN9FYvuvP/kPzjtyw5Rguv8iXn30Bvez6+QzNQVP3qGrNuPcQ7/WGjSWwAmJbnoPOBkjagWcisHzOY4ctbwceNw9PF7g5EAwdOhQNGbMGDR8+HCUn59vZ7Fs5MAhoCm4gt/c+S3O6DkUt+zUDzfN6IrHL1iJTRutl6rQCpdIyv0LGw7hrGETcUyLB3BgRBwOikrAcantcPfsx/GcvL0Y0oMsv1sVaCAbecGW03j+llN1582n8IsfnLWRxrmKg5skmoHj/cDIWgOnSvCo9GXA4+PjM4eTBeGyZcvQ5cuXEWyWMrIDcMxCuvcChr2hwU/ONwsE8Kzlu3De0RtlgMP3X+DnUKMybOpLWCKVlfmuJfcY/iTOPXytnP9T0TWtKvwVL/r4W+zf/Sns23UK9us2FfvWkv26PYUNnSbhmIFzCRjrDJzCqzgoMv4ecNqOwkl1AE5lZhv4PCKFK422lXL7PKM4eRBTwWC5bXYCjkmIisnxvAPDzQLRptsAvP7Lv83CVpFGAE3z8LRXzd/h0oLKMJfxQLj3I1PJd8Bsq+qaTMA5j4N6TscBWdNwYI+na81BPZ4mAIofMt8mwFlZeBUHRMTxgDMawsp1Ak7FAYO9OOLht40imYqCB4tEQhwSEtKfK0UQW5afMGoA4NwDwAVyvNGz3y4j/DOWfIShzgd8Fb6g0ZwtsPUXbfsKK1QasxBBs5D0rMF4xNOL8PCnXiEmHx9EUKkKJh0tuKsOOMG2AE7P6URj2RI4/mEx5r/Jp93/bAKcCsHzzH4cOuhlMNfMGQYSiaQkNja2BRTAqVQqAh5uy4JRQwHHLAwFv5apo4e0eXDsLQvj6PcI2L68hfuNmWECBGemPTp3KX7/zB289oubeO3xm3jjmTv4wXGzye9EYgl5HTxxXpXXz4/SvbLjnE345R3nCBBt4eOsLPwV+4U2uQeczEdtBpxKwGMM7PlMmfQcmUz22wNt2wZBBamvr6/I398fMukZcOodOFQ4OXNr4strTdpGZDKrJr6yroxJVU7jcE9eKKajAtQkOc10XVzZNoSzIUr39u4fsKve0/y5jB5DOBOw8uun5wPNYzu+UmvQWALHNyTqHnDaj4X0GZsBpxx4Jm0nx/ft8JgJPAIBSQxVqVRfbtmyRTF69GhIzxJCiJqFqesZOHznPs+iviS4SRKJsFXmxNMI3Fu7vsMP9MwmjSsSWnUgXWBIIIEPtvxiqFItA7A2XR/C609WDpzKNlJtxXXWOAW/Yp+gCPPf49thnM2BQ8FjBtGkD2GT1OiR8qCRX5Kg0+k28luIbd68GUFWNaN6NNVAwMGHmf7uh2Wc+FEz3zQfvyqBg/cAOjDpIGQN0aayQn+JPJ0Xbz+NlRoSHSLcZdA4YuY5UuZDTYHjHRh2Dzgdx9cLcMqBZ/JHOGHaZ0aX8Jamfm4CE3i8vLxmcjJiTm585513GHZsDRyztiFm2k3con2ve3lX/iH43T0/ERMLAgBmrkALkP+TXX0T041SyxD3yBmvcT4O6TuGx7+wqtrImiMyf7/L4B/KA84EnDTzYL0Apyx4duD4qTtx7MQPjDK3ANMeDxKUQvup8PDwLKgi1Wg0YkgOTkxMRKtXr2bgsbXGoSba82v2Y6FITKJhIAQPjX/W5H/svUA0CHwGGDb9KjLZKjKDTL+7RMw0AAffTPPwCcTv7P7BbAo6K3A8/YLNf5Nf5yfqFThlwMN10Yl8JMcolCr5wYLrXbt29YOq0dDQUCHU8WRkZDDg2Ao49ObTEHS7PsPNAuCic8dvfPwN2dOBTc2eIyaTDIDAyHjcdch4vAo2L3nap7JjE22zz6RtOg981ByGhtehk190SjPN0lQzBDSMqVZlpK0XjbSZGh9qNJpdFCmQjsPIhqYaDQjAHszLW45jOW8PpuuQx4iwv7vnR+K8Jz/QjReebmvOIKg2VWavCZSQrkNMNJHJRItITCWRuOoyBxyVy6TcRCdZZEdXXchm+0jbhwQ8Hs370mBBiUCASAUp9N+jM5JiY2MbPX7qDBy+tgGAZA2faL75MrkSv7jxKNmYXPL5L+T3LTv1Nf8e8tYgebMy4Jj3XiDZ88h1/NKmY1ip0d47vkKFF6wvMCV7OmmDEfrQgUBIi8ye5r9NG5VB8stM/dTuCXe9mmz3Xo0KL5LtQbqFSiSS/1q1ahUNRW9hYWFCmBD3/vvvN2rw2Ag4l4ip8frHX5fZW4HdfnpMCqzUDn3Mv09K71IpcCwjbuAD0EIvuulJInUW7azsDYTaAIeszcm/cf9HZ5oyJUBYXTxw7BNbcPzUT+odOOX9nT04fPhbNLOA7O9oNBo6xUowefJk1NipTsApG+n6Gw+Y8FyZ9JrZKz7lsqAvWgUcyygbOTb3vS6Dx5Hv0KTPtO6DzFE0ZzXTKJNSiWO/QzNIbm1MUwkCekw3Z0jzhbsh/J2kZw6Aucgz2QQ4KChosFKphFQcYrJBr7bGSjbROBBmXvL5zyTsTEGR0LoDMa/g5wAsCEdDCUAKL0ydlNaJ+CeWezvl/ZpVZTIQIGmUhLchilZNUZyjs2WKUkjMvZochVdYeaFuAPDE8Uw2uWeIOcqmUCjObdmyRQaTLhp7f7Y6axxTJO3evgp3PPzcqj1467cYrz3xFzFDQDts/wGTHX4qGM3bZeEt5zAJKlgCwOzXbP6izEYnPPlm5uwkETp6rc4KGsIWEcn/PfuO6SHBmaOerQbhpFn5pubrFhuX9W2yJc7Yi4P7P1+mV5u7u/tYbh4s0TqNdSJCnYFD9yD4RVguOg88YMIcPHDCXDyQvM7BA8Y/i4dNeYkUotHPQTbwQ489SzKm+ZnNfL8mIiG1TOh54ONzTak1e38pcw12B4CttE7hVRzVtHUZDevfdbIJPBAosOwlXU+bo3EkJWcH6VGtCWlh5EaLwN7OudzcXBlMf2vMfQrqDBww08BsctGT/sVk45Of8m8NQzUnlFaDaWZ++sJ+zaCxZfyapulcFA78Gp5fVJl/ZHmt9HWZA3BF1wu+DkQI56/LJxFJqmGJedp2FHHaE6bv4XqofcgBydRHul74ye3knCEPvUDHK94F/zUwMHCATqeDhpZleo01JrIJcMCPkSvVNQYMFYoeDz9Jpr3R6BuA5rH5K8rkuum9fEkJNmgmoo3yr5BzU4aMAj5AKrteeIU+AfZmy2vlB0PWnvgTT3gh17xOdA00Ic1x2NDFpOUtOO8QriZgIrNz6omn7Yb9JKM6MNFIzTWtVkuTQIUw/a0xkg2iasVEU7Tq3J/0AoCpYjAgyZIhWJCc0Q3rPH3MAqHz8CZlA2OeW4LXfPEHMb+gDPrF949gFbdfQ8E14cVcktz51q7zJDMatBwwgNYUgPilyizle0/1S3jh9q/xwm1n8cJtX9uBz5LzWxa/WUYSwTccO3eZ2VyjIXhgVUACaeYR3H8ejhj+NnSxqTeOGLEENxm7FprA04G+MEq+aMqUKeoBAwY02m6gNomqwSvJPzt6g5hSFTHkqG3+ppQAjAoAZBFA5xvQHnQjEABEswtodoBEKidFXpAE6R0UTtLvfYIjSb6af1g09vANwq27PEiiUlWZarQCFCo4oWcA9B5oaIaqUagehSYfcD0VaR0KHrgfs5Z/WqZOhwZf7MBGOkZeJBLdbdu2bUKLFi0AOKQPeWMjm+zjEGHlZTRXxJA5AE/R1I68zIH0rqagAN2L4ebE3HOOxVYLCoRx+ak39d1zoLYM5w3pNQO/uK08cCoCD+zvgDbt9+gMoqHtBBrMA49pEoJY/AjMrRKJROYeBY2JbAecaphskkKuWsa9XDUodOPnqpmyq2+UKbe2lqFQzlrgOKrGsYyyEdNy30Xiw8EmMPh4o2a9RUo2QOMq1C5QudnQwLnDvae7nww49dkCl2iTQ9fwlNc24iFPLiA86dX3yphXNLT9+MI1OHvKQvzw04tIt5sq+elF5LOPL1xtqvepJqrmqD5OVeChkUZYK7hHwO/u+Rm/svVLvOC9QyQKV188D3jtQbxw0zEwkQlwOL/zMQacBuodDQIAGgaiZsCQjlORqQIVpFRArONb5DvV7ec4clStqmu+B6BLpvHu+y6QhwRsHJt9y/riIzeIOQ3bBYGR8RxwiJXCgNMQwOHvVdCwMz+j2XI/g37GWrY8VnVmJd1LaWjmn9da8FRqGlfjV9qKl+67QMATEB7LgGMLH4fx/b8GOdT3PHqDAcdWwQHG9/8a5DDg2D6qxvj+X4McBhwGHHsLoTNyDgMOA469hdAZOYcBhwHH3kLojJzDgMOAY28hdEbOYcBhwLG3EDoj5zDgMODYWwidkXMYcBhw7C2Ezsg5DDgMOPYWQmfkHAac+gVOTUoMGDfsGvDvCwOOgw6Wsv3EM8Z1WYOVdZzgkMM0Tv0Ch94cSHu31YxNxnWcUfrhN/i1nd8xjePIwIF0+dxDV/GLH5whlY72KEtmXHYqtnfnyThj3JtVFvgxjVM7YsC5z4GTzoDj4MDZb9I4L3xwBnt3mUxq64F9GdtlDUDre3SYiNs8+jrTOM7g4yzZewHP33KKsZ3XYMGW03je5q+In8Oiak4SVcs7dJWxI6zB4auVdtJhPo4D7uOYatXhlbF916D8ZG8GHNsQqwCt5ZO4sXAO28dhwLG3EDoj5zDgMODYWwidkXMYcBhw7C2Ezsg5DDgMOPYWQmfkHAYcBhx7C6Ezcg4DDgOOvYXQGTmHAYcBx95C6Iycw4DDgGNvIXRGzmHAYcCxtxA6I+cw4DDg2FsInZFzGHDqFzis54Dj9lKg94flqjl8z4EreFUBY7uvQeEV1nPAWTQOZOQu/uQ7xg6xBufxG5/+yDSOc5ROnyWlu8G9ZnA8nbEd1iCk9zPYt+sU/MBjb7EKUGfpOeDHmnU4SM+BSazngDP0HICqwxe2nsGGTpOwT9cp2KcLY3utAfQdcG//OG495jWmcZyl58DcjV/iuRtPMrbjGjy/8SSe8/6XeOG2s8zHcZao2urD13AeY7uvAdyH3EOs54CT9Rxg7AhrwPZx6odYzwEb7rLfj5zDMgcYcOwthM7IOQw4DDj2FkJn5BwGHAYcewuhM3IOAw4Djr2F0Bk5hwGHAcfeQuiMnMOAw4BjbyF0Rs5hwGHAsbcQOiPnMOAw4NhbCJ2RcxhwGHDsLYTOyDkMOAw49hZCZ+QcBpz6BQ7rOWD/3gKs54CTZ0evLDDVujO2/xrQidNM4zhBz4E3dv3A2N5r8OkP+PVdP+C3PvvJfH9YlxtHLp3edpb0GgjrMxOHMrbbGoT3nYX9s6bhdhPeYRWgTtNzoNtT5tr3gKxpjO2wBtBzwMB6DjhXzwGvjk9i7y6TsXdnxvZaA+j54JY5Abf632KmcRzdx1mRX4Tf/fwXPHv9F4ztvQbvfYFnrTuGF2w5zXwcZ4iqrYCeA0euMbb3GkDPgSPQc+Aqi6rVA7GeA/c7s97R9UKs54Add+WdgXNY5gADjr2F0Bk5hwGHAcfeQuiMnMOAw4BjbyF0Rs5hwGHAsbcQOiPnMOAw4NhbCJ2RcxhwGHDsLYTOyDkMOAw49hbCxgKc48ePo0ceeQQtXLgQLVmyBCUkJAjc3d2FGo1GpFarRTqdjrwqlUqRi4uLSKvVilQqFbwKDQaDsG3btgKMMQJesWIFckRi+zgOIJzODpxXXnmFvOnatSuaPHky+t///od0Op1QLpeLEEKCHj16IIPBgNRqNVKpVEir1ZJXpVKJNBoNcnV1Je9dXFxQUFAQevXVV+FwIoVCIQoMDBScPXuWgGjkyJGoRYsW6ObNm8jexIDjAMLpJMAxWgBnnKXGiY+PF0gkEhEIubu7O5JKpeTnXbp08YyJiWkeGRnZ39vbe3pwcPArBoPhTXd393d8fX1fCwoKWmgwGCYkJCR0Cw8Pj3n11VfV8D25XI6ioqLgrRA0VMeOHVFcXBwKDAxEzZo1Q1u3brUPahhw7C+YTgIcIwccAMy/CAngdRInQ+LExEQBaIiMjAwkFptwFBERkeLp6fmsSqX6VC6XF4vFYvgOYYFAUOY9//9SqbRULpd/5+Li8r6vr++jzZs3D4HjgTbavXs3kslkom7duiE4V2hoKNFyTg0c1nPgvu05YDRrnIi4OyDcMpn8rpubW3swuWQymfSBBx4gwtS9e3cfNze3qUql8rhIJDKDgeNSkDOOSypg+rsy3xOLxbc0Gs0ngYGBg//55x8JaDHQaN7e3kSzvf322yg1NdV5gcMHD9S5M7b/GqzkXuvQc8BIALf/UunqY7/f9Q+LxkKETrVOy4jj5EcoFApRp06dfDw8PF6WSqU3eEJv5AGilPu/tVzKAxQ5nlAoxEql8qyPj89ojLHQ39+fnD8tLU0QERFBfKa+ffs6c8+By/jtz37Cb3/2M2M7rwH0G3jn819qq3GM5PMHLpfSn6V17r0cISQBuwxMJSAfH5/xUqn0Nx5gKFiMPADR99Yy/zt8ABKzTqlUfhEeHt4ezr9o0SIUEBAAQQhCs2bNcsbS6V/JsFaoeY/oNxuHE57F2A5rENn/WVI+nfnEu7WpADVyn71Lv7Mq//JIr8gWRGgkYjFKSUmJVKvVBTxhv8NpitqCpSoQ0Vdq5mEwBXU63Ts//vijNDIyEi7LDJ5JkyY5a8+BqazPgJ17LUC/h1r0HDBWBJrcwuLBuUf/MAtnUFDQEIlE8lc9A6YyABF5pedUqVSnU1NTYyCcTSN84Pv069fP2XoOnMaeHSaSm2boxNheawA9H/Rtx+OWo63uOVAhaFYXFg9a8+U/qPe0HCKUBi+vZ3mOv9kHqWfQVGbCccEK2T8RERGZ4G9RcAN4xo0b5yw9B4qJTT1jzRH8DGM7r8FRPH31Yfz8ppPW+DgVg+ZQ8cD1X91GwxfvJsLo7u6+2CJC1lCAqQg8Rj54xWKxMTAwMIsLh5v3loYOHerYwLkHniK85shvjB1hDY7+hvMOW9VzoGLQnLqNBs3fQkCj1+vf4JlJdXH860P7EBDDXlFoaGgnhUJRBjy5ubmOCxz+foHd6+wZl1mDajROhaB573QJGvLihwQ0Op3uLd7TnQ+amppWpTxtZbmHww9Z1+b4BDwSiaQkPj6+tbe3N6T4kOv39PR0XOAwdso1KAeaPAKaO2jIC9uopnmzEk1TE8CU2ZOphmsTzi5jtsnl8svZ2dn61q1bo7CwMCG8JiUlMeA4gMDdt6BZf+oOGvj8JkvQWKtpKgKMeQMTsgDUavU5V1fXnQqFYoVer18mk8lW6/X6g3K5/GexWEyjc3w/qqbnJQEDV1fXLRxSBMOHDydvioqKmMZxAMFzSs6pJBBAQTPslZ21Nc/KmU2c6XTH1dV1k6+v76AOHTqEQrSrItq9e7c8KSkp2cvLa6JSqTzEi9yZQ8/VaB9+0KAENkp9fX3HQKIoJJ6C3wOlDsxUcwAhdEKuHDQQPVv0aV00Dd/UIo66Vqt9NyUlpQkcE/LaIKeNAw4kHwh5jN58802o2zHLdUhISKZarT7ASwC1JopHf06AJpVKr2VlZXm1bdsWsqrhnIiWQDAfx/7C6NygKSweBNGzIS9sr86nMVYjrGbTTKFQfN2kSZNWcLzExER4EULBWmpqqgD8Dcgzg/yyTp06kfobHx8fSBBFMTExACJyHfAz7nWMWCz+jw9KK6+HmGxubm7vcCAhx+3ZsycDjgMIozNxpeZZ9sufWJpnd2uoacyg0Wq1m9evX6+AmhkQVgADNc+mTp1a6Y5+SkoKAlBBxei0adOQl5cXuSbICGjatGmcXC7/wUrwlNnnkUgkt1u0aBEeExMDgQKidZjGsb8wOhtoSnmaZuC6r26jwQu21jZ6ZrQEjZubWw4ca9CgQSD45vQX8C0g/d8amjFjBmrSpAlq2bIlevLJJ5FIJJIEBASgXr16GeRy+fkKwFNtlM3d3X0RX+sw4NhfIJ0JNPQVryooHrrmxD+o9/TcugQCsAVollKggJbx9fUlFZxQ7lwbSktLM793cXERh4eHo8zMzGCZTHad78dUAx7yGblcfqVfv37uYA4mJSUJHnzwwTpjh+3j3P+gob5NyfKDl3FuQfH0FYeuoy6PvUw0gpub22u2BE1ycrIQypvDwsLqLJw0jAwkFovF0J8gODi4G4S2K0i9qcxkIxG2gICAgdDbwNXVVfTiiy/W+doYcBqHtlXpXCEAACAASURBVCmB15X5Re+9tOsi8ohOI6Dx8PCYbwPQ5FDQtGjRQgAbjWBq2YrmzJnD/y81K5fVwGQjn9FoNJu5Ywhff/31Ol8XA07jCQb88PHZP9TUUffz85vAhXrv2kLTtGjRQgANNEDb2JogUXPHjh0oOjpaAF1u2rZt6yOVSv/gmWxWmWt9+vRxg4470FSkrtfEctWcJK+NnwtYQxONVHCuOXSl05HbJtDExsam8JpnWLu5iKsDTdOmTVF9Ua9evehby6TTqlJ5zKXYYN5FR0en6/V62FMSHjx40PF6DkBGLmPbrkENewdYmmjrco79S274U089pVIoFN9Yaerg6syz5s2bE9AkJyeTDc76opUrV5LQdEhIiBD8p9jY2Ba87ILqQE+u28/P72loW+Xp6UkafTjcDNBZ64+xGaA2nOcJ6wk9BGoAHiMv9PzH+8euBlJB4dXU3KmreZaSkkJAA35NfYKGT5AFQLt8qlSqk9z13bUGOFqtdhV3GMcBDr902r/7vXHtjOu+BrCez204TipsaZlAddrGFEUrAm0z98OfTUISExOTDAVfFk/pGptnQGPGjEFz585F0CSwoei7776jYWqSpqPVaisKo1fEJF1Ho9F8zr9+hwLOCx+cIaPC4WYzts0awHo++571wOGZan+tP1IcRp+uLi4uH9cgGoUr0zRAvXv3VsNGJzjbDUlwfq1WK4bcNy8vr0e50HSJNQECpVJ57oknnlCNGjUKIn8ChzHVaJebsL4zcWT/2TiCcZ3XANYR1nPO+1+SBxP0drDWt1mVX7R0x2WToEdHR6dwPoG1+x9GHmgg/Gt+0nt5eU2WyWTjYYOT6w/doBQaGiqCLp6RkZH9uCBHVZE1cwBEq9Venjhxon7s2LHEzHSoqNrSfRfxSx9+g19mbLM1gPVcstd0X6xsuAGveM2h4rTznIbQ6XTrrdA2Rst0FZ1Ot44PGn9//yHcU/7xyqYV1CetWrUKfBvoJQ2bma152dPVAkej0Vzr37+/R+/evc3Z0g4VVVtV+CtjG6+BFaChwCH7NisOFp14a/Z4YceOnVBmZvtAiURyqwZh5xJ4VavVhzDGRMC6Dn0ceXq4D+NFssbaAzj79u0jwIHOnS4uLi1rCpy+fft6QIZ0bGysYwCH9Y5uuB7Q1dwDaqY9d8Ro0jYGg2EsJ2DUF6hK25TC/wFoqampJG/mAsZo1wXcxT+0CZEV7ljj7QEcIH9/fxEkfgYHB/fkgGytqVb0xBNPEFMNShzqcg0sc+D+YvOGZ15h0QN7r5iAo1ard1mYadVqG4PBMIU647kHfgpdffTGHyHRTeH3/1Y3WKq+ycPDQ+zh4QEA+h8HHKuCAwqF4ttHHnlENXjwYKgHYsBxAIF1FCZ7NysOFhXnHfjJc+oL76KBg7M9JBLJ9Rqmp/z47pKlyjd6uaGlJ4xo+YFLn+QduY79QpvA3k8JZ6WUm4/TEAQjPmj2gE6ng3IBuJY71oSj1Wr1PnqcAQMG1Ok6mMa5v5j6N/s3YIwCDHrYae9Qg2haCadtZoJwfI8xyiss7p9jGvNRws3H+c9yPg6kw4DPkJSUJGzTpg0ZQ0gbok+ZQhSXTSg6Ohq1a9fO/H+VSnWYB4xq/y4XF5c87quif/81ZVLUlhhw7i8m/k1uQfGKnzjh9fb2nmbFU5lfMVnSvEWLmPjYaPL9lflFh8h8nCM37gZGxBEBlMnldw0GQxqYS3K5XApAgRk1bdq0QcOGDYOvCYOCgkgUDig2NhadPw81aLUnGOEBLW7j4uKEkBPXrFmzWLhWKwMe5HPe3t4zHS7lhrHd18B4DzhFTx351xyGXmKFf2M2Z1Qq1VGYP3PgEkZrC4uSwPwD4Kz54o87viFR8LlLbdIzSCMBSvD5Vq1ahaenp8eOHj1aCz+DUmWRSGTu4wypOXWhESNGkMI4ahp6enrO5f1dRmuSPMPCwtrBZDcXFxchZFvXhRhw7kONs/7wlaGbztwmN1in0+2tiTnj4eFBMgSOGTHKLSieBMVvOQcu/7ui4AqObZ52SYJQCE1Z+e677yQGg2G6XC4/I5PJ/lQqlbelUulFrVabm5qaGgG7+3T/py60bJlp/7V9+/YCGMw7ZswYnUwmu8KPmFXnt8lksmtt27b1hJSd8PBwxykrYGzfNeA2PYmPs/5wca+8w9fgSS9wcXE5xdcoVQgY+b2HhwcJM+/+E4OZttwcBt9/8ZsFSzf5ZT/5PIoL94euNN4qleqLyo4plUr/CQ0N7QFPeKlUKoJm6JCgWVP6/fff+f+lVasLLLRoVQ8Emqe2kzuGAJqBMOAw0JYvXNt/KWnJnh/QdxgLRSLROSufzETA4hMSHtTrtOjBFgbhqoKiz7lgw5kPTv3p+eVdjPRiUhtjUCqV33Lfvc3TZvQJf5vzl+7GxcUlQhlAYGCgsH///jWWVyh3hrmfrq6uYuhjAOUEvI6fVm/m+vn5jYJsA+gnDWYfAw4DThngrDhYVLK68HLT3M/OoM8PHtZKJJJia4EDG5utWrXuFRAYhJ55bKh4VUHRD8sPFv289eQNd+pM9+yRBaA5V0FpgmXUjoCHSywlT/qBAwfWSF79/PwguAGvIqj8HDlypBtMpLbQoNWG16VS6e/t2rXzgRZUsH9ji0nVzFS7f4BnTvBccfBSYs7uc2j3oa9kIpHox5oAJyU1tW9MQjJ6bc3HqtWHiletPvxr0M8caLp37+atVCrPVwKayqJ0t+Pj40Ng3KCfn59VvkV8fDzM9SSNC0NCQkRZWVlgdoo0Gs2hGpho5s9ptVoIkADVOZrGgHN/+jgEPLkFRQ+syC8mPo5cLj9dEx/Hx8dnmLunAY2fvVhW/A8moWbBPU1jDWjKRLMAjKmpqZ0gdO3t7S20BjTQ3RNAExwcLISWThC143yUmpyb/E4kEhkTExNjqbloE9SwngO26QVQw34A9R5V23D0ytD3TvxJgKPX649VE1UrU0Lg4eHxolQqQbSvs7tGgrK6d7dW01gek2ixli1bdoYZNT4+PsLqQAMdQAE0QUFBIjCpONBYpgxZ49vQqQV0qhTpKDpx4kTHAg5fcKDgqrFwrvWZyw25jzPq0yKTSeLq6sovJ6jUpKI+iVar3crJhiw40B/16tmzJpqm3BNfIpH8m5SUFAy9on19fas01ah5BpunHGhEFWgaa0w06tvcysjICAX/KDo6mgAHqlYdCjicY4rf3XuBFF3Nvd9545d4zoYTZFiwg2gcM3DyCotfp36JwWBYUIHgWQo/HUJ7MT4+Pgr2X2DDslevXt5VBAKqAo358xqN5hNO1gRQMVpVIMDCPLMEDb8q1apze3l5PcMdnmzEPvroozYBTT31HDhLxoUH95yOg+5jDu41g4ylTx21yFGAw+9qszWfA46Pj89grvCssukDFDSX0tPTgwE06enpUBLtU0tNY/anICWmWbNmyVCtGRAQIOzcuXOFQghh5irMM2s1jSVgD8CxQcvQMDgUwTkscKDngG8j6DkADwcYi9585MuOBBxTdnR+0U8bD3zjmj1qPGrbLjNCJBL9W5EZxQdNWlpaCIR+u3fvDv0EDHUFDSSWBgUF9YS2tUKhkDzxW7Uikz/K+DQAGKppunTpUlkgoCrQYMtzy2Sym2lpaUHQHBHMPmjg3qFDB5uBpl6A8+K2szik9zM4rO8sUit/v3J4v1k4qMfTuPWY1xwJOOZN0NUFlxPWHSaRNZFKpeJnD1iC5jKAxsvLi6Ts9+nTp6p9GqtBExAQ0BuqNCubEEADAVxBGj969kkNzLNyfg03ebozZCyIxWJybgCmrcnmFaBL9l0k5hoA6L7nD87gV3accxjg8CtAcwuKRpzizDW9Xr/QIipVTtMAaHr27Fnb6FlloBGDqbRr164y6TYwygOEGfwaAI0NzDNSZwQmaVBQ0EjIoubXCdlyhKHNgcMXHIg0NRZeVXjFIUBDNQ4Fzor8om07/8TIRUye7q14NTllQGOhac7bAjTQcRME96effkLPPPMMKSugtHr1atKR083NjWxuQv1/BeaZsaaggbC3j48PjTWLSkpKiH9TVUDCIYDTGHsOgHnqSPs4FoNx/15/uCh8z09GIpgqleoEFTwATUZGRjD1aWylaQIDA3tR0IDQzps3rwxo+DNvPD09xVCUZgtNw4HmSe7QwunTp6PJkycjW6TW1DtwGDvEGpC2ULSLZ25h8aTCf0zmWmBg4DAONL+kp6fbPBAQwNM0dL8E/BignJwc2g8NQb2/VCqVwL7OrFmzXDUazV5bggbMMsiJq++WvAw49yd4aAn16e2HzsvGPTEFDR46TKPX6z+OioqKhSxhHmjO2Ro0Tz31FJkg/dprMLPKRJmZmVAbRJx1OH9aWlq4SqU6U8voGR80kylooPoUQs8N0ceaAccOGoE/XpAKugWXWPy/1GIkIf1eZefgJrCRWZ/ZKwt/Re/uLzJHtzIyMmwaCJDL5WRW58iRIwXz589H48ePJy1mQ0NDwQwjk6S3bdsGwCHn9/X1HS2RSP6qwblxdZpmyJAh4KeRAbwNQQw4DQMWPlBKOQcemDZIt4YpGCioLMHHB2UZrfPRqeuKzUcvI6XWUwIZAbY0z2QyGciRCPoAbNmyxTxJAPZkQOvAPg7Qnj175MHBwQ8pFIoCXhPBu7YADe1h3bx58wYBDQNOPYMF3nNCTMFCNij5QYQV+UW3VhwsOr8yv+jkqoKiMyvziz5ffrBo06qCoq9W5hd9teJg0dkV+UV/cMeybFBYDkS0/e3yg0V3OOB8vfXk76SG2c/gVtc0mrt80ECBGRA4+KmpqX4HDx6UY4wlGGNZ9+7dtUlJSRFBQUHd9Xr9YuhpZgEYa4vRqjTPKGhgPk9DEtM49atd4Kl/lw+WFfkEJOvzCovHri4sar2m4GLEih2H1d8MR8Jb64eLDmJM2jLhReHCc4uzREty35OtLbgQvKbwcvPVh4qzoZH6yvyiL5cfLPqPr404EJUDzaYT1z1BA7iIEMrKyrKZeSY1gYYkbep0uvelUulfcrn8a41Gc1alUn0tkUh+lsvlt3lgocfgV4vWBjRmTQPDdaEPNCRxNjQx4NgQNDxNAmChg51AgL9bVVD0xtpDxe027D2tOoAxOgMdMguK0aI1O1H7rr1QTFQ4SoqLRi4K075ddEQoapaUgJq1SEHz330P5Xx2Hh3+C6PjGINJJFldcDlyVUHRUyvzi47ztREFFAVNqblys4ehPkDj6uq6sQoTi363hNcMsTrAWAUaGAMPY9cbyqdhwKlfHwbAUsLTLkdzC4of/KDwO8WBfzE6eQejgQ/fG2gE6TCznpvrHZ+QkBQZGdkzMjJykIeHx3BXV9cRISGhg+Pj4/tHRTVp/diEJwI2f1pAnAkgEJa9FzA6AZoJIbTmUHHGyvyiD5YfLPqXA83ZzSeue9Bqx+7drK7cxFWBJjAwsKcFaDbxjlnK0yh3KwFKdYCxCjTQMwBMtNo0/2DAcRwtQ80jE2C4SQF5hcXd0DWMvsEYLX//I/P9apfZPiggIOBhvV6/RK1Wn5RIJL+LRKI7kGMlkUiIgELqCO//RrFY/KdKpToPozq8vb3HJyU1Nfc1y8xoja5ijN45VoLWHLoStzK/6O31R68GXuFA0yMrq740zaYa5pRZw+XObQma7Oxs1K9fvwYbnVgZMVPNNr4M1TK3VhUUTz3xw1XxV7Cf8Zipm8qK3DUqf39/0CQ7IAzLpflbcinPrCnhPbnLfA4ECbq8qNXqQm9v76lp6ekBcA4FQmjXJYwWf3zeNB8TQFN1Yw1bmGd36gk0JfTcfn5+4/ghZ2i3C9nO9iYGnLqbZrTR+YH1R6+GbjpnCscCjZ/wuMZgMExSKBQ/VOAkl1hh0lAu5ZiCynwsaKiu0+mWpaSkRMA52/fOlvt56mwaCJCZQs71pWn45zXn0kkkkjvBwcF0TqIQGhECaBoy5NzguWowbs9RmR8KrkVumSVoyM9X5hctRpp5ZsAABQQEZMvl8p95AkKFvqY2f0XCZeSEm9TZyGSyvxISEmKg/iQxIYGGnB3dPDNWcF46juNMUlJSEtfyVgQpO0OHDm3wkHPDZ0dDLf6hXx2Qr5LpZpZ7KbUADQkxw89XFRSPenPfr2bhSmvTxh+SFnnmGI0oVSQsdXk6m7OcMzMzAyHbGJIobZlGI5fL0YYNG5CNzTPLhwbVvuS84Pt99tln8pAQ0mmXZDt8/vnnpCrVkcj29Th7L+B5m79yQD6Fn9/0FRnuW0uNUw40uQXFg3OP3USRHYaTGHJISEg/mUz2ez0AplLQQGmAwWCweT2N0pR7JuzXr59Ko9Fs5T7zXyXar6ZgKeWvD5ixKpUqPzY2tg2cFDKbvb29zSlCMEHN0aheKkChJh+qQB2JQ/s8g/2zpuGWoxfVBjjlQJNXWDxw7cl/UY9JbxHQwAgJ3nxMvh9SV8BUCRqop7F1lrNIKEChMclyjVoNk537SqVSy+9Ss5P6Xtb4Z3d5YWtMz6dSqQ4FBweTKU9QDQpgbdmypSA8PBzGsts9eoYae88B2iOg2YiXagqc8qA5VDzwvdN30OAF28hT0d3d/VVOGKiA2AowlYKmPuppAgICenJyIVqVfxn1n/IGKaXMzGzv7+npOUWtVh8Vi8V0Bqg1UcFy54cwOzfR4J3g4OC2tD80EGgZ8BNnzZrlsICpd40TCk95h9I4Mwl4aqBxjJWBZv2p2yj75Y8JaPR6/Rs8AeSbZnUFTJWahpY727JykwrF1Zt3hOuOXIl8defPaOvZ2ygtpSn5OQh1cnLTpt7e3uP0ev06hULxDUT1JBJJqUwmI6AAUIF/B1oKGMLvUqn0gkaj+Uyv188OCwvr9uijj5LcOfgbgKAROvwtMFMHTEQAjqNTvfg48zefwvO3OB6Dr7Nw29fWAKdK0Ax+waRp9Hr9mzzTpSYOc0V+gqVZw5/XWVW5s00CAZw8COft+JmM94C/d2V+0eq8wuLmCGN0EjKeez2EMtJaI7GYdPoknULHjx/vHR0dnRIXF9fVx8enh1Qq7a/VavtERkZ2i42NbZeenh5+/Phx2GYiBO1tufmbImiJ2759e7MwvvLKK8hZqJ6iar86c1StCtDcQcMXfUoHt75VC9BU5iRX1de5xNI8s3UggJMF4ZwPf0Kr8otWQPYDLXmAv31FftGRvMIrM9p16ZU6csiDLrSaEwgSLaOiokiJtI+PDxnJAb4JVHiCBoH0oE2bNtGoowh6p7Vq1UpAJ7RBa1wodXY2qr99nAMOyNXv41SpaYa9utNS01g2+bNWw5TLCoBsAI1G8xvMsxEKhacUCsUFlUpFir3kcvnFNm3ahNLoWT2YZ4Lnd/xMQJNjAk0JPyMCemTnHv4Nh8aQce3f6XT6j7RabXNowRQZGSmCgrWoqCiRl5eXCIZIubi4iKARB/yuadOmAtplZsKECRB5JCbanj17kDMTyxyoPno2aP3pO2jQvC22AA3VMMQXkMlkP+p0undCQkIeahIdE/XggEG+Hbr10vR4KFvRr/9D7q1bt/aLiIjIbNu2bRAIGzTVs+U+jVhkaqM0YtXXAJplfNDk8EoWlu2/dBemTvuHxZiOIyg7dRo1QmLAsSJ6NoTzaXjmWW1AYwaMSqU65uvr++D0mc+qqA2T0bknmvvWejQ/dzd6detx9Mwry1FSXBMAKjFloAumLc0zSKNJ75ktf2vPBShvmMOB5I5lZSkHHGPekRs4ICIWjvWfQECsFJpD1uiBY6Smmr3bHNmBK/VpBszdWNtAQDnQSCSSv319fR8DpxqO+XreB+gcxmgfxmjJ9iOa9w9djFyx/0L0sn0XWuTu/9HnGsYoOCxKlpiYSMcH2rTcGaJkeUdvoLzC4j6c6VpqUYbNmd5kXDsOCCfAucMB57FGBRwYsENJLpfv5tTu3Z4jJjdW4FQKGhpyrkUgoFwYWalUnk5JaREJxwOBhYK0jQU/qHILigeszC/auCK/6MflB4v+gfPDzM2Nx3/zgc/5empt0gCdX0/D9QWQTJn6lHrCwI5o3idFaEW+ad7nclMptnl9qMm2suBX7BsSBccsEYnEMKJwDPQT0Gg0jQM40LqHV/JKUylK0rMG4/Un/25sfdXKJWyaMgL+Qw8v/swWmoYIuUqlKpw/73k1HA+Etu9mI5hHY1YcLPqJL5xclvU3G4//5vUfVxrQs/bzaSrTNDRhc5enp+dz8B5CzbkFxb25a7m7/MC9IIkJNFfwG5+cw3ovXxLYgDqhkJCQIdwQqAp7Q993xGXwkqeEXq9/SSgkaSIlobHNjCt5odpGoHX4DS7Iz3ILioesPvE36jtrbXWgMVqvaVSFm97fIKdrv/H4b4aV+UWf8gBzl1e5+TVUbv5dttzZ5vU0Wq12Axet+3nBwpddl276DG06fEG/4mBRMX2Q0HVZtv8iXn30dzx7xafmY8Mx4+LiUiAtJiwszGbjAR2a4OYFBASIYCZJaGhoHzo7RSSWGOevyzfmHrlebkTffcjm3mS8rpfTVx6+gXpOelNsg+gZ1TQF77+3noDmW4zR+qNXw5YfLLrEc8Rp9xszaHDNB9XWtjTgP65J+UPw833/Ydj4XEK759B7DxbI+i9v4f5jZ5r2nQQCANzl6dOna6CwzFHqY+qdCgsLIZYuaNOmDZgB7jKZ7Crn55R2z37cSMy1vb+QRbvPgWPuBrMyv2jdS59eRr7NuxPQeHh4vGBL0HxtAk3o8oNFl+l5ueugftWPYJ79RcudazaotjagucObyPw+/O5ECZhrRZncfQfT1ayJl+27aPQJijDyvpPHiZMQRqA3GnrppZfghahYnU6XQxdTodLglzZ/YYTNrmX7Lt6n4DELBG3Yd/6TM79r6JPez89vMpfEWGvQgHlGQXP+Hmgu8cFaZpbNoSut9lw1nT+re7eGKnemczKvjXhktMfsxSvRuvxfPFYcLCqi5tqSz3/B7331Dx7y5AJyDoFAcBe0VFhYWGfYV+Kn/jcKeuedd4ht2qRJE1C1MWKxuITTOsa41HbGvCPXSTiSD577CEBl+gWsOXQlFYQbKCIiIp1XGlBaV01zrgJNw++DRoCbX/Q6+FUA3FGPjNQqlcqz9axp+A+DUvh8SEhIRw9XJYK2VSvziw7mQM7h57/cXfPFTWK+yxRK6udhtVq9j8oRNAJsVATd3DkiTwwY0Q2LIhAKyeThtr2HGWHRIFgAZhs/ncbJtZClifb2mi+h+hihhx8e7qpQKGip893agmYDB5pvqtA0/O44aw9fSbnEAVen08GQSvjP7XrUNPzvkut2c3Mj6cjQYGRV/uUFcM/XHv+zZNH2U9jgH8p9XgDddiAo0AISNQ0GgzA4OBgdOwbT4BsRwRMO5pOsWbMG3os1Gs0xPnhS2vc2vr37eyM4htRJBIYoCwQPnJhL4XX5waJfN31x1UBNNK1WazZZayi0ZtDs2vkJAc1djNGKvT+G5ey/dJk75x3ulezC02vIOXDp6017jit69umHUlNbhkskkv8sjl/TfZpeUO5M/6ZqegTQnDkoV94Bn9/9K0brjv6Wve7LW/iZpR+VuHv7m0w0oZD8jd7e3jP4D1xu8lnjIuhNBeFEf39/IWSxdurUKUAul1/igcfo4ROIR89+y7h07wXjuhO3SBLo6mO/47wj152RiQmad+RGCfhwqwqKpu64YBKwJk2apMHTtILsZatBs2XzZgXskry6+Qj68i4OXX30xmWIUOYduX6n7PnJ+7vwuubo9W2wXwMUFBT0MHfMktpqGoWCZO+LDh48KLGiR4AZOAqF4jRkMyz/7Bx6dWNhetbwJyAfjfxeIBQSE02n09GAAHr44YfRtWvXSIlzoyRI/xaJRIjLZkWQgQuN7wh4BEJzn1/vwDBj50FjjY8tWGmcuewTPHf1Pvz8mv3Oxsbn1+wvnbt6P5639sCNrSeumkO/Li4u+3lCW5WJVlFGQOHWrVsVXVvFosxeQ1D2hGeazF7x6cV5aw/iuav33+Gd28i7lrtwHS9tyP8Q+kQDRUZFPWVxDTXe3BSLxTJ4jYmJGVwNaMr4cTKZ7Nenn37aO7NdW5SUEN/63ncFJLfOzc1tGVzj0qVLUUpKigAaZ1Q2er1REPSqogTggRqKGTNmaHQ63VpzlxaBgF8zUioQCI0SqdwokTkfS2XyOxKpHHsZfHLhb/Y1eEJAoAvdy6qNpgHQPPfcc0indUWREeEpKrXLH3KlBosl0jvSyq+jRCKVYZ3erZCuf3Bw8MhqNE6loKFtlOAfGFobEBCQzv1NpdX8TQQ4QqHwD4PBEOrt7YP8/PwjRSLx3/BzaKROGwKePn0aRUdHC8Cv4adtNVqCSVmUoJ6Cq86DvZ7uKpXqMIkyQcSNRN0qrDV3KoYnaER4WEZsNEkbg1yrj2qgbcyfg7XZsGGD4qGHHiKDYKOjo1tKpVIicNUUpplZLBYXTZo0SdehY0eUmJjYBJrwWYDEaI2m4XLPRE8++aQKavWbNWsWp1AorI0KQvLp3djY2OaQTJqenh6oUqkuubq6rm3ZsmWQQEBiDIK0tDQBAAZqgmAvkBFCZJIVrcZLSkqClRKCMABFRkZmuLm5LVKr1V9AfblYIvlHIBCAE3vbqVggIM37VCrVqT37C+TQRjUxMTGOhOLLC2dloCFCK5fLfxo7dqwOTBbI14qKimohlUp/4z7zd/XXI4DXf8GvCgwM7ARPcSBXV9c8izZMloJfUoGmEU6ePFni7e29tGfPnvHQiDwzMzNWqVTyQVil6SeXy3GrVq3SYVLboEGD1FlZWUFwYKjsBE22YMECUkAHPvE333zDMMOnW7dukYWBKr28vDx4EhPVT28q0LPPPuvesmXLSKlUGocQincyhmtOdHV1hR5EAvDtvLy8ZtRA29A8LWNEREQrKBOG8X2wLnq9Phwh1EwgEMTU8Hqa+vj4eMIxoFtNCHboFAAAC55JREFUnz593HgZA/yOMebWtwA2AA2YZJBzCBogIiLCRSaTNe/cubMsNTUV5sXEKZVKqzUONNpISUlpyZUzC7g+AEIIHFk+XBlVQrNnzza/h6dMUFAQmeFIG8NBG1I6icsZiRM4Qkql8ghPSK0y0dzd3WlHCXM6PdXOtSHa6UWr1Qohf7BDhw4GFxeXbZaN2cHEBFBFRES045oFknoaTuMhmvkMrZb8/f1bchu5/IYflfo4AoHglk6ni4KiOR8fH2GLFi1ITwB4uAAwz5yBGbeMrKLFixeT+Y2wmDDJ19/fH7qTCOLj4wUSiQTA5JQMfhyE35OTkyOkUqnlvkllwKHRp9/69evn1bVrV3iqC3jAIeZtbRgEn6BQLIa1hpGA5P9hYWGtfXx8nvf19c319vZeHBwc3K+goEDGDaAlDzIADnXWlUqlENoswXHCwsKGWRGhMwMHTPAePXr4wd/VunVr89/FiBGhlStXwpNZBE/nkJCQgVZomzK+hV6vh+RPs+DCVDBbEO0jBg+q2NhYEFyBu7u76UQikVlTQvskFxcXs/lk2YRcIBDQcoiKCu+qeiB8jzGWAhCnTJnCpIVRWfrhhx9AO4hAi3p6er5mpXCR34nFYmNSUlJidHQ0+BREeG3ZqQWCFZCxPmrUKDRu3DhIvyEmMhC8KpVKETRVB7MQgM/vQQY+CfyOi64J5HL5CStNUBLs0Ol0+yn2ECNGlvTtt9/CCxF6jUazw0rgEOFSKpVfwfdAOGH25LBhYA3Zn/7++2+0a9cu2LsBZx6yINpY+DdVaVPqt73OHU4Iw2gZMSpDXbp0oU9loVKp/IIfYrZCuJZQ4YL9jr1799p9dY8ePUp8HC4DgpppeTWIFJIyAT8/v4HQIw18JMyb8cOIEaGIiAgBgCcrK0sHDf94DnJVwkX2Q/R6vbmry/nzEDG2P8H2AUS/oKIXSkQSExMToSm6lQEPaoL+m5aWFg4dNyHggRlwGFlSamqqAMp9hw8fDiHf6/zIUlVPZWhOERkZ+SAIJ3SndAThAkGHgkSIeFLfxMXFZY+V2sasaTUaTT49Jmyerlmzxp5/FiNHpLi4OEHHjh3BZPNVq9U3rRAuEnkC4CQmJvaC/shNmjQRbdu2za5/B2QsXL9+vUzjFYPBMIWrXLV2M5d8ztPT83HusKJJk2hzTkaMeJSYmCjIysqC5n4+Go3mDys1DgVObwBOdHS0aP78+XZbV6ihunPnjhk0kHYTEhLSm7dhWlU2tNGibPpmRkZGAKTaQKqVI2hSRg5IzZo1E0D1a3Z2tqdGo/nVSh+HmGrBwcEDYaMxNDRUdOXKFbsl5JaUlJhBA/U34eHhXSANyOIhYFUWBMzb5A4tgpSfJ554wi5/FyMHJ29vbwHY8V26dFFIJJKvrdzrIMEBLy+vqdxhRJs3b7YLaP78809L0HQWiUSlVpZ7l8m4hpy3hISERPDbwsPDhWzjk1GlNGfOHPN7tVp9oCbhaL1ev5r7qhCK/t57770GNc8sNU1YWFhXnqaxNpKG6YNAp9O9S/8e2JNqNP3RGNWc+PsdXG+wmqSlnL9586boq6++Ismvtkq3sSYQcPv2bWs1TXWgob7Nb1lZWV4wASEqKkowYsSIBvlbGDkpgfCpVCpIX0G+vr7TLEK3VQUIjLAbHxUVlQ7lBNDhBY43bRocov4IUnC4Ddu6gsbs20DkzdfX91GJRGLObaPT0RgxqpCOHz8OxWJCyDAODQ21TE2p1lzjmjcCEYGDbOL6Ioh0QTqNDcwzSxONdO6EvZ9Vq6AbFSNGVhDsjg8ePBhKJPQwV9PKyBotMf4nLS0tDPyB2NhY4dSpU2FCWr0EAvgh5wqiZ7UCjUKh+HbChAkunTp1QgkJCYK+ffsie4bWGTkR3bx505zoqdVqN1thrpUJ4Wq12nXcocwZBPyggy1AY+nT1FHT0OG7f7Rq1SoKomjQuhYSQhMSEmx23YzucwKBhLJwqH0JDAx80KJPdHWCWAobjSEhIf0hKZKWTtvK34FQOQQfKvBp6gQa0JQwUh3agSkUCjqNoUyXI0aMqqSZM2eS3mBQGpCdne1aA3ONH5X6A0w2aAWrVqvNJdTQYeaLLyDpumYEETpIPoWUl+LiYpsFAjjQ/BcREZFGexTQczaqKQOM6k5Q8GXRN3uehblm1a67XC7/vlu3br4BAdD7A4kh4bJnz56kIK0m2gc6qkJxGvQN6NChAyRriiCNJiwsrJsNQPNvRaCB3hGMGNWIfv/9d/IKvRNgHyMtLS1IKpX+YyF8VeV58cHzY3JycjTXpkkAXWE++ugjYmrFx8ejxx6jlQjlCao2IQwMkyNA43h4eJA9IqCgoKABNjDPKgRNfUYCGd3nxBMeOhx3MT/6VEMB/dvPz4+Ug0JGAddpBsqcBdC15vHHHzfvxQB///33pBQAnHSI8EmlUiLUXl5epPm9h4fHy7xRIzY1zxhoGNWJaI8wSPqEcHJ2draO5+tYm/Nl/iwEGNRq9c7o6OgWcFxo0QQhX87Jhwie2N3dXezm5gZCDCzMz88nZh1ttQWTBhQKBZ2NU2qRsFlnTUM7tDJiVCeCpuHwlFcoFCSTwN/ffzivnsVYA4Et5beldXFx2ent7T24d+/evvzzQdcaiGRRgvLtzMzMSE9Pz/HQ341XFlCbQb1VggYagDBiZDOCkPLEiRP505jfr8Bkq67Qjb6aBR4ACA3LVSrVITc3t1ylUjnX3d19qlarnapSqea7ubmtV6lUp8Vi8R0OrFR7WWOaVQqayMjINpageeSRR5jEMLItwb4JhJAjIyMFsPE4fvx4mMr2UwVRNmuFmAKoXMY1aBTL7py881jOG60xaCrSNBByZ8SoXsjDw4PMCYJ+a7AvEx8f34w3Gc1aDVARgEgRHCfcdMoz/73lpmtNz1FpIAB8KxYIYFSv9MEHH5jfCwQCUoocHh6eyU1oq4nmsQZINQVKrTQN9FVgxKghN0WBxBDpCgoK6iEWi0tr6PPUF5dL2IQweEU+DZRAM2LUYAQzYHjNKsRQrxIeHt6Otzla0dTmhgSMkYJGLpdfj4uLa8ZNLTCDZtCgQUxiGDU8QbkBHzzwNG/WrFm8Uqk8W4vIly1AQ9+TMZLwXqVSHcvIyAjmQttm0IwePZqJDCP7EYwmpOCBCkmYi/rBBx/ItFrtMl7o+I6VG5R11TJ0/iqJyOn1+tdg/wfKAeRyuWmMAUIwt5WJDCP7Ez/d3mAwiIYPH07eBwcHZ/G0T1Wh5No4/fxj0Ggc+YxSqTwTHh7eDa5h0aJFyM/Pzzzq44UX6OQRRowcgGB/Bwgyl2NiYsjgKKjh2blzpxRaRcnl8osWwm8ZYrYEQ0U+C58pWMygk8vlFzw9PScZjUYJNy9HmJycTHLgwL+h18iIkUPRiRMnILqGxowZQ0qZodEHzKWBScxPP/20i4+Pz+MKheILXlImtjCxKN+1YP7vynQShTA4jBTx9fUdP23aNA1E+KCPm1arJRWnMGoSGiOePHnS3svDiFHVBFkFMAsTyo250LUIzDkYGwgE1ZWenp4vqtXqIzKZjIxsryRLoAzTz8B3VCrVUXd39xdjYmJSYTiUUCgkA6akUqkI8upgoBUABpJHGTFyGoLWuZCiA2CBaBuUDYBQgxbgitkIQX1PSEhIDz8/v2larXaJm5vbDo1G86lQKDwgEon2q9Xq3W5ubh+6urq+6+Pj83RQUFDPNm3aBNGABMwEhfdisZiUJsCxPT096eh0Royck8AZ/+STTxBoBEjXAW0Ak5pp8w4YzAspPHSadFUEWgwSTeE7tFkiOP7QGJ5SXl5evfdvY8SowYnOAQXBh9Lp4OBgAUyP9vX1BTtORDOvLSYBkBJpHx8fMYxpDwoKEgAAabHb6tW02y4jRo2IduzYQcYMHj58mPQtA78EInKwaQn+0rx589Avv/xCyrgdYSQiI0aMGDFixIgRI0bIOej/YDhQDTjdp3UAAAAASUVORK5CYII=;" parent="1" vertex="1">
          <mxGeometry x="-375.97" y="284" width="28.97" height="36" as="geometry" />
        </mxCell>
        <mxCell id="IU7V6qb4HW7xiYtRidvk-24" value="" style="group" parent="1" vertex="1" connectable="0">
          <mxGeometry x="-260" y="370" width="123.25" height="70" as="geometry" />
        </mxCell>
        <mxCell id="hVl_AzF3T1AboAmzyL-e-37" value="Legend" style="rounded=0;whiteSpace=wrap;html=1;fontFamily=Mark Pro;fontSize=14;verticalAlign=top;" parent="IU7V6qb4HW7xiYtRidvk-24" vertex="1">
          <mxGeometry width="123.25" height="70" as="geometry" />
        </mxCell>
        <mxCell id="nL4JorxmA39xoX4b-hBf-2" value="directory&lt;br&gt;in repo" style="rounded=0;whiteSpace=wrap;html=1;fontFamily=Mark Pro;fontSize=11;fillColor=#FFCFB6;" parent="IU7V6qb4HW7xiYtRidvk-24" vertex="1">
          <mxGeometry x="20.541666666666657" y="30.000625000000014" width="82.16666666666666" height="30.530625000000008" as="geometry" />
        </mxCell>
        <object label="last saved:&amp;nbsp;&lt;code class=&quot;language-plaintext highlighter-rouge&quot; style=&quot;font-size: 10px;&quot;&gt;%timestamp%,&lt;br&gt;file:%filename%&lt;br&gt;&lt;/code&gt;" placeholders="1" id="DzNfyVh7k3ZSekCiGxKr-11">
          <mxCell style="text;html=1;strokeColor=none;fillColor=none;align=left;verticalAlign=middle;whiteSpace=wrap;rounded=0;fontFamily=Mark Pro;fontSize=10;" parent="1" vertex="1">
            <mxGeometry x="-720" y="380" width="230" height="30" as="geometry" />
          </mxCell>
        </object>
        <mxCell id="rYg8O5jLsf1z3TzQaryV-1" value="" style="shape=image;verticalLabelPosition=bottom;labelBackgroundColor=default;verticalAlign=top;aspect=fixed;imageAspect=0;image=data:image/svg+xml,PHN2ZyB4bWxucz0iaHR0cDovL3d3dy53My5vcmcvMjAwMC9zdmciIHN0cm9rZS1taXRlcmxpbWl0PSIyIiBzdHJva2UtbGluZWpvaW49InJvdW5kIiBjbGlwLXJ1bGU9ImV2ZW5vZGQiIGZpbGwtcnVsZT0iZXZlbm9kZCIgdmlld0JveD0iMCAwIDMwMCA4OSI+PHBhdGggZmlsbD0idXJsKCNfUmFkaWFsMSkiIGQ9Ik02Ni41MjIgMTEuNzQyaDEwLjk1NGM5Ljc0MyAwIDE3LjY1MyA3LjkxIDE3LjY1MyAxNy42NTN2MzguNTE3YzAgOS43NDMtNy45MSAxNy42NTMtMTcuNjUzIDE3LjY1M2gtLjg2M2MtNS4wMTUtLjc4NC03LjE5LTIuMjg4LTguODctMy41NTlMNTMuODE2IDcwLjU1NWExLjk2OCAxLjk2OCAwIDAwLTIuNDY2IDBsLTQuNTI0IDMuNzIxLTEyLjc0My0xMC40NzhhMS45NiAxLjk2IDAgMDAtMi40NjQgMEwxMy45MTUgNzkuMzcxYy0zLjU2MiAyLjg5OC01LjkxOSAyLjM2My03LjQ0NyAyLjE5NUMyLjUyIDc4LjMyNiAwIDczLjQxMSAwIDY3LjkxMlYyOS4zOTVjMC05Ljc0MyA3LjkxLTE3LjY1MyAxNy42NTQtMTcuNjUzaDEwLjkzbC0uMDIuMDQ0LS4zNjggMS4wNzQtLjExNS4zNjgtLjQ5NiAyLjIwMS0uMDY4LjM4NS0uMjE4IDIuMjA0LS4wMjkuNjA1LS4wMDUuMjEyLjAyMSAxLjAxLjA1LjU5My4xMjMuOTI2LjE1Ni44MzUuMTg2Ljc2OC4yNDEuODMyLjYyNSAxLjc2MS4yMDcuNTI4IDEuMDg5IDIuMzAxLjM4NC43MDcgMS4yNiAyLjE2Mi40ODIuNzggMS43NTggMi41ODguMjUzLjM0MyAyLjI4OCAyLjk3Ny43MzkuOTE2IDIuNjExIDMuMDUzLjUzNy41ODggMi4xNTMgMi4zMTYuODUyLjg4MyAxLjQwOSAxLjQtLjI4Mi4yMzYtLjE3Ny4xNTljLS40NzguNDQ2LS45MzIuOTItMS4zNTcgMS40MTgtLjIwNS4yNDEtLjQuNDktLjU4NC43NDZhOS43OCA5Ljc4IDAgMDAtLjc1NSAxLjIzMyA3LjMzNiA3LjMzNiAwIDAwLS4zMDIuNjg1IDYuMzUgNi4zNSAwIDAwLS40MDkgMS44NmwtLjAwOC41NTFjLjAyLjc3Ni4xNzggMS41NDIuNDY3IDIuMjYzLjI5Mi43My43MTkgMS4zOTkgMS4yNTggMS45NzMuMzkyLjQxNy44MzguNzgxIDEuMzI3IDEuMDhhNi43NiA2Ljc2IDAgMDAxLjMyMS42MjQgNy40MDEgNy40MDEgMCAwMDMuMTE5LjM1NWguMDA1YTcuMDQgNy4wNCAwIDAwMi41NzMtLjc2NGMuMzQ1LS4xODMuNjc0LS4zOTUuOTgyLS42MzZhNi4yODggNi4yODggMCAwMDEuOTgxLTIuNjM1Yy4zMjUtLjgxLjQ4NC0xLjY3NS40Ny0yLjU0NmwtLjAyNi0uNDU2YTYuNDMgNi40MyAwIDAwLS40MjYtMS43NTMgNy4zNDggNy4zNDggMCAwMC0uMzMtLjcxNiA5LjgyIDkuODIgMCAwMC0uNzc3LTEuMjI5IDEyLjMxIDEyLjMxIDAgMDAtLjQxLS41MjUgMTYuODIzIDE2LjgyMyAwIDAwLTEuNTE1LTEuNTg3bC0uMzgyLS4zMjUuNjQ2LS42MzcgMi43NzQtMi44OTcuOTU5LTEuMDUzIDEuNDkxLTEuNjc4Ljk3LTEuMTM0IDEuMzgzLTEuNjg1LjkzNy0xLjE3NyAxLjM3NS0xLjgzOS42OTQtLjk1MS45ODUtMS40NzMuODItMS4yNTQgMS41NDYtMi42OTIuODg0LTEuNzY2LjAyNS0uMDU0LjY3Ny0xLjYzOGEuNTYuNTYgMCAwMC4wMjMtLjA2NWwuNzI5LTIuMjc0LjA3Ni0uMzMxLjMxNy0xLjgxLjA2MS0uNDkuMDE5LS4zLjAyMi0xLjEzMy0uMDA2LS4yMTEtLjA1OC0xLjAxNS0uMDcyLS43ODgtLjM1OS0yLjI3MmEuOTc1Ljk3NSAwIDAwLS4wMjEtLjA5bC0uNDYxLTEuNjgtLjE1OS0uNDY3LS4yMDctLjUxN3ptNS4yMDcgNDguMDMyYTQuMjYyIDQuMjYyIDAgMDAtNC4xODMgNC4xODNjLjAzMyAyLjI4MSAxLjkwMSA0LjE0OCA0LjE4MyA0LjE4MSAyLjI4MS0uMDMzIDQuMTQ5LTEuOSA0LjE4NC00LjE4MWE0LjI2MyA0LjI2MyAwIDAwLTQuMTg0LTQuMTgzeiIvPjxwYXRoIGZpbGw9IiMyNDE3NWIiIGQ9Ik0yMDcuNjQ2IDc0LjQ5OGwtMTIuNDU3LTI2LjY2NmMtMS4wNC0yLjIyMi0xLjY2LTMuMDM0LTIuNzAxLTMuOTc2bC0xLjAxMi0uOTEzYy0uODA4LS43ODMtMS4zMzgtMS41MDgtMS4zMzgtMi4zNjkgMC0xLjIzMy45NzYtMi4yNzEgMi43NTUtMi4yNzFoMTAuODE1YzEuNjk3IDAgMi43NTUuODgzIDIuNzU1IDIuMjAxIDAgLjczNi0uMzM4IDEuMjg4LS43NjYgMS44MjktLjUwNy42NDMtMS4xNjggMS4yNjktMS4xNjggMi40MTIgMCAuNzE2LjIwOSAxLjQzLjYxMSAyLjM0Mmw3LjQzNCAxNy40MDggNi42NjgtMTYuOTdjLjQxLTEuMTI5LjY5LTIuMTIzLjY5LTIuOTE5IDAtMS4yMzktLjY3My0xLjc0NC0xLjE5Mi0yLjI5OC0uNDUyLS40ODEtLjgxMy0uOTg5LS44MTMtMS44MDQgMC0xLjMzMSAxLjA4My0yLjIwMSAyLjU0MS0yLjIwMWg2LjY2YzEuODY3IDAgMi43NTUuOTY2IDIuNzU1IDIuMjAxIDAgLjc5LS40NTUgMS41MjMtMS4zNTEgMi4zMTNsLS45NDIuNzc0Yy0xLjMxMiAxLjA3Mi0xLjkxOSAyLjYyMi0yLjYwOCA0LjIyNmwtMTAuMDk5IDI0LjMyOWMtMS4xOTMgMi44NDQtMi45NyA2Ljc5My01LjY4MyAxMC4wMzMtMi43NTcgMy4yOS02LjQ3NCA1Ljg0OS0xMS41MDggNS44NDktNC4yMTUgMC02Ljc2Ny0yLjAxMy02Ljc2Ny00LjkxMyAwLTIuNjU3IDEuOTY1LTQuNzc0IDQuNTQ3LTQuNzc0IDEuNDE0IDAgMi4xNDkuNjY4IDIuODk1IDEuMzU1LjYxNy41NjYgMS4yNDMgMS4xNDggMi40NzcgMS4xNDggMS4xNDQgMCAyLjIxLS40ODQgMy4xNzctMS4yNjYgMS40NzYtMS4xOTQgMi43MTItMy4wNzMgMy42MjUtNS4wOHpNMzguMTM3IDg1LjU2NUgxNy42NTRhMTcuNTggMTcuNTggMCAwMS0xMS4xODYtMy45OTljMS41MjguMTY4IDMuODg1LjcwMyA3LjQ0Ny0yLjE5NWwxNy43MDQtMTUuNTczYTEuOTYgMS45NiAwIDAxMi40NjQgMGwxMi43NDMgMTAuNDc4IDQuNTI0LTMuNzIxYTEuOTY4IDEuOTY4IDAgMDEyLjQ2NiAwbDEzLjkyNyAxMS40NTFjMS42OCAxLjI3MSAzLjg1NSAyLjc3NSA4Ljg3IDMuNTU5aC05LjI2NWEzLjk0IDMuOTQgMCAwMS0yLjI3NC0uNzU3bC0uMTYzLS4xMjUtMTIuMjU2LTEwLjE3OEw0MC41NiA4NC42ODNhMy44NzUgMy44NzUgMCAwMS0yLjQyMy44ODJ6bTI0Mi43MDctMTEuMTYyYzUuNjA3IDAgMTAuMjAxLTEuOTIxIDEzLjc4NC01Ljc1NUMyOTguMjA5IDY0LjgyIDMwMCA2MC4yMTIgMzAwIDU0LjgyNGMwLTUuMjU5LTEuNzAyLTkuNTgtNS4wOTMtMTIuOTY2LTMuMzkxLTMuMzg1LTcuNzktNS4wODUtMTMuMjA0LTUuMDg1LTUuNzAxIDAtMTAuMzYzIDEuODUxLTEzLjk5NCA1LjUzOS0zLjYzMiAzLjY5MS01LjQ0OSA4LjE2Mi01LjQ0OSAxMy40MTUgMCA1LjIwNSAxLjczNCA5LjYxOCA1LjE5NSAxMy4yMzcgMy40NjQgMy42MjIgNy45MjUgNS40MzkgMTMuMzg5IDUuNDM5em0tNDcuNDEzLS40MTdjMy4yNDIgMCA1LjU0Ny0yLjE4MyA1LjU0Ny01LjMzIDAtMy4wNzMtMi4zODEtNS4yNi01LjU0Ny01LjI2LTMuMzE4IDAtNS42OTIgMi4xOTEtNS42OTIgNS4yNiAwIDMuMTQ0IDIuMzc2IDUuMzMgNS42OTIgNS4zM3ptMTEuNTQ0LTQuOTg4bC43OS0uODM0Yy45MzgtLjkxMiAxLjI0LTEuODMzIDEuMjQtNC4zNzNWNDguNzc2YzAtMi4xOTYtLjI5OC0zLjE3Ni0xLjIzLTQuMDE1bC0uOTI4LS44MzJjLS45MS0uODAzLTEuMjA5LTEuMzAyLTEuMjA5LTIuMTA0IDAtMS4xNC44ODQtMi4wNzUgMi4zMDYtMi4zOTlsNi4zMDMtMS41M2MuNjAzLS4xNDYgMS4yODMtLjI4OCAxLjgxLS4yODguNzI1IDAgMS4zMTkuMjM4IDEuNzM1LjY1Mi40MTcuNDE1LjY2MiAxLjAxMS42NjIgMS43NTh2MjMuNzczYzAgMi4zOTcuMjkxIDMuNTEyIDEuMjkyIDQuMzU0YS40NzguNDc4IDAgMDEuMDQ1LjA0NWwuNzA1LjgyMWMuODg1Ljg2MSAxLjI1MiAxLjQzMiAxLjI1MiAyLjIxNyAwIDEuNDAxLTEuMDU2IDIuMjAyLTIuNzU0IDIuMjAyaC0xMC42NzJjLTEuNjE4IDAtMi42ODQtLjc5Ni0yLjY4NC0yLjIwMiAwLS43ODkuMzY4LTEuMzY1IDEuMzM3LTIuMjN6bS03MS4zMzQuMDAxbC43ODktLjgzNWMuOTM5LS45MTIgMS4yNDEtMS44MzMgMS4yNDEtNC4zNzN2LTMxLjM1YzAtMi4xMjYtLjIyNS0zLjE3LTEuMjItNC4wMDhsLS45NTMtLjkyMmMtLjgyMS0uNzk4LTEuMTIxLTEuMjkzLTEuMTIxLTIuMDkxIDAtMS4xNDIuODg4LTIuMDczIDIuMjMyLTIuMzk5bDYuMjMxLTEuNTI5Yy42MDQtLjE0NiAxLjI4My0uMjg5IDEuODExLS4yODkuNzIgMCAxLjMyOS4yMTcgMS43NjQuNjI4LjQzNi40MTMuNzA0IDEuMDI2LjcwNCAxLjg1MnY0MC4xMDhjMCAyLjQwMy4yOTkgMy40NTQgMS4zMDQgNC4zNjNsLjgwNC44NTFjLjg5MS44NjcgMS4xODggMS40MzQgMS4xODggMi4yMjMgMCAuNTgyLS4xNzggMS4wNTEtLjQ5NCAxLjQwOS0uNDQ2LjUwNC0xLjE5My43OTMtMi4xOS43OTNIMTc1LjA2Yy0uOTk2IDAtMS43NDQtLjI4OS0yLjE5MS0uNzkzLS4zMTUtLjM1OC0uNDkyLS44MjctLjQ5Mi0xLjQwOSAwLS43OS4yOTMtMS4zNjIgMS4yNjQtMi4yMjl6bS0yOS4wNTgtMTYuMTQ1djEwLjc5OGMwIDEuNjI3LjMyMiAzLjEyOSAxLjY2MiA0LjM2NmwuODY3Ljg0MWMuOTcxLjk0MiAxLjI2NiAxLjUwNiAxLjI2NiAyLjM2OSAwIDEuMzE5LTEuMDU3IDIuMjAyLTIuNzU1IDIuMjAyaC0xMi4wMzJjLTEuNjk4IDAtMi43NTUtLjg4My0yLjc1NS0yLjIwMiAwLTEuMDI0LjMwMS0xLjUwOSAxLjI3MS0yLjM3NGwuODY0LS44MzljMS4wMDUtLjkxIDEuNjYxLTIuMTUxIDEuNjYxLTQuMzYzVjM0LjgwNWMwLTEuNzU4LS4zODktMy4xOTYtMS42NjItNC4zNjdsLS44NjgtLjg0MWMtLjg5Mi0uODY2LTEuMjY2LTEuNDM1LTEuMjY2LTIuMyAwLTEuMzk4IDEuMDYxLTIuMjcxIDIuNzU1LTIuMjcxaDMyLjIzYzEuMjMxIDAgMi4zMTQuMjc0IDMuMDA1Ljk1Mi40ODEuNDcyLjc4OCAxLjEzNy44MjMgMi4wNmwuNTAyIDcuNDRjLjA1LjkzLS4yMjUgMS43MDYtLjc2MSAyLjE4NC0uMzcuMzI5LS44NjcuNTI2LTEuNDkzLjUyNi0uNzg5IDAtMS4zOTQtLjI5OC0xLjkzNC0uODEyLS40ODUtLjQ2Mi0uOTE3LTEuMTExLTEuNDA1LTEuODc1LTEuMTc3LTEuODgxLTEuNzI1LTIuNTU4LTIuOTgtMy40MzgtMS43NDYtMS4yODgtNC40MDctMS43MzEtOS40MzctMS43MzEtMi45MDMgMC00LjczNS4xMjctNS44ODkuNDI0LS43NDYuMTkzLTEuMTc3LjQ0My0xLjQwNy44MS0uMjM3LjM3Ni0uMjYyLjg1MS0uMjYyIDEuNDMxdjE0LjYyaDcuNTU4YzEuODA4IDAgMy4wOC0uMzI3IDQuNTU0LTIuMzQxbC4wMDgtLjAxMmMuNTkxLS43NTIgMS4wMTktMS4zMDYgMS40MjYtMS42NzMuNDczLS40MjkuOTI5LS42MzIgMS41MzItLjYzMmEyLjIxMiAyLjIxMiAwIDAxMi4xODIgMi4yMDN2MTAuMDc5YzAgMS4zNS0xLjA1MiAyLjI3MS0yLjE4MiAyLjI3MS0uNTYyIDAtMS4wMTgtLjItMS40OTMtLjYyLS40MDktLjM1OS0uODM4LS44OTgtMS4zOTQtMS42MTctMS42MTMtMi4wODgtMi43NTItMi40MjEtNC42MzMtMi40MjFoLTcuNTU4em0xMjcuNy0uMjU1YzAtMy42MTYuNzg4LTYuMjE1IDIuNDItNy43NzggMS42MTMtMS41NDMgMy4zNDYtMi4zMjQgNS4yMDktMi4zMjQgMi41NjMgMCA0Ljg3MyAxLjQzNSA2Ljk1NiA0LjI1NSAyLjEyOCAyLjg4NCAzLjE4MSA2Ljc4MSAzLjE4MSAxMS42ODYgMCAzLjYyLS43OSA2LjI0My0yLjQyNSA3Ljg1MS0xLjYxMSAxLjU4Ni0zLjM0MyAyLjM5LTUuMjA1IDIuMzktMi41NjMgMC00Ljg3MS0xLjQ0Ni02Ljk1NS00LjI4OC0yLjEyOS0yLjkwOC0zLjE4MS02Ljg0MS0zLjE4MS0xMS43OTJ6TTcxLjcyOSA1OS43NzRhNC4yNjIgNC4yNjIgMCAwMC00LjE4MyA0LjE4M2MuMDMzIDIuMjgxIDEuOTAxIDQuMTQ4IDQuMTgzIDQuMTgxIDIuMjgxLS4wMzMgNC4xNDktMS45IDQuMTg0LTQuMTgxYTQuMjYzIDQuMjYzIDAgMDAtNC4xODQtNC4xODN6bS0yNy4wNC0xMi42NzJsLTEuNDA5LTEuNC0uODUyLS44ODMtMi4xNTMtMi4zMTYtLjUzNy0uNTg4LTIuNjExLTMuMDUzLS43MzktLjkxNi0yLjI4OC0yLjk3Ny0uMjUzLS4zNDMtMS43NTgtMi41ODgtLjQ4Mi0uNzgtMS4yNi0yLjE2Mi0uMzg0LS43MDctMS4wODktMi4zMDEtLjIwNy0uNTI4LS42MjUtMS43NjEtLjI0MS0uODMyLS4xODYtLjc2OC0uMTU2LS44MzUtLjEyMy0uOTI2LS4wNS0uNTkzLS4wMjEtMS4wMS4wMDUtLjIxMi4wMjktLjYwNS4yMTgtMi4yMDQuMDY4LS4zODUuNDk2LTIuMjAxLjExNS0uMzY4LjM2OC0xLjA3NC4xMTgtLjI3OC41ODctMS4yODkuNDA2LS43NjcuNTY3LS45MzQuNTY0LS44MzEuNDAyLS41MjkuNDY0LS41NTguNTEtLjU2MS40MzYtLjQzOSAxLjA2NC0uOTM2Ljc3OC0uNjM3Yy4wMTgtLjAxNi4wMzgtLjAzLjA1Ny0uMDQ0bC45Mi0uNjIyLjczMi0uNDY2IDEuMzg4LS43MzFjLjAyLS4wMTIuMDQ1LS4wMjMuMDY3LS4wMzNsMS45NjgtLjgxNy4xODItLjA2OCAxLjc1LS41MTMuNzM5LS4xNjUuOTk5LS4yMDEuNjYzLS4xMDFMNDQuOTQxLjE0bC42OTMtLjA2MSAxLjM3NS0uMDczLjUzOS0uMDA2IDEuMDIuMDIxLjI2Ni4wMTUgMS40NzguMTIzIDEuOTU2LjI3NS4yMjYuMDQ4IDEuOTMzLjQ4MS41NjcuMTY5LjYzMS4yMTguNzY4LjI5MS42MDcuMjU3Ljg5Mi40Mi41NjIuMjg5IDEuMDEuNTkzLjM3Ny4yMzIgMS4zNzggMS4wMDYuMzk1LjM0My45Ni44NzQuMDQ4LjA0OC44MTQuODc0LjI4MS4zMTYuOTU2IDEuMjcuMTk0LjMwMy43NTkgMS4yODIuMjI4LjQzOS40MjguOTU2LjQ0NyAxLjExNi4xNTkuNDY3LjQ2MSAxLjY4YS42NTUuNjU1IDAgMDEuMDIxLjA5bC4zNTkgMi4yNzIuMDcyLjc4OC4wNTggMS4wMTUuMDA2LjIxMS0uMDIyIDEuMTMzLS4wMTkuMy0uMDYxLjQ5LS4zMTcgMS44MS0uMDc2LjMzMS0uNzI5IDIuMjc0YS41Ni41NiAwIDAxLS4wMjMuMDY1bC0uNjc3IDEuNjM4LS4wMjUuMDU0LS44ODQgMS43NjYtMS41NDYgMi42OTItLjgyIDEuMjU0LS45ODUgMS40NzMtLjY5NC45NTEtMS4zNzUgMS44MzktLjkzNyAxLjE3Ny0xLjM4MyAxLjY4NS0uOTcgMS4xMzQtMS40OTEgMS42NzgtLjk1OSAxLjA1My0yLjc3NCAyLjg5Ny0uNjQ2LjYzNy4zODIuMzI1YTE2Ljk1MSAxNi45NTEgMCAwMTEuNTE1IDEuNTg3Yy4xNDIuMTcxLjI3OC4zNDYuNDEuNTI1LjI4OS4zOS41NDkuODAxLjc3NyAxLjIyOS4xMjIuMjMyLjIzMy40NzIuMzMuNzE2LjIyMS41NjEuMzcxIDEuMTU0LjQyNiAxLjc1M2wuMDI2LjQ1NmE2LjU2NiA2LjU2NiAwIDAxLS40NyAyLjU0NiA2LjI4OCA2LjI4OCAwIDAxLTEuOTgxIDIuNjM1IDYuNjQ1IDYuNjQ1IDAgMDEtLjk4Mi42MzYgNy4wNCA3LjA0IDAgMDEtMi41NzMuNzY0aC0uMDA1YTcuNDAxIDcuNDAxIDAgMDEtMy4xMTktLjM1NSA2Ljc2IDYuNzYgMCAwMS0xLjMyMS0uNjI0IDYuMzg1IDYuMzg1IDAgMDEtMS4zMjctMS4wOCA2LjMwMiA2LjMwMiAwIDAxLTEuMjU4LTEuOTczIDYuNTM0IDYuNTM0IDAgMDEtLjQ2Ny0yLjI2M2wuMDA4LS41NTFhNi4zNSA2LjM1IDAgMDEuNDA5LTEuODZjLjA4OS0uMjM0LjE5LS40NjMuMzAyLS42ODUuMjItLjQzLjQ3My0uODQxLjc1NS0xLjIzMy4xODQtLjI1Ni4zOC0uNTA1LjU4NC0uNzQ2YTE3LjMxIDE3LjMxIDAgMDExLjM1Ny0xLjQxOGwuMTc3LS4xNTkuMjgyLS4yMzZ6bTIwNi41MDQtMTQuMDU4YzMuMjQ5IDAgNS41NDctMS44MjkgNS41NDctNC45ODMgMC0zLjA3OS0yLjI5Ni00LjkxMi01LjU0Ny00LjkxMi0zLjMyNyAwLTUuNjIxIDEuODM0LTUuNjIxIDQuOTEyczIuMjk1IDQuOTgzIDUuNjIxIDQuOTgzeiIvPjxwYXRoIGZpbGw9IiNmZmYiIGQ9Ik01Mi42NTUgNzQuNTA1bDEyLjI1NiAxMC4xNzhhMy45NDEgMy45NDEgMCAwMDIuNDc5Ljg4MkgzOC4wOTVjLjkgMCAxLjc3MS0uMzExIDIuNDY1LS44ODJsMTIuMDk1LTEwLjE3OHptLTUuMDMtMjQuMDJsLjExMi4wMzJjLjAzNS4wMTguMDY2LjA0My4wOTguMDY1bC4wOTMuMDgyYy4yMjkuMjExLjQ1Mi40MzMuNjY2LjY2LjE1MS4xNjEuMjk4LjMyNy40MzkuNDk4LjE4LjIxNy4zNDguNDQ0LjUwMS42OC4wNjYuMTA0LjEyNy4yMS4xODUuMzIuMDUuMDk1LjA5NS4xOTMuMTM0LjI5My4wNy4xNzQuMTIyLjM1Ny4xMzguNTQzbC0uMDAzLjM1YTEuOTk3IDEuOTk3IDAgMDEtLjk0NyAxLjU1NmMtLjM1LjIxMi0uNzQ0LjM0Mi0xLjE1MS4zNzlsLS40MzMuMDEzLS4zNjUtLjAzMmEyLjc5NSAyLjc5NSAwIDAxLS41MDEtLjEyMiAyLjQxOSAyLjQxOSAwIDAxLS40NzUtLjIyMmwtLjI4NS0uMjA5YTEuOTUyIDEuOTUyIDAgMDEtLjY0OS0xLjExMiAyLjc0MSAyLjc0MSAwIDAxLS4wMzQtLjIyMWwtLjAxLS4zMzNhMS42MyAxLjYzIDAgMDEuMDM5LS4yNjljLjA1LS4xOTUuMTIyLS4zODQuMjEyLS41NjMuMTE3LS4yMjUuMjUtLjQ0Mi4zOTktLjY0OC4yNDctLjMzMy41MTQtLjY1MS44LS45NTEuMTg1LS4xOTUuMzczLS4zODQuNTctLjU2NWwuMTQxLS4xMjdjLjA5Ny0uMDY1LjA5OC0uMDY1LjIwOS0uMDk3aC4xMTd6bS0uNzE3LTQ2LjUyMmwuMDQ1LS4wMDRWNDIuOTdsLS4wOTctLjE4YTEwOS4zOTMgMTA5LjM5MyAwIDAxLTMuNTg0LTcuMjYyIDc3LjkwNiA3Ny45MDYgMCAwMS0yLjQzMi02LjA4OSA0OCA0OCAwIDAxLTEuNDY1LTUuMDEzYy0uMzA5LTEuMzQ4LS41NDUtMi43MTUtLjY0Mi00LjA5NmExOS43NCAxOS43NCAwIDAxLS4wMzQtMS43NzFjLjAwOS0uNTE0LjAzLTEuMDI3LjA2My0xLjU0MS4wNTEtLjgwNy4xMzMtMS42MTMuMjUxLTIuNDEyLjA5NC0uNjI5LjIxLTEuMjU2LjM1My0xLjg3Ni4xMTQtLjQ5Mi4yNDYtLjk4MS4zOTctMS40NjIuMjE4LS42OTUuNDc4LTEuMzc0Ljc4Mi0yLjAzNy4xMTEtLjIzOS4yMy0uNDc2LjM1Ni0uNzA5Ljc1My0xLjM5NSAxLjc3NS0yLjY4IDMuMTEzLTMuNTRhNi41MDkgNi41MDkgMCAwMTIuODk0LTEuMDE5em01LjA1OS4wOThsMi42MjQuNzQ5YTE2LjAxIDE2LjAxIDAgMDEzLjQ2MSAxLjc2MyAxMy44OCAxMy44OCAwIDAxMy43MjIgMy43MTIgMTQuMDg1IDE0LjA4NSAwIDAxMS40NDEgMi43NzkgMTYuMjcyIDE2LjI3MiAwIDAxMS4wMDMgNC40OTljLjAzNS40MDMuMDU1LjgwNy4wNjMgMS4yMTIuMDA5LjM3NS4wMDcuNzUyLS4wMjMgMS4xMjdhMTIuNzYgMTIuNzYgMCAwMS0uNDcyIDIuNDggMTkuNDkxIDE5LjQ5MSAwIDAxLS42OCAxLjk1MSAyNy45ODMgMjcuOTgzIDAgMDEtMS4wOCAyLjMzMmMtLjg3NSAxLjY5LTEuODgxIDMuMzA2LTIuOTU5IDQuODY5YTc1Ljk3NSA3NS45NzUgMCAwMS00LjI2NyA1LjU2OCAxMDUuODA1IDEwNS44MDUgMCAwMS01LjExOSA1LjY3NCAxMDguMTIxIDEwOC4xMjEgMCAwMDMuMzY5LTYuODk0IDg1LjM4IDg1LjM4IDAgMDAxLjYzOC0zLjk0NyA2MS42MjkgNjEuNjI5IDAgMDAxLjUyNi00LjQzOSA0My43OSA0My43OSAwIDAwLjg3OC0zLjQwNGMuMjA5LS45ODQuMzc0LTEuOTc4LjQ3Ni0yLjk3OC4wODUtLjgzNC4xMTctMS42NzMuMDk2LTIuNTA5YTM1Ljc2NSAzNS43NjUgMCAwMC0uMDU3LTEuNTM2Yy0uMTIzLTIuMDU3LS40MzYtNC4xMDgtMS4wMzYtNi4wODFhMTcuNjU3IDE3LjY1NyAwIDAwLS44MjctMi4xOTNjLS43NjgtMS42NzMtMS44NC0zLjIzNy0zLjI5MS00LjM3OGwtLjQ4Ni0uMzU2eiIvPjxnPjxwYXRoIGZpbGw9InVybCgjX1JhZGlhbDIpIiBkPSJNNjYuNTE1IDExLjc0MWgxMC45NTNjOS43NDIgMCAxNy42NTEgNy45MDkgMTcuNjUxIDE3LjY1MXYzOC41MTNjMCA5Ljc0Mi03LjkwOSAxNy42NTItMTcuNjUxIDE3LjY1MmgtLjg2M2MtNS4wMTQtLjc4NS03LjE4OS0yLjI4OC04Ljg2OS0zLjU1OWwtMTMuOTI1LTExLjQ1YTEuOTY4IDEuOTY4IDAgMDAtMi40NjYgMGwtNC41MjQgMy43MkwzNC4wOCA2My43OTFhMS45NjQgMS45NjQgMCAwMC0yLjQ2NSAwTDEzLjkxNCA3OS4zNjNjLTMuNTYyIDIuODk4LTUuOTE5IDIuMzYzLTcuNDQ3IDIuMTk1QzIuNTIgNzguMzE4IDAgNzMuNDA0IDAgNjcuOTA1VjI5LjM5MmMwLTkuNzQyIDcuOTA5LTE3LjY1MSAxNy42NTMtMTcuNjUxaDEwLjkyOGwtLjAyLjA0NC0uMzY4IDEuMDc0LS4xMTUuMzY4LS40OTYgMi4yLS4wNjguMzg2LS4yMTggMi4yMDMtLjAyOS42MDUtLjAwNC4yMTIuMDIxIDEuMDEuMDQ5LjU5Mi4xMjMuOTI3LjE1Ny44MzQuMTg1Ljc2OS4yNDEuODMxLjYyNiAxLjc2MS4yMDYuNTI5IDEuMDg5IDIuMy4zODQuNzA3IDEuMjYgMi4xNjIuNDgyLjc4IDEuNzU3IDIuNTg4LjI1NC4zNDMgMi4yODcgMi45NzYuNzM5LjkxNiAyLjYxMSAzLjA1My41MzcuNTg4IDIuMTUyIDIuMzE2Ljg1My44ODIgMS40MDkgMS40LS4yODMuMjM2LS4xNzYuMTU5Yy0uNDc5LjQ0Ni0uOTMzLjkyLTEuMzU4IDEuNDE4LS4yMDQuMjQxLS4zOTkuNDktLjU4NC43NDZhOS41ODggOS41ODggMCAwMC0uNzU0IDEuMjMzIDcuNDM1IDcuNDM1IDAgMDAtLjMwMi42ODQgNi4zMjUgNi4zMjUgMCAwMC0uNDA5IDEuODYxbC0uMDA4LjU1Yy4wMi43NzYuMTc4IDEuNTQyLjQ2NiAyLjI2M2E2LjM4NSA2LjM4NSAwIDAwMi41ODUgMy4wNTNjLjQxNi4yNTUuODYuNDY0IDEuMzIxLjYyNGE3LjQwMSA3LjQwMSAwIDAwMy4xMTkuMzU1aC4wMDVhNy4wMyA3LjAzIDAgMDAyLjU3Mi0uNzY0Yy4zNDYtLjE4My42NzUtLjM5NS45ODMtLjYzNmE2LjMwNyA2LjMwNyAwIDAwMS45ODEtMi42MzRjLjMyNC0uODEuNDgzLTEuNjc2LjQ2OS0yLjU0N2wtLjAyNS0uNDU1YTYuNDE0IDYuNDE0IDAgMDAtLjQyNy0xLjc1MyA3LjM0OCA3LjM0OCAwIDAwLS4zMy0uNzE2IDkuODEyIDkuODEyIDAgMDAtLjc3Ni0xLjIyOSAxMi4zMSAxMi4zMSAwIDAwLS40MS0uNTI1IDE2Ljk1NiAxNi45NTYgMCAwMC0xLjUxNi0xLjU4N2wtLjM4MS0uMzI1LjY0Ni0uNjM3IDIuNzczLTIuODk2Ljk1OS0xLjA1MyAxLjQ5MS0xLjY3OC45Ny0xLjEzNCAxLjM4My0xLjY4NC45MzctMS4xNzggMS4zNzUtMS44MzguNjk0LS45NTEuOTg0LTEuNDczLjgyMS0xLjI1NSAxLjU0NS0yLjY5MS44ODQtMS43NjUuMDI2LS4wNTUuNjc2LTEuNjM4YS41MDIuNTAyIDAgMDAuMDIzLS4wNjVsLjcyOS0yLjI3My4wNzctLjMzMS4zMTYtMS44MS4wNjEtLjQ5LjAxOS0uMy4wMjItMS4xMzMtLjAwNi0uMjExLS4wNTgtMS4wMTUtLjA3Mi0uNzg4LS4zNTktMi4yNzJjLS4wMDYtLjAzLS4wMTEtLjA2LS4wMjEtLjA5bC0uNDYxLTEuNjgtLjE1OS0uNDY3LS4yMDctLjUxNnptNS4yMDcgNDguMDI3YTQuMjYxIDQuMjYxIDAgMDAtNC4xODMgNC4xODIgNC4yNjQgNC4yNjQgMCAwMDQuMTgzIDQuMTgxYzIuMjgxLS4wMzMgNC4xNDgtMS45IDQuMTgzLTQuMTgxLS4wMzMtMi4yODItMS45MDEtNC4xNS00LjE4My00LjE4MnoiLz48cGF0aCBmaWxsPSIjMjQxNzViIiBkPSJNMjA3LjY0NiA3NC40OThsLTEyLjQ1Ny0yNi42NjZjLTEuMDQtMi4yMjItMS42Ni0zLjAzNC0yLjcwMS0zLjk3NmwtMS4wMTItLjkxM2MtLjgwOC0uNzgzLTEuMzM4LTEuNTA4LTEuMzM4LTIuMzY5IDAtMS4yMzMuOTc2LTIuMjcxIDIuNzU1LTIuMjcxaDEwLjgxNWMxLjY5NyAwIDIuNzU1Ljg4MyAyLjc1NSAyLjIwMSAwIC43MzYtLjMzOCAxLjI4OC0uNzY2IDEuODI5LS41MDcuNjQzLTEuMTY4IDEuMjY5LTEuMTY4IDIuNDEyIDAgLjcxNi4yMDkgMS40My42MTEgMi4zNDJsNy40MzQgMTcuNDA4IDYuNjY4LTE2Ljk3Yy40MS0xLjEyOS42OS0yLjEyMy42OS0yLjkxOSAwLTEuMjM5LS42NzMtMS43NDQtMS4xOTItMi4yOTgtLjQ1Mi0uNDgxLS44MTMtLjk4OS0uODEzLTEuODA0IDAtMS4zMzEgMS4wODMtMi4yMDEgMi41NDEtMi4yMDFoNi42NmMxLjg2NyAwIDIuNzU1Ljk2NiAyLjc1NSAyLjIwMSAwIC43OS0uNDU1IDEuNTIzLTEuMzUxIDIuMzEzbC0uOTQyLjc3NGMtMS4zMTIgMS4wNzItMS45MTkgMi42MjItMi42MDggNC4yMjZsLTEwLjA5OSAyNC4zMjljLTEuMTkzIDIuODQ0LTIuOTcgNi43OTMtNS42ODMgMTAuMDMzLTIuNzU3IDMuMjktNi40NzQgNS44NDktMTEuNTA4IDUuODQ5LTQuMjE1IDAtNi43NjctMi4wMTMtNi43NjctNC45MTMgMC0yLjY1NyAxLjk2NS00Ljc3NCA0LjU0Ny00Ljc3NCAxLjQxNCAwIDIuMTQ5LjY2OCAyLjg5NSAxLjM1NS42MTcuNTY2IDEuMjQzIDEuMTQ4IDIuNDc3IDEuMTQ4IDEuMTQ0IDAgMi4yMS0uNDg0IDMuMTc3LTEuMjY2IDEuNDc2LTEuMTk0IDIuNzEyLTMuMDczIDMuNjI1LTUuMDh6TTQxLjI5NCA4NC4wNTNsLS43MzguNjIxYTMuODc2IDMuODc2IDAgMDEtMi40MjMuODgzaC0yMC40OGExNy41ODUgMTcuNTg1IDAgMDEtMTEuMTg2LTMuOTk5YzEuNTI4LjE2NyAzLjg4NS43MDMgNy40NDctMi4xOTVsMTcuNzAxLTE1LjU3MmExLjk2NCAxLjk2NCAwIDAxMi40NjUgMGwxMi43NDEgMTAuNDc3IDQuNTI0LTMuNzJhMS45NjggMS45NjggMCAwMTIuNDY2IDBsMTMuOTI1IDExLjQ1YzEuNjggMS4yNzEgMy44NTUgMi43NzQgOC44NjkgMy41NTloLTkuMjY0YTMuOTM2IDMuOTM2IDAgMDEtMi4yNzQtLjc1OGwtLjE2Mi0uMTI1LS42ODgtLjU3MWExLjM3OSAxLjM3OSAwIDAwLS4xODItLjE4NWMtLjc3OS0uNjUyLTEwLjY0NS04LjgyNi0xMC42NDUtOC44MjZhMS4xNiAxLjE2IDAgMDAtMS40ODQuMDAzcy4wMjQuMDMtMTAuNDczIDguODIzYTEuMzcgMS4zNyAwIDAwLS4xMzkuMTM1em0yMzkuNTUtOS42NWM1LjYwNyAwIDEwLjIwMS0xLjkyMSAxMy43ODQtNS43NTVDMjk4LjIwOSA2NC44MiAzMDAgNjAuMjEyIDMwMCA1NC44MjRjMC01LjI1OS0xLjcwMi05LjU4LTUuMDkzLTEyLjk2Ni0zLjM5MS0zLjM4NS03Ljc5LTUuMDg1LTEzLjIwNC01LjA4NS01LjcwMSAwLTEwLjM2MyAxLjg1MS0xMy45OTQgNS41MzktMy42MzIgMy42OTEtNS40NDkgOC4xNjItNS40NDkgMTMuNDE1IDAgNS4yMDUgMS43MzQgOS42MTggNS4xOTUgMTMuMjM3IDMuNDY0IDMuNjIyIDcuOTI1IDUuNDM5IDEzLjM4OSA1LjQzOXptLTQ3LjQxMy0uNDE3YzMuMjQyIDAgNS41NDctMi4xODMgNS41NDctNS4zMyAwLTMuMDczLTIuMzgxLTUuMjYtNS41NDctNS4yNi0zLjMxOCAwLTUuNjkyIDIuMTkxLTUuNjkyIDUuMjYgMCAzLjE0NCAyLjM3NiA1LjMzIDUuNjkyIDUuMzN6bTExLjU0NC00Ljk4OGwuNzktLjgzNGMuOTM4LS45MTIgMS4yNC0xLjgzMyAxLjI0LTQuMzczVjQ4Ljc3NmMwLTIuMTk2LS4yOTgtMy4xNzYtMS4yMy00LjAxNWwtLjkyOC0uODMyYy0uOTEtLjgwMy0xLjIwOS0xLjMwMi0xLjIwOS0yLjEwNCAwLTEuMTQuODg0LTIuMDc1IDIuMzA2LTIuMzk5bDYuMzAzLTEuNTNjLjYwMy0uMTQ2IDEuMjgzLS4yODggMS44MS0uMjg4LjcyNSAwIDEuMzE5LjIzOCAxLjczNS42NTIuNDE3LjQxNS42NjIgMS4wMTEuNjYyIDEuNzU4djIzLjc3M2MwIDIuMzk3LjI5MSAzLjUxMiAxLjI5MiA0LjM1NGEuNDc4LjQ3OCAwIDAxLjA0NS4wNDVsLjcwNS44MjFjLjg4NS44NjEgMS4yNTIgMS40MzIgMS4yNTIgMi4yMTcgMCAxLjQwMS0xLjA1NiAyLjIwMi0yLjc1NCAyLjIwMmgtMTAuNjcyYy0xLjYxOCAwLTIuNjg0LS43OTYtMi42ODQtMi4yMDIgMC0uNzg5LjM2OC0xLjM2NSAxLjMzNy0yLjIzem0tNzEuMzM0LjAwMWwuNzg5LS44MzVjLjkzOS0uOTEyIDEuMjQxLTEuODMzIDEuMjQxLTQuMzczdi0zMS4zNWMwLTIuMTI2LS4yMjUtMy4xNy0xLjIyLTQuMDA4bC0uOTUzLS45MjJjLS44MjEtLjc5OC0xLjEyMS0xLjI5My0xLjEyMS0yLjA5MSAwLTEuMTQyLjg4OC0yLjA3MyAyLjIzMi0yLjM5OWw2LjIzMS0xLjUyOWMuNjA0LS4xNDYgMS4yODMtLjI4OSAxLjgxMS0uMjg5LjcyIDAgMS4zMjkuMjE3IDEuNzY0LjYyOC40MzYuNDEzLjcwNCAxLjAyNi43MDQgMS44NTJ2NDAuMTA4YzAgMi40MDMuMjk5IDMuNDU0IDEuMzA0IDQuMzYzbC44MDQuODUxYy44OTEuODY3IDEuMTg4IDEuNDM0IDEuMTg4IDIuMjIzIDAgLjU4Mi0uMTc4IDEuMDUxLS40OTQgMS40MDktLjQ0Ni41MDQtMS4xOTMuNzkzLTIuMTkuNzkzSDE3NS4wNmMtLjk5NiAwLTEuNzQ0LS4yODktMi4xOTEtLjc5My0uMzE1LS4zNTgtLjQ5Mi0uODI3LS40OTItMS40MDkgMC0uNzkuMjkzLTEuMzYyIDEuMjY0LTIuMjI5em0tMjkuMDU4LTE2LjE0NXYxMC43OThjMCAxLjYyNy4zMjIgMy4xMjkgMS42NjIgNC4zNjZsLjg2Ny44NDFjLjk3MS45NDIgMS4yNjYgMS41MDYgMS4yNjYgMi4zNjkgMCAxLjMxOS0xLjA1NyAyLjIwMi0yLjc1NSAyLjIwMmgtMTIuMDMyYy0xLjY5OCAwLTIuNzU1LS44ODMtMi43NTUtMi4yMDIgMC0xLjAyNC4zMDEtMS41MDkgMS4yNzEtMi4zNzRsLjg2NC0uODM5YzEuMDA1LS45MSAxLjY2MS0yLjE1MSAxLjY2MS00LjM2M1YzNC44MDVjMC0xLjc1OC0uMzg5LTMuMTk2LTEuNjYyLTQuMzY3bC0uODY4LS44NDFjLS44OTItLjg2Ni0xLjI2Ni0xLjQzNS0xLjI2Ni0yLjMgMC0xLjM5OCAxLjA2MS0yLjI3MSAyLjc1NS0yLjI3MWgzMi4yM2MxLjIzMSAwIDIuMzE0LjI3NCAzLjAwNS45NTIuNDgxLjQ3Mi43ODggMS4xMzcuODIzIDIuMDZsLjUwMiA3LjQ0Yy4wNS45My0uMjI1IDEuNzA2LS43NjEgMi4xODQtLjM3LjMyOS0uODY3LjUyNi0xLjQ5My41MjYtLjc4OSAwLTEuMzk0LS4yOTgtMS45MzQtLjgxMi0uNDg1LS40NjItLjkxNy0xLjExMS0xLjQwNS0xLjg3NS0xLjE3Ny0xLjg4MS0xLjcyNS0yLjU1OC0yLjk4LTMuNDM4LTEuNzQ2LTEuMjg4LTQuNDA3LTEuNzMxLTkuNDM3LTEuNzMxLTIuOTAzIDAtNC43MzUuMTI3LTUuODg5LjQyNC0uNzQ2LjE5My0xLjE3Ny40NDMtMS40MDcuODEtLjIzNy4zNzYtLjI2Mi44NTEtLjI2MiAxLjQzMXYxNC42Mmg3LjU1OGMxLjgwOCAwIDMuMDgtLjMyNyA0LjU1NC0yLjM0MWwuMDA4LS4wMTJjLjU5MS0uNzUyIDEuMDE5LTEuMzA2IDEuNDI2LTEuNjczLjQ3My0uNDI5LjkyOS0uNjMyIDEuNTMyLS42MzJhMi4yMTIgMi4yMTIgMCAwMTIuMTgyIDIuMjAzdjEwLjA3OWMwIDEuMzUtMS4wNTIgMi4yNzEtMi4xODIgMi4yNzEtLjU2MiAwLTEuMDE4LS4yLTEuNDkzLS42Mi0uNDA5LS4zNTktLjgzOC0uODk4LTEuMzk0LTEuNjE3LTEuNjEzLTIuMDg4LTIuNzUyLTIuNDIxLTQuNjMzLTIuNDIxaC03LjU1OHptMTI3LjctLjI1NWMwLTMuNjE2Ljc4OC02LjIxNSAyLjQyLTcuNzc4IDEuNjEzLTEuNTQzIDMuMzQ2LTIuMzI0IDUuMjA5LTIuMzI0IDIuNTYzIDAgNC44NzMgMS40MzUgNi45NTYgNC4yNTUgMi4xMjggMi44ODQgMy4xODEgNi43ODEgMy4xODEgMTEuNjg2IDAgMy42Mi0uNzkgNi4yNDMtMi40MjUgNy44NTEtMS42MTEgMS41ODYtMy4zNDMgMi4zOS01LjIwNSAyLjM5LTIuNTYzIDAtNC44NzEtMS40NDYtNi45NTUtNC4yODgtMi4xMjktMi45MDgtMy4xODEtNi44NDEtMy4xODEtMTEuNzkyek03MS43MjIgNTkuNzY4YTQuMjYxIDQuMjYxIDAgMDAtNC4xODMgNC4xODIgNC4yNjQgNC4yNjQgMCAwMDQuMTgzIDQuMTgxYzIuMjgxLS4wMzMgNC4xNDgtMS45IDQuMTgzLTQuMTgxLS4wMzMtMi4yODItMS45MDEtNC4xNS00LjE4My00LjE4MnpNNDQuNjg1IDQ3LjA5N2wtMS40MDktMS40LS44NTMtLjg4Mi0yLjE1Mi0yLjMxNi0uNTM3LS41ODgtMi42MTEtMy4wNTMtLjczOS0uOTE2LTIuMjg3LTIuOTc2LS4yNTQtLjM0My0xLjc1Ny0yLjU4OC0uNDgyLS43OC0xLjI2LTIuMTYyLS4zODQtLjcwNy0xLjA4OS0yLjMtLjIwNi0uNTI5LS42MjYtMS43NjEtLjI0MS0uODMxLS4xODUtLjc2OS0uMTU3LS44MzQtLjEyMy0uOTI3LS4wNDktLjU5Mi0uMDIxLTEuMDEuMDA0LS4yMTIuMDI5LS42MDUuMjE4LTIuMjAzLjA2OC0uMzg2LjQ5Ni0yLjIuMTE1LS4zNjguMzY4LTEuMDc0LjExOS0uMjc4LjU4Ni0xLjI4OS40MDYtLjc2Ny41NjctLjkzMy41NjQtLjgzMi40MDItLjUyOS40NjQtLjU1OC41MDktLjU2MS40MzctLjQzOSAxLjA2NC0uOTM2Ljc3Ny0uNjM2YS44MDQuODA0IDAgMDEuMDU4LS4wNDRsLjkyLS42MjIuNzMxLS40NjYgMS4zODgtLjczMWMuMDIxLS4wMTMuMDQ1LS4wMjMuMDY3LS4wMzNsMS45NjgtLjgxNy4xODItLjA2OSAxLjc1LS41MTIuNzM5LS4xNjUuOTk4LS4yMDEuNjYzLS4xMDFMNDQuOTM2LjE0bC42OTMtLjA2MSAxLjM3NS0uMDczLjUzOS0uMDA2IDEuMDIxLjAyMS4yNjUuMDE1IDEuNDc4LjEyMyAxLjk1Ni4yNzUuMjI2LjA0OCAxLjkzMi40ODEuNTY4LjE2OS42My4yMTguNzY4LjI5LjYwNy4yNTguODkyLjQyLjU2Mi4yODkgMS4wMS41OTMuMzc3LjIzMiAxLjM3NyAxLjAwNS4zOTUuMzQzLjk2MS44NzUuMDQ3LjA0Ny44MTUuODc0LjI4LjMxNi45NTYgMS4yNy4xOTUuMzAzLjc1OSAxLjI4Mi4yMjguNDM5LjQyNy45NTYuNDQ3IDEuMTE1LjE1OS40NjcuNDYxIDEuNjhjLjAwOS4wMy4wMTYuMDYuMDIxLjA5bC4zNTkgMi4yNzIuMDcyLjc4OC4wNTggMS4wMTUuMDA2LjIxMS0uMDIyIDEuMTMzLS4wMTkuMy0uMDYxLjQ5LS4zMTYgMS44MS0uMDc3LjMzMS0uNzI5IDIuMjczYS41MDIuNTAyIDAgMDEtLjAyMy4wNjVsLS42NzYgMS42MzgtLjAyNi4wNTUtLjg4NCAxLjc2NS0xLjU0NSAyLjY5MS0uODIxIDEuMjU1LS45ODQgMS40NzMtLjY5NC45NTEtMS4zNzUgMS44MzgtLjkzNyAxLjE3Ny0xLjM4MyAxLjY4NS0uOTcgMS4xMzQtMS40OTEgMS42NzgtLjk1OSAxLjA1My0yLjc3MyAyLjg5Ni0uNjQ2LjYzNy4zODEuMzI1YTE2Ljk2MiAxNi45NjIgMCAwMTEuNTE2IDEuNTg3Yy4xNDEuMTcxLjI3OC4zNDYuNDEuNTI1LjI4OS4zOS41NDguODAxLjc3NiAxLjIyOS4xMjMuMjMyLjIzMy40NzIuMzMuNzE2LjIyMi41NjEuMzcxIDEuMTU0LjQyNyAxLjc1M2wuMDI1LjQ1NWE2LjU3IDYuNTcgMCAwMS0uNDY5IDIuNTQ3IDYuMzA3IDYuMzA3IDAgMDEtMS45ODEgMi42MzQgNi42MDMgNi42MDMgMCAwMS0uOTgzLjYzNiA3LjAzIDcuMDMgMCAwMS0yLjU3Mi43NjRoLS4wMDVhNy40MDEgNy40MDEgMCAwMS0zLjExOS0uMzU1IDYuNzg4IDYuNzg4IDAgMDEtMS4zMjEtLjYyNCA2LjQwNSA2LjQwNSAwIDAxLTEuMzI2LTEuMDggNi4zMTIgNi4zMTIgMCAwMS0xLjI1OS0xLjk3MyA2LjU1NSA2LjU1NSAwIDAxLS40NjYtMi4yNjNsLjAwOC0uNTVhNi4zMjUgNi4zMjUgMCAwMS40MDktMS44NjFjLjA4OS0uMjM0LjE5LS40NjIuMzAyLS42ODQuMjItLjQzLjQ3My0uODQxLjc1NC0xLjIzMy4xODQtLjI1Ni4zOC0uNTA1LjU4NC0uNzQ2LjQyNS0uNDk4Ljg3OS0uOTcyIDEuMzU4LTEuNDE4bC4xNzYtLjE1OS4yODMtLjIzNnptMjA2LjUwOC0xNC4wNTNjMy4yNDkgMCA1LjU0Ny0xLjgyOSA1LjU0Ny00Ljk4MyAwLTMuMDc5LTIuMjk2LTQuOTEyLTUuNTQ3LTQuOTEyLTMuMzI3IDAtNS42MjEgMS44MzQtNS42MjEgNC45MTJzMi4yOTUgNC45ODMgNS42MjEgNC45ODN6Ii8+PHBhdGggZmlsbD0iI2ZmZiIgZD0iTTQwLjU1NiA4NC42NzRsMTEuMzUtOS41NzlhMS4xNiAxLjE2IDAgMDExLjQ4NC0uMDAzbDExLjUxNSA5LjU4MmMuNy41NyAxLjU3NS44ODIgMi40NzguODgzSDM4LjA5MmMuODk5IDAgMS43Ny0uMzEyIDIuNDY0LS44ODN6TTQ3LjYyIDUwLjQ4bC4xMTIuMDMyYy4wMzYuMDE4LjA2Ni4wNDMuMDk4LjA2NWwuMDkzLjA4MmMuMjI5LjIxMS40NTIuNDMyLjY2Ni42Ni4xNTEuMTYxLjI5OC4zMjYuNDM5LjQ5OC4xOC4yMTYuMzQ4LjQ0My41MDEuNjguMDY2LjEwNC4xMjcuMjA5LjE4NS4zMi4wNS4wOTUuMDk1LjE5My4xMzQuMjkzLjA3LjE3My4xMjIuMzU2LjEzOC41NDNsLS4wMDMuMzVhMiAyIDAgMDEtLjk0NyAxLjU1NmMtLjM1LjIxMS0uNzQ0LjM0MS0xLjE1MS4zNzlsLS40MzMuMDEyLS4zNjQtLjAzMmEyLjc4NSAyLjc4NSAwIDAxLS41MDItLjEyMiAyLjM4OCAyLjM4OCAwIDAxLS40NzUtLjIyMmwtLjI4NS0uMjA5YTEuOTU3IDEuOTU3IDAgMDEtLjY0OS0xLjExMiAyLjcxMyAyLjcxMyAwIDAxLS4wMzMtLjIybC0uMDExLS4zMzRjLjAwNi0uMDkuMDItLjE3OS4wMzktLjI2OC4wNS0uMTk1LjEyMi0uMzg0LjIxMy0uNTYzLjExNi0uMjI2LjI1LS40NDIuMzk4LS42NDhhMTEuNzAzIDExLjcwMyAwIDAxMS4zNzEtMS41MTdsLjE0LS4xMjZjLjA5Ny0uMDY1LjA5OC0uMDY1LjIwOS0uMDk3aC4xMTd6bS0uNzE3LTQ2LjUxOGwuMDQ2LS4wMDN2MzkuMDA2bC0uMDk4LS4xNzlhMTA4Ljg5MyAxMDguODkzIDAgMDEtMy41ODMtNy4yNjIgNzcuNzI3IDc3LjcyNyAwIDAxLTIuNDMyLTYuMDg4IDQ4IDQ4IDAgMDEtMS40NjUtNS4wMTNjLS4zMDktMS4zNDctLjU0NS0yLjcxNC0uNjQyLTQuMDk1YTE5Ljc0IDE5Ljc0IDAgMDEtLjAzNC0xLjc3MWMuMDA5LS41MTQuMDMtMS4wMjcuMDYzLTEuNTQuMDUxLS44MDguMTMzLTEuNjEzLjI1MS0yLjQxMmEyNC4zIDI0LjMgMCAwMS4zNTMtMS44NzZjLjExNC0uNDkzLjI0Ni0uOTgxLjM5Ny0xLjQ2Mi4yMTctLjY5NS40NzgtMS4zNzQuNzgyLTIuMDM3LjExMS0uMjM5LjIzLS40NzYuMzU1LS43MDkuNzUzLTEuMzk1IDEuNzc1LTIuNjggMy4xMTMtMy41MzlhNi41MDMgNi41MDMgMCAwMTIuODk0LTEuMDJ6bTUuMDU5LjA5OWwyLjYyNC43NDhhMTYuMDcgMTYuMDcgMCAwMTMuNDYgMS43NjMgMTMuODYyIDEzLjg2MiAwIDAxMy43MjEgMy43MTIgMTQuMDM2IDE0LjAzNiAwIDAxMS40NDIgMi43NzkgMTYuMjk0IDE2LjI5NCAwIDAxMS4wMDMgNC40OThjLjAzNS40MDMuMDU0LjgwOC4wNjIgMS4yMTIuMDEuMzc1LjAwNy43NTItLjAyMyAxLjEyN2ExMi42NiAxMi42NiAwIDAxLS40NzEgMi40NzljLS4xOTMuNjYyLS40MiAxLjMxMy0uNjggMS45NTFhMjguMzMgMjguMzMgMCAwMS0xLjA4IDIuMzMzYy0uODc1IDEuNjg5LTEuODgyIDMuMzA1LTIuOTU5IDQuODY4YTc1LjY5NyA3NS42OTcgMCAwMS00LjI2NyA1LjU2OCAxMDUuNzI0IDEwNS43MjQgMCAwMS01LjExOCA1LjY3MyAxMDguODk4IDEwOC44OTggMCAwMDMuMzY5LTYuODkzIDg1Ljg0IDg1Ljg0IDAgMDAxLjYzOC0zLjk0NyA2Mi42MjIgNjIuNjIyIDAgMDAxLjUyNi00LjQzOWMuMzM2LTEuMTIyLjYzMi0yLjI1Ny44NzctMy40MDQuMjA5LS45ODMuMzc0LTEuOTc3LjQ3Ni0yLjk3N2ExOS42NiAxOS42NiAwIDAwLjA5Ni0yLjUwOSAzNS43MTggMzUuNzE4IDAgMDAtLjA1Ny0xLjUzNWMtLjEyMy0yLjA1OC0uNDM1LTQuMTA5LTEuMDM1LTYuMDgyYTE3Ljg3IDE3Ljg3IDAgMDAtLjgyOC0yLjE5MmMtLjc2OC0xLjY3Mi0xLjgzOS0zLjIzNi0zLjI5LTQuMzc4bC0uNDg2LS4zNTV6Ii8+PC9nPjxkZWZzPjxyYWRpYWxHcmFkaWVudCBncmFkaWVudFRyYW5zZm9ybT0idHJhbnNsYXRlKDUwLjUxIDQ4LjMzMikgc2NhbGUoNjguOTEyNikiIGdyYWRpZW50VW5pdHM9InVzZXJTcGFjZU9uVXNlIiByPSIxIiBjeT0iMCIgY3g9IjAiIGlkPSJfUmFkaWFsMSI+PHN0b3Agc3RvcC1jb2xvcj0iI2JhN2JmMCIgb2Zmc2V0PSIwIi8+PHN0b3Agc3RvcC1jb2xvcj0iIzk5NmJlYyIgb2Zmc2V0PSIuNDUiLz48c3RvcCBzdG9wLWNvbG9yPSIjNTA0NmU0IiBvZmZzZXQ9IjEiLz48L3JhZGlhbEdyYWRpZW50PjxyYWRpYWxHcmFkaWVudCBncmFkaWVudFRyYW5zZm9ybT0idHJhbnNsYXRlKDUwLjUwNCA0OC4zMjcpIHNjYWxlKDY4LjkwNTYpIiBncmFkaWVudFVuaXRzPSJ1c2VyU3BhY2VPblVzZSIgcj0iMSIgY3k9IjAiIGN4PSIwIiBpZD0iX1JhZGlhbDIiPjxzdG9wIHN0b3AtY29sb3I9IiNiYTdiZjAiIG9mZnNldD0iMCIvPjxzdG9wIHN0b3AtY29sb3I9IiM5OTZiZWMiIG9mZnNldD0iLjQ1Ii8+PHN0b3Agc3RvcC1jb2xvcj0iIzUwNDZlNCIgb2Zmc2V0PSIxIi8+PC9yYWRpYWxHcmFkaWVudD48L2RlZnM+PC9zdmc+;" vertex="1" parent="1">
          <mxGeometry x="-220" y="291.62" width="70" height="20.77" as="geometry" />
        </mxCell>
        <mxCell id="rYg8O5jLsf1z3TzQaryV-2" value="" style="shape=image;verticalLabelPosition=bottom;labelBackgroundColor=default;verticalAlign=top;aspect=fixed;imageAspect=0;image=data:image/svg+xml,PHN2ZyB4bWxucz0iaHR0cDovL3d3dy53My5vcmcvMjAwMC9zdmciIGhlaWdodD0iOTYiIHdpZHRoPSI5OCIgdmlld0JveD0iMCAwIDk4IDk2Ij48cGF0aCBmaWxsPSIjMjQyOTJmIiBkPSJNNDguODU0IDBDMjEuODM5IDAgMCAyMiAwIDQ5LjIxN2MwIDIxLjc1NiAxMy45OTMgNDAuMTcyIDMzLjQwNSA0Ni42OSAyLjQyNy40OSAzLjMxNi0xLjA1OSAzLjMxNi0yLjM2MiAwLTEuMTQxLS4wOC01LjA1Mi0uMDgtOS4xMjctMTMuNTkgMi45MzQtMTYuNDItNS44NjctMTYuNDItNS44NjctMi4xODQtNS43MDQtNS40Mi03LjE3LTUuNDItNy4xNy00LjQ0OC0zLjAxNS4zMjQtMy4wMTUuMzI0LTMuMDE1IDQuOTM0LjMyNiA3LjUyMyA1LjA1MiA3LjUyMyA1LjA1MiA0LjM2NyA3LjQ5NiAxMS40MDQgNS4zNzggMTQuMjM1IDQuMDc0LjQwNC0zLjE3OCAxLjY5OS01LjM3OCAzLjA3NC02LjYtMTAuODM5LTEuMTQxLTIyLjI0My01LjM3OC0yMi4yNDMtMjQuMjgzIDAtNS4zNzggMS45NC05Ljc3OCA1LjAxNC0xMy4yLS40ODUtMS4yMjItMi4xODQtNi4yNzUuNDg2LTEzLjAzOCAwIDAgNC4xMjUtMS4zMDQgMTMuNDI2IDUuMDUyYTQ2Ljk3IDQ2Ljk3IDAgMCAxIDEyLjIxNC0xLjYzYzQuMTI1IDAgOC4zMy41NzEgMTIuMjEzIDEuNjMgOS4zMDItNi4zNTYgMTMuNDI3LTUuMDUyIDEzLjQyNy01LjA1MiAyLjY3IDYuNzYzLjk3IDExLjgxNi40ODUgMTMuMDM4IDMuMTU1IDMuNDIyIDUuMDE1IDcuODIyIDUuMDE1IDEzLjIgMCAxOC45MDUtMTEuNDA0IDIzLjA2LTIyLjMyNCAyNC4yODMgMS43OCAxLjU0OCAzLjMxNiA0LjQ4MSAzLjMxNiA5LjEyNiAwIDYuNi0uMDggMTEuODk3LS4wOCAxMy41MjYgMCAxLjMwNC44OSAyLjg1MyAzLjMxNiAyLjM2NCAxOS40MTItNi41MiAzMy40MDUtMjQuOTM1IDMzLjQwNS00Ni42OTFDOTcuNzA3IDIyIDc1Ljc4OCAwIDQ4Ljg1NCAweiIgY2xpcC1ydWxlPSJldmVub2RkIiBmaWxsLXJ1bGU9ImV2ZW5vZGQiLz48L3N2Zz4=;" vertex="1" parent="1">
          <mxGeometry x="-590" y="280" width="36.75" height="36" as="geometry" />
        </mxCell>
      </root>
    </mxGraphModel>
  </diagram>
</mxfile>
